<svg xmlns="http://www.w3.org/2000/svg" width="25" height="25" viewBox="0 0 25 25"
                                    class="svg-icon">
                                    <path fill="#6D6D6D" fill-rule="evenodd"
                                        d="M19.52 11.984c.147 0 .267.1.267.225v7.536c0 .125-.12.225-.268.225h-2.958c-.147 0-.267-.1-.267-.225v-7.536c0-.124.12-.225.267-.225h2.958zm-5.613.083c.148 0 .267.12.267.268v7.368c0 .147-.12.267-.267.267H10.95a.268.268 0 0 1-.267-.267v-7.368c0-.148.12-.268.267-.268h2.958zM8.694 15.97c.169 0 .306.101.306.226v3.549c0 .124-.137.225-.306.225H5.306c-.169 0-.306-.1-.306-.225v-3.55c0-.124.137-.225.306-.225h3.388zm11.7-10.399c.266.04.446.268.406.512l-.57 3.436c-.036.223-.246.383-.484.383a.5.5 0 0 1-.075-.006c-.268-.037-.452-.266-.412-.512l.364-2.193-4.572 2.882a.707.707 0 0 1-.688.023l-2.857-1.514-6.742 4.126a.519.519 0 0 1-.272.076.504.504 0 0 1-.409-.2.427.427 0 0 1 .136-.624l6.917-4.234a.712.712 0 0 1 .682-.018l2.853 1.512 4.607-2.905-2.785-.42c-.268-.041-.45-.273-.405-.518.044-.246.3-.41.564-.371l3.742.565z" />
                                </svg>