<svg xmlns="http://www.w3.org/2000/svg" width="25" height="25" viewBox="0 0 25 25"
                                    class="svg-icon">
                                    <g fill="#6D6D6D" fill-rule="nonzero">
                                        <path
                                            d="M11.676 22.525c-3.329 0-6.031-2.649-6.031-5.922 0-3.273 2.702-5.922 6.03-5.922 3.33 0 6.032 2.649 6.032 5.922 0 3.273-2.702 5.922-6.031 5.922zm0-1.05c2.753 0 4.981-2.184 4.981-4.872 0-2.689-2.228-4.872-4.981-4.872-2.754 0-4.981 2.183-4.981 4.872 0 2.688 2.227 4.872 4.98 4.872z" />
                                        <path
                                            d="M11.749 16.087a.525.525 0 1 1 0 1.05c-1.295 0-2.403-.766-2.403-1.822 0-1.057 1.108-1.823 2.403-1.823.933 0 1.783.397 2.18 1.045a.525.525 0 1 1-.897.548c-.188-.308-.69-.543-1.283-.543-.78 0-1.353.396-1.353.773 0 .376.573.772 1.353.772z" />
                                        <path
                                            d="M11.749 17.137a.525.525 0 0 1 0-1.05c1.294 0 2.403.766 2.403 1.822 0 1.057-1.108 1.823-2.403 1.823-.933 0-1.783-.397-2.18-1.045a.525.525 0 0 1 .896-.548c.189.308.691.543 1.284.543.78 0 1.353-.396 1.353-.773 0-.376-.574-.772-1.353-.772zM11.224 12.751a.525.525 0 0 1 1.05 0v1.267a.525.525 0 1 1-1.05 0V12.75z" />
                                        <path
                                            d="M11.224 19.207a.525.525 0 0 1 1.05 0v1.266a.525.525 0 1 1-1.05 0v-1.266z" />
                                        <g>
                                            <path
                                                d="M5.81 7.72a.525.525 0 0 1 0-1.05h3.365a.525.525 0 0 1 0 1.05H5.81zM5.81 9.462a.525.525 0 0 1 0-1.05h3.365a.525.525 0 1 1 0 1.05H5.81z" />
                                            <path
                                                d="M6.967 7.196a.525.525 0 0 1 1.05 0v3.469a.525.525 0 1 1-1.05 0v-3.47z" />
                                            <path
                                                d="M7.926 7.491a.525.525 0 1 1-.868-.59l1.346-1.98a.525.525 0 1 1 .869.59l-1.347 1.98z" />
                                            <path
                                                d="M7.926 6.9a.525.525 0 1 1-.868.591l-1.346-1.98a.525.525 0 0 1 .868-.59l1.346 1.98z" />
                                        </g>
                                        <g>
                                            <path
                                                d="M18.852 8.315a.525.525 0 1 1-1.05 0c0-.269-.258-.577-.686-.577-.388 0-.653.333-.53.815.319 1.251-.044 2.667-.677 3.556a.525.525 0 0 1-.855-.61c.466-.653.75-1.762.514-2.686-.293-1.151.48-2.125 1.548-2.125 1.053 0 1.736.816 1.736 1.627zm-2.963 4.452a.525.525 0 1 1-.158-1.038c1.15-.176 3.006-.122 3.577.158a.525.525 0 1 1-.462.943c-.327-.16-2.003-.21-2.957-.063z" />
                                            <path
                                                d="M14.952 10.254a.525.525 0 1 1 0-1.05h2.625a.525.525 0 1 1 0 1.05h-2.625z" />
                                        </g>
                                        <path
                                            d="M11.114 11.645a.525.525 0 1 1-.701-.781 4.17 4.17 0 0 0 1.4-3.114c0-2.331-1.932-4.225-4.32-4.225-2.39 0-4.322 1.894-4.322 4.225 0 2.331 1.932 4.225 4.321 4.225.193 0 .384-.012.573-.037a.525.525 0 1 1 .134 1.042c-.233.03-.469.045-.707.045-2.964 0-5.37-2.36-5.37-5.275 0-2.916 2.406-5.275 5.37-5.275s5.371 2.36 5.371 5.275a5.22 5.22 0 0 1-1.749 3.895z" />
                                        <path
                                            d="M16.942 16.192v-1.05c2.835 0 5.13-2.249 5.13-5.017 0-2.768-2.295-5.017-5.13-5.017-1.7 0-3.257.814-4.21 2.152l-.855-.61a6.205 6.205 0 0 1 5.065-2.592c3.41 0 6.18 2.714 6.18 6.067s-2.77 6.067-6.18 6.067z" />
                                    </g>
                                </svg>