 <svg version="1.0" id="Layer_1" xmlns="http://www.w3.org/2000/svg" xmlns:xlink="http://www.w3.org/1999/xlink" x="0px"
                                y="0px" width="25px" height="25px" viewBox="499.5 499.5 25 25" enable-background="new 499.5 499.5 25 25"
                                xml:space="preserve" class="svg-icon">
                                <title></title>
                                <g id="icomoon-ignore">
                                </g>
                                <path fill="#6D6D6D" d="M504.293,513.836c0.324-3.997,3.66-7.149,7.71-7.149c3.917,0,7.239,3.149,7.688,7.149H504.293
                            	L504.293,513.836z M512.92,505.463v-1.114c0-0.468-0.382-0.849-0.845-0.849c-0.466,0.002-0.844,0.381-0.844,0.848c0,0,0,0,0,0.001v0
                            	v1.098c-4.604,0.396-8.23,4.289-8.23,9.021C503,514.472,503,514.474,503,514.478c0,0.346,0.283,0.629,0.631,0.629
                            	c0.001,0,0.002,0,0.003,0h7.624v3.48c0,0,0,0,0,0.002c0,0.35-0.283,0.635-0.633,0.637l0,0c-0.001,0-0.001,0-0.002,0
                            	c-0.344,0-0.623-0.274-0.631-0.616v-0.002c-0.015-0.342-0.297-0.618-0.642-0.618c-0.005,0-0.009,0-0.014,0h0.001
                            	c-0.34,0.013-0.612,0.294-0.612,0.637c0,0.009,0,0.017,0,0.026v-0.002c0.026,1.024,0.863,1.848,1.896,1.848c0.002,0,0.004,0,0.004,0
                            	l0,0c1.046,0,1.897-0.858,1.897-1.911v-3.48h7.846c0.35-0.002,0.633-0.286,0.633-0.638c0-0.004,0-0.014,0-0.018l0,0
                            	C520.854,509.788,517.314,505.938,512.92,505.463L512.92,505.463z" />
                            </svg>