
                                <svg xmlns="http://www.w3.org/2000/svg" width="25" height="25" viewBox="0 0 25 25"
                                    class="svg-icon">
                                    <g fill="#6D6D6D" fill-rule="evenodd">
                                        <path d="M17.5 13a1.5 1.5 0 1 0 0 3 1.5 1.5 0 0 0 0-3" />
                                        <path
                                            d="M20.245 17.98H4.755a.72.72 0 0 1-.722-.715v-6.21h16.934v6.21a.72.72 0 0 1-.722.714M4.755 7.02h15.49a.72.72 0 0 1 .722.715v1.154H4.033V7.735a.72.72 0 0 1 .722-.715M20.245 6H4.755C3.788 6 3 6.778 3 7.735v9.53C3 18.222 3.788 19 4.755 19h15.49c.967 0 1.755-.778 1.755-1.735v-9.53C22 6.778 21.212 6 20.245 6" />
                                    </g>
                                </svg>