<svg version="1.0" id="Layer_1" xmlns="http://www.w3.org/2000/svg" xmlns:xlink="http://www.w3.org/1999/xlink" x="0px"
                                y="0px" width="25px" height="25px" viewBox="499.5 499.5 25 25" enable-background="new 499.5 499.5 25 25"
                                xml:space="preserve" class="svg-icon">
                                <title></title>
                                <g id="icomoon-ignore">
                                </g>
                                <path fill="#6D6D6D" d="M512,519.446c-6.454,0-6.955-3.594-6.955-4.697c0-2.798,2.141-5.051,3.99-6.478
                            	c0.495,0.124,1.602,0.358,2.951,0.358c0.866,0,1.834-0.103,2.804-0.387c1.946,1.512,4.166,3.824,4.166,6.505
                            	C518.956,515.853,518.454,519.446,512,519.446L512,519.446z M508.845,504.554h6.038c0.013,0,0.021,0.002,0.027,0.004l-1.074,2.051
                            	c-1.7,0.384-3.378,0.112-4.116-0.051l-0.912-1.99C508.808,504.567,508.816,504.554,508.845,504.554L508.845,504.554z
                            	 M515.593,507.567c0.023-0.071,0.034-0.155,0.034-0.241c0-0.102-0.018-0.198-0.049-0.29l0.003,0.006
                            	c-0.089-0.249-0.274-0.444-0.51-0.544l-0.003-0.002l0.783-1.499c0.068-0.128,0.109-0.283,0.109-0.446
                            	c0-0.191-0.057-0.369-0.154-0.519l0.002,0.003c-0.194-0.299-0.531-0.494-0.91-0.494c-0.006,0-0.013,0-0.017,0h-6.038
                            	c-0.372,0-0.715,0.176-0.914,0.47c-0.104,0.151-0.166,0.337-0.166,0.539c0,0.144,0.032,0.281,0.09,0.404l-0.003-0.005l0.723,1.59
                            	c-0.202,0.111-0.355,0.291-0.429,0.505l-0.002,0.006c-0.027,0.081-0.043,0.173-0.043,0.27c0,0.119,0.023,0.231,0.067,0.335
                            	l-0.002-0.005c-1.978,1.573-4.165,4.013-4.165,7.098c0,3.523,3.065,5.711,7.998,5.711s8.002-2.188,8.002-5.711
                            	C520,511.739,517.68,509.224,515.593,507.567L515.593,507.567z" />
                                <path fill="#6D6D6D" d="M513.461,516.444c-0.142,0.102-0.273,0.158-0.487,0.2V514.9c0.312,0.081,0.43,0.127,0.531,0.195
                            	c0.206,0.147,0.3,0.342,0.3,0.617C513.805,516.028,513.684,516.289,513.461,516.444L513.461,516.444z M511.978,513.549
                            	c-0.103-0.025-0.19-0.057-0.273-0.095l0.011,0.005c-0.326-0.152-0.466-0.343-0.466-0.646c0-0.242,0.115-0.477,0.303-0.613
                            	c0.12-0.088,0.265-0.151,0.421-0.18h0.005V513.549L511.978,513.549z M514.293,514.246c-0.301-0.211-0.635-0.343-1.319-0.503v-1.708
                            	c0.145,0.04,0.271,0.112,0.376,0.211h-0.001c0.083,0.073,0.149,0.146,0.205,0.254c0.102,0.194,0.3,0.321,0.532,0.321
                            	c0.04,0,0.078-0.003,0.118-0.012h-0.005l0.02-0.004c0.277-0.042,0.49-0.28,0.49-0.566c0-0.104-0.029-0.203-0.077-0.288l0.001,0.004
                            	c-0.1-0.165-0.219-0.306-0.353-0.427l-0.002,0c-0.35-0.329-0.697-0.486-1.303-0.573v-0.184c-0.005-0.187-0.156-0.336-0.343-0.336
                            	c-0.003,0-0.006,0-0.01,0h-0.278c-0.002,0-0.005,0-0.006,0c-0.187,0-0.34,0.149-0.343,0.336v0.172l-0.019,0.003
                            	c-0.49,0.068-0.771,0.165-1.075,0.358c-0.511,0.317-0.847,0.875-0.847,1.512c0,0.006,0.001,0.016,0.001,0.022v-0.001
                            	c0,0.608,0.291,1.144,0.78,1.438c0.321,0.194,0.587,0.297,1.141,0.422v1.945c-0.221-0.031-0.412-0.133-0.559-0.279l0,0
                            	c-0.097-0.091-0.172-0.207-0.214-0.337l-0.003-0.003c-0.089-0.269-0.386-0.421-0.675-0.383c-0.289,0.037-0.513,0.28-0.513,0.577
                            	c0,0.073,0.013,0.145,0.038,0.21l-0.001-0.005c0.108,0.28,0.257,0.494,0.467,0.697c0.365,0.337,0.764,0.499,1.459,0.585v0.273
                            	c0,0.265,0.222,0.477,0.499,0.477c0.001,0,0.005,0,0.01,0c0.266,0,0.481-0.212,0.487-0.477v-0.266
                            	c0.55-0.063,0.845-0.155,1.168-0.354c0.579-0.353,0.883-0.927,0.883-1.65C515.025,515.065,514.786,514.587,514.293,514.246
                            	L514.293,514.246z" />
                            </svg>