<svg xmlns="http://www.w3.org/2000/svg" xmlns:xlink="http://www.w3.org/1999/xlink" width="680" height="481" viewBox="0 0 680 481">
    <defs>
        <path id="prefix__a" d="M16.292.505C7.53.505.426 7.608.426 16.37V274.95h435.769V16.37c0-8.762-7.104-15.865-15.866-15.865H16.292z"/>
        <path id="prefix__d" d="M0 414.177L599.411 414.177 599.411 0.539 0 0.539z"/>
        <path id="prefix__f" d="M.027 3.548s7.09 17.832 16.347 24.149c1.926 1.315 4.318 1.758 6.602 1.289l6.652.046 4.63-.643s.369 6.086 1.664 17.39l.403 3.498.461 3.922c2.627 22.172 6.425 50.727 9.067 55.712 8.122 15.319 30.58 12.79 30.58 12.79S59.274 48.216 60.89 31.489c1.566-16.207-1.65-22.41-4.837-26.281 0 0-11.456 1.107-17.557 6.916l-16.06 4.98L4.175.227.028 3.548z"/>
        <path id="prefix__i" d="M2.39 1.735c.87 4.29-.457 7.957-1.71 12.915 6.043 1.967 15.745 0 15.745 0L11.242.79l-8.852.945z"/>
        <path id="prefix__l" d="M.549.412S8.662 61.04 9.835 65.684c1.173 4.645 2.956 8.518 4.402 10.25 3.268 3.91 7.529 5.894 11.078 7.215 4.192 1.56 14.987 2.061 14.987 2.061l.852 3.296s-6.818.713-12.428-.352c-6.03-1.145-11.77-2.87-17.045-9.268-3.073-3.728-5.45-10.471-6.925-18.855-1.407-8.004-3.349-46.635-3.349-46.635L.55.412z"/>
        <linearGradient id="prefix__b" x1="50%" x2="50%" y1="0%" y2="100%">
            <stop offset="0%" stop-color="#F9F9F9"/>
            <stop offset="100%" stop-color="#E6E6E6"/>
        </linearGradient>
        <linearGradient id="prefix__g" x1="42.892%" x2="67.423%" y1="-6.072%" y2="101.21%">
            <stop offset="0%" stop-color="#A7D3B3"/>
            <stop offset="100%" stop-color="#72AF90"/>
        </linearGradient>
        <linearGradient id="prefix__j" x1="50%" x2="50%" y1=".296%" y2="100%">
            <stop offset="0%" stop-color="#FFE0CE"/>
            <stop offset="100%" stop-color="#FFB7AF"/>
        </linearGradient>
        <linearGradient id="prefix__m" x1="-.001%" x2="100%" y1="50%" y2="50%">
            <stop offset="0%" stop-color="#648997"/>
            <stop offset="100%" stop-color="#82A7A5"/>
        </linearGradient>
    </defs>
    <g fill="none" fill-rule="evenodd">
        <g>
            <path fill="#91C4C2" d="M45.527 89.785V25.8L30.95 33.311c-1.488 1.885-.688 13.473-.688 13.473s-7.107-.204-11.574-7.746c0 0-16.16 4.339-18.4 19.944-1.11 7.72 1.797 15.472 7.38 20.92 9.021 8.8 27.47 25.82 42.158 33.02V89.784h-4.299z" transform="translate(56.998 28.002) translate(41.76 .313)"/>
            <path fill="#FFF" d="M40.179 86.633c-.103 0-.206-.037-.288-.112L18.379 66.816c-.173-.158-.185-.428-.025-.602.158-.173.427-.186.601-.026l21.512 19.704c.174.159.185.43.026.603-.084.091-.2.138-.314.138" transform="translate(56.998 28.002) translate(41.76 .313)"/>
            <path fill="#FFB7B0" d="M39.006 8.475s.61 2.486.55 5.227c-.038 1.878.196 3.755.821 5.526.301.853.612 1.633.848 1.988.658.986.165 3.123-1.808 3.37 0 0 2.137 10.52-3.78 10.438 0 0-2.549-.082-4.357-.904L30.21 47.272s-10.357-2.302-11.754-7.48c0 0 3.534-10.85 1.972-16.439 0 0-6.164-2.302-3.863-5.508 2.302-3.205 6.083-.246 6.083-.246s.668-5.635 3.874-5.364c3.206.271 11.497 1.747 12.483-3.76" transform="translate(56.998 28.002) translate(41.76 .313)"/>
            <path fill="#995F30" d="M24.013.944C19.19 1.958 15.31 5.565 12.784 12.095c0 0-3.826 1.816-3.99 5.268-.165 3.453.294 12.072 12.007 10.51 0 0 .368-2.712-.372-4.52 0 0-3.322-.854-2.314-3.978 1.008-3.123 4.533-1.776 4.533-1.776s1.22-3.57 2.852-4.397c2.295-1.165 7.636.634 9.897-.744 0 0 2.409.384 4.118-.443 1.71-.828 2.533-5.86 1.053-7.339-.542-.542-1.857-1.26-3.307-1.954C33.138.75 28.485.002 24.013.944" transform="translate(56.998 28.002) translate(41.76 .313)"/>
            <path fill="#625E7A" d="M37.234 18.37c0 .555-.257 1.006-.576 1.006-.318 0-.575-.45-.575-1.006s.257-1.007.575-1.007c.319 0 .576.451.576 1.007M39.758 29.88c-2.582 0-3.2-1.697-3.226-1.77-.046-.133.025-.279.158-.325.132-.048.278.024.325.157.023.063.545 1.427 2.743 1.427.141 0 .255.115.255.256 0 .142-.114.256-.255.256M34.126 16.752c-.035 0-.07-.007-.103-.021-.129-.057-.187-.207-.13-.336.006-.016.763-1.656 2.902-1.459.141.014.244.138.231.279-.013.14-.14.25-.278.23-1.771-.165-2.364 1.102-2.388 1.156-.042.096-.136.151-.234.151" transform="translate(56.998 28.002) translate(41.76 .313)"/>
            <path fill="#83E5EA" d="M22.909 44.5l22.455 27.654V57.42L30.793 40.108s.149 6.11-7.884 4.393" transform="translate(56.998 28.002) translate(41.76 .313)"/>
            <path fill="#FFF" d="M22.07 62.263c-.137 0-.27-.065-.353-.187-.132-.194-.082-.46.112-.592l6.642-4.53c.195-.131.46-.082.592.113.133.194.083.459-.111.592l-6.643 4.53c-.073.05-.157.074-.24.074" transform="translate(56.998 28.002) translate(41.76 .313)"/>
            <path fill="#B2B2B2" d="M463.757 324.287H63.203c-9.724 0-17.608-7.883-17.608-17.607V21.52c0-9.724 7.884-17.606 17.608-17.606h400.554c9.724 0 17.607 7.882 17.607 17.606v285.16c0 9.724-7.883 17.607-17.607 17.607" transform="translate(56.998 28.002) translate(41.76 .313)"/>
        </g>
        <g transform="translate(56.998 28.002) translate(86.93 3.722)">
            <mask id="prefix__c" fill="#fff">
                <use xlink:href="#prefix__a"/>
            </mask>
            <path fill="url(#prefix__b)" d="M16.292.505C7.53.505.426 7.608.426 16.37V274.95h435.769V16.37c0-8.762-7.104-15.865-15.866-15.865H16.292z" mask="url(#prefix__c)"/>
        </g>
        <g transform="translate(56.998 28.002) translate(0 .313)">
            <path stroke="#BAAAB3" stroke-width="1.057" d="M87.355 278.359V19.779c0-8.762 7.104-15.866 15.866-15.866h404.038c8.762 0 15.865 7.104 15.865 15.865V278.36"/>
            <mask id="prefix__e" fill="#fff">
                <use xlink:href="#prefix__d"/>
            </mask>
            <path fill="#FFF" d="M115.042 253.804L495.437 253.804 495.437 28.467 115.042 28.467z" mask="url(#prefix__e)"/>
            <path fill="#848484" d="M248.108 361.252L362.371 361.252 362.371 324.287 248.108 324.287z" mask="url(#prefix__e)"/>
            <path fill="#606060" d="M362.372 331.213L248.108 340.492 248.108 324.287 362.372 324.287z" mask="url(#prefix__e)"/>
            <path fill="#8E8E8E" d="M383.51 372.432H226.97c-3.39 0-6.139-2.748-6.139-6.138 0-3.391 2.749-6.139 6.139-6.139h156.54c3.39 0 6.14 2.748 6.14 6.139 0 3.39-2.75 6.138-6.14 6.138" mask="url(#prefix__e)"/>
            <path fill="#FFD1B7" d="M115.328 46.935L495.437 46.935 495.437 28.519 115.328 28.519z" mask="url(#prefix__e)"/>
            <path fill="#FF704F" d="M485.887 41.675c-.11 0-.218-.042-.302-.125l-7.042-7.043c-.167-.166-.167-.436 0-.602.166-.167.436-.167.603 0l7.043 7.042c.166.167.166.436 0 .603-.084.083-.193.125-.302.125" mask="url(#prefix__e)"/>
            <path fill="#FF704F" d="M478.844 41.675c-.109 0-.218-.042-.301-.125-.167-.167-.167-.436 0-.603l7.042-7.042c.167-.167.437-.167.603 0 .167.166.167.436 0 .602l-7.042 7.043c-.084.083-.193.125-.302.125" mask="url(#prefix__e)"/>
            <path fill="#FFF" d="M410.96 42.331H205.307c-2.542 0-4.604-2.06-4.604-4.604 0-2.543 2.062-4.604 4.604-4.604H410.96c2.542 0 4.603 2.061 4.603 4.604s-2.061 4.604-4.603 4.604M496.715 204.132H301.213c-1.958 0-3.546-1.587-3.546-3.547v-80.694c0-1.959 1.588-3.546 3.546-3.546h195.502c1.958 0 3.546 1.587 3.546 3.546v80.694c0 1.96-1.588 3.547-3.546 3.547" mask="url(#prefix__e)"/>
            <path fill="#FFC384" d="M301.213 116.771c-1.72 0-3.12 1.4-3.12 3.12v80.695c0 1.72 1.4 3.12 3.12 3.12h195.502c1.72 0 3.12-1.4 3.12-3.12v-80.695c0-1.72-1.4-3.12-3.12-3.12H301.213zm195.502 87.788H301.213c-2.19 0-3.972-1.782-3.972-3.973v-80.695c0-2.19 1.782-3.972 3.972-3.972h195.502c2.19 0 3.972 1.782 3.972 3.972v80.695c0 2.19-1.782 3.973-3.972 3.973z" mask="url(#prefix__e)"/>
            <path fill="#F2C0E1" d="M440.224 132.818h-131.31c-1.984 0-3.593-1.61-3.593-3.594 0-1.984 1.61-3.593 3.593-3.593h131.31c1.985 0 3.594 1.61 3.594 3.593 0 1.985-1.609 3.594-3.594 3.594M485.407 132.818H451.88c-1.985 0-3.594-1.61-3.594-3.594 0-1.984 1.61-3.593 3.594-3.593h33.527c1.985 0 3.594 1.61 3.594 3.593 0 1.985-1.609 3.594-3.594 3.594M359.97 145.3h-31.55c-.875 0-1.584-.71-1.584-1.584v-.444c0-.875.71-1.583 1.584-1.583h31.55c.873 0 1.582.708 1.582 1.583v.444c0 .875-.709 1.584-1.582 1.584" mask="url(#prefix__e)"/>
            <path fill="#FFC384" d="M350.034 151.062h-22.238c-.235 0-.427-.191-.427-.426 0-.236.192-.426.427-.426h22.238c.235 0 .426.19.426.426 0 .235-.19.426-.426.426M344.195 156.282h-16.4c-.234 0-.425-.19-.425-.426 0-.235.19-.426.426-.426h16.399c.234 0 .426.191.426.426 0 .236-.192.426-.426.426M335.995 161.504h-8.2c-.234 0-.425-.191-.425-.426s.191-.426.426-.426h8.2c.235 0 .425.19.425.426 0 .235-.19.426-.426.426M309.84 142.422c-.742 0-1.346.605-1.346 1.348v10.445c0 .743.604 1.348 1.346 1.348h10.447c.743 0 1.348-.605 1.348-1.348V143.77c0-.743-.605-1.348-1.348-1.348H309.84zm10.447 13.993H309.84c-1.212 0-2.199-.987-2.199-2.2V143.77c0-1.213.987-2.2 2.2-2.2h10.446c1.214 0 2.2.987 2.2 2.2v10.445c0 1.213-.986 2.2-2.2 2.2z" mask="url(#prefix__e)"/>
            <path fill="#FF7867" d="M317.21 151.563c-.11 0-.219-.042-.302-.125l-4.29-4.289c-.166-.166-.166-.435 0-.602.167-.167.437-.167.603 0l4.29 4.288c.166.167.166.436 0 .603-.084.083-.194.125-.302.125" mask="url(#prefix__e)"/>
            <path fill="#FF7867" d="M312.92 151.563c-.11 0-.218-.042-.302-.125-.166-.167-.166-.436 0-.603l4.29-4.288c.166-.167.436-.167.603 0 .166.167.166.436 0 .602l-4.29 4.29c-.083.082-.192.124-.301.124" mask="url(#prefix__e)"/>
            <path fill="#F2C0E1" d="M423.36 175.844h-31.55c-.875 0-1.583-.709-1.583-1.583v-.444c0-.874.708-1.584 1.583-1.584h31.55c.874 0 1.583.71 1.583 1.584v.444c0 .874-.709 1.583-1.583 1.583" mask="url(#prefix__e)"/>
            <path fill="#FFC384" d="M413.425 181.606h-22.239c-.235 0-.426-.191-.426-.426s.191-.426.426-.426h22.239c.234 0 .426.19.426.426 0 .235-.192.426-.426.426M407.585 186.827h-16.398c-.236 0-.426-.19-.426-.426 0-.235.19-.426.426-.426h16.398c.235 0 .426.191.426.426 0 .236-.19.426-.426.426M399.386 192.049h-8.2c-.234 0-.425-.191-.425-.426s.19-.426.426-.426h8.2c.234 0 .425.19.425.426 0 .235-.191.426-.426.426M373.231 172.967c-.742 0-1.346.604-1.346 1.347v10.446c0 .743.604 1.348 1.346 1.348h10.447c.742 0 1.347-.605 1.347-1.348v-10.446c0-.743-.605-1.347-1.347-1.347h-10.447zm10.447 13.993h-10.447c-1.212 0-2.199-.987-2.199-2.2v-10.446c0-1.213.987-2.199 2.2-2.199h10.446c1.214 0 2.2.986 2.2 2.199v10.446c0 1.213-.986 2.2-2.2 2.2z" mask="url(#prefix__e)"/>
            <path fill="#FF7867" d="M380.6 182.108c-.11 0-.219-.042-.302-.125l-4.289-4.29c-.166-.166-.166-.435 0-.602.167-.166.436-.166.603 0l4.289 4.289c.166.167.166.436 0 .603-.084.083-.193.125-.302.125" mask="url(#prefix__e)"/>
            <path fill="#FF7867" d="M376.31 182.108c-.11 0-.218-.042-.301-.125-.166-.167-.166-.436 0-.603l4.29-4.29c.165-.165.435-.165.602 0 .166.168.166.437 0 .603l-4.289 4.29c-.083.083-.193.125-.301.125" mask="url(#prefix__e)"/>
            <path fill="#F2C0E1" d="M487.417 175.096h-31.55c-.873 0-1.582-.709-1.582-1.583v-.444c0-.875.709-1.584 1.582-1.584h31.55c.875 0 1.584.709 1.584 1.584v.444c0 .874-.71 1.583-1.584 1.583" mask="url(#prefix__e)"/>
            <path fill="#FFC384" d="M477.482 180.858h-22.238c-.235 0-.426-.191-.426-.426 0-.236.19-.427.426-.427h22.238c.236 0 .426.191.426.427 0 .235-.19.426-.426.426M471.643 186.08h-16.399c-.236 0-.426-.192-.426-.427s.19-.426.426-.426h16.399c.236 0 .426.19.426.426 0 .235-.19.426-.426.426M463.443 191.3h-8.199c-.235 0-.426-.19-.426-.425 0-.236.191-.427.426-.427h8.199c.236 0 .426.191.426.427 0 .235-.19.426-.426.426M437.29 172.22c-.744 0-1.348.603-1.348 1.346v10.446c0 .743.604 1.347 1.348 1.347h10.446c.743 0 1.347-.604 1.347-1.347v-10.446c0-.743-.604-1.347-1.347-1.347H437.29zm10.446 13.992H437.29c-1.214 0-2.2-.987-2.2-2.2v-10.446c0-1.213.986-2.2 2.2-2.2h10.446c1.212 0 2.2.987 2.2 2.2v10.446c0 1.213-.988 2.2-2.2 2.2z" mask="url(#prefix__e)"/>
            <path fill="#FF7867" d="M444.657 181.36c-.11 0-.218-.042-.302-.125l-4.29-4.289c-.165-.166-.165-.436 0-.603.168-.166.437-.166.603 0l4.29 4.289c.167.167.167.436 0 .603-.083.083-.192.125-.301.125" mask="url(#prefix__e)"/>
            <path fill="#FF7867" d="M440.367 181.36c-.108 0-.218-.042-.301-.125-.167-.167-.167-.436 0-.603l4.29-4.289c.166-.166.435-.166.602 0 .167.167.167.437 0 .603l-4.289 4.29c-.083.082-.192.124-.302.124" mask="url(#prefix__e)"/>
            <path fill="#F2C0E1" d="M423.36 145.3h-31.55c-.875 0-1.583-.71-1.583-1.584v-.444c0-.875.708-1.583 1.583-1.583h31.55c.874 0 1.583.708 1.583 1.583v.444c0 .875-.709 1.584-1.583 1.584" mask="url(#prefix__e)"/>
            <path fill="#FFC384" d="M413.425 151.062h-22.239c-.235 0-.426-.191-.426-.426 0-.236.191-.426.426-.426h22.239c.234 0 .426.19.426.426 0 .235-.192.426-.426.426M407.585 156.282h-16.398c-.236 0-.426-.19-.426-.426 0-.235.19-.426.426-.426h16.398c.235 0 .426.191.426.426 0 .236-.19.426-.426.426M399.386 161.504h-8.2c-.234 0-.425-.191-.425-.426s.19-.426.426-.426h8.2c.234 0 .425.19.425.426 0 .235-.191.426-.426.426M373.231 142.422c-.742 0-1.346.605-1.346 1.348v10.445c0 .743.604 1.348 1.346 1.348h10.447c.742 0 1.347-.605 1.347-1.348V143.77c0-.743-.605-1.348-1.347-1.348h-10.447zm10.447 13.993h-10.447c-1.212 0-2.199-.987-2.199-2.2V143.77c0-1.213.987-2.2 2.2-2.2h10.446c1.214 0 2.2.987 2.2 2.2v10.445c0 1.213-.986 2.2-2.2 2.2z" mask="url(#prefix__e)"/>
            <path fill="#D385C2" d="M377.765 151.563c-.092 0-.186-.03-.265-.092-.184-.147-.214-.415-.069-.6l3.403-4.288c.145-.185.415-.216.599-.069.185.147.215.415.069.599l-3.402 4.289c-.085.106-.21.16-.335.16" mask="url(#prefix__e)"/>
            <path fill="#D385C2" d="M377.765 151.563c-.134 0-.266-.064-.349-.183l-2.024-2.91c-.135-.193-.087-.46.106-.593.195-.135.46-.088.594.107l2.023 2.91c.135.192.087.458-.107.592-.074.052-.157.077-.243.077" mask="url(#prefix__e)"/>
            <path fill="#F2C0E1" d="M487.417 145.3h-31.55c-.873 0-1.582-.71-1.582-1.584v-.444c0-.875.709-1.583 1.582-1.583h31.55c.875 0 1.584.708 1.584 1.583v.444c0 .875-.71 1.584-1.584 1.584" mask="url(#prefix__e)"/>
            <path fill="#FFC384" d="M477.482 151.062h-22.238c-.235 0-.426-.191-.426-.426 0-.236.19-.426.426-.426h22.238c.236 0 .426.19.426.426 0 .235-.19.426-.426.426M471.643 156.282h-16.399c-.236 0-.426-.19-.426-.426 0-.235.19-.426.426-.426h16.399c.236 0 .426.191.426.426 0 .236-.19.426-.426.426M463.443 161.504h-8.199c-.235 0-.426-.191-.426-.426s.191-.426.426-.426h8.199c.236 0 .426.19.426.426 0 .235-.19.426-.426.426M437.29 142.422c-.744 0-1.348.605-1.348 1.348v10.445c0 .743.604 1.348 1.348 1.348h10.446c.743 0 1.347-.605 1.347-1.348V143.77c0-.743-.604-1.348-1.347-1.348H437.29zm10.446 13.993H437.29c-1.214 0-2.2-.987-2.2-2.2V143.77c0-1.213.986-2.2 2.2-2.2h10.446c1.212 0 2.2.987 2.2 2.2v10.445c0 1.213-.988 2.2-2.2 2.2z" mask="url(#prefix__e)"/>
            <path fill="#D385C2" d="M441.822 151.563c-.092 0-.186-.03-.264-.092-.183-.147-.215-.415-.07-.6l3.404-4.288c.146-.185.413-.216.598-.069.184.147.216.415.07.599l-3.403 4.289c-.084.106-.209.16-.335.16" mask="url(#prefix__e)"/>
            <path fill="#D385C2" d="M441.824 151.563c-.135 0-.268-.064-.351-.183l-2.024-2.91c-.133-.193-.086-.46.107-.593.193-.135.46-.088.593.107l2.024 2.91c.134.192.087.458-.106.592-.075.052-.16.077-.243.077" mask="url(#prefix__e)"/>
            <path fill="#F2C0E1" d="M359.97 176.622h-31.55c-.875 0-1.584-.71-1.584-1.584v-.445c0-.874.71-1.582 1.584-1.582h31.55c.873 0 1.582.708 1.582 1.582v.445c0 .875-.709 1.584-1.582 1.584" mask="url(#prefix__e)"/>
            <path fill="#FFC384" d="M350.034 182.383h-22.238c-.235 0-.427-.19-.427-.426 0-.235.192-.426.427-.426h22.238c.235 0 .426.19.426.426 0 .235-.19.426-.426.426M344.195 187.605h-16.4c-.234 0-.425-.191-.425-.426 0-.236.19-.427.426-.427h16.399c.234 0 .426.191.426.427 0 .235-.192.426-.426.426M335.995 192.825h-8.2c-.234 0-.425-.19-.425-.426 0-.235.191-.426.426-.426h8.2c.235 0 .425.191.425.426s-.19.426-.426.426M309.84 173.744c-.742 0-1.346.604-1.346 1.347v10.446c0 .743.604 1.347 1.346 1.347h10.447c.743 0 1.348-.604 1.348-1.347v-10.446c0-.743-.605-1.347-1.348-1.347H309.84zm10.447 13.992H309.84c-1.212 0-2.199-.986-2.199-2.199v-10.446c0-1.213.987-2.2 2.2-2.2h10.446c1.214 0 2.2.987 2.2 2.2v10.446c0 1.213-.986 2.2-2.2 2.2z" mask="url(#prefix__e)"/>
            <path fill="#D385C2" d="M314.375 182.885c-.093 0-.187-.03-.265-.092-.184-.147-.214-.415-.069-.6l3.403-4.288c.145-.185.414-.217.598-.07.185.147.216.416.07.599l-3.403 4.29c-.085.107-.21.161-.334.161" mask="url(#prefix__e)"/>
            <path fill="#D385C2" d="M314.375 182.885c-.134 0-.266-.064-.35-.183l-2.024-2.91c-.134-.193-.087-.459.106-.593.195-.134.46-.087.595.107l2.023 2.91c.134.193.087.459-.107.592-.074.052-.158.077-.243.077" mask="url(#prefix__e)"/>
            <path fill="#FFF" d="M272.736 237.104H109.609c-2.928 0-5.303-2.373-5.303-5.302V169.45c0-2.928 2.375-5.302 5.303-5.302h163.127c2.928 0 5.302 2.374 5.302 5.302v62.353c0 2.929-2.374 5.302-5.302 5.302" mask="url(#prefix__e)"/>
            <path fill="#FFC384" d="M109.609 164.573c-2.69 0-4.877 2.187-4.877 4.877v62.353c0 2.689 2.188 4.875 4.877 4.875h163.127c2.689 0 4.875-2.186 4.875-4.875V169.45c0-2.69-2.186-4.877-4.875-4.877H109.609zm163.127 72.958H109.609c-3.16 0-5.73-2.57-5.73-5.728V169.45c0-3.159 2.57-5.729 5.73-5.729h163.127c3.158 0 5.728 2.57 5.728 5.729v62.353c0 3.158-2.57 5.728-5.728 5.728z" mask="url(#prefix__e)"/>
            <path fill="#FFE0CF" d="M115.14 226.636L128.285 226.636 128.285 175.608 115.14 175.608z" mask="url(#prefix__e)"/>
            <path fill="#FF704F" d="M115.14 226.636L128.285 226.636 128.285 201.97 115.14 201.97z" mask="url(#prefix__e)"/>
            <path fill="#FFE0CF" d="M138.293 226.636L151.438 226.636 151.438 175.608 138.293 175.608z" mask="url(#prefix__e)"/>
            <path fill="#FF704F" d="M150.955 226.635h-12.18c-.266 0-.482-.216-.482-.483v-42.859c0-.267.216-.482.483-.482h12.18c.266 0 .482.215.482.482v42.859c0 .267-.216.483-.483.483" mask="url(#prefix__e)"/>
            <path fill="#FFE0CF" d="M161.446 226.636L174.591 226.636 174.591 175.608 161.446 175.608z" mask="url(#prefix__e)"/>
            <path fill="#FF704F" d="M174.109 226.635h-12.18c-.267 0-.482-.216-.482-.483v-16.034c0-.267.215-.484.482-.484h12.18c.266 0 .483.217.483.484v16.034c0 .267-.217.483-.483.483" mask="url(#prefix__e)"/>
            <path fill="#FFE0CF" d="M184.599 226.636L197.744 226.636 197.744 175.608 184.599 175.608z" mask="url(#prefix__e)"/>
            <path fill="#FF704F" d="M197.262 226.635h-12.18c-.266 0-.482-.216-.482-.483v-33.553c0-.266.216-.483.483-.483h12.179c.266 0 .482.217.482.483v33.553c0 .267-.216.483-.482.483" mask="url(#prefix__e)"/>
            <path fill="#FFE0CF" d="M207.752 226.636L220.897 226.636 220.897 175.608 207.752 175.608z" mask="url(#prefix__e)"/>
            <path fill="#FF704F" d="M207.752 226.636L220.897 226.636 220.897 201.97 207.752 201.97z" mask="url(#prefix__e)"/>
            <path fill="#FFE0CF" d="M230.906 226.636L244.051 226.636 244.051 175.608 230.906 175.608z" mask="url(#prefix__e)"/>
            <path fill="#FF704F" d="M230.906 226.636L244.051 226.636 244.051 201.97 230.906 201.97z" mask="url(#prefix__e)"/>
            <path fill="#FFE0CF" d="M254.059 226.636L267.204 226.636 267.204 175.608 254.059 175.608z" mask="url(#prefix__e)"/>
            <path fill="#FF704F" d="M266.721 226.635h-12.179c-.267 0-.482-.216-.482-.483v-33.035c0-.267.215-.483.482-.483h12.18c.266 0 .483.216.483.483v33.035c0 .267-.217.483-.484.483" mask="url(#prefix__e)"/>
            <path fill="#FFC384" d="M92.823 93.3L152.202 93.3 152.202 55.272 92.823 55.272z" mask="url(#prefix__e)"/>
            <path fill="#BC946D" d="M92.823 55.272L122.512 74.286 152.202 55.272z" mask="url(#prefix__e)"/>
            <path fill="#FF704F" d="M158.417 57.84c0 4.032-3.269 7.3-7.3 7.3-4.034 0-7.302-3.268-7.302-7.3s3.268-7.3 7.301-7.3c4.032 0 7.3 3.268 7.3 7.3" mask="url(#prefix__e)"/>
            <path fill="#F1F2F2" d="M152.05 60.938L150.769 60.938 150.769 56 149.24 56.475 149.24 55.433 151.913 54.476 152.05 54.476z" mask="url(#prefix__e)"/>
            <path fill="#FFD1B7" d="M316.871 92.762c-5.873 0-10.653-4.779-10.653-10.653 0-5.875 4.78-10.654 10.653-10.654 5.876 0 10.654 4.779 10.654 10.654 0 5.874-4.778 10.653-10.654 10.653m.001-30.09c-10.736 0-19.437 8.702-19.437 19.437 0 10.734 8.701 19.436 19.437 19.436 10.735 0 19.437-8.702 19.437-19.436 0-10.735-8.702-19.437-19.437-19.437" mask="url(#prefix__e)"/>
            <path fill="#FF8DBB" d="M316.237 96.273c0-1.832-1.124-3.51-2.856-4.111-4.164-1.446-7.163-5.402-7.163-10.053 0-4.651 3-8.607 7.163-10.054 1.732-.6 2.856-2.277 2.856-4.11 0-3.01-2.972-5.17-5.812-4.172-7.566 2.657-12.99 9.862-12.99 18.335 0 8.475 5.424 15.678 12.99 18.336 2.84.998 5.812-1.161 5.812-4.171" mask="url(#prefix__e)"/>
            <path fill="#FFD1B7" d="M362.473 91.926c-5.874 0-10.653-4.779-10.653-10.653 0-5.874 4.779-10.654 10.653-10.654 5.876 0 10.654 4.78 10.654 10.654s-4.778 10.653-10.654 10.653m.001-30.09c-10.736 0-19.438 8.702-19.438 19.437 0 10.734 8.702 19.436 19.438 19.436 10.735 0 19.437-8.702 19.437-19.436 0-10.735-8.702-19.437-19.437-19.437" mask="url(#prefix__e)"/>
            <path fill="#FF704F" d="M352.477 77.615c1.09-2.97 3.466-5.32 6.451-6.376 1.747-.617 2.91-2.27 2.91-4.123v-.018c0-2.993-2.946-5.16-5.77-4.174-5.501 1.922-9.867 6.25-11.85 11.724-1.024 2.828 1.153 5.806 4.16 5.806 1.826 0 3.47-1.126 4.099-2.84" mask="url(#prefix__e)"/>
            <path fill="#FFD1B7" d="M408.644 92.762c-5.875 0-10.653-4.779-10.653-10.653 0-5.875 4.778-10.654 10.653-10.654 5.874 0 10.654 4.779 10.654 10.654 0 5.874-4.78 10.653-10.654 10.653m0-30.09c-10.735 0-19.438 8.702-19.438 19.437 0 10.734 8.703 19.436 19.438 19.436s19.437-8.702 19.437-19.436c0-10.735-8.702-19.437-19.437-19.437" mask="url(#prefix__e)"/>
            <path fill="#FF704F" d="M472.16 68.906l11.56.006.003-6.404c.002-3.193-2.584-5.782-5.777-5.783-3.192-.002-5.78 2.584-5.782 5.777l-.004 6.404zM477.938 73.049c-1.164 0-2.109-.945-2.108-2.11l4.219.002c-.001 1.165-.946 2.108-2.111 2.108" mask="url(#prefix__e)"/>
            <path fill="#FF704F" d="M476.54 57.894h2.812v-1.557c0-.777-.628-1.407-1.405-1.407s-1.406.63-1.407 1.406v1.558zM470.423 71.15l15.032.009c.163 0 .295-.133.295-.294v-.438c0-.976-.79-1.768-1.768-1.769l-12.084-.006c-.977 0-1.769.791-1.77 1.768v.436c0 .163.132.295.295.295M477.935 81.108c-.472 0-.853-.382-.853-.853l.002-3.867c0-.47.382-.851.852-.851h.001c.47 0 .852.382.851.853l-.001 3.866c0 .47-.381.852-.852.852M485.006 80.16c-.295 0-.582-.154-.739-.426l-1.932-3.35c-.235-.408-.094-.93.313-1.165.408-.235.93-.094 1.164.312l1.931 3.35c.237.409.097.93-.312 1.165-.134.077-.28.114-.425.114M471.297 80.153c-.145 0-.291-.037-.425-.114-.408-.235-.548-.757-.311-1.164l1.934-3.349c.235-.408.755-.548 1.164-.311.408.235.547.757.312 1.164l-1.936 3.348c-.157.274-.444.426-.738.426M233.527 83.941L232.851 83.943 232.843 79.46 231.487 79.961 231.485 79.35 233.412 78.622 233.517 78.622zM249.989 83.91l-3.469.007v-.484l1.73-1.93c.16-.177.293-.335.398-.47.105-.136.188-.261.25-.373.062-.113.104-.219.128-.317.024-.098.037-.198.037-.3-.001-.13-.023-.254-.063-.37-.042-.114-.102-.213-.18-.298-.077-.085-.173-.152-.287-.203-.114-.048-.245-.074-.392-.074-.18.001-.336.03-.468.082-.132.055-.242.129-.328.223-.087.094-.153.208-.197.34-.042.132-.064.28-.064.438l-.673.001c0-.223.036-.433.11-.632.074-.2.183-.372.328-.522.145-.147.326-.264.542-.352.215-.085.465-.13.749-.13.25 0 .473.033.67.101.198.067.365.164.503.288.137.125.242.274.316.449.072.174.109.367.11.578 0 .156-.027.311-.08.47-.053.157-.124.314-.214.47-.09.157-.194.312-.315.467-.121.153-.248.305-.381.453l-1.419 1.543 2.658-.005.001.55zM263.007 80.91h.48c.175 0 .328-.023.458-.07.131-.046.24-.111.327-.192.087-.08.153-.177.195-.287.045-.11.066-.231.066-.362 0-.303-.078-.534-.231-.692-.153-.159-.386-.238-.698-.237-.143 0-.274.021-.391.064-.117.043-.218.104-.302.182-.083.08-.148.176-.193.289-.046.112-.07.238-.07.376h-.672c0-.203.039-.394.116-.57.077-.178.187-.331.33-.465.142-.132.314-.236.514-.313.2-.077.422-.116.667-.116.24-.001.458.032.654.095.197.064.365.158.504.283.14.124.25.28.327.466.077.187.117.403.117.65 0 .101-.015.205-.048.314-.033.108-.082.215-.148.32-.067.105-.153.202-.258.293-.106.092-.23.168-.377.228.176.055.322.128.44.22.117.09.212.19.281.303.071.111.121.229.15.352.03.124.045.245.045.363 0 .248-.041.468-.125.66-.085.194-.203.355-.352.487-.15.13-.328.231-.531.3-.203.07-.425.104-.665.105-.23 0-.448-.03-.651-.094-.204-.064-.382-.159-.536-.283-.152-.125-.273-.278-.363-.461-.088-.183-.133-.391-.133-.627l.676-.001c.001.138.024.263.07.376.046.113.114.21.2.29.088.081.194.144.318.187.123.042.262.065.417.065.156 0 .295-.021.419-.061.123-.04.229-.102.316-.184.087-.083.153-.186.2-.31.045-.124.068-.268.067-.433 0-.165-.027-.308-.08-.428-.054-.121-.13-.222-.228-.3-.098-.08-.217-.137-.355-.176-.139-.039-.294-.057-.466-.057l-.48.001v-.55zM170.886 97l1.648-.004-.005-2.597-.08.146-1.563 2.454zm2.325-.006h.733l.002.548-.735.001.002 1.229-.676.002-.002-1.23-2.411.005-.001-.396 2.364-3.673.717-.002.007 3.516zM186.192 96.093l.264-2.64 2.713-.005v.621l-2.141.004-.158 1.444c.095-.055.217-.108.366-.157.15-.048.321-.073.518-.073.242-.001.462.04.657.123.195.084.36.202.497.356.136.154.24.339.314.558.072.217.11.461.11.73 0 .255-.034.489-.103.703-.068.215-.17.402-.309.558-.138.157-.312.28-.522.368-.208.09-.455.133-.738.134-.214 0-.416-.028-.606-.088-.191-.059-.36-.148-.508-.27-.149-.12-.27-.273-.365-.458-.095-.183-.153-.399-.176-.646l.637-.002c.042.304.15.532.325.686.174.153.405.23.69.23.161 0 .303-.03.426-.085.124-.056.229-.137.315-.24.085-.105.15-.233.195-.38.044-.15.066-.317.066-.5 0-.166-.024-.319-.07-.462-.046-.143-.115-.268-.204-.373-.09-.106-.201-.189-.333-.248-.132-.06-.283-.09-.453-.09-.114 0-.212.008-.295.024-.082.016-.156.038-.221.067-.065.03-.126.066-.18.108-.055.042-.112.09-.172.14l-.539-.137zM202.528 95.803c-.12 0-.232.02-.342.057-.109.038-.208.09-.299.156-.09.064-.171.142-.24.231-.069.09-.121.184-.158.285l.001.248c.001.238.03.447.086.627.058.181.135.332.23.454.097.122.207.215.331.278.124.062.251.094.385.094.155 0 .293-.031.414-.09.121-.06.224-.144.307-.252.084-.108.147-.236.19-.383.044-.15.065-.311.065-.488 0-.158-.021-.31-.061-.455-.04-.147-.1-.277-.181-.39-.08-.112-.18-.204-.303-.27-.12-.068-.263-.102-.425-.102zm.879-2.387l.002.571h-.063c-.322 0-.595.05-.821.148-.225.097-.41.227-.556.388-.145.162-.255.346-.329.555-.075.209-.122.424-.141.647.145-.167.315-.29.51-.366.195-.076.405-.115.63-.115.265 0 .493.048.683.15.19.1.347.231.472.394.123.164.215.35.275.558.06.208.09.422.09.64.001.253-.034.488-.104.708-.07.219-.173.41-.311.57-.138.162-.309.29-.512.383-.204.093-.44.14-.709.142-.286 0-.536-.058-.749-.177-.214-.118-.392-.274-.534-.466-.142-.193-.248-.41-.32-.653-.07-.242-.106-.484-.107-.73v-.316c0-.247.014-.494.044-.74s.082-.482.157-.705c.075-.225.174-.433.299-.628.124-.191.28-.36.468-.502.187-.142.41-.253.668-.333.258-.082.557-.122.897-.123h.06zM219.549 93.767L217.366 98.687 216.66 98.688 218.837 93.943 215.972 93.949 215.971 93.396 219.549 93.389zM233.41 94.755c0-.13-.022-.252-.065-.363-.042-.112-.103-.208-.182-.29-.08-.08-.173-.144-.283-.19-.109-.045-.228-.068-.36-.068-.13 0-.25.022-.36.065-.108.042-.202.104-.28.182-.079.078-.14.175-.182.288-.043.112-.063.239-.063.38 0 .135.022.26.065.37.042.112.102.207.18.285.078.079.17.14.28.181.11.043.23.065.364.064.134 0 .255-.022.364-.065.109-.042.202-.104.28-.182.077-.079.137-.174.178-.285.043-.112.063-.237.063-.372m.129 2.458c0-.148-.026-.283-.076-.408-.05-.122-.12-.228-.21-.317-.089-.088-.196-.157-.322-.205-.124-.048-.262-.072-.412-.072-.153.001-.29.025-.414.074-.124.049-.23.118-.316.206-.087.088-.155.195-.202.319-.047.124-.07.26-.07.408 0 .151.023.288.07.406.046.119.114.22.2.304.088.082.194.147.32.189.124.043.265.065.423.065.155 0 .295-.023.42-.067.125-.042.23-.107.318-.19.087-.084.153-.186.201-.305.047-.118.07-.255.07-.407m.545-2.47c0 .264-.07.5-.208.706-.14.207-.328.368-.565.485.136.057.259.13.37.218.11.086.205.184.283.294.08.11.14.231.184.363.042.13.063.27.063.417.001.243-.041.458-.127.644-.086.187-.205.344-.356.472-.15.127-.329.224-.533.29-.205.065-.426.098-.664.098-.238.001-.46-.031-.666-.096-.206-.065-.384-.161-.534-.288-.151-.127-.27-.283-.356-.47-.086-.187-.13-.402-.13-.644 0-.148.02-.287.06-.417.041-.132.1-.253.176-.364.076-.112.169-.212.278-.3.11-.086.23-.16.366-.218-.235-.116-.42-.277-.556-.483-.136-.205-.205-.439-.205-.701-.001-.23.037-.436.115-.616.077-.181.185-.334.323-.458.138-.123.302-.218.493-.285.192-.065.4-.098.626-.1.225 0 .433.033.623.098.19.066.356.16.496.284.14.123.248.274.325.455.079.18.118.386.119.616M247.466 96.303c.114 0 .224-.019.33-.056.107-.035.205-.087.294-.152.09-.067.17-.143.242-.23.071-.087.128-.183.172-.284v-.27c-.001-.239-.03-.451-.086-.637-.056-.186-.13-.342-.224-.468-.093-.125-.202-.22-.324-.286-.122-.065-.25-.097-.384-.097-.158 0-.297.032-.418.095-.12.063-.224.15-.306.261-.084.11-.148.24-.19.391-.044.15-.065.314-.065.491 0 .158.02.31.059.46.039.149.098.282.177.398.08.116.179.21.298.279.121.07.263.105.425.105zm-.804 1.765c.363-.001.663-.05.897-.15.236-.098.421-.229.558-.393.137-.165.233-.352.289-.564.054-.212.087-.432.096-.66-.14.167-.309.302-.503.405-.195.101-.409.152-.642.152-.261.001-.487-.05-.678-.151-.19-.103-.348-.238-.47-.403-.122-.167-.214-.355-.273-.566-.06-.21-.09-.423-.09-.64-.001-.252.034-.489.103-.713.07-.223.173-.417.31-.583.136-.167.307-.298.512-.393.205-.097.442-.145.71-.146.304 0 .562.06.776.181.213.123.388.284.524.485s.236.43.3.686c.063.254.095.517.096.786v.244c0 .23-.01.463-.033.7-.023.236-.066.466-.13.686-.064.224-.153.43-.267.625-.116.194-.266.365-.452.509-.187.144-.414.258-.682.343-.268.084-.585.126-.95.126h-.066v-.566h.065zM261.016 98.604L260.34 98.605 260.331 94.121 258.976 94.622 258.974 94.011 260.901 93.284 261.006 93.284zM265.628 95.417c0-.299-.023-.551-.065-.76-.043-.209-.107-.377-.192-.506-.085-.13-.19-.224-.315-.282-.125-.058-.269-.087-.43-.087-.161 0-.303.03-.428.089-.125.058-.229.152-.313.283-.083.129-.146.298-.19.507-.042.208-.064.461-.064.76l.002 1.026c.001.296.024.55.068.762.044.211.109.385.195.52.087.136.191.235.317.298.125.063.267.094.428.094.164 0 .309-.032.432-.096s.227-.163.31-.298c.084-.137.146-.31.186-.523.041-.212.062-.466.061-.761l-.002-1.026zm.674.918c.001.434-.036.8-.114 1.097-.077.297-.187.537-.331.721-.144.183-.318.314-.523.395-.204.08-.435.12-.693.12-.254.001-.485-.038-.69-.117-.206-.08-.383-.21-.528-.394-.147-.183-.26-.422-.34-.72-.08-.296-.121-.661-.122-1.095l-.002-.807c0-.434.038-.798.116-1.092.078-.292.19-.53.335-.71.146-.179.32-.308.525-.386.204-.078.435-.116.69-.117.256 0 .488.038.694.115.206.076.382.206.527.385.146.178.259.415.336.708.079.293.118.656.119 1.09l.001.807zM170.752 114.135L170.076 114.137 170.067 109.653 168.711 110.155 168.71 109.543 170.637 108.816 170.741 108.816zM174.933 114.127L174.258 114.129 174.249 109.645 172.893 110.146 172.891 109.535 174.818 108.808 174.923 108.807zM185.646 114.107L184.97 114.108 184.962 109.624 183.606 110.125 183.604 109.514 185.531 108.787 185.636 108.787zM191.086 114.096l-3.469.007v-.484l1.73-1.93c.16-.177.293-.334.397-.47.105-.135.189-.26.25-.372.062-.114.105-.22.129-.318.024-.098.036-.198.036-.3 0-.13-.022-.254-.063-.37-.041-.113-.101-.213-.179-.298-.077-.085-.174-.152-.287-.202-.114-.049-.245-.074-.393-.074-.18 0-.336.028-.468.081-.132.055-.24.129-.329.223-.086.094-.151.209-.195.34-.042.133-.065.28-.065.439h-.672c0-.223.036-.433.11-.632.073-.2.182-.372.328-.521.145-.148.325-.265.541-.352.216-.086.465-.13.749-.13.25 0 .473.033.671.1.198.067.365.164.502.289.137.124.243.273.315.448.074.175.11.367.111.578 0 .156-.026.312-.079.47-.054.157-.124.314-.214.47-.09.157-.194.313-.315.467-.121.153-.248.305-.381.453l-1.42 1.544 2.659-.006v.55zM200.54 114.078L199.864 114.08 199.855 109.596 198.499 110.097 198.498 109.486 200.424 108.759 200.529 108.758zM203.483 111.098l.48-.001c.175 0 .327-.022.458-.07.131-.046.24-.11.327-.191.087-.082.153-.178.195-.288.044-.11.066-.231.066-.361-.001-.304-.078-.535-.231-.693-.154-.158-.386-.238-.698-.237-.143 0-.274.022-.391.065-.117.042-.219.104-.302.182-.083.08-.148.175-.194.288-.046.112-.069.238-.069.376l-.672.002c0-.204.038-.395.116-.571.077-.179.187-.332.33-.465.142-.133.313-.237.514-.314.2-.077.422-.115.666-.116.24 0 .459.032.655.096.197.063.365.158.504.282.14.125.249.28.327.467.077.186.116.402.117.65 0 .1-.016.204-.048.313-.033.11-.082.216-.149.32-.066.105-.152.203-.257.293-.106.093-.231.168-.377.228.176.056.322.129.44.22.117.09.211.192.281.304.071.111.121.228.15.35.03.125.045.246.045.365 0 .247-.041.467-.127.66-.084.193-.202.355-.35.486-.152.132-.328.232-.532.301-.203.07-.424.104-.664.104-.23.001-.448-.03-.652-.093-.203-.065-.382-.16-.535-.283-.152-.126-.273-.279-.363-.461-.088-.184-.133-.392-.134-.628l.677-.001c0 .138.024.263.07.376.046.113.113.21.2.291.088.081.194.143.317.186.124.043.263.065.418.065.156 0 .295-.02.418-.06.124-.04.23-.102.317-.185.086-.083.153-.186.199-.31.046-.123.068-.267.068-.432 0-.165-.027-.308-.08-.429-.055-.121-.13-.222-.228-.3-.098-.078-.218-.137-.356-.175-.138-.039-.293-.058-.465-.058l-.48.001v-.55zM215.898 114.049L215.222 114.05 215.214 109.566 213.858 110.068 213.856 109.457 215.783 108.729 215.888 108.729zM218.382 112.266l1.648-.003-.005-2.597-.08.147-1.563 2.453zm2.324-.004l.734-.002.002.549-.735.002.002 1.229h-.676l-.003-1.229-2.41.006-.001-.397 2.364-3.674h.717l.006 3.516zM231.258 114.019L230.583 114.02 230.574 109.537 229.218 110.038 229.216 109.427 231.143 108.7 231.248 108.699zM233.533 111.36l.265-2.64 2.712-.005.001.622-2.142.004-.157 1.443c.094-.056.216-.108.365-.156.149-.05.322-.074.518-.074.243 0 .462.04.658.124.194.083.36.202.496.355.136.155.24.34.314.559.073.217.11.46.11.73 0 .255-.033.488-.102.703-.068.215-.172.401-.31.557-.138.157-.312.28-.521.368-.21.09-.456.133-.74.134-.213 0-.415-.028-.605-.088-.191-.058-.36-.148-.508-.27-.148-.12-.27-.272-.365-.457-.094-.184-.153-.4-.175-.646l.636-.002c.042.303.15.532.325.684.175.155.405.231.691.231.16 0 .302-.029.425-.085.124-.055.229-.136.315-.24.085-.104.15-.232.195-.38.044-.15.067-.317.067-.5 0-.167-.024-.318-.07-.462-.046-.143-.115-.267-.205-.373-.09-.106-.201-.188-.333-.248s-.283-.09-.453-.09c-.114 0-.212.007-.294.024-.083.017-.156.039-.222.068-.065.029-.125.065-.18.107l-.172.14-.539-.136zM246.307 113.99L245.631 113.991 245.622 109.508 244.266 110.009 244.265 109.398 246.192 108.671 246.296 108.671zM250.025 111.07c-.12 0-.233.02-.342.057-.109.038-.209.09-.3.156-.09.065-.17.143-.24.231-.068.089-.12.183-.157.286v.247c0 .238.03.446.087.627.058.18.135.332.23.454.096.123.206.215.33.277.124.063.252.095.386.095.154 0 .293-.032.414-.09.121-.06.223-.144.306-.253.084-.107.147-.235.19-.382.044-.149.066-.31.065-.488 0-.158-.02-.31-.06-.456-.04-.146-.101-.277-.181-.39-.08-.11-.181-.202-.303-.27-.12-.068-.263-.1-.425-.1zm.879-2.387v.571h-.061c-.322 0-.596.051-.822.148-.225.098-.41.227-.555.387-.145.163-.256.347-.33.556-.075.209-.122.423-.14.647.145-.167.315-.29.51-.366.195-.076.405-.115.63-.115.265 0 .492.049.682.15.19.1.348.231.472.394.124.164.216.35.276.559.06.207.09.42.09.639 0 .252-.034.487-.104.708-.07.22-.174.41-.312.57-.137.162-.308.29-.511.384-.205.093-.44.14-.71.14-.286.001-.535-.057-.748-.176-.214-.118-.392-.274-.534-.466-.142-.194-.249-.41-.32-.652-.071-.243-.106-.486-.107-.731v-.316c0-.248.014-.494.044-.74s.081-.482.156-.705c.075-.226.175-.434.3-.627.124-.192.28-.36.467-.503.188-.142.41-.253.669-.333.258-.081.557-.122.896-.123h.062zM261.045 113.962L260.37 113.963 260.361 109.479 259.005 109.981 259.003 109.37 260.93 108.643 261.035 108.643zM266.425 109.035L264.242 113.955 263.536 113.957 265.713 109.212 262.847 109.218 262.847 108.665 266.424 108.658zM170.78 128.719L170.104 128.72 170.095 124.237 168.739 124.738 168.738 124.127 170.664 123.399 170.77 123.399zM175.281 124.809c0-.13-.022-.253-.065-.364-.042-.112-.103-.208-.181-.29-.08-.08-.173-.143-.283-.19-.11-.045-.23-.068-.36-.067-.13 0-.251.021-.36.064-.108.043-.203.104-.281.182-.079.08-.14.175-.181.289-.043.112-.064.239-.063.38 0 .135.021.259.064.37.042.11.103.206.181.284.077.079.17.14.28.181.11.043.23.065.364.065.134 0 .255-.023.363-.066.109-.041.203-.104.28-.181.077-.08.137-.175.18-.286.042-.111.062-.236.062-.371m.128 2.457c0-.148-.025-.283-.075-.408-.05-.122-.12-.228-.21-.317-.09-.088-.196-.157-.322-.204-.124-.049-.262-.073-.412-.072-.154 0-.292.024-.414.073-.124.049-.23.118-.317.206-.086.09-.154.196-.2.319-.048.124-.071.26-.071.408 0 .151.023.288.07.406.046.12.113.22.2.304.088.082.194.147.318.19.126.042.267.064.424.064.155 0 .296-.023.42-.066.125-.043.231-.108.318-.19.088-.085.154-.186.201-.306.048-.118.071-.254.07-.407m.545-2.47c0 .264-.07.5-.208.706-.14.207-.327.368-.564.485.135.058.259.13.37.218.11.087.205.185.283.295.08.11.14.23.183.362.043.13.064.27.064.417 0 .243-.041.458-.127.644-.087.187-.205.345-.356.472-.152.127-.33.225-.534.29-.205.066-.425.098-.663.1-.238 0-.46-.032-.666-.098-.206-.064-.384-.16-.535-.288-.15-.127-.269-.283-.355-.47-.087-.187-.13-.4-.13-.643 0-.148.02-.288.06-.418.04-.132.1-.253.176-.364.076-.112.168-.212.277-.3.11-.086.232-.16.367-.218-.235-.116-.42-.276-.557-.483-.136-.205-.205-.439-.205-.701 0-.23.038-.436.116-.616.076-.18.184-.333.323-.458.137-.123.302-.217.493-.285.192-.064.4-.098.626-.098.225-.001.432.032.623.097.19.065.355.16.496.283.138.123.248.274.325.455.078.18.118.386.118.616M185.674 128.69L184.999 128.691 184.989 124.208 183.633 124.709 183.632 124.098 185.558 123.371 185.664 123.371zM189.182 126.357c.115-.001.225-.019.331-.056.107-.035.205-.088.294-.153.09-.066.17-.142.242-.23.07-.087.128-.183.171-.284v-.27c0-.239-.029-.45-.085-.637-.056-.185-.13-.34-.224-.467-.093-.125-.202-.221-.324-.286-.123-.065-.25-.098-.384-.098-.158 0-.297.032-.418.095-.12.064-.224.151-.307.261-.083.111-.147.24-.19.392-.043.15-.064.314-.064.491 0 .158.02.31.058.46.04.149.098.28.178.397.079.117.179.21.298.28.121.07.262.105.424.105zm-.803 1.764c.363 0 .663-.05.897-.148.235-.1.421-.23.557-.394.138-.165.234-.352.29-.565.054-.212.086-.431.096-.66-.14.167-.309.303-.503.405-.195.102-.41.153-.642.153-.262 0-.487-.05-.678-.152-.19-.102-.347-.238-.47-.403-.123-.166-.214-.354-.273-.565-.06-.21-.09-.424-.09-.64-.002-.253.033-.49.103-.713.07-.223.173-.417.31-.584.136-.167.307-.297.512-.393.204-.097.441-.145.71-.146.304 0 .561.06.775.182.213.122.389.284.524.484.137.202.236.43.3.687.063.254.096.517.097.786v.244c0 .23-.01.463-.034.7-.023.236-.065.466-.13.686-.063.223-.153.43-.267.625-.115.194-.266.364-.451.509-.187.144-.414.258-.682.342-.268.085-.584.127-.95.127h-.066v-.566l.065-.001zM201.826 128.659l-3.469.006-.002-.484 1.731-1.93c.16-.176.293-.333.398-.47.105-.135.188-.26.25-.372.062-.112.105-.218.129-.317.024-.098.036-.198.036-.3 0-.13-.022-.254-.064-.369-.04-.114-.1-.215-.178-.299-.078-.085-.173-.153-.287-.202-.115-.05-.246-.075-.394-.074-.179 0-.335.028-.467.082-.132.053-.24.128-.329.221-.087.096-.151.21-.195.341-.043.132-.065.279-.065.438l-.672.002c0-.223.036-.434.11-.633.073-.2.182-.373.327-.521.145-.148.326-.265.541-.353.216-.085.466-.13.75-.13.25 0 .473.034.67.101.199.068.366.164.503.288.137.126.242.274.315.449.073.174.11.367.11.577.001.156-.025.312-.079.47-.053.158-.123.314-.213.472-.09.156-.195.311-.315.465-.121.155-.248.305-.382.454l-1.418 1.544 2.658-.006v.55zM205.18 125.475c0-.299-.023-.551-.066-.76-.042-.209-.106-.377-.191-.507-.086-.13-.19-.223-.315-.281-.125-.059-.27-.087-.431-.087-.16 0-.303.03-.427.089-.125.058-.23.151-.313.283-.083.13-.147.298-.19.506-.043.209-.065.462-.064.76l.003 1.026c0 .296.023.55.066.762.044.212.11.386.196.521.086.135.192.234.316.298.126.063.268.094.428.094.165 0 .31-.033.433-.096.124-.064.227-.163.31-.299.084-.135.145-.31.186-.522.041-.212.061-.466.06-.761l-.001-1.026zm.674.918c0 .434-.037.8-.114 1.096-.077.298-.188.538-.332.721-.144.183-.318.315-.522.396-.205.08-.436.12-.693.12-.255.001-.485-.038-.691-.117-.206-.08-.382-.211-.528-.394-.145-.183-.259-.422-.34-.719-.08-.297-.12-.662-.122-1.096l-.001-.807c-.001-.434.038-.798.116-1.092.078-.293.19-.53.335-.71.145-.18.32-.308.524-.386.205-.078.435-.116.69-.117.256-.001.488.038.695.114.206.078.381.206.527.385.146.18.258.416.336.708.078.294.117.657.118 1.091l.002.807zM217.185 128.63l-3.47.006v-.484l1.73-1.93c.16-.176.292-.334.397-.47.106-.135.189-.26.25-.373.063-.112.106-.218.13-.317.023-.098.035-.198.035-.3 0-.13-.021-.254-.063-.369-.04-.114-.1-.215-.178-.298-.078-.085-.174-.153-.287-.203-.115-.049-.246-.074-.394-.074-.179 0-.335.029-.467.082-.132.054-.241.128-.329.222-.087.095-.151.208-.195.34-.043.133-.065.28-.065.44h-.672c-.001-.223.036-.434.109-.632.074-.2.183-.373.328-.522.145-.147.326-.265.541-.352.216-.086.466-.13.75-.13.25 0 .472.033.67.101.199.067.366.164.503.287.137.126.242.275.315.45.073.174.11.367.11.577.001.156-.025.312-.08.47-.052.157-.123.314-.212.471-.09.156-.195.312-.315.466-.122.154-.248.304-.382.454l-1.418 1.543 2.658-.005v.55zM220.108 128.624L219.433 128.625 219.423 124.142 218.067 124.643 218.066 124.032 219.992 123.304 220.098 123.304zM232.545 128.6l-3.469.007-.002-.484 1.731-1.93c.16-.177.293-.334.397-.47.106-.136.189-.261.25-.373.063-.112.106-.218.13-.317.023-.098.035-.198.035-.3 0-.13-.02-.254-.063-.369-.04-.114-.1-.215-.178-.299-.078-.085-.174-.152-.287-.202-.115-.05-.246-.074-.394-.074-.179 0-.335.029-.467.082-.132.053-.241.128-.329.222-.087.095-.151.208-.195.34-.043.132-.065.279-.065.438l-.672.002c-.001-.223.036-.434.109-.633.074-.2.183-.373.328-.521.145-.148.326-.265.541-.353.216-.085.466-.13.75-.13.25 0 .472.034.67.101.199.068.366.164.503.288.137.126.242.274.315.449.073.174.11.367.11.577.001.156-.025.312-.079.47-.053.158-.124.315-.213.472-.09.156-.195.311-.315.465-.121.155-.248.305-.382.454l-1.418 1.544 2.658-.005v.55zM236.726 128.592l-3.468.007-.002-.484 1.73-1.93c.161-.177.293-.334.398-.47.106-.135.188-.26.25-.373.063-.113.105-.218.13-.317.023-.098.035-.198.035-.3 0-.13-.021-.254-.063-.37-.04-.113-.1-.214-.178-.298-.078-.085-.174-.152-.287-.202-.115-.05-.247-.074-.394-.074-.179 0-.335.028-.467.081-.132.054-.241.129-.329.223-.087.094-.152.208-.195.34-.044.133-.065.28-.065.439h-.672c-.001-.223.035-.433.109-.632.074-.2.183-.373.328-.521.145-.148.325-.265.541-.352.216-.086.465-.13.75-.13.249 0 .472.033.67.1.198.067.365.164.503.288.137.125.242.274.315.449.072.175.11.366.11.577 0 .156-.026.312-.08.47-.052.158-.123.315-.212.472-.09.156-.196.312-.316.466-.12.153-.248.304-.382.453l-1.418 1.544 2.659-.006v.55zM247.593 128.571l-3.469.007-.001-.484 1.73-1.93c.16-.177.293-.334.398-.47.105-.135.188-.261.25-.373.062-.113.105-.218.129-.317.024-.098.036-.198.036-.3 0-.13-.022-.254-.063-.369-.041-.114-.1-.215-.178-.3-.079-.084-.174-.15-.288-.201-.115-.05-.246-.074-.393-.074-.18 0-.335.029-.467.082-.133.053-.242.128-.33.222-.086.095-.151.208-.195.34-.043.132-.064.279-.064.438l-.673.002c0-.224.036-.434.11-.633.073-.199.183-.373.327-.521.145-.148.326-.265.542-.352.215-.086.465-.13.749-.13.25-.001.473.033.67.1.199.067.366.165.503.288.137.125.242.275.316.45.072.173.11.366.11.576 0 .156-.026.312-.08.47-.053.158-.123.315-.213.472-.09.156-.195.31-.315.466-.121.153-.248.304-.382.453l-1.418 1.544 2.658-.005v.55zM249.278 125.594l.48-.001c.175-.001.327-.023.458-.07.131-.047.24-.111.327-.192.087-.08.153-.177.195-.287.044-.111.066-.232.066-.362-.001-.304-.078-.534-.231-.692-.153-.159-.386-.238-.698-.237-.143 0-.274.021-.391.064-.117.043-.219.104-.302.182-.083.08-.148.175-.193.289-.047.112-.07.238-.069.376h-.672c-.001-.203.037-.394.115-.57.077-.178.187-.331.33-.465.142-.132.314-.236.514-.313.2-.077.422-.116.667-.116.24-.001.458.031.654.095.197.064.365.158.505.283.139.124.248.28.326.466.078.187.117.403.117.65 0 .101-.015.205-.048.314-.033.108-.082.215-.149.32-.066.104-.152.202-.257.293-.106.092-.231.168-.377.228.176.055.322.128.44.22.117.09.211.19.281.303.071.111.121.229.15.352.03.124.045.245.045.363 0 .248-.041.468-.126.66-.084.194-.203.355-.352.487-.15.13-.327.231-.53.3-.203.07-.425.104-.665.105-.23 0-.448-.03-.651-.094-.204-.065-.382-.159-.536-.283-.152-.125-.273-.278-.363-.461-.088-.183-.133-.392-.134-.627l.677-.001c.001.138.024.263.07.376.046.113.113.208.2.29.088.081.194.144.317.187.124.042.263.065.418.065.156 0 .295-.02.418-.061.124-.04.23-.102.317-.184.086-.083.153-.187.199-.31.046-.124.069-.268.068-.433 0-.165-.027-.308-.08-.429-.054-.12-.13-.22-.228-.299-.098-.08-.217-.138-.355-.176-.139-.039-.294-.058-.466-.057l-.48.001v-.55zM262.332 128.543l-3.469.007-.002-.484 1.731-1.93c.16-.178.293-.335.397-.47.106-.136.189-.262.25-.373.063-.113.106-.218.13-.317.023-.098.035-.198.035-.3 0-.13-.02-.254-.063-.37-.04-.114-.1-.214-.178-.298-.078-.085-.174-.152-.287-.202-.115-.05-.246-.075-.394-.075-.179 0-.335.03-.467.082-.132.054-.241.129-.329.223-.087.094-.151.208-.195.34-.043.132-.065.278-.065.438l-.672.001c-.001-.223.036-.433.109-.632.074-.2.183-.373.328-.521.145-.148.326-.265.541-.352.216-.086.466-.13.75-.13.25-.002.472.032.67.1.199.067.366.164.503.288.137.125.242.274.315.449.073.174.11.366.11.577.001.156-.025.312-.079.47-.053.158-.124.315-.213.472-.09.156-.195.31-.315.466-.121.153-.248.304-.382.453l-1.418 1.543 2.658-.005v.55zM263.557 126.763l1.648-.004-.006-2.596-.08.145-1.562 2.455zm2.324-.004l.734-.002.002.549-.735.001.003 1.23h-.677l-.003-1.229-2.41.005-.001-.396 2.364-3.674h.716l.007 3.516zM172.067 144.075l-3.469.007v-.484l1.73-1.93c.16-.177.293-.334.398-.47.104-.135.188-.26.25-.372.061-.114.104-.22.128-.318.024-.098.037-.198.037-.3-.001-.13-.023-.254-.063-.37-.042-.113-.102-.213-.18-.297-.077-.086-.173-.153-.287-.203-.114-.049-.245-.074-.393-.074-.18 0-.335.029-.467.081-.132.055-.242.13-.329.223-.086.094-.152.209-.196.34-.042.133-.064.28-.064.439h-.673c0-.223.036-.433.11-.632.074-.2.183-.372.328-.521.145-.148.326-.265.542-.352.215-.086.465-.13.749-.13.25 0 .473.033.67.1.198.067.365.164.502.289.138.124.243.273.317.448.072.175.109.367.11.578 0 .156-.027.312-.08.47-.053.157-.124.314-.214.47-.09.158-.194.313-.315.467-.121.153-.248.305-.381.453l-1.419 1.544 2.658-.006.001.55zM173.084 141.42l.264-2.642 2.713-.004v.621l-2.14.005-.159 1.443c.095-.056.217-.108.366-.157.15-.049.321-.073.518-.074.242 0 .462.041.657.125.195.083.36.202.497.354.136.155.24.34.314.56.072.217.11.46.11.73 0 .255-.033.488-.103.703-.068.215-.17.4-.309.556-.138.158-.312.28-.521.37-.21.088-.456.132-.74.132-.213.001-.415-.028-.605-.087-.191-.06-.36-.148-.508-.27-.149-.12-.27-.272-.365-.457-.095-.184-.153-.4-.176-.647l.637-.001c.042.303.15.53.325.684.174.154.405.231.691.23.16 0 .302-.028.425-.085.124-.055.229-.135.315-.24.085-.104.15-.232.195-.38.044-.15.066-.316.066-.5 0-.166-.024-.318-.07-.462-.046-.143-.115-.267-.204-.372-.09-.106-.201-.188-.333-.249-.132-.06-.283-.09-.453-.09-.114 0-.212.008-.295.025-.082.016-.156.039-.221.068-.065.029-.126.064-.18.106-.055.043-.112.09-.172.142l-.539-.138zM186.961 144.047l-3.468.007-.001-.484 1.73-1.93c.16-.178.293-.335.398-.47.105-.136.188-.262.25-.373.062-.113.105-.219.128-.317.024-.099.037-.198.037-.3 0-.13-.022-.254-.063-.37-.042-.114-.101-.214-.179-.299-.078-.084-.174-.151-.287-.202-.114-.049-.246-.074-.393-.074-.18 0-.336.03-.467.082-.133.054-.242.129-.33.223-.086.094-.152.207-.195.34-.043.132-.065.278-.065.438l-.672.001c0-.223.035-.433.11-.632.073-.2.183-.373.328-.522.145-.147.325-.265.54-.352.217-.086.466-.13.75-.13.25 0 .473.033.67.1.198.068.366.165.503.289.137.125.243.274.316.449.072.174.109.366.11.577 0 .156-.027.312-.08.47-.053.158-.124.315-.213.471-.09.156-.195.311-.316.467-.12.153-.248.304-.38.453l-1.42 1.543 2.659-.005v.55zM189.422 141.129c-.12 0-.233.02-.342.057-.11.038-.209.09-.3.156-.09.065-.17.142-.24.231-.069.089-.12.183-.157.285v.248c.001.237.03.446.087.627.058.18.134.331.23.454s.206.215.33.277c.124.063.252.095.386.095.154 0 .293-.032.414-.09.12-.06.223-.144.307-.253.083-.107.146-.235.19-.383.043-.148.064-.31.064-.487 0-.158-.02-.31-.06-.456-.041-.147-.101-.277-.182-.39-.08-.111-.18-.202-.302-.27-.121-.068-.263-.101-.425-.101zm.878-2.387l.002.57h-.062c-.322.002-.596.052-.822.148-.225.098-.41.228-.555.388-.145.163-.255.347-.33.556-.074.209-.121.423-.14.647.145-.167.314-.29.51-.366.195-.076.404-.115.63-.115.264 0 .492.048.682.15.19.1.348.23.472.394s.216.35.275.559c.06.207.09.42.09.639.002.252-.033.487-.103.708-.07.22-.174.41-.312.57-.137.162-.309.29-.511.383-.204.094-.44.14-.71.141-.286.001-.536-.058-.749-.176-.214-.119-.392-.274-.533-.466-.142-.194-.249-.41-.32-.652-.07-.243-.106-.486-.107-.731v-.317c-.001-.247.014-.493.044-.74.03-.245.081-.48.156-.704.075-.226.175-.434.3-.627.124-.192.28-.36.467-.503.188-.142.41-.253.67-.333.257-.081.556-.122.895-.123h.061zM201.855 144.018l-3.469.007v-.485l1.73-1.93c.16-.176.293-.333.398-.47.104-.135.188-.26.25-.372.061-.112.104-.218.128-.317.024-.098.037-.198.037-.3-.001-.13-.023-.254-.064-.369-.041-.114-.1-.215-.178-.299-.078-.085-.174-.152-.288-.202-.114-.05-.245-.075-.393-.074-.18 0-.335.028-.467.082-.133.053-.242.128-.329.221-.087.096-.152.21-.196.341-.042.132-.064.279-.064.438l-.673.002c0-.223.036-.434.11-.633.073-.2.183-.373.328-.52.145-.15.326-.266.541-.354.216-.085.466-.13.75-.13.25 0 .473.034.67.101.198.068.365.164.502.288.137.126.243.274.316.449.073.174.11.367.11.577 0 .156-.026.312-.079.47-.054.158-.124.314-.214.472-.09.156-.194.311-.315.465-.121.155-.248.306-.381.454l-1.42 1.544 2.66-.006v.55zM205.977 139.094L203.793 144.014 203.088 144.016 205.264 139.27 202.399 139.276 202.398 138.723 205.976 138.717zM217.214 143.989l-3.469.006v-.484l1.73-1.93c.16-.176.292-.334.397-.47.105-.135.189-.26.25-.373.062-.112.105-.218.129-.317.024-.098.036-.198.036-.3 0-.13-.022-.254-.063-.369-.041-.114-.101-.215-.179-.298-.077-.085-.174-.153-.287-.203-.114-.048-.245-.074-.393-.074-.18 0-.336.029-.467.082-.133.054-.242.128-.329.222-.087.095-.152.208-.196.34-.042.133-.065.28-.065.44h-.672c0-.223.036-.434.11-.632.073-.2.183-.373.328-.522.145-.147.326-.265.541-.352.216-.086.466-.13.75-.13.25 0 .472.033.67.101.198.067.365.164.502.287.137.126.243.275.316.45.073.174.11.367.11.577 0 .156-.026.312-.08.47-.053.157-.124.314-.213.471-.09.156-.194.312-.315.466-.121.154-.248.305-.381.454l-1.42 1.543 2.659-.005v.55zM220.457 140.08c0-.13-.021-.251-.064-.363-.042-.111-.103-.208-.182-.289-.08-.08-.173-.144-.282-.19-.11-.046-.23-.069-.36-.069-.131.001-.251.023-.36.065-.11.044-.203.104-.282.183-.078.078-.139.174-.181.288-.043.111-.063.24-.063.38 0 .135.022.259.064.37.043.111.103.207.181.285.078.078.17.139.28.18.11.043.23.065.364.065.133 0 .254-.023.363-.065.11-.043.202-.104.28-.183.078-.078.137-.173.179-.284.043-.112.063-.237.063-.373m.129 2.459c-.001-.148-.026-.284-.076-.408-.05-.123-.12-.229-.21-.317s-.197-.157-.322-.205c-.124-.048-.262-.072-.412-.071-.153 0-.291.024-.415.072-.123.05-.229.119-.316.206-.087.089-.154.196-.2.32-.048.124-.072.259-.07.407 0 .152.022.288.07.407.045.12.112.219.2.303.086.083.193.148.318.19.125.043.266.065.424.064.155 0 .295-.022.42-.065.124-.044.23-.109.318-.191.087-.085.153-.186.2-.305.048-.119.07-.255.07-.407m.545-2.47c.001.264-.069.499-.208.705-.139.207-.327.368-.564.486.136.057.258.13.37.217.11.087.205.184.283.295.08.11.14.231.183.362.043.13.064.27.064.418.001.243-.042.457-.127.643-.086.188-.205.345-.356.472-.15.127-.329.225-.534.29-.204.066-.426.099-.663.099-.238 0-.46-.03-.666-.096-.206-.064-.384-.161-.534-.288-.151-.127-.27-.283-.356-.47-.087-.187-.13-.402-.13-.644-.001-.148.02-.287.06-.418.041-.131.1-.252.176-.364.076-.111.169-.212.278-.299.109-.087.23-.16.366-.219-.235-.116-.42-.276-.556-.482-.137-.206-.205-.44-.206-.702 0-.23.038-.436.115-.616.078-.18.185-.333.323-.457.138-.123.303-.219.494-.285.191-.066.4-.099.625-.1.226 0 .434.033.624.097.19.067.356.16.495.284.14.124.25.275.327.455.077.181.116.386.117.616M232.574 143.96l-3.469.006v-.484l1.73-1.93c.16-.177.292-.334.397-.47.105-.136.189-.261.25-.373.062-.112.105-.218.129-.317.024-.098.036-.198.036-.3 0-.13-.022-.254-.063-.369-.042-.114-.101-.215-.179-.3-.077-.084-.174-.15-.287-.201-.114-.05-.245-.074-.393-.074-.18 0-.336.029-.467.082-.133.053-.242.127-.329.222-.087.095-.152.208-.196.34-.042.132-.065.279-.065.438l-.672.002c0-.223.036-.434.11-.633.073-.2.183-.373.328-.521.145-.148.326-.265.541-.353.216-.085.466-.13.75-.13.249 0 .472.034.67.101.198.067.365.164.502.288.137.125.243.274.316.448.073.175.11.368.11.578 0 .156-.026.312-.08.47-.053.158-.124.315-.213.472-.09.156-.194.311-.315.465-.121.155-.248.305-.381.454l-1.42 1.544 2.659-.005v.55zM234.824 141.628c.114 0 .224-.018.33-.055.107-.037.205-.089.295-.153.09-.066.17-.144.242-.23.07-.087.128-.183.171-.284v-.27c0-.24-.029-.451-.085-.637-.056-.186-.13-.342-.224-.467s-.202-.222-.324-.287c-.123-.064-.25-.097-.384-.097-.158 0-.297.032-.418.095-.12.064-.224.15-.307.26-.083.112-.147.241-.19.392-.043.15-.065.314-.065.492 0 .157.02.309.06.458.038.15.097.282.177.399.079.117.178.21.298.279.12.07.262.105.424.105zm-.803 1.764c.363 0 .663-.049.897-.149.235-.098.421-.229.557-.393.138-.164.234-.352.29-.565.054-.212.086-.43.096-.66-.141.168-.309.303-.503.406-.195.102-.41.152-.642.153-.262 0-.487-.05-.678-.153-.19-.102-.348-.237-.47-.403-.123-.166-.214-.353-.274-.565-.06-.21-.09-.423-.09-.64 0-.252.034-.489.104-.712.07-.223.173-.419.31-.585.136-.166.307-.297.512-.393.204-.097.441-.144.71-.145.304 0 .561.06.775.181.213.123.389.285.524.485.137.201.236.43.3.686.063.254.096.517.097.786v.244c0 .23-.01.462-.034.7-.023.235-.065.466-.13.687-.063.222-.153.43-.267.624-.115.195-.266.365-.452.509-.186.144-.414.258-.681.343-.268.084-.585.125-.95.126h-.066l-.001-.567h.066zM245.126 140.96h.48c.175 0 .327-.023.458-.07.13-.047.24-.11.327-.192.087-.081.152-.178.195-.288.044-.11.066-.23.066-.361-.001-.303-.078-.534-.231-.692-.153-.158-.386-.239-.698-.238-.144 0-.274.022-.392.065-.116.043-.218.104-.301.182-.083.08-.149.175-.194.288-.046.113-.069.238-.069.376l-.672.002c0-.204.038-.395.116-.571.076-.178.186-.331.33-.464.142-.133.314-.237.513-.314.2-.078.422-.116.668-.117.24 0 .457.033.653.096.197.064.366.158.505.283.14.124.249.28.326.467.078.186.117.402.118.649 0 .1-.016.205-.049.314-.032.109-.081.215-.148.32-.066.105-.152.202-.257.293-.106.092-.231.168-.377.228.176.055.321.128.439.22.118.09.212.191.282.303.07.112.121.228.15.351.03.125.044.246.044.364.001.247-.04.468-.125.66-.084.194-.203.355-.352.486-.15.132-.327.232-.53.302-.204.069-.425.104-.666.104-.23 0-.447-.03-.65-.094-.204-.065-.383-.158-.536-.283-.152-.125-.274-.278-.363-.46-.089-.184-.133-.393-.134-.628l.677-.002c0 .138.024.264.07.377.046.112.113.209.2.29.088.081.194.144.317.187.124.043.263.066.418.065.156 0 .295-.021.418-.061.124-.04.23-.102.316-.185.087-.082.154-.185.2-.309.046-.123.068-.267.068-.433 0-.164-.027-.307-.081-.428-.054-.121-.129-.222-.228-.3-.098-.079-.216-.138-.355-.176-.138-.038-.293-.057-.465-.057l-.48.002-.001-.55zM250.977 140.746c-.001-.299-.023-.551-.066-.76-.043-.209-.107-.378-.192-.506-.085-.13-.19-.224-.314-.282-.126-.058-.27-.087-.432-.087-.16 0-.302.03-.427.088-.125.06-.229.153-.312.283-.084.13-.147.299-.19.507-.043.21-.065.462-.064.761l.001 1.026c.001.295.024.55.068.762.044.21.109.385.195.52.087.136.192.235.317.298s.268.094.428.093c.164 0 .31-.031.433-.095.122-.064.226-.163.31-.298.083-.137.145-.31.186-.523.04-.212.061-.466.06-.762l-.001-1.025zm.674.918c0 .434-.037.8-.115 1.097-.077.297-.187.537-.331.72-.144.184-.318.315-.522.396-.205.08-.436.12-.693.12-.255.001-.485-.038-.692-.117-.205-.08-.381-.21-.527-.394-.146-.183-.26-.422-.34-.72-.08-.297-.121-.661-.122-1.095l-.002-.807c0-.434.039-.798.116-1.092.079-.292.191-.53.335-.71.146-.179.32-.308.525-.386.205-.078.435-.117.69-.117.256 0 .488.038.694.115.206.076.382.206.528.385.145.178.258.415.335.708.079.293.118.656.119 1.09l.002.807zM259.865 140.933l.48-.002c.174 0 .327-.022.457-.07.132-.046.24-.11.328-.19.086-.083.152-.179.195-.289.044-.11.065-.23.065-.361 0-.304-.077-.535-.23-.692-.153-.159-.387-.239-.699-.238-.143 0-.273.022-.39.065-.118.042-.219.104-.303.182-.082.08-.148.175-.193.288-.046.113-.069.238-.069.376l-.672.002c0-.204.038-.395.115-.571.077-.178.187-.332.33-.465.143-.132.315-.237.514-.313.2-.078.422-.116.668-.117.239 0 .457.032.653.096.197.063.366.158.505.282.14.125.249.28.326.467.078.187.117.403.118.65 0 .1-.016.205-.049.314-.032.108-.082.215-.148.32-.067.105-.153.202-.258.293-.105.092-.23.168-.376.227.175.056.321.13.439.22.117.09.212.192.282.304.07.111.12.228.15.35.03.125.044.246.044.365.001.247-.04.468-.125.66-.085.194-.203.355-.352.486-.151.132-.327.232-.531.302-.203.069-.425.104-.665.104-.23 0-.447-.031-.651-.094-.204-.065-.382-.159-.535-.283-.153-.125-.274-.278-.363-.461-.089-.183-.133-.392-.134-.627l.677-.002c0 .138.024.263.07.377.046.112.113.208.2.29.088.081.193.143.317.187.123.042.262.065.417.065.156 0 .295-.022.419-.062.123-.039.23-.101.316-.184.087-.082.153-.186.2-.31.046-.123.068-.267.068-.432 0-.165-.028-.308-.081-.429-.054-.12-.129-.221-.228-.299-.098-.08-.216-.138-.355-.176-.138-.039-.293-.057-.466-.057l-.48.001v-.55zM265.285 143.896L264.609 143.898 264.6 139.414 263.244 139.916 263.243 139.304 265.17 138.577 265.274 138.577z" mask="url(#prefix__e)"/>
            <path fill="#FFC384" d="M164.734 73.801l.027 14.278 14.278-.027-.027-14.278-14.278.027zm-.823 15.132l-.031-15.982 15.982-.03.03 15.982-15.981.03z" mask="url(#prefix__e)"/>
            <path fill="#FFC384" d="M179.864 73.772l.027 14.278 14.279-.027-.028-14.278-14.278.027zm-.823 15.132l-.031-15.982 15.982-.03.032 15.982-15.983.03z" mask="url(#prefix__e)"/>
            <path fill="#FFC384" d="M194.994 73.743l.027 14.278 14.279-.027-.028-14.277-14.278.026zm-.823 15.132l-.03-15.982 15.981-.03.032 15.982-15.983.03z" mask="url(#prefix__e)"/>
            <path fill="#FFC384" d="M210.124 73.715l.028 14.277 14.277-.027-.027-14.277-14.278.027zm-.823 15.131l-.03-15.982 15.982-.03.03 15.981-15.982.031z" mask="url(#prefix__e)"/>
            <path fill="#FFC384" d="M225.255 73.686l.027 14.277 14.278-.026-.028-14.278-14.277.027zm-.824 15.13l-.03-15.98 15.982-.031.03 15.982-15.982.03z" mask="url(#prefix__e)"/>
            <path fill="#FFC384" d="M240.385 73.657l.027 14.278 14.278-.028-.027-14.278-14.278.028zm-.823 15.132l-.03-15.983 15.981-.03.031 15.982-15.982.03z" mask="url(#prefix__e)"/>
            <path fill="#FFC384" d="M255.515 73.628l.027 14.278 14.279-.028-.028-14.277-14.278.027zm-.823 15.131l-.031-15.982 15.982-.03.032 15.982-15.983.03zM164.763 88.93l.027 14.279 14.278-.027-.028-14.278-14.277.027zm-.824 15.133l-.03-15.983 15.982-.03.031 15.982-15.983.03z" mask="url(#prefix__e)"/>
            <path fill="#FFC384" d="M179.893 88.902l.027 14.278 14.278-.028-.027-14.277-14.278.027zm-.823 15.132l-.031-15.982 15.982-.03.03 15.98-15.981.032z" mask="url(#prefix__e)"/>
            <path fill="#FFC384" d="M195.023 88.873l.028 14.278 14.277-.028-.027-14.277-14.278.027zm-.823 15.132l-.03-15.982 15.981-.03.031 15.98-15.982.032z" mask="url(#prefix__e)"/>
            <path fill="#FFC384" d="M210.154 88.844l.027 14.277 14.278-.026-.028-14.278-14.277.027zm-.824 15.131l-.03-15.981 15.982-.03.03 15.982-15.982.03z" mask="url(#prefix__e)"/>
            <path fill="#FFC384" d="M225.283 88.815l.028 14.278 14.278-.027-.028-14.277-14.278.026zm-.823 15.132l-.03-15.982 15.982-.03.031 15.981-15.983.031z" mask="url(#prefix__e)"/>
            <path fill="#FFC384" d="M240.414 88.787l.027 14.277 14.278-.027-.028-14.277-14.277.027zm-.824 15.13l-.03-15.98 15.982-.031.03 15.981-15.982.03z" mask="url(#prefix__e)"/>
            <path fill="#FFC384" d="M255.544 88.758l.027 14.277 14.278-.027-.027-14.278-14.278.028zm-.823 15.13l-.03-15.98 15.981-.031.031 15.981-15.982.03zM164.791 103.993l.028 14.277 14.278-.027-.028-14.278-14.278.028zm-.823 15.13l-.03-15.98 15.982-.031.031 15.981-15.983.03z" mask="url(#prefix__e)"/>
            <path fill="#FFC384" d="M179.922 103.964l.027 14.277 14.278-.027-.028-14.278-14.277.028zm-.824 15.13l-.03-15.98 15.982-.032.031 15.982-15.983.03z" mask="url(#prefix__e)"/>
            <path fill="#FFC384" d="M195.052 103.934l.027 14.278 14.278-.027-.027-14.278-14.278.027zm-.823 15.132l-.031-15.982 15.982-.03.03 15.982-15.981.03z" mask="url(#prefix__e)"/>
            <path fill="#FFC384" d="M210.182 103.905l.028 14.278 14.277-.027-.027-14.277-14.278.026zm-.823 15.132l-.03-15.982 15.982-.03.03 15.982-15.982.03z" mask="url(#prefix__e)"/>
            <path fill="#FFC384" d="M225.313 103.877l.027 14.277 14.278-.027-.028-14.277-14.277.027zm-.824 15.131l-.03-15.981 15.982-.031.03 15.981-15.982.031z" mask="url(#prefix__e)"/>
            <path fill="#FFC384" d="M240.442 103.848l.028 14.277 14.278-.027-.028-14.277-14.278.027zm-.823 15.131l-.03-15.982 15.982-.03.031 15.981-15.983.031z" mask="url(#prefix__e)"/>
            <path fill="#FFC384" d="M255.573 103.819l.027 14.277 14.278-.026-.027-14.278-14.278.027zm-.823 15.13l-.031-15.98 15.982-.031.03 15.982-15.981.03zM164.82 119.122l.028 14.277 14.277-.026-.027-14.278-14.278.027zm-.823 15.131l-.03-15.981 15.982-.031.03 15.982-15.982.03z" mask="url(#prefix__e)"/>
            <path fill="#FFC384" d="M179.95 119.093l.028 14.278 14.278-.027-.028-14.278-14.277.027zm-.823 15.132l-.03-15.983 15.982-.03.03 15.982-15.982.03z" mask="url(#prefix__e)"/>
            <path fill="#FFC384" d="M195.081 119.064l.027 14.278 14.278-.027-.027-14.278-14.278.027zm-.823 15.132l-.03-15.983 15.981-.03.031 15.982-15.982.03z" mask="url(#prefix__e)"/>
            <path fill="#FFC384" d="M210.211 119.035l.027 14.278 14.279-.028-.028-14.277-14.278.027zm-.823 15.132l-.031-15.982 15.982-.03.032 15.98-15.983.032z" mask="url(#prefix__e)"/>
            <path fill="#FFC384" d="M225.341 119.006l.028 14.278 14.277-.027-.027-14.278-14.278.027zm-.823 15.131l-.03-15.981 15.982-.03.03 15.982-15.982.03z" mask="url(#prefix__e)"/>
            <path fill="#FFC384" d="M240.472 118.977l.027 14.278 14.278-.027-.028-14.278-14.277.027zm-.824 15.132l-.03-15.982 15.982-.03.03 15.982-15.982.03z" mask="url(#prefix__e)"/>
            <path fill="#FFC384" d="M255.602 118.948l.027 14.278 14.278-.027-.027-14.277-14.278.026zm-.823 15.132l-.031-15.982 15.982-.03.03 15.981-15.981.031zM164.85 134.183l.026 14.278 14.279-.027-.028-14.278-14.278.027zm-.824 15.132l-.03-15.982 15.981-.031.032 15.982-15.983.031z" mask="url(#prefix__e)"/>
            <path fill="#FFC384" d="M179.98 134.154l.027 14.278 14.277-.027-.027-14.277-14.278.026zm-.824 15.132l-.03-15.982 15.982-.03.03 15.981-15.982.031z" mask="url(#prefix__e)"/>
            <path fill="#FFC384" d="M195.11 134.126l.027 14.277 14.278-.027-.028-14.278-14.277.028zm-.824 15.13l-.03-15.98 15.982-.031.03 15.981-15.982.03z" mask="url(#prefix__e)"/>
            <path fill="#FFC384" d="M210.24 134.097l.027 14.277 14.278-.028-.027-14.277-14.278.028zm-.823 15.13l-.03-15.98 15.981-.032.031 15.982-15.982.03z" mask="url(#prefix__e)"/>
            <path fill="#FFC384" d="M225.37 134.067l.027 14.278 14.279-.027-.028-14.278-14.278.027zm-.823 15.132l-.031-15.982 15.982-.03.032 15.982-15.983.03z" mask="url(#prefix__e)"/>
            <path fill="#FFC384" d="M240.5 134.038l.028 14.278 14.277-.027-.027-14.277-14.278.026zm-.823 15.132l-.03-15.982 15.982-.03.03 15.982-15.982.03z" mask="url(#prefix__e)"/>
            <path fill="#FFC384" d="M255.63 134.01l.028 14.277 14.278-.027-.028-14.277-14.277.027zm-.823 15.131l-.03-15.982 15.982-.03.03 15.981-15.982.031zM164.7 56.238l.033 16.71 105.059-.2-.033-16.71-105.059.2zm-.818 17.565l-.036-18.416 106.764-.203.036 18.415-106.764.204z" mask="url(#prefix__e)"/>
            <path fill="#FFC384" d="M179.743 61.708l-3.546.007c-.685 0-1.243-.553-1.244-1.239l-.012-6.545c-.001-.686.553-1.242 1.239-1.244l3.546-.007c.685 0 1.242.553 1.244 1.24l.012 6.544c.001.686-.554 1.243-1.239 1.244M219.014 61.633l-3.547.007c-.685 0-1.242-.554-1.243-1.24l-.013-6.544c-.002-.686.553-1.242 1.238-1.244l3.547-.007c.686-.001 1.242.553 1.243 1.24l.013 6.545c.002.685-.553 1.242-1.238 1.243M258.283 61.558l-3.546.006c-.685.002-1.241-.553-1.243-1.238l-.013-6.546c0-.685.554-1.241 1.24-1.243l3.545-.007c.686 0 1.242.554 1.244 1.24l.013 6.544c0 .685-.553 1.243-1.24 1.244" mask="url(#prefix__e)"/>
            <path fill="#FFCD92" d="M70.151 221.287L77.785 219.629 81.785 223.205 85.416 262.914 82.763 277.816 68.877 280.917 66.12 253.869z" mask="url(#prefix__e)"/>
            <path fill="#FFB7B0" d="M8.135 388.02l1.395-6.175 53.414-34.571-14.278-6.584L6.54 372.68l-3.187.736v11.615s1.394 2.79 4.78 2.989" mask="url(#prefix__e)"/>
            <path fill="#EFA29E" d="M59.906 407.956l2.74-60.682h14.493l-8.166 57.322 5.263 4.812s-3.917 3.446-8.307 2.358c-4.39-1.088-6.023-3.81-6.023-3.81" mask="url(#prefix__e)"/>
            <path fill="#8E9ABC" d="M4.004 373.079l-3.077 1.597c-.633.329-.998 1.008-.916 1.717.443 3.841 2.04 15.932 4.87 18.48.961.865 1.78 1.538 2.459 2.059.957.733 2.319-.058 2.164-1.254l-.986-9.352s-3.906-.796-4.514-2.44V373.08zM59.937 406.81l-.183 3.704c-.048.977.644 1.833 1.61 1.988 4.403.702 16.114 2.41 19.586 1.32.909-.641.755-2.032-.271-2.46l-7.786-3.24s-3.346 2.879-6.027 2.324c-2.681-.557-5.064-1.36-6.93-3.636" mask="url(#prefix__e)"/>
            <path fill="#C18AB6" d="M78.542 277.956c.998-.242 1.946-.544 2.657-.913l4.656-1.545L81.6 345.85s-19.116 7.743-37.464-6.86c3.012-2.045 4.667-5.572 4.319-9.195l-1.165-12.108c-1.056-10.97-.844-22.024.63-32.944l1.1-8.144 20.886 1.932c2.89.268 5.813.11 8.635-.575" mask="url(#prefix__e)"/>
            <path fill="#AD7BA4" d="M55.2 345.354s-4.897-2.256-11.063-6.363c3.011-2.046 4.667-5.573 4.319-9.196l-1.165-12.108c-1.056-10.97-.845-22.024.63-32.944l1.1-8.144 9.536 1.537c-7.495 14.656-3.357 67.218-3.357 67.218" mask="url(#prefix__e)"/>
            <path fill="#FFB7B0" d="M76.916 176.687s2.178 6.065 2.023 10.264l1.511 2.016c.456.608.344 1.47-.254 1.939l-1.102.866s1.71 8.864-1.4 9.486c-3.11.622-5.132.933-5.132.933s-1.4 4.355 0 6.686l4.537 10.9-6.948 1.51L58.1 208.412l5.132-10.575s-4.16-4.092-3.396-8.68c1.021-6.145 7.91-13.183 17.081-12.47" mask="url(#prefix__e)"/>
            <path fill="#E27F71" d="M63.895 187.51s11.729-2.368 13.853-8.15c0 0-.832-10.138-10.318-8.738-9.487 1.4-16.018 5.287-15.708 15.706.31 10.42 11.509 11.509 11.509 11.509l.001-5.91s-2.49-.622-2.023-2.8c.467-2.177 2.686-1.618 2.686-1.618" mask="url(#prefix__e)"/>
            <path fill="#D8726C" d="M52.139 181.58s-8.348-6.138-2.439-11.737c5.91-5.598 10.003 2.865 10.003 2.865s-5.747 3.034-7.564 8.871" mask="url(#prefix__e)"/>
            <path fill="#E279BF" d="M84.418 235.501L103.724 226.635 104.306 233.97 87.74 245.132z" mask="url(#prefix__e)"/>
            <path fill="#E591CD" d="M70.151 221.287l-12.114-12.943s-7.93 1.848-10.462 13.443c-.937 4.286-.762 8.742.275 13.007l4.573 18.796s-3.844 12.115-3.402 23.008c0 0 15.778 2.778 20.394 1.888l.736-57.199z" mask="url(#prefix__e)"/>
            <path fill="#E279BF" d="M81.2 277.043l4.655-1.544 1.664-29.183-2.212-15.761v-5.55c0-2.925-.946-5.804-2.816-8.056-4.16-5.008-9.93-8.071-9.93-8.071l4.538 10.899c3.617 7.177 4.515 31.81 4.1 57.266" mask="url(#prefix__e)"/>
            <path fill="#E591CD" d="M84.421 239.351l-14.27-18.064-19.222 8.332s21.406 24.889 31.202 26.164c6.783.883 25.3-5.247 36.052-9.103-.747-2.587-1.55-5.165-2.431-7.776l-31.33.447z" mask="url(#prefix__e)"/>
            <path fill="#FFB7B0" d="M144.768 236.78c-.225-.139-.492-.194-.753-.158l-10.294 1.436.85-.428c.51-.257.685-.953.285-1.36-.583-.594-1.499-.817-2.329-.462l-8.638 3.686-7.956.113c.808 2.392 1.544 4.754 2.227 7.124 4.375-1.57 7.352-2.727 7.352-2.727l4.288-.187c4.69-.081 11.664-3.39 14.892-5.059.788-.405.83-1.513.076-1.978" mask="url(#prefix__e)"/>
            <path fill="#625E7A" d="M76.745 187.35c0 .476-.22.863-.489.863-.27 0-.488-.387-.488-.864s.218-.863.488-.863.489.386.489.863" mask="url(#prefix__e)"/>
            <path fill="#6C60B7" d="M73.76 186.484c.056-.282.188-.528.339-.76.149-.237.344-.439.56-.62.224-.17.47-.323.75-.404.277-.078.575-.104.848-.018-.257.128-.477.24-.685.376-.202.148-.401.286-.593.444l-.588.482c-.2.164-.4.336-.63.5" mask="url(#prefix__e)"/>
            <path fill="#FFF" d="M75.768 195.278s2.054 1.41 3.792 1.49v-2.563l-3.792 1.073z" mask="url(#prefix__e)"/>
            <path fill="#EAD0E8" d="M73.166 251.614c-.105 0-.21-.038-.293-.117L53.697 233.36c-.172-.161-.18-.432-.017-.603.162-.17.432-.178.602-.016l19.178 18.138c.17.16.178.43.016.602-.084.088-.197.133-.31.133M86.573 239.998c-.014 0-.029 0-.044-.002l-2.151-.222c-.11-.01-.21-.063-.28-.146l-4.545-5.316c-.153-.178-.132-.447.047-.6.178-.154.447-.132.6.047l4.434 5.186 1.982.204c.234.024.404.232.38.467-.022.22-.207.382-.423.382" mask="url(#prefix__e)"/>
            <path fill="#77938E" d="M596.447 394.95l2.392 1.929c.466.376.673.985.525 1.566-.827 3.236-3.858 13.666-8.908 15.293 0 0-.603.24-1.349.33-.92.108-1.579-.867-1.119-1.67 1.157-2.023 3.222-5.816 3.584-7.7 0 0 3.668.39 4.6-4.415l.275-5.333z" mask="url(#prefix__e)"/>
            <path fill="#FFB7B0" d="M596.447 394.95l-3.141-3.757-14.936-30.264-9.344-21.103-18.472 1.983 40.714 58.422.304 4.468c5.993.203 4.875-9.749 4.875-9.749" mask="url(#prefix__e)"/>
            <path fill="#B5CEE2" d="M527.341 228.738L530.522 250.315 536.6 250.315 531.49 227.355z" mask="url(#prefix__e)"/>
            <path fill="#D9EFFF" d="M530.522 250.316s-1.739 62.482-.353 92.396c0 0 32.86 3.596 44.479-5.256l-11.343-56.71s-14.136 2.954-19.219-9.18c-5.083-12.134-5.529-21.25-5.529-21.25h-8.035z" mask="url(#prefix__e)"/>
            <path stroke="#CCD5DD" stroke-width="1.057" d="M530.522 250.316s-1.739 62.482-.353 92.396c0 0 32.86 3.596 44.479-5.256l-11.343-56.71s-14.136 2.954-19.219-9.18c-5.083-12.134-5.529-21.25-5.529-21.25h-8.035z" mask="url(#prefix__e)"/>
            <path fill="#444" d="M541.034 205.111s-6.797 2.485-12.251-.531c0 0 4.644-23.694 13.334-29.349 0 0 4.93 21.098-1.083 29.88" mask="url(#prefix__e)"/>
            <path fill="#84B78F" d="M534.935 214.21l-20.9-21.975c-.531-.557-.965-1.201-1.283-1.903l-10.218-22.546 6.087-5.348 13.095 23.238 23.489 22.57-10.27 5.964z" mask="url(#prefix__e)"/>
            <path fill="#FFB7B0" d="M542.118 175.231s-3.743 5.32-3.26 8.791l-2.17 2.027c-.504.47-.586 1.291-.094 1.772.166.163.402.313.73.427 0 0-2.111 8.003.706 9.026 2.818 1.023 3.634.674 3.634.674s.51 4.357-.812 6.517c-.417.68-.86 1.343-1.195 2.067-1.226 2.659-3.658 8.278-3.425 10.58 0 0 13.887-10.706 17.534-10.782 0 0-2.857-5.54-2.874-10.179l-.017-4.64s3.807 1.415 3.807-2.005c0-3.358-3.155-2.524-3.155-2.524s-8.709-4.56-9.41-11.751" mask="url(#prefix__e)"/>
            <path fill="#606060" d="M542.118 175.231s6.827-7.26 15.399-1.408c4.109 2.805 6.61 7.448 6.913 12.414.12 1.956.04 4.257-.438 6.83l1.984 10.816c.397 2.16-1.09 4.217-3.266 4.504-2.497.33-5.84.144-8.944-2.057 0 0-4.094-7.841-2.89-14.818 0 0 2.942 1.16 3.488-1.833 0 0 .631-2.82-2.837-2.697 0 0-8.68-2.846-9.41-11.751" mask="url(#prefix__e)"/>
        </g>
        <g transform="translate(56.998 28.002) translate(497.713 201.436)">
            <mask id="prefix__h" fill="#fff">
                <use xlink:href="#prefix__f"/>
            </mask>
            <path fill="url(#prefix__g)" d="M.027 3.548s7.09 17.832 16.347 24.149c1.926 1.315 4.318 1.758 6.602 1.289l6.652.046 4.63-.643s.369 6.086 1.664 17.39l.403 3.498.461 3.922c2.627 22.172 6.425 50.727 9.067 55.712 8.122 15.319 30.58 12.79 30.58 12.79S59.274 48.216 60.89 31.489c1.566-16.207-1.65-22.41-4.837-26.281 0 0-11.456 1.107-17.557 6.916l-16.06 4.98L4.175.227.028 3.548z" mask="url(#prefix__h)"/>
        </g>
        <g>
            <path fill="#77938E" d="M216.346 257.96v3.788c0 .682-.503 1.257-1.18 1.342-3.248.414-12.399 1.474-17.028.958-.954-.106-1.249-1.352-.445-1.876 1.754-1.142 4.516-2.803 7.278-3.909 0 0 2.47 3.174 5.403 2.329 2.934-.845 5.972-2.633 5.972-2.633" transform="translate(56.998 28.002) translate(328.115 150.303)"/>
            <path fill="#FFB7B0" d="M173.774 51.361L172.114 46.181 172.114 40.659 170.731 40.659 170.27 44.815 162.709 35.962 161.694 36.977 166.397 43.662 165.659 43.662 159.297 38.115 158.558 38.913 164.737 44.999 159.02 40.039 158.558 41.31 163.999 46.181 163.353 46.181 158.558 42.14 157.913 43.155 165.014 50.162 170.209 54.213zM179.763 13.101L177.831 10.881 177.831.184 176.08.184 175.158 4.794 172.299.83 171.746 12.448 175.201 17.11z" transform="translate(56.998 28.002) translate(328.115 150.303)"/>
            <path fill="#FF988E" d="M174.42 10.937c-.202 0-.381-.144-.419-.35-.383-2.104.701-5.76.748-5.915.068-.225.303-.356.531-.286.224.069.353.305.286.531-.011.036-1.073 3.615-.727 5.518.042.232-.112.453-.343.496-.025.004-.051.006-.077.006" transform="translate(56.998 28.002) translate(328.115 150.303)"/>
            <path fill="#F2A9A5" d="M203.916 192.896l1.665 23.425 3.453 39.81-4.063 2.133s.812 1.828 3.656 2.437c2.844.61 7.72-2.742 7.72-2.742l.161-4.395 2.602-60.12-15.194-.548z" transform="translate(56.998 28.002) translate(328.115 150.303)"/>
            <path fill="#464646" d="M213.784 34.732c-.125.406-.495.654-.824.552-.329-.103-.493-.515-.367-.922.126-.407.496-.654.824-.553.329.103.493.515.367.923" transform="translate(56.998 28.002) translate(328.115 150.303)"/>
            <path fill="#79797F" d="M212.658 31.83c.26-.195.56-.27.86-.284.303-.019.608.05.896.172.284.131.543.344.717.61.185.258.258.588.214.9-.283-.17-.473-.32-.686-.432-.208-.108-.39-.221-.602-.305-.411-.197-.849-.356-1.399-.66" transform="translate(56.998 28.002) translate(328.115 150.303)"/>
            <path fill="#606060" d="M211.885 28.979s3.049-.232 3.568-1.672l-.936-2.55s-2.341 1.862-2.632 4.222" transform="translate(56.998 28.002) translate(328.115 150.303)"/>
            <path fill="#464646" d="M209.791 42.769c-.374 0-.728-.091-.974-.197-.13-.055-.19-.205-.135-.335.056-.13.207-.19.336-.135.055.024 1.397.573 1.916-.561.059-.131.209-.183.338-.128.129.06.186.21.127.34-.357.782-1.01 1.016-1.608 1.016M214.275 34.489c-.031 0-.062-.009-.09-.025l-1.508-.921c-.08-.05-.104-.154-.056-.235.05-.08.154-.105.235-.057l1.507.922c.08.05.106.154.056.234-.031.053-.087.082-.144.082" transform="translate(56.998 28.002) translate(328.115 150.303)"/>
            <path fill="#F4BAB5" d="M70.245 91.055v44.995s2.582 4.662 1.457 7.721c-1.124 3.06-4.497 4.808-4.497 4.808h-2.25s-.983-9.615 0-12.82c.984-3.207-.561-6.994-.561-6.994l-1.687-35.958s5.05-.375 7.538-1.752" transform="translate(56.998 28.002) translate(328.115 150.303)"/>
            <path fill="#FFCBC5" d="M37.141 250.4L37.141 257.128 29.524 257.128 31.621 253.764 31.621 250.4z" transform="translate(56.998 28.002) translate(328.115 150.303)"/>
            <path fill="#6B6B6B" d="M39.165 264.187v-7.06s-.295-2.647-2.575-2.72c-2.283-.074-3.975 2.72-3.975 2.72h-3.091l1.014-1.627s-3.37 2.582-6.314 3.796c0 0-4.122.92-4.784 3.126v1.765h19.725z" transform="translate(56.998 28.002) translate(328.115 150.303)"/>
            <path fill="#FFCBC5" d="M65.445 250.785L65.96 256.484 61.029 256.484 60.514 250.785z" transform="translate(56.998 28.002) translate(328.115 150.303)"/>
            <path fill="#6B6B6B" d="M59.778 264.13h11.187v-4.117l-5.005-4.265s0-1.875-3.09-1.599c-3.092.275-2.356 2.04-2.356 2.04l-.736 7.941z" transform="translate(56.998 28.002) translate(328.115 150.303)"/>
            <path fill="#EFAC73" d="M66.087 125.065l2.195 126.087-10.12-.037c-6.102-36.061-10.636-69.289-11.346-95.587l-8.01 95.32-8.616.267c-3.919-50.792-7.515-100.247-5.871-127.988 0 0 14.326 4.5 41.768 1.938" transform="translate(56.998 28.002) translate(328.115 150.303)"/>
            <path fill="#C99471" d="M66.087 125.065l2.195 126.087-10.12-.037c-6.102-36.061-10.636-69.289-11.346-95.587 0 0-.595-4.66 1.05-32.4 0 0-9.22 4.499 18.221 1.937" transform="translate(56.998 28.002) translate(328.115 150.303)"/>
            <path fill="#FFB7B0" d="M12.156 49.802l-2.28-27.345-3.41.274S2.87 42.217.762 54.012l.264 3.614 2.948 2.381s-.328-2.742 8.183-10.205" transform="translate(56.998 28.002) translate(328.115 150.303)"/>
            <path fill="#FFB7B0" d="M6.467 22.731s-1.21-8.618-1.188-9.108c.012-.275-.512-1.854-.973-3.184-.415-1.199.009-2.542 1.034-3.225 1.763-1.175 4.445-2.48 5.864-.771l1.41 7.35s.361 1.77 1.433 1.32c1.07-.453 1.187-3.631 1.187-3.631s.79-.308 1.146.578c.356.886-1.165 4.725-1.165 4.725l-5.34 5.672-3.408.274z" transform="translate(56.998 28.002) translate(328.115 150.303)"/>
            <path fill="#9DC2E0" d="M25.314 70.19l-2.372 56.396s21.845 4.666 43.592 0L63.647 92.68s3.98.55 11.117-3.432l-1.76-21.352c-.66-3.967-2.63-8.414-6.192-10.561l-12.037-6.04s-8.05 1.849-15.936 0l-15.17 1.254-11.322-2.747S4.81 51.186 3.973 60.007L25.314 70.19z" transform="translate(56.998 28.002) translate(328.115 150.303)"/>
            <path fill="#7DB4CC" d="M53.086 128.416s10.334-.81 13.448-1.83L63.647 92.68s3.98.55 11.117-3.432l-1.76-21.352c-.66-3.967-2.63-8.414-6.192-10.561l-12.037-6.04s.304.17-2.957.474c0 0 .154 15.13 1.66 35.772 1.507 20.641-.392 40.875-.392 40.875" transform="translate(56.998 28.002) translate(328.115 150.303)"/>
        </g>
        <g transform="translate(56.998 28.002) translate(366.466 186.948)">
            <mask id="prefix__k" fill="#fff">
                <use xlink:href="#prefix__i"/>
            </mask>
            <path fill="url(#prefix__j)" d="M2.39 1.735c.87 4.29-.457 7.957-1.71 12.915 6.043 1.967 15.745 0 15.745 0L11.242.79l-8.852.945z" mask="url(#prefix__k)"/>
        </g>
        <g>
            <path fill="#8E6042" d="M294.824 191.443s-1.99 1.338-4.9.945c-2.909-.394-4.898-1.338-4.898-1.338s-.037-3.228-.338-4.094c-.3-.866 1.727-5.512 0-6.377 0 0-2.177-.63-2.553 1.495 0 0-.976-6.22-.75-8.188.224-1.969.825-7.164 4.73-8.818 3.903-1.653 8.784-3.149 12.537 0 3.754 3.15 4.58 7.322 4.58 7.322s2.327 5.905-.601 10.314c-2.927 4.408-7.807 8.74-7.807 8.74" transform="translate(56.998 28.002) translate(84.373 .313)"/>
            <path fill="#7F4E36" d="M295.06 191.443s-1.99 1.338-4.899.945c-2.91-.394-4.898-1.338-4.898-1.338s1.044-1.07 1.777-2.235c.733-1.165 4.648-1.266 6.78-2.414 2.13-1.147 5.788-3.756 7.43-6.088 1.81-2.57 1.262-10.043 1.262-10.043s3.284 8.025.355 12.434c-2.927 4.408-7.807 8.74-7.807 8.74" transform="translate(56.998 28.002) translate(84.373 .313)"/>
            <path fill="#FFB7B0" d="M285.026 192.46s-5.218-.466-6.42-2.985c-1.2-2.52 0-9.133 0-9.133s1.052-3.779.977-4.724c-.076-.944 1.2-6.594 3.866-8.335 0 0-2.996 4.583-1.314 14.791 0 0 .676-2.52 2.554-1.495 0 0 1.089.488.542 3.138l-.545 2.65s.828 5.457.34 6.093" transform="translate(56.998 28.002) translate(84.373 .313)"/>
            <path fill="#DCE5EA" d="M307.388 243.053h.017c.212-.01.375-.19.366-.4l-.937-21.708c-.01-.21-.189-.379-.4-.365-.211.01-.375.188-.366.399l.939 21.707c.009.206.178.367.381.367" transform="translate(56.998 28.002) translate(84.373 .313)"/>
            <path fill="#EFE1D8" d="M290.56 305.9c.21 0 .38-.168.382-.379l.086-13.222 3.385-3.944c.137-.16.118-.401-.043-.54-.16-.135-.401-.117-.54.042l-3.566 4.157-.087 13.502c-.002.21.169.383.38.384h.003z" transform="translate(56.998 28.002) translate(84.373 .313)"/>
            <path fill="#FFB7B0" d="M35.23 3.485l.689 5.512c.047.377.368.661.748.661.424 0 .764-.348.755-.772l-.011-5.174.964.044-.972 6.103c-.086.486.288.932.781.932.345 0 .65-.224.756-.553l2.765-6.53.284.285-3.152 6.866c-.263.573.156 1.227.786 1.227.268 0 .52-.124.684-.334l5.405-6.95.265.03-4.134 5.302c.635.27 1.373.077 1.795-.47l3.485-4.507c.451-.585.333-1.418-.26-1.857C44.998 1.92 40.81-.467 35.92 1.323c0 0-7.632-.526-9.898 2.55l7.689.08s.385-.55 1.518-.468M2.856 79.034c-.459 0-.983.263-1.068.714-.397 2.102-1.921 7.887.013 9.943 1.86 1.974 5.894 4.041 7.576 4.852.49.236 1.02.357 1.563.357h.089c1.444 0 2.748-.864 3.31-2.195l1.902-4.503s.297-4.02-2.829-4.466l-9.527 4.317-.212-8.226c-.051-.486-.817-.793-.817-.793" transform="translate(56.998 28.002) translate(84.373 .313)"/>
            <path fill="#FF988E" d="M9.058 87.89c-.086 0-.17-.042-.217-.12-.075-.12-.038-.277.082-.352l5.068-3.149c.12-.073.278-.037.352.083.074.12.037.277-.083.352l-5.067 3.148c-.043.026-.089.038-.135.038M10.67 88.659c-.079 0-.156-.036-.207-.105-.082-.114-.057-.274.056-.357l3.993-2.918c.115-.085.274-.059.358.056.082.113.058.274-.056.357l-3.993 2.917c-.046.033-.098.05-.15.05M11.592 90.019c-.077 0-.153-.035-.203-.1-.086-.112-.065-.273.047-.358l3.531-2.72c.113-.086.274-.067.36.046.085.111.065.272-.047.358l-3.533 2.72c-.046.036-.101.054-.155.054" transform="translate(56.998 28.002) translate(84.373 .313)"/>
        </g>
        <path fill="#E58989" d="M541.664 198.261L545.605 197.338 541.664 200.924zM72.074 204.707L67.468 202.77 72.561 202.504z" transform="translate(56.998 28.002)"/>
        <g transform="translate(56.998 28.002) translate(531.803 238.08)">
            <mask id="prefix__n" fill="#fff">
                <use xlink:href="#prefix__l"/>
            </mask>
            <path fill="url(#prefix__m)" d="M.549.412S8.662 61.04 9.835 65.684c1.173 4.645 2.956 8.518 4.402 10.25 3.268 3.91 7.529 5.894 11.078 7.215 4.192 1.56 14.987 2.061 14.987 2.061l.852 3.296s-6.818.713-12.428-.352c-6.03-1.145-11.77-2.87-17.045-9.268-3.073-3.728-5.45-10.471-6.925-18.855-1.407-8.004-3.349-46.635-3.349-46.635L.55.412z" mask="url(#prefix__n)"/>
        </g>
        <path stroke="#C1DBCC" stroke-width=".792" d="M531.97 229.824s4.316 37.889 5.917 49.138c1.601 11.25 2.898 30.655 9.338 36.347 5.394 4.765 14.404 8.27 21.08 7.983" transform="translate(56.998 28.002)"/>
    </g>
</svg>
