<svg xmlns="http://www.w3.org/2000/svg" xmlns:xlink="http://www.w3.org/1999/xlink" width="680" height="481" viewBox="0 0 680 481">
    <defs>
        <path id="prefix__a" d="M0 399.787L659.824 399.787 659.824 0.22 0 0.22z"/>
        <path id="prefix__c" d="M3.841 15.76c.607 3.707 2.993 12.748 2.993 12.748L30.476 39.73l6.726-13.45s-15.06 3.749-22.499-6.006C7.844 11.278.108.144.108.144s2.955 10.87 3.733 15.617"/>
        <path id="prefix__f" d="M8.83 12.065c-9.623 5.078-15.988 28.506 7.426 36.02l9.533-11.145 5.8-17.863.73-12.917L21.376.173S18.454 6.987 8.83 12.065"/>
        <path id="prefix__i" d="M0.04 0.168L18.752 0.168 18.752 7.948 0.04 7.948z"/>
        <path id="prefix__k" d="M0.116 0.124L25.31 0.124 25.31 13.246 0.116 13.246z"/>
        <path id="prefix__m" d="M0.066 0.22L91.243 0.22 91.243 105.63 0.066 105.63z"/>
        <path id="prefix__o" d="M0 399.787L659.824 399.787 659.824 0.22 0 0.22z"/>
        <linearGradient id="prefix__d" x1="60.469%" x2="21.89%" y1="30.321%" y2="71.516%">
            <stop offset="0%" stop-color="#FFFFF4"/>
            <stop offset="100%" stop-color="#9C894D"/>
        </linearGradient>
        <linearGradient id="prefix__g" x1="0%" x2="100%" y1="50%" y2="50%">
            <stop offset="0%" stop-color="#FF9C59"/>
            <stop offset="100%" stop-color="#FF9C59"/>
        </linearGradient>
    </defs>
    <g fill="none" fill-rule="evenodd">
        <g transform="translate(11 42.003) translate(0 .022)">
            <path fill="#D8DBE5" d="M350.372 28.938c-1.585 0-3.125.637-4.072 1.725-2.32 2.66-1.798 6.73-.084 9.374.177.273.367.54.571.8l.37-.128c2.882-1.014 6.288-3.256 7.406-5.979.499-1.216.473-2.405-.077-3.535-.583-1.197-1.803-2.002-3.348-2.207-.255-.034-.51-.05-.766-.05M71.663 186.756c-1.981 0-3.82 1.058-5.217 3.015-2.062 2.887-2.567 6.84-1.255 9.839 1.737 3.97 5.348 6.246 9.064 7.329 2.34-2.609 4.816-6.419 4.875-10.896.056-4.19-2.743-8.913-7-9.267-.156-.013-.311-.02-.467-.02m517.41 34.04c-8.3 0-16.572-1.899-23.658-5.385-17.498-8.608-32.164-25.895-43.594-51.382-4.626-10.318-8.48-21.183-12.208-31.69-3.892-10.973-7.917-22.32-12.821-33.033-11.5-25.123-26.241-41.976-43.814-50.089-11.545-5.33-25.046-7.226-40.127-5.645-5.382.567-10.897 1.693-16.735 2.887-14.169 2.894-28.818 5.887-42.01.595-3.386-1.359-5.913-3-7.666-4.988-11.44 3.776-24.651 4.207-39.287 1.274-10.497-2.104-20.898-5.97-30.956-9.71-17.897-6.655-36.404-13.538-56.01-10.654-18.111 2.66-32.043 13.284-40.542 21.727-23.767 23.612-34.374 55.238-44.632 85.823-4.824 14.387-9.813 29.263-16.107 43.104-5.973 13.138-18.99 35.156-39.102 35.156h-.077c-1.598-.005-3.363-.21-5.129-.665-.11.117-.22.231-.328.343-10.024 10.313-27.203 12.282-39.11 4.483-12.088-7.917-17.845-24.605-13.391-38.817l1.003.314c-4.246 13.554 1.448 30.08 12.964 37.624 11.476 7.514 28.026 5.63 37.72-4.276-3.795-1.218-7.428-3.643-9.229-7.761-1.454-3.325-.907-7.694 1.363-10.872 1.707-2.39 4.126-3.643 6.628-3.432 4.84.402 8.025 5.666 7.964 10.33-.06 4.566-2.43 8.443-4.786 11.177 1.495.34 2.978.495 4.334.5h.074c19.524 0 32.276-21.632 38.145-34.54 6.271-13.791 11.251-28.642 16.068-43.002 10.296-30.702 20.943-62.448 44.887-86.235 8.61-8.555 22.736-19.32 41.13-22.023 19.873-2.916 38.509 4.008 56.53 10.71 10.02 3.725 20.38 7.577 30.796 9.664 14.293 2.865 27.194 2.487 38.374-1.119-.14-.19-.273-.383-.4-.579-1.929-2.976-2.489-7.587.173-10.64 1.325-1.52 3.589-2.318 5.77-2.025 1.9.252 3.414 1.268 4.155 2.79.686 1.41.722 2.89.104 4.395-1.239 3.018-4.91 5.47-8.01 6.565 1.63 1.718 3.932 3.162 6.972 4.382 12.9 5.175 27.393 2.214 41.407-.65 5.864-1.198 11.403-2.33 16.836-2.9 15.275-1.604 28.959.324 40.677 5.734 17.807 8.222 32.722 25.249 44.33 50.607 4.924 10.756 8.957 22.125 12.857 33.12 3.72 10.487 7.566 21.331 12.176 31.61 11.326 25.257 25.826 42.372 43.098 50.87 18.813 9.255 46.158 7.106 59.354-12.511l.872.588c-8.533 12.685-22.821 18.25-37.031 18.25"/>
            <path fill="#FFF" d="M611.32 145.288h-84.134c-1.654 0-2.995-1.341-2.995-2.996V43.928c0-1.655 1.34-2.997 2.995-2.997h84.135c1.654 0 2.995 1.342 2.995 2.997v98.364c0 1.655-1.341 2.996-2.995 2.996"/>
            <path fill="#E2BA96" d="M527.186 41.457c-1.361 0-2.47 1.108-2.47 2.471v98.363c0 1.363 1.109 2.47 2.47 2.47h84.135c1.361 0 2.469-1.107 2.469-2.47V43.928c0-1.363-1.108-2.47-2.47-2.47h-84.134zm84.135 104.357h-84.135c-1.941 0-3.521-1.58-3.521-3.523V43.928c0-1.942 1.58-3.523 3.52-3.523h84.136c1.94 0 3.52 1.58 3.52 3.523v98.363c0 1.943-1.58 3.523-3.52 3.523z"/>
            <path fill="#A2DBDD" d="M562.139 75.936l-3.003-11.252v-7.79l2.812-1.26.19 6.512c2.248 1.008 3.89 1.964 5.017 2.713 1.206.8 2.773.8 3.978 0 1.127-.749 2.77-1.705 5.017-2.713l.039-6.512 2.964 1.26v7.878l-3.003 11.164v1.946l19.016 32.44s-4.89 6.536-26.022 6.536c-21.132 0-26.021-6.537-26.021-6.537l19.016-32.44v-1.945z"/>
            <path fill="#FFC33E" d="M548.986 122.956l.89 1.802c.093.19.275.322.484.353l1.988.289c.529.077.74.727.357 1.1l-1.438 1.403c-.152.147-.221.361-.185.57l.34 1.981c.09.527-.463.928-.936.68l-1.778-.936c-.187-.098-.412-.098-.6 0l-1.777.936c-.473.248-1.025-.153-.935-.68l.34-1.98c.035-.21-.034-.424-.186-.571l-1.438-1.404c-.383-.372-.172-1.022.357-1.1l1.988-.288c.21-.03.39-.163.485-.353l.889-1.802c.236-.48.92-.48 1.155 0M559.354 122.956l.89 1.802c.093.19.274.322.484.353l1.988.289c.529.077.74.727.357 1.1l-1.438 1.403c-.152.147-.221.361-.186.57l.34 1.981c.09.527-.462.928-.935.68l-1.778-.936c-.188-.098-.412-.098-.6 0l-1.777.936c-.473.248-1.026-.153-.935-.68l.34-1.98c.035-.21-.034-.424-.186-.571l-1.438-1.404c-.383-.372-.172-1.022.357-1.1l1.987-.288c.21-.03.392-.163.486-.353l.889-1.802c.236-.48.92-.48 1.155 0M569.722 122.956l.889 1.802c.094.19.275.322.485.353l1.988.289c.528.077.74.727.357 1.1l-1.438 1.403c-.152.147-.221.361-.186.57l.34 1.981c.09.527-.462.928-.935.68l-1.778-.936c-.188-.098-.412-.098-.6 0l-1.777.936c-.473.248-1.026-.153-.935-.68l.339-1.98c.036-.21-.033-.424-.185-.571l-1.438-1.404c-.383-.372-.172-1.022.357-1.1l1.987-.288c.21-.03.392-.163.485-.353l.89-1.802c.236-.48.919-.48 1.155 0M580.09 122.956l.889 1.802c.094.19.275.322.485.353l1.988.289c.528.077.74.727.357 1.1l-1.438 1.403c-.152.147-.221.361-.186.57l.34 1.981c.09.527-.463.928-.935.68l-1.778-.936c-.188-.098-.412-.098-.6 0l-1.778.936c-.472.248-1.025-.153-.935-.68l.34-1.98c.036-.21-.034-.424-.185-.571l-1.439-1.404c-.382-.372-.171-1.022.357-1.1l1.988-.288c.21-.03.391-.163.486-.353l.888-1.802c.237-.48.92-.48 1.156 0M586.995 131.26c-.267-.193-.398-.517-.342-.843l.34-1.981c.023-.138-.023-.28-.123-.377 0 0-1.76-1.973-1.657-2.288.103-.314.37-.54.696-.587l1.987-.289c.14-.02.26-.107.322-.233l.889-1.803c.146-.296.442-.48.773-.48.33 0 .627.184.773.48l.89 1.803c.061.126.181.213.32.233l1.988.29c.327.047.594.272.696.586.102.315.019.654-.218.885l-1.439 1.403c-.1.098-.146.239-.122.377l.34 1.981c.055.326-.076.65-.344.844-.267.195-.615.22-.908.066l-1.778-.936c-.124-.065-.272-.065-.397 0l-1.778.936c-.127.066-.264.1-.401.1-.178 0-.355-.056-.507-.166"/>
            <path fill="#FFF" d="M569.253 78.408h-7.115c-.29 0-.526-.235-.526-.526 0-.29.235-.526.526-.526h7.115c.29 0 .526.235.526.526 0 .29-.235.526-.526.526M137.128 149.136H52.993c-1.654 0-2.995-1.342-2.995-2.997V47.775c0-1.655 1.341-2.997 2.995-2.997h84.135c1.654 0 2.995 1.342 2.995 2.997v98.364c0 1.655-1.34 2.997-2.995 2.997"/>
            <path fill="#7AD2DD" d="M52.993 45.304c-1.361 0-2.469 1.108-2.469 2.471v98.364c0 1.363 1.108 2.471 2.47 2.471h84.134c1.362 0 2.47-1.108 2.47-2.47V47.774c0-1.363-1.108-2.47-2.47-2.47H52.993zm84.135 104.358H52.993c-1.94 0-3.52-1.58-3.52-3.523V47.775c0-1.942 1.58-3.523 3.52-3.523h84.135c1.941 0 3.521 1.58 3.521 3.523v98.364c0 1.943-1.58 3.523-3.521 3.523z"/>
            <path fill="#A2DBDD" d="M104.532 90.937c0 5.234-4.24 9.477-9.471 9.477s-9.472-4.243-9.472-9.477 4.24-9.477 9.472-9.477c5.23 0 9.471 4.243 9.471 9.477"/>
            <mask id="prefix__b" fill="#fff">
                <use xlink:href="#prefix__a"/>
            </mask>
            <path fill="#A2DBDD" d="M90.626 118.469L99.496 118.469 99.496 63.405 90.626 63.405z" mask="url(#prefix__b)"/>
            <path fill="#FFF" d="M95.06 95.483c-.29 0-.525-.236-.525-.526v-4.02c0-.14.055-.273.154-.372l4.59-4.593c.206-.206.539-.206.744 0 .206.205.206.538 0 .744l-4.437 4.439v3.802c0 .29-.235.526-.525.526" mask="url(#prefix__b)"/>
            <path fill="#FFC33E" d="M74.794 126.922l.889 1.802c.094.19.275.322.485.353l1.988.289c.528.077.74.727.357 1.1l-1.438 1.402c-.153.148-.222.362-.186.571l.34 1.981c.09.527-.463.928-.935.68l-1.778-.936c-.188-.098-.412-.098-.6 0l-1.778.936c-.473.248-1.025-.153-.935-.68l.34-1.98c.036-.21-.034-.424-.185-.572l-1.439-1.403c-.382-.372-.171-1.022.357-1.1l1.988-.288c.21-.03.391-.163.485-.353l.89-1.802c.236-.48.918-.48 1.155 0M85.162 126.922l.889 1.802c.093.19.275.322.485.353l1.988.289c.528.077.74.727.357 1.1l-1.439 1.402c-.152.148-.221.362-.185.571l.34 1.981c.09.527-.463.928-.935.68l-1.778-.936c-.188-.098-.412-.098-.6 0l-1.778.936c-.473.248-1.025-.153-.935-.68l.34-1.98c.036-.21-.034-.424-.185-.572l-1.439-1.403c-.382-.372-.171-1.022.357-1.1l1.988-.288c.21-.03.391-.163.485-.353l.89-1.802c.235-.48.918-.48 1.155 0M95.53 126.922l.889 1.802c.093.19.275.322.485.353l1.987.289c.529.077.74.727.358 1.1l-1.439 1.402c-.152.148-.22.362-.185.571l.34 1.981c.09.527-.463.928-.936.68l-1.777-.936c-.188-.098-.412-.098-.6 0l-1.778.936c-.473.248-1.025-.153-.935-.68l.34-1.98c.036-.21-.034-.424-.186-.572l-1.438-1.403c-.383-.372-.171-1.022.357-1.1l1.988-.288c.21-.03.391-.163.485-.353l.889-1.802c.236-.48.92-.48 1.155 0M105.897 126.922l.89 1.802c.093.19.275.322.484.353l1.988.289c.529.077.74.727.358 1.1l-1.439 1.402c-.152.148-.221.362-.185.571l.34 1.981c.09.527-.463.928-.936.68l-1.777-.936c-.188-.098-.412-.098-.6 0l-1.778.936c-.473.248-1.025-.153-.935-.68l.34-1.98c.035-.21-.034-.424-.186-.572l-1.438-1.403c-.383-.372-.172-1.022.357-1.1l1.988-.288c.21-.03.391-.163.485-.353l.889-1.802c.236-.48.919-.48 1.155 0" mask="url(#prefix__b)"/>
            <path fill="#FF9D5A" d="M116.089 133.972l1.777.935c.148.077.315.065.45-.033.134-.097.198-.254.17-.417l-.34-1.981c-.048-.28.045-.566.248-.764l1.438-1.403c.12-.116.16-.28.108-.437-.051-.158-.18-.266-.344-.29l-1.988-.29c-.281-.04-.524-.217-.649-.471l-.889-1.802c-.147-.3-.618-.3-.765 0l-.89 1.802c-.124.254-.367.43-.648.472l-1.988.289c-.164.024-.293.132-.344.29-.051.158-.011.321.108.437l1.438 1.403c.204.198.296.484.248.764l-.34 1.981c-.028.163.036.32.17.417.135.098.302.11.45.033l1.777-.935c.126-.066.264-.1.401-.1.138 0 .276.034.402.1m-3.286 1.255c-.267-.194-.399-.518-.343-.844l.34-1.981c.023-.138-.022-.28-.123-.377l-1.438-1.403c-.237-.232-.32-.57-.218-.885.102-.314.368-.54.696-.587l1.987-.29c.14-.02.26-.106.322-.232l.889-1.803c.146-.297.442-.48.772-.48.331 0 .628.183.774.48l.888 1.803c.063.126.183.213.322.233l1.988.289c.327.048.593.273.696.587.102.315.018.653-.219.885l-1.438 1.403c-.1.098-.146.239-.123.377l.34 1.981c.056.326-.076.65-.343.844-.268.195-.616.22-.908.066l-1.778-.935c-.125-.066-.273-.066-.397 0l-1.778.935c-.127.067-.265.1-.402.1-.178 0-.355-.056-.506-.166" mask="url(#prefix__b)"/>
            <path fill="#8E8E8E" d="M387.135 366.31H258.92c4.94-8.773 8.189-17.557 9.737-26.342.437-2.364.732-4.729.898-7.094H376.5c.189 2.4.472 4.765.85 7.094 1.536 9.435 4.68 18.267 9.784 26.341" mask="url(#prefix__b)"/>
            <path fill="#666" d="M377.351 339.968H268.658c.437-2.364.732-4.729.897-7.094h106.946c.189 2.4.472 4.765.85 7.094" mask="url(#prefix__b)"/>
            <path fill="#A3A3A3" d="M399.319 376.421H246.736c0-6.132 4.968-11.103 11.096-11.103h130.39c6.128 0 11.097 4.971 11.097 11.103" mask="url(#prefix__b)"/>
            <path fill="#C4C4C4" d="M519.746 333.912H126.309c-8.849 0-16.022-7.178-16.022-16.031V78.08c0-8.854 7.173-16.031 16.022-16.031h393.437c8.849 0 16.022 7.177 16.022 16.031v239.8c0 8.853-7.173 16.031-16.022 16.031" mask="url(#prefix__b)"/>
            <path fill="#464646" d="M535.768 310.258H110.287V66.88c0-2.668 2.16-4.83 4.827-4.83H530.94c2.665 0 4.827 2.162 4.827 4.83v243.378z" mask="url(#prefix__b)"/>
            <path fill="#FFF" d="M116.395 304.241L529.66 304.241 529.66 68.067 116.395 68.067zM356.827 365.92H262.3c-.332 0-.6-.27-.6-.602 0-.332.268-.601.6-.601h94.527c.332 0 .601.269.601.601 0 .333-.269.602-.6.602" mask="url(#prefix__b)"/>
            <path fill="#FFCDC7" d="M203.587 281.84l.001.001.006.005-.007-.006M210.839 299.384l-.063-.115.063.115M210.986 299.647l-.018-.033.018.033M198.531 299.909c-.113.268-.191.445-.22.51l.213-.493.003-.008.004-.01z" mask="url(#prefix__b)"/>
            <path fill="#DDD" d="M231.435 110.317c-1.362 0-2.47 1.108-2.47 2.47v98.365c0 1.362 1.108 2.47 2.47 2.47h84.135c1.361 0 2.47-1.108 2.47-2.47v-98.364c0-1.363-1.109-2.471-2.47-2.471h-84.135zm84.135 104.358h-84.135c-1.941 0-3.521-1.58-3.521-3.523v-98.364c0-1.943 1.58-3.524 3.521-3.524h84.135c1.941 0 3.52 1.581 3.52 3.524v98.364c0 1.942-1.579 3.523-3.52 3.523zM427.215 110.317c-1.362 0-2.469 1.108-2.469 2.47v98.365c0 1.362 1.107 2.47 2.469 2.47h84.135c1.362 0 2.469-1.108 2.469-2.47v-98.364c0-1.363-1.107-2.471-2.469-2.471h-84.135zm84.135 104.358h-84.135c-1.941 0-3.52-1.58-3.52-3.523v-98.364c0-1.943 1.579-3.524 3.52-3.524h84.135c1.941 0 3.52 1.581 3.52 3.524v98.364c0 1.942-1.579 3.523-3.52 3.523z" mask="url(#prefix__b)"/>
            <path fill="#E8CC9E" d="M425.813 227.654H316.972c-2.14 0-3.875-1.736-3.875-3.877V96.527c0-2.14 1.735-3.876 3.875-3.876h108.841c2.14 0 3.875 1.735 3.875 3.877v127.249c0 2.141-1.735 3.877-3.875 3.877" mask="url(#prefix__b)"/>
            <path fill="#FFF" d="M389.177 182.594h-35.569c-.892 0-1.615-.724-1.615-1.617V118.75c0-.893.723-1.617 1.615-1.617h35.569c.892 0 1.615.724 1.615 1.617v62.228c0 .893-.723 1.617-1.615 1.617" mask="url(#prefix__b)"/>
            <path fill="#FF7867" d="M351.993 124.171L390.792 124.171 390.792 123.119 351.993 123.119zM351.993 177.105L390.792 177.105 390.792 176.053 351.993 176.053zM384.569 121.141L387.194 121.141 387.194 120.088 384.569 120.088z" mask="url(#prefix__b)"/>
            <path fill="#DDD" d="M133.545 110.317c-1.362 0-2.47 1.108-2.47 2.47v98.365c0 1.362 1.108 2.47 2.47 2.47h84.135c1.361 0 2.469-1.108 2.469-2.47v-98.364c0-1.363-1.108-2.471-2.47-2.471h-84.134zm84.135 104.358h-84.135c-1.942 0-3.52-1.58-3.52-3.523v-98.364c0-1.943 1.578-3.524 3.52-3.524h84.135c1.94 0 3.52 1.581 3.52 3.524v98.364c0 1.942-1.58 3.523-3.52 3.523z" mask="url(#prefix__b)"/>
            <path fill="#464646" d="M183.217 241.894s2.868 2.01 8.007 1.545c5.139-.467-1.554-9.077-1.554-9.077l-6.453 7.532zM213.96 383.916s-2.63 2.58-11.326 2.12l-.021-4.742 6.808-2.16 3.317 1.28 1.222 3.502z" mask="url(#prefix__b)"/>
            <path fill="#6C74AD" d="M213.128 390.693c.286-.589.415-1.204.363-1.736-.046-.481-.234-.826-.531-.97-.65-.315-1.67.391-2.228 1.542-.453.933-.001 2.169.202 2.635.492-.129 1.741-.54 2.194-1.471m-2.886-1.401c.71-1.467 2.01-2.255 2.956-1.796.474.23.771.73.836 1.41.06.628-.088 1.348-.416 2.024-.687 1.416-2.702 1.802-2.787 1.818l-.197.036-.094-.177c-.03-.058-.58-1.118-.547-2.245.011-.36.082-.728.249-1.07" mask="url(#prefix__b)"/>
            <path fill="#545ED7" d="M210.752 392.467c-.005.15.114.276.264.28l5.3.16c.15.005.276-.114.28-.264.005-.15-.113-.276-.263-.28l-5.3-.16c-.15-.005-.276.113-.281.264" mask="url(#prefix__b)"/>
            <path fill="#6C74AD" d="M196.976 379.792l-.58 19.2 26.354.795c.083-2.74-1.523-4.148-2.852-4.85-.212-.107-.416-.204-.604-.276-.655-.268-1.14-.35-1.14-.35-2.967-.495-5.307-1.154-7.094-1.788h-.008c-.164-.063-.32-.118-.467-.18-.63-.234-1.187-.467-1.677-.689-.163-.071-.319-.142-.457-.212-.58-.283-1.036-.537-1.377-.746-.163-.105-.3-.191-.415-.27-.3-.191-.437-.311-.437-.311l-5.341-7.445-3.905-2.878z" mask="url(#prefix__b)"/>
            <path fill="#FFF" d="M196.437 397.675l-.015.489 20.122.607c.075.002.142-.02.185-.069.051-.057.078-.122.072-.188-.005-.117-.145-2.88 2.92-3.443.083-.013.142-.061.177-.135-.212-.106-.416-.203-.604-.275-2.595.634-2.943 2.836-2.983 3.614l-19.874-.6zM209.128 395.348c.04.018.082.028.115.029.091.002.175-.044.227-.126l1.582-2.728c-.164-.063-.32-.118-.467-.18l-1.546 2.663c-.07.114-.025.273.089.342M206.968 394.488c.04.026.073.035.114.036.091.003.176-.044.228-.125l1.598-2.745c-.163-.071-.319-.142-.457-.212l-1.573 2.712c-.07.113-.033.264.09.334M205.098 393.603c.04.017.082.027.123.028.083.003.175-.036.22-.117l1.633-2.818c-.163-.105-.301-.192-.415-.27l-1.65 2.834c-.07.122-.025.273.089.343" mask="url(#prefix__b)"/>
            <path fill="#FFCEC8" d="M206.222 390.115s-2.548-.462-4.04 2.7c-1.493 3.161-4.343 3.295-4.343 3.295l-1.364.222.381-12.637 9.436-.517-.07 6.937z" mask="url(#prefix__b)"/>
            <path fill="#545ED7" d="M199.398 395.672s-2.398-.133-2.846-1.873l-.08 2.621 2.403.436.523-1.184z" mask="url(#prefix__b)"/>
            <path fill="#FFB1A8" d="M206.262 386.1s-.735-1.783-4.862-1.454l.304-3.569 4.698-.122-.14 5.144z" mask="url(#prefix__b)"/>
            <path fill="#464646" d="M248.677 384.781s-7.795 4.836-17.17-.58c0 0 13.464-6.524 17.17.58" mask="url(#prefix__b)"/>
            <path fill="#6C74AD" d="M248.69 390.877c.27-.597.38-1.216.312-1.746-.06-.48-.26-.818-.56-.953-.659-.296-1.658.441-2.18 1.608-.425.946.063 2.168.28 2.628.489-.144 1.725-.592 2.149-1.537m-2.927-1.314c.666-1.486 1.94-2.313 2.9-1.883.482.216.794.707.879 1.383.08.627-.047 1.35-.354 2.037-.645 1.436-2.647 1.882-2.732 1.9l-.196.043-.098-.175c-.033-.057-.615-1.1-.615-2.227 0-.36.06-.73.216-1.078" mask="url(#prefix__b)"/>
            <path fill="#545ED7" d="M246.37 392.722c0 .15.122.272.272.272h5.303c.15 0 .272-.122.272-.272 0-.15-.122-.272-.272-.272h-5.303c-.15 0-.272.122-.272.272" mask="url(#prefix__b)"/>
            <path fill="#6C74AD" d="M232.218 380.47v19.207h26.365c0-2.742-1.647-4.1-2.997-4.763-.215-.1-.422-.19-.612-.257-.662-.248-1.15-.314-1.15-.314-2.98-.406-5.34-.994-7.144-1.574h-.009c-.165-.058-.323-.108-.472-.165-.637-.216-1.2-.431-1.697-.638-.165-.067-.323-.133-.463-.2-.588-.264-1.051-.504-1.4-.703-.165-.1-.305-.183-.421-.257-.307-.182-.447-.298-.447-.298l-5.563-7.28-3.99-2.759z" mask="url(#prefix__b)"/>
            <path fill="#FFF" d="M232.218 398.36v.489h20.132c.074 0 .14-.025.182-.075.05-.058.074-.124.066-.19-.008-.116-.232-2.875 2.815-3.529.082-.016.14-.066.173-.14-.215-.1-.422-.191-.612-.258-2.575.713-2.856 2.924-2.873 3.703h-19.883zM244.833 395.652c.042.016.083.024.116.024.091 0 .174-.05.224-.132l1.498-2.775c-.165-.058-.323-.108-.472-.165l-1.465 2.708c-.066.116-.016.273.1.34M242.648 394.856c.041.025.075.034.116.034.091 0 .174-.05.223-.133l1.515-2.791c-.165-.067-.322-.133-.463-.199l-1.49 2.758c-.067.116-.025.265.1.331M240.752 394.028c.042.017.083.025.125.025.082 0 .173-.041.215-.124l1.548-2.866c-.166-.1-.306-.182-.422-.257l-1.565 2.882c-.066.125-.017.274.1.34" mask="url(#prefix__b)"/>
            <path fill="#FFCEC8" d="M241.77 390.508s-2.56-.385-3.956 2.82c-1.397 3.206-4.241 3.425-4.241 3.425l-1.357.263v-12.643l9.416-.801.139 6.936z" mask="url(#prefix__b)"/>
            <path fill="#545ED7" d="M235.118 396.268s-2.402-.06-2.902-1.786v2.623l2.415.362.487-1.199z" mask="url(#prefix__b)"/>
            <path fill="#FFB1A8" d="M241.632 386.742s-1.18-1.95-5.558-1.646l.37-2.475 5.327-.28-.14 4.401z" mask="url(#prefix__b)"/>
            <path fill="#EA8E8C" d="M216.345 266.603l.246.46-.059-44.12c-14.703 1.02-29.565 15.033-29.565 15.033l8.088 57.658c.445 2.949 1.197 8.704 1.5 11.65l.123 76.368c2.566 1.214 5.77 1.347 8.383.238 1.224-.523 2.35-1.296 3.646-1.562 1.83-.378 3.822.362 5.253 1.588 0 0 2.306-63.291 2.482-79.176v-.016c.01-.858.013-1.58.01-2.142l.001-2.234-.108-33.745z" mask="url(#prefix__b)"/>
            <path fill="#D37979" d="M251.138 306.23c-.03-1.066-.138-2.13-.32-3.189l-11.437-69.56c-5.586-8.042-16.424-9.823-22.848-10.538v40.619l12.055 37.404c.39 1.126.665 2.288.843 3.465l.147.029c.62 2.012.945 4.122.912 6.255l1.016 73.486c.709.331 1.463.57 2.227.718 1.665.33 3.412.222 5.03-.29.775-.245 1.494-.617 2.224-.954.687-.318 1.518-.443 2.266-.492.977-.064 1.966.048 2.902.333.797.243 1.874.593 2.411 1.265h.11l2.48-76.914c.051-.386.03-.984-.018-1.637" mask="url(#prefix__b)"/>
            <path fill="#BF6060" d="M243.753 260.076l-4.372-26.595c-5.586-8.042-18.779-9.653-25.203-10.368l1.955 33.591 27.62 3.372z" mask="url(#prefix__b)"/>
            <path fill="#FFF" d="M236.51 380.645c1.153 0 2.299-.191 3.378-.59.427-.157.846-.344 1.263-.532.806-.362 1.566-.703 2.386-.83 2.508-.388 4.652.297 5.733 1.835l.592-.417c-1.242-1.767-3.647-2.564-6.436-2.133-.917.142-1.758.519-2.57.885-.404.18-.806.362-1.219.514-3.502 1.291-7.78.238-10.404-2.563l-.528.494c2.01 2.147 4.929 3.337 7.805 3.337M215.76 379.228l.571-.445c-.284-.364-.625-.72-1.014-1.058-1.635-1.4-3.766-2.04-5.563-1.67-.908.187-1.732.608-2.528 1.013-.392.2-.784.4-1.187.572-2.422 1.032-5.395.926-7.94-.279-.955-.445-1.819-1.04-2.572-1.772l-.503.52c.81.787 1.742 1.429 2.766 1.908 2.728 1.29 5.92 1.397 8.532.29.42-.18.826-.388 1.232-.594.788-.401 1.535-.78 2.346-.948 1.583-.327 3.478.251 4.945 1.509.352.305.66.626.916.954" mask="url(#prefix__b)"/>
            <path fill="#B24A3F" d="M216.345 263.841h.02c.2-.012.353-.183.341-.383l-.87-15.094 4.564-5.272c.13-.15.115-.38-.037-.51-.15-.131-.38-.115-.51.036l-4.66 5.383c-.062.071-.093.164-.087.258l.878 15.24c.011.193.17.342.36.342" mask="url(#prefix__b)"/>
            <path fill="#FFF" d="M200.56 378.689h-.016c-.291-.01-.519-.251-.51-.542l2.064-69.827c.054-1.829-.079-3.67-.394-5.472l-5.32-33.154c-.008-.053-.008-.107 0-.16.075-.51-.353-.885-1.068-1.442l-.096-.073c-.248-.186-.588-.44-.665-.894-.101-.6.362-1.057.515-1.207.698-.686 1.506-1.238 2.4-1.639.32-.142.545-.243.639-.381.05-.076.063-.175.034-.292-.052-.22-.227-.445-.436-.563-.344-.193-.78-.247-1.242-.305-.148-.018-.296-.037-.442-.06-.983-.152-1.674-.565-1.996-1.19-.104-.203-.066-.45.095-.612l2.041-2.052c.042-.043.075-.08.1-.113l-1.592-.462c-.191-.057-.335-.215-.37-.411-.036-.196.042-.396.2-.515l1.05-.787c-.053-.017-.114-.03-.181-.037l-1.933-.214c-.244-.027-.437-.22-.465-.465-.027-.244.119-.475.35-.556 1.145-.396 2.25-.916 3.29-1.548.228-.138.387-.35.417-.444-.023.038-.123.025-.165.021-1.883-.252-3.391-1.75-3.696-3.65l-2.047-12.76c-.046-.286.149-.557.436-.603.286-.043.556.15.602.437l2.047 12.76c.232 1.444 1.37 2.582 2.768 2.768.22.03.546.071.804.311.226.21.333.494.303.8-.056.55-.532 1.022-.923 1.26-.509.309-1.033.594-1.569.85.25.043.743.171 1.002.552.143.211.186.464.118.71-.089.322-.336.506-.469.605l-.265.2.589.17c.17.05.483.141.677.434.13.198.36.733-.332 1.428l-1.707 1.717c.268.205.66.306.983.357.136.021.273.038.41.055.542.067 1.103.137 1.626.432.463.259.826.734.946 1.236.096.404.03.803-.186 1.124-.263.39-.673.572-1.002.718-.858.385-1.562.866-2.172 1.465-.204.2-.214.282-.214.285.019.043.169.155.259.223l.11.085c.71.553 1.588 1.237 1.473 2.34l5.306 33.072c.326 1.864.464 3.777.409 5.676l-2.065 69.828c-.009.286-.242.51-.525.51" mask="url(#prefix__b)"/>
            <path fill="#464646" d="M167.083 205.187s2.196 1.627 4.728.46l-1.704-4.307s-2.912.157-3.024 3.847" mask="url(#prefix__b)"/>
            <path fill="#FFCEC8" d="M204.373 168.114s3.466-1.913 2.809-7.653l-.897-7.713-5.079-4.544-8.246 5.8 1.374 5.602-2.988 4.681 1.614 8.192 11.951-.897-.538-3.468z" mask="url(#prefix__b)"/>
            <path fill="#464646" d="M191.956 167.382s-3.177.279-5.081-1.497c-.617-.575-.982-1.398-.862-2.233.09-.62.434-1.248 1.45-1.278 0 0-5.329-3.032-4.881-8.458 0 0 .22-2.842 4.044-1.527 0 0-3.287-3.169-1.255-6.697 0 0 1.135-1.973 3.406-.717 0 0-.358-1.973 1.315-2.511s3.286 1.255 3.286 1.255 0-3.228 2.69-4.006c2.688-.777 4.39 2.171 4.39 2.171s1.107-.993 2.362-.497c1.254.497.956 2.093.956 2.093s2.57-1.076 4.003.837c1.435 1.914-.514 4.544-.514 4.544s5.474.18 5.295 5.501c-.18 5.322-5.345 6.426-5.345 6.426l-.477-4.144c.031.241-1.178.455-1.311.458-.685.016-1.47-.311-1.742-.98-.145-.358-.136-.756-.18-1.139-.105-.932-.61-1.967-1.555-2.286-1.107-.376-1.909.526-1.855 1.584.029.563.23 1.1.355 1.65.189.829.136 1.936-.822 2.244-.576.185-1.198-.082-1.552-.573-.496-.687-1.4-1.69-2.248-1.326-1.255.538-1.255 3.467-1.255 3.467l-3.226 4.544.61 3.095z" mask="url(#prefix__b)"/>
            <path fill="#FFCEC8" d="M195.184 161.445c0 1.64-1.33 2.971-2.969 2.971-1.64 0-2.969-1.33-2.969-2.97 0-1.642 1.33-2.972 2.97-2.972 1.639 0 2.968 1.33 2.968 2.971" mask="url(#prefix__b)"/>
            <path fill="#FFFFF5" d="M244.763 207.935l-12.8 29.725s-10.025 5.79-25.083 1.127c-1.061-.33-2.094-.595-3.084-.81-2.043-.438-3.93-.646-5.664-.675-9.308-.18-14.915 4.592-14.915 4.592l-3.585-16.694 7.65-26.112c-3.47 6.694-6.453 4.42-13.029 2.511-6.575-1.915-7.17 3.588-7.17 3.588l-1.42-14.465c-.043-.416-.065-.832-.065-1.248 0-.581.043-1.163.122-1.737.201-1.463.653-2.884 1.348-4.197.474-.91 1.054-1.75 1.729-2.504 1.584-1.8 3.67-3.135 6.016-3.817l16.987-4.563 1.527-.41 11.954-.896 2.266.172 6.554.488 7.027.524 3.428.25c1.663.094 3.298.51 4.797 1.235l1.606.768c2.151 1.033 3.965 2.647 5.249 4.664 1.112 1.75 1.98 3.623 2.589 5.589v.007c.086.244.157.48.222.732v.028c.043.122.072.252.107.373l5.637 21.755z" mask="url(#prefix__b)"/>
            <path stroke="#C6C3A7" stroke-width=".652" d="M244.763 207.935l-12.8 29.725s-10.025 5.79-25.083 1.127c-1.061-.33-2.094-.595-3.084-.81-2.043-.438-3.93-.646-5.664-.675-9.308-.18-14.915 4.592-14.915 4.592l-3.585-16.694 7.65-26.112c-3.47 6.694-6.453 4.42-13.029 2.511-6.575-1.915-7.17 3.588-7.17 3.588l-1.42-14.465c-.043-.416-.065-.832-.065-1.248 0-.581.043-1.163.122-1.737.201-1.463.653-2.884 1.348-4.197.474-.91 1.054-1.75 1.729-2.504 1.584-1.8 3.67-3.135 6.016-3.817l16.987-4.563 1.527-.41 11.954-.896 2.266.172 6.554.488 7.027.524 3.428.25c1.663.094 3.298.51 4.797 1.235l1.606.768c2.151 1.033 3.965 2.647 5.249 4.664 1.112 1.75 1.98 3.623 2.589 5.589v.007c.086.244.157.48.222.732v.028c.043.122.072.252.107.373l5.637 21.755z" mask="url(#prefix__b)"/>
        </g>
        <g transform="translate(11 42.003) translate(184.37 188.355)">
            <mask id="prefix__e" fill="#fff">
                <use xlink:href="#prefix__c"/>
            </mask>
            <path fill="url(#prefix__d)" d="M3.841 15.76c.607 3.707 2.993 12.748 2.993 12.748L30.476 39.73l6.726-13.45s-15.06 3.749-22.499-6.006C7.844 11.278.108.144.108.144s2.955 10.87 3.733 15.617" mask="url(#prefix__e)"/>
        </g>
        <g>
            <path fill="#BAB699" d="M96.057 32.713c-.252 0-.474-.182-.518-.44-.021-.125-2.191-12.62-8.392-17.049-.236-.17-.291-.497-.122-.735.168-.234.497-.29.733-.122 6.555 4.683 8.729 17.202 8.818 17.732.049.287-.144.558-.43.607-.03.005-.06.007-.089.007M134.898 19.243c-.255 0-.479-.186-.519-.446-.008-.053-.84-5.276-3.19-7.514-.21-.2-.218-.534-.018-.745.202-.21.535-.216.744-.018 2.61 2.487 3.468 7.887 3.504 8.116.044.287-.153.556-.44.6-.027.004-.054.007-.08.007" transform="translate(11 42.003) translate(91.223 166.92)"/>
            <path fill="#EA9A96" d="M113.15 1.215s-4.753 1.256-7.846-1.166c0 0 1.652 2.36 8.064 2.57l-.217-1.404z" transform="translate(11 42.003) translate(91.223 166.92)"/>
            <path fill="#F9DFA5" d="M80.51 15.572v3.903c0 .79-.637 1.435-1.433 1.435h-3.901c-.151 0-.302-.021-.438-.072.201-1.463.653-2.884 1.348-4.197.474-.91 1.054-1.75 1.728-2.504h1.263c.796 0 1.434.639 1.434 1.435M112.665 35.94l-2.974-2.526c-.603-.513-.677-1.419-.165-2.023l2.524-2.975c.513-.605 1.418-.679 2.022-.166l2.973 2.526c.604.513.678 1.418.166 2.022l-2.524 2.976c-.513.604-1.418.678-2.022.165M112.574 71.077c-2.044-.437-3.93-.646-5.665-.674l1.111-1.313c.51-.603 1.413-.675 2.022-.165l2.532 2.152zM129.905 5.635c-.15.315-.408.581-.76.724l-3.607 1.471c-.738.302-1.57-.05-1.871-.782l-.789-1.937 7.027.524zM141.894 17.04l3.071 2.407c.624.489.733 1.39.245 2.015l-2.405 3.072c-.488.624-1.39.734-2.013.245l-3.071-2.406c-.624-.488-.734-1.39-.245-2.014l2.405-3.073c.488-.624 1.39-.734 2.013-.245M104.077 13.3l-3.611 1.474c-.733.3-1.57-.053-1.87-.787l-1.474-3.613c-.3-.734.053-1.571.786-1.87l3.611-1.476c.733-.299 1.57.053 1.87.787l1.474 3.613c.3.734-.053 1.572-.786 1.871" transform="translate(11 42.003) translate(91.223 166.92)"/>
            <path fill="#C1AA81" d="M108.39 54.83l-3.612 1.476c-.733.299-1.57-.053-1.87-.787l-1.474-3.613c-.3-.734.053-1.572.786-1.871l3.611-1.475c.734-.3 1.57.053 1.87.787l1.474 3.613c.3.734-.052 1.571-.786 1.87" transform="translate(11 42.003) translate(91.223 166.92)"/>
            <path fill="#FFCEC8" d="M116.299 4.388c-.219 3.923-3.015 7.066-6.816 7.597-4.173.588-8.03-2.167-9.005-6.438l1.657-.571 11.898-.76 2.266.172z" transform="translate(11 42.003) translate(91.223 166.92)"/>
            <path fill="#FFF" d="M108.38 12.589c-3.935 0-7.465-2.77-8.317-6.72-.06-.285.12-.565.403-.626.288-.062.564.12.625.403.82 3.804 4.473 6.364 8.319 5.817 3.471-.484 6.158-3.375 6.39-6.874.018-.29.275-.515.56-.49.289.019.508.27.49.56-.265 3.993-3.332 7.293-7.294 7.846-.395.056-.788.084-1.177.084" transform="translate(11 42.003) translate(91.223 166.92)"/>
            <path fill="#F79089" d="M182.574 38.996L126.572 44.683 124.111 20.413 180.113 14.726z" transform="translate(11 42.003) translate(91.223 166.92)"/>
            <path fill="#E56E6C" d="M135.496 43.777L133.035 19.507 124.111 20.413 126.572 44.683 182.574 38.996z" transform="translate(11 42.003) translate(91.223 166.92)"/>
            <path fill="#FFBBB3" d="M155.871 41.708L153.409 17.438 157.595 17.012 160.057 41.282z" transform="translate(11 42.003) translate(91.223 166.92)"/>
            <path fill="#FFBBB3" d="M134.478 33.737L134.053 29.547 181.131 24.766 181.556 28.955z" transform="translate(11 42.003) translate(91.223 166.92)"/>
            <path fill="#FF968A" d="M125.554 34.643L125.129 30.454 134.053 29.547 134.478 33.736z" transform="translate(11 42.003) translate(91.223 166.92)"/>
            <path fill="#EA9C68" d="M175.8 73.338L123.008 78.699 119.605 45.154 172.397 39.793z" transform="translate(11 42.003) translate(91.223 166.92)"/>
            <path fill="#FFCEC8" d="M77.8 35.044l6.07 17.692c1.487 4.33 5.084 7.6 9.535 8.667l32.291 7.735 2.51-5.86-27.966-13.273-4.183-17.818s-2.45 5.687-8.343 3.973c0 0-7.33-3.47-9.915-1.116" transform="translate(11 42.003) translate(91.223 166.92)"/>
            <path fill="#FFC59E" d="M144.52 76.267L141.118 42.722 145.304 42.297 148.706 75.842z" transform="translate(11 42.003) translate(91.223 166.92)"/>
            <path fill="#FFC59E" d="M121.105 59.938L120.68 55.748 173.472 50.387 173.897 54.576z" transform="translate(11 42.003) translate(91.223 166.92)"/>
            <path fill="#FFCEC8" d="M121.718 62.544l12.097.918c-.136 1.203-1.07 2.16-2.268 2.327l-2.986.412 1.236 3.02 7.172 6.029c.316.265.332.746.035 1.033-.219.211-.55.255-.817.108l-5.983-3.297 4.05 4.399 2.51.439-.08.278c-.124.43-.51.73-.957.742l-5.552.156-2.227-1.156-1.659-3.145-4.436-6.89-6.944-1.739 1.877-5.273 4.932 1.639z" transform="translate(11 42.003) translate(91.223 166.92)"/>
            <path fill="#FF9C91" d="M133.47 79.226c-.038 0-.074-.009-.108-.03l-2.863-1.7c-.025-.015-.046-.036-.063-.058l-2.86-3.98c-.067-.094-.046-.226.049-.294.093-.068.225-.047.294.048l2.833 3.944 2.825 1.679c.1.06.133.188.073.288-.039.066-.109.103-.18.103M130.577 79.173c-.045 0-.089-.015-.127-.044l-1.536-1.165c-.024-.018-.043-.04-.058-.066l-2.022-3.68c-.056-.1-.02-.23.083-.285.1-.06.229-.021.286.082l2 3.64 1.5 1.14c.094.07.112.202.041.294-.04.055-.104.084-.167.084" transform="translate(11 42.003) translate(91.223 166.92)"/>
            <path fill="#FFBBB3" d="M155.051 11.478c-.535-1.13-1.298-2.06-2.153-2.62-.773-.506-1.512-.636-2.081-.366-1.247.592-1.415 2.961-.366 5.17.85 1.793 3.232 2.596 4.17 2.85.397-.888 1.28-3.244.43-5.034m-5.541 2.633c-1.335-2.816-.958-5.697.859-6.561.911-.433 2.012-.278 3.1.437 1.011.662 1.907 1.744 2.524 3.043 1.29 2.72-.546 6.189-.625 6.336l-.181.337-.376-.073c-.124-.023-2.362-.47-4.002-1.869-.524-.447-.986-.992-1.3-1.65" transform="translate(11 42.003) translate(91.223 166.92)"/>
            <path fill="#FFBBB3" d="M154.855 17.147c.219.186.548.16.734-.059l6.579-7.721c.186-.22.16-.548-.058-.735-.22-.187-.548-.16-.735.059l-6.578 7.721c-.187.22-.16.548.058.735" transform="translate(11 42.003) translate(91.223 166.92)"/>
            <path fill="#FFF" d="M127.264 44.88c-.268 0-.497-.203-.522-.475-.028-.29.184-.547.473-.575l43.026-4.111c.29-.014.546.185.574.474.027.29-.185.547-.474.575l-43.027 4.11c-.016.002-.033.003-.05.003" transform="translate(11 42.003) translate(91.223 166.92)"/>
            <path fill="#FFCEC8" d="M173.045 46.105c1.227.33 2.162 1.324 2.417 2.57l.331 1.615-2.33.15-.418-4.335z" transform="translate(11 42.003) translate(91.223 166.92)"/>
            <path fill="#FFCEC8" d="M176.16 50.14l-6.673.603c-.523.047-.91.508-.866 1.032.04.47.417.84.887.872l6.54.44c.586.04 1.092-.41 1.12-.997l.043-.845c.03-.6-.45-1.104-1.051-1.104" transform="translate(11 42.003) translate(91.223 166.92)"/>
            <path fill="#FFCEC8" d="M176.225 53.01l-7.196-.574c-.523-.045-.985.342-1.032.865 0 0 0 .748.72 1.014l6.882 1.578c.571.142 1.147-.213 1.279-.787l.189-.824c.134-.586-.25-1.166-.842-1.271" transform="translate(11 42.003) translate(91.223 166.92)"/>
            <path fill="#FFCEC8" d="M175.803 55.426l-6.198-.847c-.45-.065-.887.3-.978.818 0 0-.07.742.532 1.033l5.83 1.83c.483.162 1.017-.167 1.185-.731l.24-.81c.172-.576-.107-1.166-.611-1.293" transform="translate(11 42.003) translate(91.223 166.92)"/>
            <path fill="#FFCEC8" d="M175.53 58.152l-4.423-1.264c-.32-.094-.676.126-.796.493 0 0-.129.533.278.808l4.053 1.94c.334.17.757-.015.938-.408l.26-.564c.185-.402.044-.86-.31-1.005" transform="translate(11 42.003) translate(91.223 166.92)"/>
            <path fill="#FF9C91" d="M175.308 58.417c-.018 0-.037-.004-.056-.008l-4.373-1.219c-.112-.03-.177-.147-.147-.259.032-.111.145-.176.26-.145l4.373 1.217c.112.031.177.148.146.26-.026.093-.11.154-.203.154M176.026 55.963c-.012 0-.026 0-.04-.004l-6.19-1.18c-.114-.022-.19-.132-.167-.246.021-.113.13-.191.246-.168l6.191 1.181c.114.022.189.131.167.246-.019.1-.107.171-.207.171M176.225 53.221h-.017l-6.39-.51c-.115-.01-.202-.112-.192-.227.008-.11.1-.194.21-.194l.016.001 6.39.51c.115.009.201.11.192.226-.008.11-.1.194-.21.194M173.655 50.561c-.108 0-.2-.082-.21-.192-.01-.115.075-.218.19-.228l1.882-.17c.127-.017.218.075.229.192.01.115-.076.217-.191.228l-1.881.17h-.02" transform="translate(11 42.003) translate(91.223 166.92)"/>
            <path fill="#E58442" d="M11.441 14.536s-.747 4.286 3.374 8.42 2.534 8.476 2.534 8.476l-10.234-.193S.295 24.578.112 24.157c-.184-.421 2.851-10.483 2.851-10.483l8.478.862z" transform="translate(11 42.003) translate(91.223 166.92)"/>
        </g>
        <g transform="translate(11 42.003) translate(63.543 169.57)">
            <mask id="prefix__h" fill="#fff">
                <use xlink:href="#prefix__f"/>
            </mask>
            <path fill="url(#prefix__g)" d="M8.83 12.065c-9.623 5.078-15.988 28.506 7.426 36.02l9.533-11.145 5.8-17.863.73-12.917L21.376.173S18.454 6.987 8.83 12.065" mask="url(#prefix__h)"/>
        </g>
        <g transform="translate(11 42.003) translate(0 .022)">
            <path fill="#D87E41" d="M92.267 176.868s-4.253 6.587-10.952 9.036c-8.144 2.976-14.08 19.71-3.971 29.502l12.038-9.07 5.8-17.863.73-12.917-3.645 1.312z"/>
            <path fill="#FFCEC8" d="M104.238 173.196s1.213 9.401-5.323 10.886l.016 5.985-8.187-1.323-.945-18.498 12.596-3.985s1.606.946 1.843 6.935"/>
            <path fill="#F79F63" d="M103.86 168.184c-.865-4.845-4.522-7.307-9.662-6.61-4.643.63-7.463 4.357-9.071 7.632-1.237 2.52.378 5.512 3.153 5.92 1.269.186 1.795.52 1.795.52l.08-5.49c2.348 2.558 6.192 3.178 9.163 1.38 1.553-.94 2.522-2.024 2.522-2.024.53 1.357 2.316 1.905 2.316 1.905-.02-1.307-.116-2.233-.295-3.233"/>
            <path fill="#FFCEC8" d="M87.08 177.037c.094 1.502 1.387 2.644 2.888 2.55 1.501-.093 2.643-1.386 2.55-2.888-.094-1.503-1.387-2.645-2.888-2.551-1.501.093-2.643 1.387-2.55 2.889"/>
            <path fill="#E58988" d="M98.915 184.082s-3.13.434-4.988-1.515c0 0 1.142 2.152 5 2.487l-.012-.972z"/>
            <path fill="#FF8939" d="M79.53 163.95c0 2.86 2.317 5.178 5.175 5.178 2.858 0 5.175-2.318 5.175-5.178s-2.317-5.178-5.175-5.178c-2.858 0-5.175 2.318-5.175 5.178"/>
            <path fill="#FF9D5A" d="M89.447 163.76c.353-.53.352-1.087.289-1.626-.083-.544-.243-1.09-.436-1.633-.356-1.1-.884-2.15-1.22-3.361.898.854 1.602 1.895 2.015 3.087.193.594.342 1.228.295 1.891-.022.651-.357 1.374-.943 1.642"/>
            <path fill="#FF9D5A" d="M89.648 163.412c.4-.202.566-.515.728-.827.147-.326.271-.677.381-1.044.25-.723.412-1.493.827-2.277.249.835.233 1.7-.026 2.533-.14.407-.326.822-.648 1.166-.297.35-.83.597-1.262.449"/>
            <path fill="#464646" d="M124.997 211.595s-1.735 6.604-11.583 11.044l-1.348-12.841 5.606-3.588 3.375 2.593 3.95 2.792z"/>
            <path fill="#FF7867" d="M143.721 271.772c-.179 0-.354-.092-.452-.257l-4.481-7.547c-.875-1.473-1.126-3.194-.691-4.722.04-.14.084-.277.132-.407.451-1.238 1.434-2.163 2.699-2.537 1.334-.396 2.785-.138 3.883.689.232.175.28.505.104.737-.174.23-.503.28-.735.104-.834-.627-1.937-.82-2.954-.521-.955.283-1.668.955-2.01 1.889-.038.106-.074.217-.107.334-.357 1.252-.145 2.67.583 3.895l4.48 7.547c.15.25.067.574-.183.721-.084.05-.176.075-.268.075"/>
            <path fill="#FFCEC8" d="M111.137 218.843l23.335 34.633 4.451-2.854s-12.839-29.83-14.122-33.275l-3.495-7.23-6.06 1.897-4.109 6.829z"/>
            <path fill="#E89F9A" d="M154.869 261.661L138.874 274.429 162.535 312.932 179.084 294.49z"/>
            <path fill="#FFC59E" d="M138.874 274.429L135.493 276.747 151.381 314.807 155.718 311.496 162.535 312.932z"/>
            <path fill="#FFCEC8" d="M144.763 257.281l-.23.675-2.154-5.063-3.62-2.589-4.265 2.956 1.394 4.512 4.097 6.62c.055.028.603.29 1.17-.01.605-.317.677-.977.681-1.024l-.119-.242c.074.019.634.483 1.221-.014.868-.539.534-.997.54-1.098.344.151.908-.25 1.133-.544.214-.28.221-.673.014-.966 1.046.09 1.106-.72 1.106-.72l.036-.42c-.478-.607-.816-1.317-1.004-2.073"/>
            <path fill="#FF9C91" d="M141.717 263.327c-.073 0-.143-.038-.183-.107l-1.423-2.501c-.162-.286-.201-.619-.11-.936.092-.316.304-.575.595-.73.567-.3 1.269-.103 1.599.445l1.256 2.088c.06.1.028.23-.072.289-.099.06-.228.028-.288-.071l-1.257-2.089c-.215-.358-.672-.484-1.041-.29-.19.101-.328.27-.387.477-.06.205-.035.422.071.61l1.423 2.5c.058.101.022.23-.078.288-.033.018-.07.027-.105.027"/>
            <path fill="#FF9C91" d="M140.037 264.441c-.072 0-.143-.038-.182-.107l-1.424-2.501c-.162-.286-.201-.618-.11-.935.092-.316.303-.575.595-.73.568-.298 1.269-.104 1.599.445l1.256 2.088c.06.1.028.23-.072.29-.098.059-.228.027-.288-.072l-1.257-2.088c-.214-.357-.671-.486-1.041-.291-.19.1-.328.27-.388.476-.06.206-.034.422.072.61l1.423 2.5c.058.102.022.23-.078.288-.033.018-.07.027-.105.027M143.365 262.07c-.075 0-.148-.04-.186-.112l-1.256-2.346c-.135-.253-.16-.543-.07-.815.09-.273.284-.49.543-.61.489-.231 1.078-.04 1.341.43l1.049 1.88c.057.102.02.231-.081.287-.103.054-.23.02-.287-.08l-1.048-1.88c-.155-.28-.505-.393-.795-.256-.154.072-.269.2-.322.361-.054.163-.039.334.041.483l1.256 2.347c.055.103.017.23-.086.285-.031.017-.065.025-.099.025"/>
            <path fill="#FF7867" d="M150.19 266.535c-.177 0-.35-.09-.449-.25l-4.653-7.575c-.22-.357-.496-.662-.822-.908-.232-.175-.278-.505-.103-.737.174-.232.503-.279.736-.104.431.325.796.728 1.085 1.199l4.653 7.573c.152.248.075.572-.173.724-.085.053-.18.078-.274.078"/>
            <path fill="#FFF" d="M145.636 272.236c-.461 0-.86.35-.908.82-.052.5.314.95.815 1.002.499.068.95-.313 1.003-.815.051-.5-.315-.95-.815-1.002-.032-.004-.064-.005-.095-.005zm.004 2.46c-.054 0-.108-.004-.161-.009-.848-.088-1.467-.849-1.378-1.697.042-.41.241-.779.562-1.04.32-.26.726-.377 1.132-.338.847.089 1.466.85 1.378 1.696v.001c-.042.41-.242.78-.562 1.04-.278.226-.618.347-.97.347zM151.766 267.6c-.462 0-.86.351-.908.82-.052.501.313.952.814 1.003.246.033.481-.045.67-.2.19-.153.308-.371.333-.614.025-.245-.047-.483-.2-.672-.154-.19-.372-.306-.614-.331-.032-.004-.064-.005-.095-.005m.003 2.46c-.054 0-.108-.004-.161-.009-.41-.043-.78-.243-1.04-.563-.26-.32-.38-.723-.338-1.134.088-.848.852-1.45 1.695-1.378.41.042.779.241 1.04.56.26.322.38.725.337 1.136-.042.41-.241.78-.561 1.04-.278.227-.618.347-.972.347M161.675 311.846c-.106 0-.21-.054-.27-.15l-17.122-27.863c-.092-.15-.045-.344.103-.435.15-.092.343-.043.434.104l17.123 27.863c.092.149.045.343-.103.435-.052.031-.11.046-.165.046"/>
            <path fill="#464646" d="M43.287 347.166s2.441 6.424 25.227 1.81c0 0-12.297-14.928-25.227-1.81"/>
            <path fill="#FFCEC8" d="M49.685 340.695l-5.759 38.67 7.658 3.252s15.815-27.575 20.112-47.896l-22.011 5.974z"/>
            <path fill="#464646" d="M62.425 395.04l-1.764 4.16c-.156.369-.581.54-.949.384l-12.508-5.311s1.396-5.777-1.234-8.363l6.554 2.17 6.236 4.057 3.665 2.904z"/>
            <path fill="#464646" d="M44.248 393.017l-3.786-1.608 1.648-6.771s3.369-.222 4.497 1.482l-2.36 6.897z"/>
            <path fill="#FF7867" d="M44.422 375.705l-2.311 8.933s.397.027 1.035.172l.418.107c1.662.454 4.371 1.644 6.152 4.727l12.711 5.398s1.587-3.61-.5-5.174c-1.517-1.131-5.081-2.361-6.975-5.863-.07-.132-.136-.254-.203-.392-.607-1.257-.998-2.798-1.032-4.7l-1.636.43c-1.652.43-3.43.305-4.95-.483-.516-.266-.94-.58-1.172-.922l-.368-.542-.285-.403-.884-1.288z"/>
            <path fill="#FFF" d="M52.314 384.686c.02.063.065.106.118.128.047.02.099.027.153.01l2.367-.819c-.07-.132-.136-.254-.203-.392l-2.303.798c-.111.04-.172.164-.132.275M51.763 383.06c-.131 0-.253-.082-.299-.213-.056-.164.031-.344.196-.4l2.456-.848c.165-.06.344.03.401.195.057.164-.03.344-.196.4l-2.455.849c-.034.012-.07.017-.103.017M51.335 381.233c-.13 0-.253-.083-.298-.213-.057-.164.03-.344.195-.401l2.456-.848c.166-.062.345.03.4.195.057.165-.03.345-.195.401l-2.455.848c-.034.013-.069.018-.103.018M45.216 377.112l-2.068 7.692-.002.006.418.107 2.027-7.52-.285-.404c-.043.028-.076.07-.09.119"/>
            <path fill="#DB908A" d="M48.398 349.335s6.649-7.935 13.458-2.767c0 0-.787-7.015-.968-7.075-.18-.06-8.197-2.051-8.86-1.81-.664.242-2.158 1.26-2.158 1.26l-1.472 10.392z"/>
            <path fill="#464646" d="M110.74 350.554s7.913 7.96 26.696-.654c0 0-16.208-11.248-26.696.654"/>
            <path fill="#FFCEC8" d="M138.53 348.305l7.439 34.795-3.212 4.085c-1.095.633-3.177-1.174-4.272-1.807l-2.056-1.188s-14.816-22.269-16.837-36.823c0 0 13.077-6.119 18.938.938"/>
            <g transform="translate(141.528 391.84)">
                <mask id="prefix__j" fill="#fff">
                    <use xlink:href="#prefix__i"/>
                </mask>
                <path fill="#464646" d="M18.752 2.705v4.519c0 .4-.324.724-.723.724H4.44S3.471 2.085.04.732L6.92.168l7.325 1.296 4.507 1.24z" mask="url(#prefix__j)"/>
            </g>
            <path fill="#464646" d="M142.757 399.787h-4.113l-1.127-6.878s3.015-1.52 4.72-.393l.52 7.27z"/>
            <path fill="#FF7867" d="M136.158 383.782l1.36 9.127s.376-.13 1.02-.246l.427-.065c1.707-.231 4.665-.195 7.508 1.947h13.81s.05-3.944-2.482-4.567c-1.837-.449-5.599-.188-8.71-2.67-.115-.095-.223-.182-.34-.283-1.048-.92-2.01-2.186-2.784-3.923l-1.338 1.035c-1.353 1.042-3.039 1.621-4.746 1.491-.578-.043-1.092-.166-1.439-.39l-.55-.355-.42-.261-1.316-.84z"/>
            <path fill="#FFF" d="M146.929 388.965c.043.05.101.072.16.072.05 0 .1-.014.144-.05l1.859-1.68c-.116-.094-.225-.18-.34-.282l-1.809 1.636c-.086.08-.094.217-.014.304M145.664 387.709c-.086 0-.172-.035-.234-.104-.117-.13-.107-.33.023-.446l1.93-1.741c.128-.119.327-.108.445.022.117.13.106.33-.023.447l-1.93 1.74c-.06.055-.136.082-.211.082M144.556 386.194c-.086 0-.172-.035-.234-.104-.117-.13-.106-.33.023-.446l1.93-1.741c.128-.118.329-.107.445.022.117.13.107.33-.023.446l-1.93 1.741c-.06.055-.135.082-.21.082M137.439 384.767l1.1 7.889v.007l.426-.065-1.07-7.715-.42-.261c-.03.044-.044.094-.036.145"/>
            <path fill="#DB908A" d="M121.14 353.906s3.835-5.128 10.506-3.581c0 0-5.371-3.663-12.054-2.958-.067.753 1.198 5.643 1.548 6.539"/>
            <path fill="#FF7867" d="M122.639 207.947c-1.577-2.446-3.154-4.893-4.738-7.34l-.152-.238c-.847-1.31-1.714-2.613-2.546-3.93-.232-.37-.463-.746-.695-1.115-.557-.897-1.128-1.788-1.823-2.59-1.164-1.34-2.64-2.397-4.253-3.135-1.063-.485-2.12-.796-3.212-.955-.708-.116-1.44-.167-2.199-.167l-13.36.138c-.723.043-1.44.123-2.156.246-.195.029-.39.065-.585.101-.21.044-.427.08-.637.13-1.454.312-2.872.782-4.246 1.369h-.007c-.507.211-1.003.442-1.491.686l-1.272 20.367.036-.05 2.553 16.322h24.411l1.637-6.427.333-1.694 3.038 4.574c1.548-1.165 3.211-2.272 4.166-4.016.116-.21.218-.428.311-.645.557-1.23.854-2.576 1.353-3.836.275-.695.651-1.324 1.114-1.874 1.599-1.94 4.188-2.917 6.778-2.273-.789-1.216-1.57-2.432-2.358-3.648"/>
            <path fill="#EFA16C" d="M141.698 346.694s-.914 1.357-2.741 2.455c-.228.14-.464.273-.722.398-1.6.797-3.773 1.32-6.507.797-.235-.052-.479-.103-.73-.163-.935-.236-1.93-.582-2.984-1.084-1.193-.567-2.372-.958-3.522-1.224-.118-.021-.235-.05-.36-.073-.126-.022-.244-.044-.362-.067-2.387-.42-4.605-.265-6.514.14-.25.052-.486.111-.722.17-3.507.885-5.792 2.514-5.792 2.514l-.714-3.214-.103-.472-.627-2.802-6.506-29.226-.722-3.245-6.514-29.248v-.015l-.723-3.237v-.007l-3.699-16.619-2.807 13.869v.015l-.73 3.576-6.506 32.153v.007l-.722 3.562v.014l-6.514 32.162-.553 2.727s-.022 0-.066.015c-.015 0-.03 0-.051.008-.015 0-.03 0-.052.007-.656.11-3.198.405-6.506-.745-.244-.08-.48-.17-.73-.265-1.901-.767-4.016-2.013-6.153-4.04-.118-.111-.236-.222-.353-.318-.244-.206-.48-.398-.723-.567-2.092-1.497-4.37-1.821-6.513-1.556-.244.03-.48.066-.723.11-2.637.487-5.01 1.792-6.506 2.766v.007c-.118.073-.236.147-.339.221-.14.096-.273.184-.39.273-.583.413-.907.693-.907.693l.906-3.834.715-3.016.015-.066 6.506-27.509v-.014l.723-3.038v-.015l6.513-27.523.723-3.06 5.592-23.645c.221-1.07.523-2.249.914-3.51.214-.715.457-1.452.73-2.212 1.444-4.055 3.625-8.611 6.506-12.593l.722-.973c1.901-2.47 4.075-4.66 6.514-6.311.236-.17.479-.325.722-.472.25-.162.509-.31.766-.457h24.427l3.014 10.02.73 2.426 6.506 21.64.722 2.403 6.514 21.662.722 2.403 6.507 21.64.73 2.425 6.506 21.64.722 2.404 2.741 9.113z"/>
            <path fill="#D89261" d="M141.698 346.694s-.914 1.357-2.741 2.455c-.228.14-.464.273-.722.398-1.6.797-3.773 1.32-6.507.797-.235-.052-.479-.103-.73-.163-.935-.236-1.93-.582-2.984-1.084-1.193-.567-2.372-.958-3.522-1.224-.118-.021-.235-.05-.36-.073-.126-.022-.244-.044-.362-.067-2.387-.42-4.605-.265-6.514.14-.25.052-.486.111-.722.17-3.507.885-5.792 2.514-5.792 2.514l-.714-3.214-.103-.472-.627-2.802-6.506-29.226-.722-3.245-6.514-29.248v-.015l-.723-3.237v-.007l-3.699-16.619s6.11-33.29 6.368-33.438l8.782-.116 3.014 10.02.73 2.426 6.506 21.64.722 2.403 6.514 21.662.722 2.403 6.507 21.64.73 2.425 6.506 21.64.722 2.404 2.741 9.113z"/>
            <path fill="#DD732C" d="M91.224 263.295c-.027 0-.055-.003-.083-.008-.228-.046-.375-.268-.33-.496l3.97-19.716c.028-.136.12-.25.248-.305l4.731-2.024c.213-.089.46.008.552.222.092.214-.007.461-.22.553l-4.53 1.937-3.926 19.5c-.04.199-.215.337-.412.337"/>
            <path fill="#D95B4A" d="M108.234 220.19l-.029-.001c-.29-.015-.512-.264-.496-.554l.89-16.287c.016-.29.262-.52.554-.497.29.016.512.264.496.554l-.89 16.288c-.015.28-.247.497-.525.497M79.302 211.99c-.26 0-.485-.19-.52-.455l-.452-3.333c-.039-.289.163-.553.451-.592.288-.054.552.162.592.45l.45 3.333c.04.29-.162.553-.45.592-.024.004-.048.005-.071.005"/>
            <path fill="#FFF" d="M130.733 338.271c-.591 0-1.174-.056-1.738-.17-1.216-.244-2.31-.754-3.37-1.245-.6-.278-1.22-.567-1.842-.796-1.648-.607-3.398-.96-5.2-1.047-1.846-.086-3.69.102-5.47.568l-.16.043c-1.362.355-3.898 1.016-4.612 2.184-.15.247-.475.327-.722.174-.248-.152-.326-.476-.174-.723.934-1.53 3.632-2.234 5.244-2.654l.158-.041c1.883-.494 3.83-.7 5.787-.601 1.91.092 3.763.465 5.513 1.11.662.243 1.302.54 1.921.828 1.05.487 2.041.949 3.134 1.169 1.617.323 3.423.115 5.084-.592 1.518-.648 2.971-1.727 4.201-3.123.193-.216.526-.238.742-.046.219.192.24.525.047.743-1.333 1.512-2.916 2.686-4.578 3.394-1.281.545-2.644.825-3.965.825M74.685 337.266c-2.437 0-7.007-.622-11.286-4.605-4.685-4.361-10.006-4.046-16.748.995-.233.174-.562.127-.736-.108-.174-.232-.126-.562.107-.735 7.123-5.324 13.042-5.626 18.093-.923 5.708 5.313 12.083 4.228 12.146 4.214.293-.043.56.137.612.423.052.286-.137.56-.423.613-.084.015-.734.126-1.765.126"/>
            <path fill="#EFA16C" d="M81.541 225.771L106.825 225.771 106.286 228.916 81.854 228.916z"/>
            <path fill="#FFF" d="M103.747 229.127H81.855c-.116 0-.211-.095-.211-.211 0-.116.095-.21.21-.21h21.893c.116 0 .21.094.21.21 0 .116-.094.21-.21.21"/>
            <path fill="#FFF" d="M83.04 229.034c-.115 0-.21-.095-.21-.21v-3.053c0-.116.095-.21.21-.21.117 0 .211.094.211.21v3.053c0 .115-.094.21-.21.21M84.247 229.034c-.116 0-.21-.095-.21-.21v-3.053c0-.116.094-.21.21-.21.116 0 .21.094.21.21v3.053c0 .115-.094.21-.21.21M102.791 229.034c-.116 0-.21-.095-.21-.21v-3.053c0-.116.094-.21.21-.21.117 0 .211.094.211.21v3.053c0 .115-.094.21-.21.21M102.068 229.034c-.116 0-.21-.095-.21-.21v-3.053c0-.116.094-.21.21-.21.116 0 .211.094.211.21v3.053c0 .115-.095.21-.21.21M96.589 229.034c-.116 0-.21-.095-.21-.21v-3.053c0-.116.094-.21.21-.21.116 0 .21.094.21.21v3.053c0 .115-.094.21-.21.21M94.717 226.698c-.242 0-.438.196-.438.439s.196.439.438.439.439-.196.439-.44c0-.242-.197-.438-.439-.438m0 1.3c-.474 0-.86-.387-.86-.861s.386-.86.86-.86.86.386.86.86-.386.86-.86.86"/>
            <path fill="#778BAA" d="M54.082 271.605c-.046 0-.093-.006-.14-.018-.28-.079-.445-.368-.367-.648l2.332-8.462c.379-1.373.21-2.8-.465-3.912-.062-.104-.127-.202-.193-.297-.574-.81-1.44-1.268-2.436-1.288-1.068-.06-2.072.456-2.71 1.281-.178.232-.508.273-.738.095-.23-.178-.272-.509-.094-.738.842-1.089 2.183-1.746 3.564-1.69 1.318.027 2.511.659 3.273 1.734.08.115.159.233.235.358.822 1.358 1.033 3.085.578 4.737l-2.332 8.462c-.065.233-.276.386-.507.386"/>
            <path fill="#FF9D5A" d="M39.602 261.003L57.779 273.577 51.656 311.422 29.415 300.511z"/>
            <path fill="#FFC59E" d="M57.78 273.577L61.781 274.461 62.701 308.987 57.442 307.539 51.656 311.422z"/>
            <path fill="#FFF" d="M51.931 310.116c-.017 0-.035-.001-.053-.004-.172-.029-.287-.192-.258-.364l5.465-32.25c.029-.172.193-.283.364-.259.171.029.287.192.258.364l-5.465 32.25c-.026.154-.16.263-.31.263"/>
            <path fill="#778BAA" d="M50.193 270.762c-.08 0-.162-.018-.239-.057-.259-.133-.361-.45-.229-.708l3.994-7.817c.648-1.267.77-2.698.334-3.925-.04-.112-.082-.221-.129-.325-.399-.912-1.154-1.537-2.125-1.76-1.033-.232-2.12.03-2.914.709-.219.19-.551.164-.741-.058-.19-.22-.164-.553.057-.742 1.044-.895 2.477-1.241 3.832-.934 1.285.294 2.326 1.154 2.854 2.36.055.126.108.26.158.397.531 1.5.39 3.233-.39 4.757l-3.993 7.817c-.093.181-.278.286-.47.286"/>
            <path fill="#FFCEC8" d="M79.388 215.87l-21.091 36.045-4.623-2.565s10.92-30.585 11.982-34.105l1.021-3.383 8.177-2.547 4.534 6.555z"/>
            <path fill="#FF7867" d="M83.61 210.11l-3.636 7.32-1.97 3.964c-.033 0-.055.01-.088.01-.478.044-.968.055-1.436.044-.12 0-.229-.01-.349-.022-1.578-.076-3.07-.435-4.419-1.078-2.514-1.165-4.56-3.235-5.769-6.034-.316-.697-.566-1.438-.762-2.222l2.82-4.204 3.156-4.727.555-.827 3.516-5.25 2.884-4.313.033-.033c1.001-1.056 1.949-1.23 3.45-1.95l2.014 19.322z"/>
            <path fill="#97BADB" d="M38.46 261.379L55.232 273.105 34.061 313.033 16.376 295.679z"/>
            <path fill="#FF7867" d="M55.232 273.105L58.753 275.204 45.312 314.196 40.774 311.167 34.061 313.033z"/>
            <path fill="#FFCEC8" d="M51.574 262.245l.104-.249c-.073.023-.603.522-1.22.063-.9-.483-.596-.96-.608-1.062-.334.174-.922-.192-1.165-.47-.232-.265-.264-.658-.075-.963-1.038.155-1.15-.647-1.15-.647l-.378-2.497c-.053-.353.23-.602.581-.665.245-.043.481.214.567.52l.31.75 1.829-5.19 3.448-2.813 4.444 2.679-1.105 4.591-3.669 6.868c-.052.03-.583.326-1.169.064-.623-.278-.737-.933-.744-.98"/>
            <path fill="#FF9C91" d="M51.678 262.207c-.031 0-.063-.007-.092-.022-.105-.05-.148-.176-.097-.281l1.444-2.972c.051-.102.176-.146.281-.096.105.05.148.176.097.281l-1.444 2.972c-.037.074-.111.118-.19.118M49.953 261.056c-.03 0-.062-.007-.09-.02-.106-.051-.15-.176-.1-.281l1.309-2.733c.05-.107.177-.148.28-.1.105.05.15.176.1.28l-1.31 2.734c-.035.076-.111.12-.189.12M48.639 259.879c-.03 0-.061-.007-.09-.02-.106-.05-.15-.176-.1-.281l1.034-2.183c.05-.105.176-.148.28-.1.105.05.15.176.1.28l-1.034 2.184c-.036.076-.112.12-.19.12M48.782 258.103c-.092 0-.177-.06-.202-.154l-.217-.773c-.03-.112.034-.228.146-.26.114-.029.228.035.259.147l.216.773c.032.112-.034.228-.145.259-.02.005-.038.008-.057.008"/>
            <path fill="#778BAA" d="M43.406 265.947c-.084 0-.168-.02-.246-.062-.257-.135-.355-.454-.219-.711l4.164-7.854c.258-.487.597-.913 1.007-1.264.22-.189.552-.163.742.057.189.221.163.553-.058.742-.31.265-.566.588-.762.958l-4.163 7.854c-.094.178-.277.28-.465.28"/>
            <path fill="#FFF" d="M48.405 271.344c-.051 0-.103.004-.154.013-.24.04-.451.172-.593.371-.14.199-.197.441-.156.682.083.497.555.831 1.052.75.496-.084.833-.556.75-1.052-.041-.242-.173-.453-.372-.594-.156-.111-.339-.17-.527-.17m-.003 2.46c-.74 0-1.396-.535-1.523-1.29-.068-.406.026-.816.265-1.153.24-.336.595-.559 1.003-.627.405-.07.815.026 1.152.266.336.239.559.596.627 1.003.141.84-.427 1.638-1.268 1.78-.086.014-.171.021-.256.021M41.99 267.108c-.049 0-.1.004-.15.012-.497.084-.833.556-.75 1.052.04.242.173.453.371.594.2.141.442.199.681.156.241-.04.451-.171.593-.37.141-.199.197-.441.157-.682-.075-.446-.463-.762-.901-.762m-.004 2.459c-.318 0-.627-.098-.892-.287-.336-.24-.559-.596-.627-1.003-.14-.84.427-1.638 1.267-1.78.842-.143 1.638.428 1.78 1.268.068.407-.027.817-.266 1.154-.24.336-.595.559-1.003.626-.086.015-.173.022-.259.022M34.83 311.896c-.049 0-.1-.011-.147-.037-.154-.08-.212-.272-.13-.426l15.32-28.895c.083-.155.273-.215.428-.13.154.08.212.272.13.426l-15.32 28.895c-.058.107-.167.167-.28.167"/>
            <path fill="#FFEAE8" d="M113.315 197.792c0 1.745 1.417 3.163 3.16 3.163.514 0 .999-.123 1.426-.347l-.152-.239c-.846-1.31-1.714-2.613-2.546-3.93-.232-.37-.463-.746-.695-1.115-.73.572-1.193 1.47-1.193 2.468M97.858 212.959c0 1.745 1.415 3.16 3.16 3.16 1.744 0 3.158-1.415 3.158-3.16 0-1.746-1.414-3.16-3.159-3.16-1.744 0-3.159 1.414-3.159 3.16M76.654 199.73c0 1.743-1.415 3.159-3.157 3.159-.675 0-1.284-.207-1.785-.555l3.516-5.25c.86.566 1.426 1.535 1.426 2.646M77.927 221.143c0 .087 0 .175-.01.262-.48.043-.97.054-1.437.043-.12 0-.229-.01-.349-.022-1.578-.076-3.07-.435-4.419-1.078.348-1.361 1.578-2.363 3.048-2.363 1.752 0 3.167 1.416 3.167 3.158M84.359 205.614c0 1.745 1.414 3.16 3.159 3.16 1.744 0 3.159-1.415 3.159-3.16 0-1.746-1.415-3.161-3.16-3.161-1.744 0-3.158 1.415-3.158 3.16M97.858 196.566c0 1.746 1.415 3.161 3.16 3.161 1.744 0 3.158-1.415 3.158-3.16 0-1.746-1.414-3.161-3.159-3.161-1.744 0-3.159 1.415-3.159 3.16M84.359 221.141c0 1.746 1.414 3.16 3.159 3.16 1.744 0 3.159-1.414 3.159-3.16 0-1.745-1.415-3.16-3.16-3.16-1.744 0-3.158 1.415-3.158 3.16M113.315 216.502c0 1.498 1.041 2.75 2.438 3.076.556-1.23.853-2.577 1.352-3.836.275-.695.651-1.324 1.114-1.874-.5-.333-1.1-.529-1.743-.529-1.744 0-3.161 1.419-3.161 3.163"/>
            <path fill="#FFCEC8" d="M86.283 189.093c.81 4.48 4.73 7.867 9.44 7.852 4.86-.007 8.86-3.618 9.497-8.301-.708-.116-1.44-.167-2.199-.167l-13.36.138c-.723.043-1.44.123-2.156.246-.195.029-.39.065-.585.101-.21.044-.427.08-.637.13"/>
            <path fill="#FFF" d="M95.692 197.472c-4.885 0-9.057-3.48-9.927-8.286-.05-.286.139-.56.425-.611.285-.049.558.137.61.424.779 4.303 4.516 7.42 8.893 7.42h.028c4.512-.006 8.371-3.38 8.978-7.847.04-.287.305-.495.592-.45.288.04.49.304.45.592-.677 4.986-4.984 8.75-10.017 8.758h-.032z"/>
            <path fill="#D95B4A" d="M80.368 217.493c-.077 0-.156-.017-.23-.053-.262-.129-.37-.444-.241-.705l2.672-5.447c.128-.26.442-.368.703-.24.261.128.369.444.24.705l-2.671 5.446c-.092.186-.279.294-.473.294"/>
            <path fill="#464646" d="M537.465 386.665s.135-.096.872-.414l-.134 1.26c-.312-.226-.58-.488-.738-.846"/>
            <path fill="#84BCBF" d="M608.96 295.293l-4.836 92.685-10.465-.172-10.191-115.64-.11-7.897.124 9.31-.014.043-35.417 116.305c-3.768 2.184-6.995 1.041-9.848-2.415l25.957-128.15s5.835-24.086 6.024-35.295h29.455l2.14 9.666s5.685 6.777 7.897 27.064c1.454 13.307-.647 32.488-.715 34.496"/>
            <path fill="#71AAAA" d="M583.468 272.166l-.11-7.897.124 9.31-.014.043-35.417 116.306c-3.768 2.183-6.995 1.04-9.848-2.416l25.957-128.15s5.835-24.086 6.024-35.295h11.096l2.188 48.1z"/>
            <path fill="#4A9999" d="M583.468 273.96h.004c.186-.003.335-.156.333-.342l-.11-9.352c-.002-.086-.035-.17-.096-.231l-8.446-8.698c-.13-.133-.343-.136-.477-.007-.134.13-.137.344-.007.478l8.352 8.6.11 9.218c0 .185.152.333.337.333"/>
            <path fill="#464646" d="M554.186 197.694s.512 1.83 1.736 3.12l3.114-3.632s-2.029-.68-4.85.512"/>
            <path fill="#FFCEC8" d="M572.035 204.127l-1.433 1.379-3.299 3.177c-4.103-.755-6.02-4.037-6.293-5.537-.209-1.17-.614-2.292-1.302-3.199-2.322-3.03-5.336-2.302-5.512-2.258l9.167-8.525 1.24-1.153 2.615-2.428c.966-.898 2.021-1.667 3.15-2.295.12-.07.248-.14.374-.203l.745-.393c.014-.005.035-.016.048-.02l.5 21.455z"/>
            <path fill="#F4B74A" d="M571.53 224.99c.548-2.127.939-4.102 1.174-5.775l-.637-11.759c-.64-.507-1.137-1.311-1.465-1.95-.28-.548-.43-.974-.43-.974l-.164.15.36-21.394.003-.072 1.116-.524c.014-.005.035-.016.048-.02 1.576-.737 3.062-.892 4.743-1.05.811-.076 6.685-.042 6.685-.042l14.41 1.37c.332.028.663.063.988.09 1.383.133 2.762.292 4.089.714.664.208 1.319.434 1.956.698.006 0 .005.007.012.008.031.01.068.028.1.038l-.002.02-1.706 19.011-.017-.015-.228 1.937-1.61 24.557-30.947 1.405c.013-.051 1.033-4.604 1.046-4.655.173-.596.332-1.188.477-1.768"/>
            <path fill="#FFCEC8" d="M601.889 183.593c-.494.34-1.912 18.75-1.912 18.75l.034 4.273 9.94-.052s-.084-4.47-.063-5.848c.041-2.734-.006-5.215-.377-7.932-.449-3.302-1.334-6.83-4.579-8.286-1.578-.708-2.865-1.027-3.043-.905"/>
            <path fill="#7B63D1" d="M570.76 205.334c.035 0 .071-.006.106-.019.156-.06.236-.233.177-.39-2.158-5.713 1.412-12.273 1.448-12.339.081-.146.028-.33-.118-.41-.145-.08-.33-.03-.411.117-.154.278-3.741 6.873-1.485 12.846.046.121.16.195.283.195"/>
            <path fill="#FFCEC8" d="M596.156 182.808c-1.01 5.15-4.74 8.29-8.75 7.79-3.827-.477-6.71-4.215-6.7-9.18.568-.053 4.666.367 4.666.367l10.092.96c.233.02.464.044.692.063"/>
            <path fill="#FFF" d="M569.99 206.563c.11 0 .21-.077.235-.19.029-.13-.053-.26-.184-.288-4.91-1.074-6.18-4.84-6.5-6.408-.168-.826-.41-1.502-.741-2.069-2.201-3.762-6.468-2.584-6.51-2.572-.13.037-.203.17-.167.299.037.129.17.202.3.166.16-.046 3.952-1.084 5.959 2.352.304.52.528 1.148.685 1.92.338 1.662 1.684 5.65 6.87 6.785.018.004.035.005.052.005M588.297 190.825c3.846 0 7.063-3.088 7.99-7.818.018-.092-.042-.18-.133-.199-.093-.017-.181.042-.2.134-.963 4.916-4.473 7.994-8.526 7.49-1.988-.248-3.713-1.309-4.86-2.988-.214-.307-.41-.64-.584-.992-.67-1.352-1.007-2.92-1.002-4.66 0-.093-.076-.17-.17-.17-.093 0-.169.076-.17.17-.004 1.793.345 3.41 1.039 4.81.18.366.385.715.609 1.035 1.2 1.759 3.01 2.872 5.095 3.13.308.04.612.058.912.058"/>
            <path fill="#FFF" d="M580.813 181.727c-.036 0-.065.03-.065.065-.005 1.776.341 3.38 1.027 4.764.177.359.379.702.6 1.021 1.186 1.735 2.97 2.831 5.023 3.086.297.038.6.057.899.057 3.81 0 6.98-3.108 7.887-7.734.003-.016 0-.034-.01-.048-.009-.013-.023-.022-.04-.026-.042-.01-.069.015-.076.05-.974 4.97-4.526 8.07-8.644 7.575-2.017-.252-3.77-1.33-4.933-3.034-.215-.308-.414-.647-.591-1.005-.677-1.367-1.018-2.95-1.013-4.706 0-.036-.03-.065-.064-.065m7.484 9.203c-.309 0-.62-.02-.925-.057-2.114-.264-3.95-1.391-5.17-3.176-.227-.327-.434-.68-.616-1.049-.7-1.413-1.053-3.047-1.049-4.857.001-.151.125-.273.275-.273.152 0 .275.123.275.274-.005 1.724.329 3.276.992 4.614.171.347.365.677.576.977 1.13 1.655 2.828 2.7 4.785 2.944.286.036.57.053.848.053 3.634 0 6.68-2.948 7.564-7.458.03-.15.17-.24.321-.217.072.014.134.055.176.116.04.06.056.134.041.206-.926 4.727-4.18 7.903-8.093 7.903"/>
            <path fill="#FFCEC8" d="M600.247 217.163l-.165-12.289c4.295-2.969 7.213-.34 7.213-.34 2.674 1.694 2.656 2.03 2.656 2.03-.17 1.825-.122 12.105-1.302 14.94-.577 1.385-1.429 2.677-2.595 3.621-1.343 1.087-1.389 1.322-3 1.817-1.776.546-3.533 1.19-5.298 1.777l-10.776 3.582-.52.173.584-4.69 13.203-10.62z"/>
            <path fill="#95A0DB" d="M540.45 203.134L584.608 213.255 588.989 194.118 544.831 183.997z"/>
            <path fill="#7280C4" d="M577.571 211.642L581.952 192.505 588.989 194.117 584.608 213.255 540.45 203.134z"/>
            <path fill="#E08648" d="M590.13 214.33L589.356 217.693 584.069 240.773 575.846 238.89 570.334 237.623 553.094 233.677 548.232 232.557 542.44 231.234 548.501 204.78 549.968 205.116 549.979 205.116 584.36 213.008 587.284 213.68z"/>
            <path fill="#FFCEC8" d="M547.108 211.296c-.871.07-1.629.625-1.957 1.435l-.426 1.051 1.557.394.826-2.88z"/>
            <path fill="#FFCEC8" d="M544.496 213.635l4.438 1.244c.347.097.551.457.456.806-.086.313-.387.517-.71.479l-4.477-.52c-.402-.048-.687-.415-.634-.817l.078-.576c.055-.41.442-.69.85-.616"/>
            <path fill="#FFCEC8" d="M544.093 215.568l4.938.514c.36.035.623.354.59.714 0 0-.094.506-.615.595l-4.85.205c-.405.024-.75-.288-.767-.692l-.024-.581c-.018-.414.314-.758.728-.755"/>
            <path fill="#FFCEC8" d="M544.076 217.254l4.297.204c.313.013.563.315.56.676 0 0-.046.51-.49.632l-4.172.507c-.346.05-.666-.24-.71-.643l-.06-.578c-.045-.411.218-.775.575-.798"/>
            <path fill="#FFCEC8" d="M543.92 219.132l3.148-.3c.23-.024.442.17.478.433 0 0 .02.376-.29.511l-2.983.805c-.248.072-.51-.105-.584-.394l-.106-.414c-.074-.295.079-.587.336-.64"/>
            <path fill="#FF9C91" d="M544.044 219.293c.009.002.018.003.027.002l3.11-.276c.054-.005.094-.053.09-.107-.005-.054-.052-.094-.108-.09l-3.11.276c-.054.005-.094.053-.09.107.005.045.039.08.081.088M543.866 217.545l.018.001 4.335-.023c.055 0 .099-.044.098-.1 0-.054-.043-.098-.099-.097l-4.335.023c-.054 0-.098.045-.098.1 0 .047.035.087.081.096M544.075 215.665l.008.001 4.385.456c.054.006.102-.033.108-.088.006-.054-.022-.105-.088-.108l-4.385-.456c-.054-.005-.103.034-.109.088-.005.052.03.098.08.107M546.146 214.189c.05.009.099-.021.113-.07.014-.053-.016-.108-.069-.123l-1.25-.35c-.059-.012-.108.016-.122.068-.015.053.016.108.068.122l1.251.35.009.003"/>
            <path fill="#9B674B" d="M583.804 180.515l-15.9 1.667s-.804-4.005 3.453-4.513c0 0-2.98-5.338 1.888-8.743 0 0-1.843-7.508 6.23-9.457l-.177 6.211 5.24 11.661-.734 3.174z"/>
            <path fill="#FFCEC8" d="M579.074 165.76s-2.633 8.575 5.465 11.581l-1.251 5.404 10.093.77.226-16.646-10.695-8.259s-2.358 1.32-3.838 7.15"/>
            <path fill="#B57C55" d="M593.43 179.971l20.286-2.348s1.168-5.132-4.894-4.983c0 0 .842-3.769-2.237-5.614 0 0-2.913-1.833-5.077-.388 0 0-2.634-11.65-11.643-13.009-5.494-.828-10.591 2.961-10.98 8.506-.075 1.071-.026 2.275.189 3.625 0 0 2.225-.552 2.588-3.857 0 0 5.538 7.524 11.048 5.137l.89-.07-.17 13.001z"/>
            <path fill="#FFCEC8" d="M596.251 170.06c-.12 1.586-1.504 2.773-3.089 2.652-1.585-.12-2.772-1.504-2.65-3.09.12-1.586 1.503-2.774 3.088-2.653 1.585.121 2.772 1.505 2.651 3.09"/>
            <path fill="#EA9C96" d="M584.54 177.333s3.137 1.145 5.49-.455c0 0-1.66 1.97-5.718 1.457l.228-1.002z"/>
            <path fill="#B57C55" d="M579.935 160.338c-1.14-1.78-1.618-3.759-1.61-5.75-.002-2.003.513-3.98 1.064-6.02-1.222 1.72-1.976 3.828-1.999 6.016.005 1.093.195 2.19.621 3.197.417 1.004 1.066 1.925 1.924 2.557"/>
            <path fill="#B57C55" d="M580.247 159.905c-.968-.906-2.1-1.576-3.365-2-1.253-.396-2.71-.514-3.93.076 1.316.157 2.468.431 3.644.815 1.177.36 2.34.856 3.651 1.11"/>
            <path fill="#FFCEC8" d="M601.889 183.593s-4.4 12.76-1.739 26.395l3.77-20.266-2.031-6.129z"/>
            <path fill="#FFC59E" d="M552.602 214.036l-2.138-1.816c-.434-.368-.487-1.02-.119-1.453l1.815-2.14c.368-.434 1.019-.487 1.453-.118l2.137 1.815c.434.369.488 1.02.119 1.454l-1.814 2.139c-.369.434-1.02.487-1.453.119M567.297 218.877h2.804c.57 0 1.03.462 1.03 1.032v2.805c0 .57-.46 1.032-1.03 1.032h-2.804c-.57 0-1.03-.462-1.03-1.032v-2.805c0-.57.46-1.032 1.03-1.032M590.13 214.33l-.774 3.363h-1.064c-.571 0-1.03-.46-1.03-1.031v-2.814c0-.056 0-.112.022-.168l2.846.65zM553.094 231.077v2.6l-4.862-1.12v-1.48c0-.572.459-1.043 1.03-1.043h2.801c.572 0 1.03.471 1.03 1.043M575.98 238.755l-.134.135-5.512-1.267c.056-.123.124-.235.225-.336l1.983-1.984c.403-.404 1.052-.404 1.456 0l1.983 1.984c.403.403.403 1.065 0 1.468"/>
            <path fill="#8390ED" d="M587.008 202.771L580.24 201.22 580.475 200.195 587.243 201.746z"/>
            <path fill="#B3BAE8" d="M580.24 201.22L542.849 192.651 543.085 191.625 580.475 200.194z"/>
            <path fill="#B3BAE8" d="M555.035 206.476L554.01 206.242 558.391 187.105 559.416 187.339z"/>
            <path fill="#FFF" d="M584.052 213.21c.146.018.285-.077.317-.224.035-.156-.063-.31-.219-.344l-33.952-7.57c-.159-.04-.31.064-.345.22-.034.155.064.309.22.344l33.952 7.569.027.005"/>
            <path fill="#8991F0" d="M559.302 181.739c-.364-.937-.923-1.724-1.576-2.221-.59-.45-1.175-.597-1.647-.412-1.032.404-1.301 2.291-.586 4.121.578 1.484 2.441 2.263 3.18 2.52.367-.689 1.208-2.526.63-4.008m-4.59 1.794c-.91-2.332-.443-4.619 1.061-5.207.755-.295 1.628-.109 2.46.526.771.588 1.427 1.505 1.848 2.581.879 2.252-.789 4.927-.86 5.04l-.165.26-.297-.08c-.098-.025-1.865-.51-3.1-1.724-.394-.388-.734-.851-.947-1.396"/>
            <path fill="#8991F0" d="M562.391 186.598c.532-.28.962-.665 1.213-1.087.228-.382.276-.74.135-1.007-.31-.587-1.45-.62-2.489-.072-.843.444-1.18 1.605-1.283 2.061.434.172 1.582.55 2.424.105m-1.375-2.609c1.324-.698 2.715-.575 3.166.28.226.43.173.962-.147 1.5-.298.498-.799.95-1.41 1.272-1.279.675-2.98-.137-3.053-.172l-.165-.08.027-.182c.009-.06.178-1.145.816-1.96.204-.261.457-.495.766-.658"/>
            <path fill="#FFF" d="M589.37 240.378c-.124 0-.24-.072-.29-.192l-3.54-8.312c-.667-1.565-.688-3.289-.06-4.732.058-.133.12-.259.183-.381.596-1.138 1.666-1.904 2.935-2.101 1.344-.212 2.717.229 3.674 1.173.124.122.126.322.003.447-.123.123-.323.124-.446.003-.815-.805-1.986-1.18-3.134-1-1.085.17-1.964.798-2.473 1.77-.057.11-.111.224-.163.342-.56 1.284-.537 2.826.061 4.232l3.54 8.312c.068.16-.007.345-.167.414-.04.017-.082.025-.124.025"/>
            <path fill="#FF7867" d="M602.051 231.812L583.99 242.646 602.861 285.16 622.263 268.614z"/>
            <path fill="#FFC59E" d="M583.99 242.646L580.224 244.548 591.227 285.546 596.103 282.762 602.861 285.16z"/>
            <path fill="#FFF" d="M591.063 241.317c-.428 0-.819.293-.923.728-.123.509.192 1.023.701 1.146.51.126 1.022-.192 1.145-.701.122-.51-.192-1.024-.701-1.146-.074-.019-.149-.027-.222-.027zm0 2.533c-.122 0-.246-.015-.37-.045-.847-.205-1.37-1.061-1.167-1.908.205-.848 1.062-1.368 1.907-1.168.847.205 1.37 1.06 1.166 1.91-.173.723-.823 1.21-1.536 1.21zM597.948 237.428c-.173 0-.343.047-.494.14-.216.132-.368.341-.428.588-.06.246-.019.501.113.717.133.217.341.369.588.428.248.062.503.02.718-.113.216-.133.368-.341.427-.588.06-.247.02-.502-.113-.717-.132-.218-.34-.37-.588-.428-.074-.019-.149-.027-.223-.027m.004 2.531c-.124 0-.249-.014-.372-.044-.41-.098-.759-.351-.98-.712-.22-.36-.286-.785-.187-1.195.099-.41.351-.758.711-.979.36-.22.784-.288 1.195-.189.41.099.758.352.978.713.22.36.288.784.188 1.195-.098.41-.35.758-.71.978-.253.154-.536.233-.823.233M602.174 283.928c-.12 0-.236-.07-.288-.187l-13.657-30.766c-.07-.159.001-.346.16-.417.16-.07.346.002.417.16l13.657 30.766c.07.16-.002.347-.161.418-.042.018-.085.026-.128.026"/>
            <path fill="#FFCEC8" d="M588.2 227.524l-7.98-.386c-.01.798.522 1.5 1.292 1.706l1.918.513-1.053 1.873-5.179 3.355c-.228.148-.278.46-.107.672.126.156.339.212.525.138l4.179-1.667-3.005 2.545-1.676.082.03.188c.045.29.273.518.564.563l3.616.555 1.55-.574 1.34-1.92 3.46-4.142 4.68-.57-.797-3.6-3.357.67z"/>
            <path fill="#FF9C91" d="M579.167 237.425c.017.003.034 0 .05-.007l2.01-.878c.01-.005.022-.013.03-.022l2.193-2.368c.035-.038.033-.098-.005-.134-.038-.035-.098-.033-.134.005l-2.179 2.353-1.991.871c-.048.02-.07.076-.049.124.014.032.043.052.075.056M581.061 237.626c.02.003.04-.001.06-.012l1.099-.636c.01-.007.02-.016.029-.027l1.621-2.24c.03-.042.021-.1-.021-.131-.041-.031-.1-.021-.132.02l-1.61 2.224-1.081.627c-.045.026-.06.084-.035.13.016.026.042.042.07.045"/>
            <path fill="#FFF" d="M596.683 235.921c-.121 0-.237-.07-.289-.187l-3.71-8.363c-.187-.42-.443-.792-.762-1.107-.124-.122-.126-.322-.003-.447.122-.124.322-.125.446-.003.375.37.677.808.895 1.3l3.711 8.363c.07.16-.001.347-.16.418-.042.018-.085.026-.128.026"/>
            <g transform="translate(523.267 386.541)">
                <mask id="prefix__l" fill="#fff">
                    <use xlink:href="#prefix__k"/>
                </mask>
                <path fill="#578C65" d="M25.31 3.117l-2.76 8.935c-.2.705-.823 1.196-1.512 1.194L.12 13.176c-.07 0 .59-2.096.653-2.23 1.2-2.526 4.994-2.889 7.204-4.172 2.681-1.556 4.5-4.051 6.22-6.65 1.214 1.423 2.498 2.837 4.129 3.688 1.01.526 2.169.806 3.317.7 1.268-.116 2.535-.814 3.666-1.395" mask="url(#prefix__l)"/>
            </g>
            <path fill="#FFF" d="M538.532 391.916c.087 0 .173-.043.225-.121.082-.124.048-.292-.076-.375-1.632-1.08-2.322-2.727-2.33-2.744-.056-.138-.214-.204-.351-.147-.138.057-.204.214-.148.352.03.073.755 1.814 2.53 2.99.046.03.098.045.15.045M536.738 393.811c.087 0 .174-.043.226-.121.081-.125.048-.293-.077-.375-1.63-1.08-2.322-2.727-2.328-2.743-.057-.14-.214-.205-.352-.148-.138.057-.205.214-.148.352.03.073.756 1.814 2.53 2.99.046.03.098.045.15.045M523.762 398.604h.004l22.209-.284c.149-.002.268-.125.267-.274-.003-.15-.114-.281-.274-.267l-22.21.285c-.148.001-.267.124-.266.273.002.148.123.267.27.267"/>
            <path fill="#578C65" d="M604.518 397.361l-.015-.062-.14-.512-.507-7.348h-10.062l-2.966 5.17.05 4.922h11.992c1.124 0 1.94-1.077 1.648-2.17"/>
            <path fill="#578C65" d="M599.955 394.485v5.046h-9.838c-.608 0-1.101-.542-1.101-1.201v-1.047c0-.17.015-.333.046-.496.17-1.062.885-1.907 1.817-2.193.223-.07.454-.109.693-.109h8.383z"/>
            <path fill="#FFF" d="M604.504 397.299h-15.488v-.016c0-.17.015-.333.046-.496h15.304l.138.512zM594.485 394.756h5.03c.15 0 .27-.122.27-.271 0-.149-.12-.27-.27-.27h-5.03c-.149 0-.27.121-.27.27 0 .15.121.27.27.27M595.758 392.88h2.848c.149 0 .27-.122.27-.271 0-.15-.121-.27-.27-.27h-2.848c-.149 0-.27.12-.27.27 0 .149.121.27.27.27"/>
            <path fill="#578C65" d="M595.091 386.282h7.622c.897 0 1.573.813 1.411 1.696l-.268 1.46h-10.097l-.1-1.632c-.05-.826.605-1.524 1.432-1.524"/>
            <path fill="#FFF" d="M345.209 193.472l1.15 2.332c.121.246.356.417.628.456l2.571.374c.684.1.957.94.462 1.423l-1.86 1.815c-.197.191-.287.467-.24.738l.439 2.562c.117.682-.598 1.201-1.21.88l-2.3-1.21c-.242-.128-.533-.128-.775 0l-2.3 1.21c-.612.321-1.327-.198-1.21-.88l.44-2.562c.046-.27-.044-.547-.24-.738l-1.861-1.815c-.495-.483-.222-1.324.462-1.423l2.571-.374c.272-.04.507-.21.628-.456l1.15-2.332c.306-.62 1.189-.62 1.495 0M358.621 193.472l1.15 2.332c.122.246.357.417.628.456l2.572.374c.683.1.956.94.461 1.423l-1.86 1.815c-.197.191-.286.467-.24.738l.44 2.562c.116.682-.598 1.201-1.21.88l-2.3-1.21c-.243-.128-.533-.128-.776 0l-2.3 1.21c-.611.321-1.326-.198-1.21-.88l.44-2.562c.046-.27-.043-.547-.24-.738l-1.86-1.815c-.495-.483-.222-1.324.461-1.423l2.572-.374c.271-.04.506-.21.628-.456l1.15-2.332c.305-.62 1.189-.62 1.494 0M372.034 193.472l1.15 2.332c.121.246.356.417.628.456l2.571.374c.684.1.957.94.462 1.423l-1.86 1.815c-.197.191-.287.467-.24.738l.439 2.562c.116.682-.598 1.201-1.21.88l-2.3-1.21c-.242-.128-.533-.128-.775 0l-2.3 1.21c-.612.321-1.327-.198-1.21-.88l.44-2.562c.046-.27-.044-.547-.24-.738l-1.861-1.815c-.495-.483-.222-1.324.462-1.423l2.571-.374c.272-.04.506-.21.628-.456l1.15-2.332c.306-.62 1.19-.62 1.495 0M385.447 193.472l1.15 2.332c.12.246.356.417.627.456l2.571.374c.684.1.957.94.463 1.423l-1.861 1.815c-.197.191-.286.467-.24.738l.44 2.562c.116.682-.598 1.201-1.21.88l-2.3-1.21c-.243-.128-.533-.128-.776 0l-2.3 1.21c-.611.321-1.326-.198-1.21-.88l.44-2.562c.046-.27-.043-.547-.24-.738l-1.86-1.815c-.495-.483-.222-1.324.461-1.423l2.572-.374c.271-.04.506-.21.628-.456l1.15-2.332c.305-.62 1.189-.62 1.495 0M398.63 202.592l2.3 1.21c.192.1.408.085.581-.042.174-.126.257-.328.22-.54l-.439-2.563c-.062-.362.058-.731.32-.987l1.861-1.815c.154-.15.206-.362.14-.567-.066-.204-.233-.344-.445-.375l-2.572-.374c-.364-.053-.677-.281-.84-.61l-1.15-2.332c-.19-.386-.799-.386-.99 0l-1.15 2.332c-.161.329-.476.557-.84.61l-2.57.374c-.213.031-.38.17-.446.376-.066.204-.014.416.14.566l1.86 1.815c.264.256.383.625.321.988l-.44 2.562c-.036.212.046.414.22.54.174.127.391.142.581.042l2.3-1.21c.163-.085.341-.128.52-.128.178 0 .356.043.519.128m-4.251 1.624c-.346-.251-.516-.67-.444-1.092l.44-2.562c.03-.18-.029-.362-.159-.488l-1.86-1.815c-.307-.3-.415-.738-.283-1.145.132-.407.477-.698.9-.76l2.572-.373c.18-.026.335-.139.415-.302l1.15-2.332c.19-.384.573-.621 1-.621.428 0 .812.237 1 .621l1.15 2.333c.08.162.236.275.416.3l2.572.375c.423.061.768.352.9.76.132.406.024.845-.282 1.144l-1.861 1.815c-.13.126-.19.309-.159.488l.44 2.563c.072.421-.098.84-.444 1.091-.346.252-.797.284-1.175.085l-2.3-1.21c-.161-.084-.353-.084-.513 0l-2.3 1.21c-.165.087-.343.13-.52.13-.23 0-.46-.072-.655-.215M284.609 105.104h-84.135c-1.654 0-2.995-1.342-2.995-2.997V3.743c0-1.655 1.341-2.997 2.995-2.997h84.135c1.654 0 2.995 1.342 2.995 2.997v98.364c0 1.655-1.34 2.997-2.995 2.997"/>
            <g transform="translate(196.887)">
                <mask id="prefix__n" fill="#fff">
                    <use xlink:href="#prefix__m"/>
                </mask>
                <path fill="#E2BA96" d="M3.587 1.272c-1.361 0-2.469 1.108-2.469 2.47v98.365c0 1.363 1.108 2.47 2.469 2.47h84.135c1.361 0 2.47-1.107 2.47-2.47V3.743c0-1.363-1.109-2.471-2.47-2.471H3.587zM87.722 105.63H3.587c-1.941 0-3.52-1.58-3.52-3.523V3.743C.066 1.8 1.645.22 3.586.22h84.135c1.941 0 3.521 1.58 3.521 3.523v98.364c0 1.942-1.58 3.523-3.52 3.523z" mask="url(#prefix__n)"/>
            </g>
            <path fill="#A2DBDD" d="M238.003 41.896l25.015 7.744c5.293 1.638 8.902 6.535 8.902 12.079h-48.438c-3.693 0-6.873-2.607-7.598-6.23l-2.72-13.593h24.84z"/>
            <path fill="#FFF" d="M270.795 57.049h-54.91c-.291 0-.527-.235-.527-.526 0-.291.236-.527.526-.527h54.911c.29 0 .526.236.526.527 0 .29-.235.526-.526.526M247.6 51.336c-.12 0-.24-.04-.34-.124-.221-.188-.249-.52-.06-.742l3.985-4.71c.187-.22.518-.248.741-.061.222.188.25.52.061.742l-3.986 4.71c-.103.122-.252.185-.401.185M241.82 49.39c-.12 0-.241-.041-.34-.125-.222-.188-.25-.52-.062-.742l3.986-4.71c.187-.22.518-.249.741-.062.222.188.25.52.061.742l-3.985 4.71c-.104.123-.253.187-.402.187"/>
            <path fill="#A2DBDD" d="M246.809 40.197c1.393.554 5.074 1.766 7.776.34 3.334-1.755 5.315-4.83 4.324-6.714-.453-.86-1.485-1.383-2.906-1.473-1.572-.1-3.37.34-5.075 1.24-2.7 1.423-3.787 5.144-4.12 6.607m5.397 2.598c-3.314.209-6.487-1.31-6.662-1.396l-.53-.257.087-.584c.039-.253.98-6.23 5.081-8.391 1.961-1.032 4.064-1.538 5.923-1.42 2.002.125 3.503.952 4.227 2.328 1.443 2.745-.752 6.648-4.999 8.886-.994.522-2.068.767-3.127.834"/>
            <path fill="#A2DBDD" d="M245.935 40.763c-.442.028-.823-.309-.85-.751l-.983-15.606c-.028-.443.308-.825.75-.853.442-.027.823.309.851.752l.983 15.606c.028.442-.308.824-.75.852M238.003 41.896l1.353-4.436c.876-2.872-.854-5.886-3.774-6.577l-3.034-.718-.722 11.73h6.177z"/>
            <path fill="#FFC33E" d="M221.594 72.402l.89 1.802c.093.19.274.322.484.353l1.988.289c.529.077.74.727.357 1.1l-1.438 1.403c-.152.147-.221.361-.185.57l.34 1.98c.09.528-.463.93-.936.68l-1.778-.935c-.188-.098-.412-.098-.6 0l-1.777.936c-.473.248-1.025-.153-.935-.68l.34-1.98c.035-.21-.034-.424-.186-.571l-1.438-1.404c-.383-.372-.172-1.022.357-1.1l1.988-.288c.21-.03.39-.163.485-.353l.889-1.802c.236-.48.919-.48 1.155 0M231.962 72.402l.889 1.802c.094.19.275.322.485.353l1.988.289c.528.077.74.727.357 1.1l-1.438 1.403c-.152.147-.221.361-.185.57l.339 1.98c.09.528-.462.93-.935.68l-1.778-.935c-.188-.098-.412-.098-.6 0l-1.777.936c-.473.248-1.026-.153-.935-.68l.34-1.98c.035-.21-.034-.424-.186-.571l-1.438-1.404c-.383-.372-.172-1.022.357-1.1l1.987-.288c.21-.03.392-.163.485-.353l.89-1.802c.236-.48.919-.48 1.155 0M242.33 72.402l.889 1.802c.094.19.275.322.485.353l1.988.289c.528.077.74.727.357 1.1l-1.438 1.403c-.152.147-.222.361-.186.57l.34 1.98c.09.528-.462.93-.935.68l-1.778-.935c-.188-.098-.412-.098-.6 0l-1.778.936c-.472.248-1.025-.153-.934-.68l.34-1.98c.035-.21-.034-.424-.186-.571l-1.438-1.404c-.383-.372-.172-1.022.356-1.1l1.988-.288c.21-.03.391-.163.485-.353l.89-1.802c.236-.48.919-.48 1.155 0M252.698 72.402l.889 1.802c.094.19.275.322.485.353l1.988.289c.528.077.74.727.357 1.1l-1.439 1.403c-.151.147-.22.361-.185.57l.34 1.98c.09.528-.462.93-.935.68l-1.778-.935c-.188-.098-.412-.098-.6 0l-1.778.936c-.472.248-1.025-.153-.935-.68l.34-1.98c.036-.21-.033-.424-.185-.571l-1.439-1.404c-.382-.372-.171-1.022.357-1.1l1.988-.288c.21-.03.392-.163.485-.353l.89-1.802c.236-.48.918-.48 1.155 0M259.603 80.707c-.267-.195-.398-.518-.342-.844l.34-1.981c.023-.138-.023-.28-.124-.377 0 0-1.758-1.973-1.656-2.288.102-.314.369-.54.696-.587l1.987-.29c.14-.02.26-.106.322-.232l.889-1.803c.146-.297.442-.48.773-.48.33 0 .627.183.773.48l.89 1.803c.061.126.181.213.32.233l1.988.29c.327.047.594.272.696.586.102.315.019.653-.218.885l-1.439 1.403c-.1.098-.146.239-.122.377l.34 1.981c.055.326-.076.65-.344.844-.267.195-.615.22-.908.066l-1.778-.936c-.124-.065-.273-.065-.397 0l-1.778.936c-.127.066-.264.1-.401.1-.178 0-.356-.056-.507-.166"/>
            <path fill="#FFF" d="M482.757 121.11h-84.135c-1.654 0-2.995-1.341-2.995-2.996V19.75c0-1.655 1.34-2.997 2.995-2.997h84.135c1.654 0 2.995 1.342 2.995 2.997v98.364c0 1.655-1.341 2.997-2.995 2.997"/>
            <path fill="#7AD2DD" d="M398.622 17.279c-1.361 0-2.47 1.108-2.47 2.47v98.365c0 1.362 1.109 2.47 2.47 2.47h84.134c1.362 0 2.47-1.108 2.47-2.47V19.75c0-1.363-1.108-2.471-2.47-2.471h-84.134zm84.134 104.358h-84.134c-1.941 0-3.521-1.58-3.521-3.523V19.75c0-1.943 1.58-3.524 3.52-3.524h84.135c1.942 0 3.522 1.581 3.522 3.524v98.364c0 1.942-1.58 3.523-3.522 3.523z"/>
            <path fill="#A2DBDD" d="M457.76 63.995L423.618 63.995 431.497 38.593 449.881 38.593z"/>
            <mask id="prefix__p" fill="#fff">
                <use xlink:href="#prefix__o"/>
            </mask>
            <path fill="#A2DBDD" d="M439.543 91.237L441.835 91.237 441.835 63.995 439.543 63.995z" mask="url(#prefix__p)"/>
            <path fill="#A2DBDD" d="M447.744 91.237c0-1.266-1.026-2.293-2.291-2.293h-9.527c-1.266 0-2.291 1.027-2.291 2.293h14.109z" mask="url(#prefix__p)"/>
            <path fill="#FFF" d="M443.663 42.839h-13.32c-.29 0-.526-.236-.526-.526 0-.291.236-.527.526-.527h13.32c.29 0 .526.236.526.527 0 .29-.236.526-.526.526" mask="url(#prefix__p)"/>
            <path fill="#FFC33E" d="M420.422 98.778l.89 1.802c.093.19.275.322.484.353l1.988.289c.529.077.74.727.357 1.1l-1.438 1.403c-.152.148-.221.361-.185.57l.34 1.981c.09.527-.463.929-.936.68l-1.778-.935c-.187-.1-.412-.1-.6 0l-1.777.935c-.473.249-1.025-.153-.935-.68l.34-1.98c.035-.21-.034-.423-.186-.571l-1.438-1.403c-.383-.373-.172-1.023.357-1.1l1.988-.289c.21-.03.391-.162.485-.353l.889-1.802c.236-.48.92-.48 1.155 0M430.79 98.778l.89 1.802c.093.19.274.322.484.353l1.988.289c.528.077.74.727.357 1.1l-1.438 1.403c-.152.148-.221.361-.186.57l.34 1.981c.09.527-.462.929-.935.68l-1.778-.935c-.188-.1-.412-.1-.6 0l-1.777.935c-.473.249-1.026-.153-.935-.68l.34-1.98c.035-.21-.034-.423-.186-.571l-1.438-1.403c-.383-.373-.172-1.023.357-1.1l1.987-.289c.21-.03.392-.162.486-.353l.889-1.802c.236-.48.919-.48 1.155 0M441.158 98.778l.889 1.802c.094.19.275.322.485.353l1.988.289c.528.077.74.727.357 1.1l-1.438 1.403c-.152.148-.221.361-.186.57l.34 1.981c.09.527-.462.929-.935.68l-1.778-.935c-.188-.1-.412-.1-.6 0l-1.777.935c-.473.249-1.026-.153-.935-.68l.339-1.98c.036-.21-.033-.423-.185-.571l-1.439-1.403c-.382-.373-.17-1.023.358-1.1l1.987-.289c.21-.03.392-.162.486-.353l.889-1.802c.236-.48.919-.48 1.155 0M451.526 98.778l.889 1.802c.094.19.275.322.485.353l1.988.289c.528.077.74.727.357 1.1l-1.438 1.403c-.152.148-.221.361-.186.57l.34 1.981c.09.527-.463.929-.935.68l-1.778-.935c-.188-.1-.412-.1-.6 0l-1.778.935c-.472.249-1.025-.153-.934-.68l.339-1.98c.036-.21-.034-.423-.185-.571l-1.439-1.403c-.382-.373-.171-1.023.357-1.1l1.988-.289c.21-.03.391-.162.486-.353l.888-1.802c.237-.48.92-.48 1.156 0M458.432 107.083c-.268-.194-.4-.518-.343-.844l.34-1.98c.023-.14-.022-.28-.123-.378 0 0-1.759-1.973-1.657-2.288.103-.314.369-.539.696-.587l1.988-.289c.139-.02.259-.107.321-.233l.889-1.803c.146-.296.442-.48.773-.48.33 0 .627.184.773.48l.89 1.803c.061.126.181.213.32.233l1.988.29c.327.047.594.272.696.586.102.315.019.654-.218.885l-1.439 1.403c-.1.098-.146.239-.122.377l.34 1.982c.055.325-.076.649-.344.843-.267.195-.615.22-.908.066l-1.778-.936c-.124-.065-.272-.065-.397 0l-1.778.936c-.127.067-.264.1-.401.1-.178 0-.355-.056-.506-.166" mask="url(#prefix__p)"/>
            <path fill="#A2DBDD" d="M655.768 208.095h-33.09c-2.24 0-4.055-1.818-4.055-4.059v-18.565c0-2.242 1.816-4.059 4.055-4.059h33.09c2.24 0 4.056 1.817 4.056 4.059v18.565c0 2.241-1.816 4.059-4.056 4.059" mask="url(#prefix__p)"/>
            <path fill="#FFF" d="M646.696 189.69h-12.95l-.505-2.783c-.052-.284-.302-.49-.591-.485h-2.658c-.327 0-.592.265-.592.592 0 .327.265.592.592.592h2.169l.499 2.762c.002.02.005.04.01.059l1.151 6.345c.19 1.029 1.087 1.776 2.133 1.775h7.536c.988 0 1.851-.667 2.1-1.623l1.678-6.489c.082-.316-.109-.64-.425-.721-.048-.013-.098-.019-.147-.019v-.006zM636.193 199.206c-1.07 0-1.938.868-1.938 1.94 0 1.07.867 1.939 1.938 1.939 1.07 0 1.938-.868 1.938-1.94-.001-1.07-.868-1.938-1.938-1.939M642.733 199.206c-1.07.001-1.937.87-1.936 1.942 0 1.07.87 1.938 1.94 1.937 1.07-.001 1.936-.87 1.936-1.94 0-1.07-.87-1.939-1.94-1.939" mask="url(#prefix__p)"/>
            <path fill="#A2DBDD" d="M37.145 188.108H4.056c-2.24 0-4.056-1.817-4.056-4.059v-18.565c0-2.241 1.816-4.059 4.056-4.059h33.09c2.24 0 4.056 1.818 4.056 4.059v18.565c0 2.242-1.816 4.059-4.057 4.059" mask="url(#prefix__p)"/>
            <path fill="#FFF" d="M28.074 169.702h-12.95l-.505-2.781c-.052-.285-.303-.49-.592-.486H11.37c-.326 0-.591.265-.591.592 0 .327.265.592.591.592h2.17l.498 2.762c.002.02.006.04.01.06l1.151 6.344c.19 1.03 1.088 1.776 2.134 1.775h7.536c.988 0 1.85-.666 2.1-1.623l1.677-6.489c.082-.316-.108-.64-.424-.721-.048-.012-.098-.019-.147-.019v-.006zM17.57 179.22c-1.07 0-1.938.868-1.938 1.939 0 1.07.868 1.94 1.938 1.94 1.07 0 1.939-.87 1.939-1.94-.002-1.07-.869-1.938-1.939-1.94M24.11 179.22c-1.07 0-1.937.87-1.936 1.94.002 1.072.87 1.94 1.94 1.938 1.07-.001 1.937-.869 1.937-1.94-.002-1.07-.87-1.939-1.94-1.939" mask="url(#prefix__p)"/>
            <path fill="#E2E2E2" d="M386.009 237.027h-71.472c-.581 0-1.052-.47-1.052-1.052 0-.582.47-1.053 1.052-1.053h71.472c.58 0 1.052.471 1.052 1.053 0 .581-.471 1.052-1.052 1.052M386.009 244.717h-71.472c-.581 0-1.052-.47-1.052-1.052 0-.582.47-1.053 1.052-1.053h71.472c.58 0 1.052.471 1.052 1.053s-.471 1.052-1.052 1.052" mask="url(#prefix__p)"/>
            <path fill="#464646" d="M428.977 220.727s24.33 4.502 34.772-1.53c0 0-28.471-9.39-34.772 1.53" mask="url(#prefix__p)"/>
            <path fill="#FFCEC8" d="M433.319 216.293L433.319 227.365 462.525 227.365 459.58 218.863z" mask="url(#prefix__p)"/>
            <path fill="#464646" d="M480.664 367.144s15.446 7.075 25.553-3.59c0 0-13.533-13.024-25.553 3.59" mask="url(#prefix__p)"/>
            <path fill="#FFCEC8" d="M414.567 202.141l-3.57 4.225-13.664-23.928-5.513 2.03 10.783 31.249c.907 2.477 2.818 4.455 5.261 5.445 3.57 1.446 7.662.549 10.3-2.26l4.992-5.312-8.589-11.449z" mask="url(#prefix__p)"/>
            <path fill="#464646" d="M425.926 365.333s12.661 6.96 26.925 0c0 0-13.934-12.302-26.925 0" mask="url(#prefix__p)"/>
            <path fill="#FFCEC8" d="M429.608 352.576l4.106 38.688h8.496l7.408-30.633s-10.137-16.11-20.01-8.055M483.583 363.3l9.1 28.392h8.018l1.782-39.677s-12.862-3.106-18.9 11.285M429.77 161.767s-2.886 11.675 5.52 13.432v7.657h11.29v-21.089h-16.81z" mask="url(#prefix__p)"/>
            <path fill="#B1E0DF" d="M481.395 202.389c-3.028 7.248-12.376 10.019-12.376 10.019l-5.27-7.256v14.044c-1.53.903-6.723 3.154-16.476-.336-10.334-3.69-16.59.474-18.296 1.867l-.666-10.692-4.872 5.135-10.656-14.327c4.575-4.753 8.14-9.184 12.545-13.907 1.438-1.538 3.044-3.038 4.98-3.926.367-.168 4.987-1.7 4.987-1.714v1.714h11.856l.206-1.569h7.045c3.075 0 6.096.811 8.758 2.35 1.522.88 2.907 1.99 4.108 3.283l14.127 15.315z" mask="url(#prefix__p)"/>
            <path stroke="#72AFC1" stroke-width=".652" d="M481.395 202.389c-3.028 7.248-12.376 10.019-12.376 10.019l-5.27-7.256v14.044c-1.53.903-6.723 3.154-16.476-.336-10.334-3.69-16.59.474-18.296 1.867l-.666-10.692-4.872 5.135-10.656-14.327c4.575-4.753 8.14-9.184 12.545-13.907 1.438-1.538 3.044-3.038 4.98-3.926.367-.168 4.987-1.7 4.987-1.714v1.714h11.856l.206-1.569h7.045c3.075 0 6.096.811 8.758 2.35 1.522.88 2.907 1.99 4.108 3.283l14.127 15.315z" mask="url(#prefix__p)"/>
            <path fill="#5B5B5B" d="M435.854 168.138s-4.266-.22-6.085-6.37c-.982-3.32.358-6.46 3.354-8.14 3.194-1.792 8.758-2.63 11.984-.593 1.86 1.175 2.938 3.258 3.691 5.326 1.35 3.706 2.329 7.569 5.904 9.777 5.333 3.295 22.204 11.007 32.272 12.136 0 0-10.915 22.973-52.316 31.257 0 0-2.002-4.475 1.949-8.72 3.849-4.138 1.327-7.443-.931-9.609-2.259-2.165-5.75-5.795-.387-10.346 0 0 4.122-5.096 1.976-10.544l-1.411-4.174z" mask="url(#prefix__p)"/>
            <path fill="#3A3A3A" d="M435.854 168.138s-2.882-4.933-3.158-9.16c-.163-2.496 1.081-6.51 4.503-6.81 3.565-.312 4.682-1.17 7.908.867 1.86 1.175 2.938 3.258 3.691 5.326 1.35 3.706 2.329 7.569 5.904 9.777 5.333 3.295 22.204 11.007 32.272 12.136 0 0 0 19.96-43.463 29.174 0 0-5.589-1.703-1.638-5.95 3.85-4.136 4.826-8.607 2.568-10.772-2.259-2.166-7.289-5.738-1.926-10.288 0 0-3.104-4.678-5.25-10.126l-1.411-4.174z" mask="url(#prefix__p)"/>
            <path fill="#FFCEC8" d="M439.74 170.042c0 1.405-1.138 2.542-2.541 2.542s-2.54-1.137-2.54-2.542c0-1.403 1.137-2.542 2.54-2.542s2.54 1.139 2.54 2.542" mask="url(#prefix__p)"/>
            <path fill="#BA8460" d="M506.217 363.55c-1.14-.773-6.701-4.37-14.143-3.054-6.602 1.163-10.41 5.442-11.413 6.651l-22.84-96.917c-.55 10.355-1.132 21.376-1.713 32.604-.1 1.86-.191 3.72-.291 5.587-1.002 19.38-2.019 39.133-2.968 56.912-1.812-1.201-6.907-4.224-14.036-4.056-6.448.153-11.037 2.832-12.888 4.056.397-5.946 1.224-24.323 2.21-45.806v-.008c.084-1.974.176-3.972.275-5.993v-.007c1.071-23.566 2.288-49.71 3.29-66.954.115-1.997.23-3.865.336-5.602.528-8.404.98-13.6 1.285-13.6h29.204c3.335 3.352 5.179 6.092 7.749 9.635 2.715 3.743 5.247 7.608 7.595 11.596.758 1.277 1.484 2.563 2.165 3.864v.008c.872 1.653 1.683 3.322 2.402 5.06.184.435.367.88.558 1.33 1.155 2.733 2.402 5.634 2.991 8.45 3.021 14.381 6.05 28.763 9.072 43.136.023.1.038.199.061.298.283 1.37.573 2.733.857 4.095l.007.023c.115.536.222 1.064.337 1.6 3.289 15.697 6.601 31.402 9.898 47.092" mask="url(#prefix__p)"/>
            <path fill="#FFCEC8" d="M470.713 211.781l2.402 4.75c.329.65.394 1.404.183 2.101l-4.64 16.094 5.358 7.728 10.402-18.938c2.384-4.494 2.287-9.9-.255-14.305l-3.296-5.713s-3.189 5.683-10.154 8.283" mask="url(#prefix__p)"/>
            <path fill="#67BAE8" d="M428.313 210.559c-.279 0-.511-.22-.525-.5l-.495-9.953c-.015-.29.209-.536.499-.55.281-.048.536.208.551.499l.495 9.952c.015.29-.209.536-.499.55-.008.002-.018.002-.026.002" mask="url(#prefix__p)"/>
            <path fill="#F27B72" d="M432.344 391.271l-9.935 3.076c-2.103.651-3.536 2.596-3.536 4.798h19.24c1.466 0 2.729-1.036 3.017-2.475l1.08-5.399h-9.866z" mask="url(#prefix__p)"/>
            <path fill="#FFF" d="M441.13 397.397h-21.81c-.175 0-.316-.141-.316-.316 0-.175.141-.316.316-.316h21.81c.174 0 .315.141.315.316 0 .175-.141.316-.315.316M428.532 395.128c-.089 0-.178-.038-.24-.112l-1.584-1.871c-.112-.133-.096-.332.037-.444.133-.113.332-.096.445.036l1.583 1.872c.113.133.096.332-.037.444-.059.05-.131.075-.204.075M430.828 394.354c-.089 0-.178-.038-.24-.11l-1.584-1.871c-.112-.134-.096-.333.037-.445.133-.111.332-.096.445.035l1.583 1.871c.113.134.096.333-.036.445-.06.05-.132.075-.205.075" mask="url(#prefix__p)"/>
            <path fill="#FF7867" d="M427.21 387.972c-.677-.357-1.39-.532-2.015-.492-.565.036-.975.243-1.154.585-.394.748.393 1.97 1.717 2.667 1.073.566 2.535.085 3.089-.135-.132-.582-.564-2.06-1.637-2.625m-1.749 3.325c-1.686-.889-2.558-2.439-1.985-3.53.288-.546.884-.874 1.679-.924.738-.047 1.573.154 2.352.564 1.63.859 2.003 3.232 2.018 3.333l.035.232-.21.102c-.07.034-1.33.637-2.646.554-.421-.026-.848-.123-1.243-.33" mask="url(#prefix__p)"/>
            <path fill="#F27B72" d="M429.194 390.821c.175.011.327-.122.338-.298l.39-6.199c.011-.175-.122-.327-.298-.338-.176-.011-.327.122-.338.298l-.39 6.2c-.012.175.122.326.298.337M432.344 391.271l-.537-1.762c-.348-1.14.339-2.337 1.499-2.612l1.205-.285.286 4.66h-2.453zM500.906 389.837l2.102 7.814c.29 1.077-.521 2.136-1.636 2.136h-13.004c-.773 0-1.257-.838-.87-1.508l4.87-8.442h8.538z" mask="url(#prefix__p)"/>
            <path fill="#F27B72" d="M489.387 394.812h9.089v4.975h-10.663c-.655 0-1.185-.531-1.185-1.186v-1.028c0-1.525 1.235-2.76 2.759-2.76" mask="url(#prefix__p)"/>
            <path fill="#FFF" d="M506.217 397.397h-21.81c-.174 0-.316-.141-.316-.316 0-.175.142-.316.316-.316h21.81c.174 0 .315.141.315.316 0 .175-.141.316-.315.316" mask="url(#prefix__p)"/>
            <path fill="#DD8983" d="M431.171 367.302s7.91-5.205 17.812-4.046c0 0-9.145-4.178-18.28-.374l.468 4.42zM502.06 361.442s-10.438-1.725-16.764 7.202l-1.442-4.498s7.26-6.602 18.206-2.704" mask="url(#prefix__p)"/>
            <path fill="#FFF" d="M453.464 354.365c-.065 0-.13-.011-.194-.037-15.534-6.158-26.358-.095-26.465-.033-.252.144-.574.059-.718-.194-.146-.252-.059-.574.193-.718.112-.065 11.38-6.374 27.377-.033.27.107.402.413.295.683-.081.207-.28.332-.488.332M477.659 355.753c-.164 0-.326-.076-.429-.22-.169-.237-.114-.566.122-.734.128-.092 12.891-9.06 26.576-3.554.27.108.4.415.292.684-.109.27-.416.4-.684.292-13.153-5.292-25.45 3.346-25.572 3.433-.092.067-.2.099-.305.099" mask="url(#prefix__p)"/>
            <path fill="#E5B28C" d="M436.519 248.02l-4.82-1.455c.116-1.997.23-3.865.337-5.602l3.787 1.14.696 5.916zM445.388 272.189L441.068 276.286 439.033 270.688 443.353 266.591zM432.404 311.911l-.161 5.955-4.108 1.653c.084-1.974.176-3.972.275-5.993v-.007l3.994-1.608zM450.349 342.901L446.814 347.693 443.83 342.539 447.365 337.747zM484.659 338.973L479.765 342.364 478.606 336.521 483.5 333.13zM456.108 302.834c-.1 1.86-.191 3.72-.29 5.587l-2.112-.589-.826-5.893 3.228.895zM496.319 316.458l-4.796-1.332-.826-5.893 4.36 1.209c.023.1.038.199.061.298.283 1.37.574 2.733.857 4.095l.007.023c.115.536.222 1.064.337 1.6M478.614 291.33L475.202 296.211 472.087 291.135 475.499 286.254zM482.994 258.857l-.727 1.5-3.87-4.523 1.637-3.368c.872 1.653 1.683 3.322 2.402 5.06.184.435.367.88.558 1.33M462.874 237.752L457.905 241.032 456.878 235.166 461.846 231.885zM442.875 230.011L437.184 228.258 437.085 227.363 442.577 227.363zM464.552 259.806L460.996 264.582 457.982 263.878 458.12 259.309 458.754 258.451z" mask="url(#prefix__p)"/>
            <path fill="#9B714B" d="M458.347 269.25L457.295 269.22 457.823 251.532 458.875 251.563z" mask="url(#prefix__p)"/>
            <path fill="#FFCEC8" d="M393.023 187.954l-1.203-3.486-5.26-5.849c-.306-.363-.263-.841-.01-1.048.253-.205.627-.075.65-.067l-.857-.71c-.255-.293-.27-.722-.045-1.018.204-.27.568-.38.9-.27-.256-.17-.513-.34-.769-.512-.299-.24-.383-.659-.205-.987.187-.344.613-.498.985-.35l-3.094-2.41c-.323-.164-.41-.519-.299-.693.113-.178.482-.25.767-.011l9.75 5.486-.65-2.562c-.167-.662.088-1.36.644-1.757l.08-.057 2.39 5.041.642 4.983 1.288 3.643c-2.106.851-3.479 2.126-5.586 2.977l-.118-.343z" mask="url(#prefix__p)"/>
            <path fill="#FF9C91" d="M395.788 177.157c-.044 0-.089-.02-.12-.057-.55-.65-1.375-.917-1.383-.92-.083-.026-.129-.116-.103-.198.027-.084.117-.13.198-.103.037.012.919.296 1.529 1.018.056.065.048.165-.018.222-.03.025-.067.038-.103.038M390.716 176.361c-.032 0-.065-.01-.092-.03l-3.507-2.546c-.071-.05-.087-.15-.036-.22.05-.072.15-.088.22-.035l3.508 2.545c.07.05.086.15.035.22-.03.044-.079.066-.128.066M389.925 177.866c-.035 0-.07-.012-.099-.035l-2.727-2.2c-.068-.056-.078-.155-.024-.223.056-.068.154-.077.222-.024l2.728 2.2c.067.056.078.155.023.222-.031.04-.077.06-.123.06M388.956 179.323c-.039 0-.078-.014-.108-.043l-1.757-1.66c-.063-.062-.066-.161-.006-.224.06-.063.16-.067.222-.007l1.758 1.661c.063.06.066.16.006.223-.03.033-.073.05-.115.05" mask="url(#prefix__p)"/>
            <path fill="#FFF" d="M152.02 12.242l3.05.812c.123.033.253.01.357-.06l2.61-1.779c.28-.19.66-.002.678.336l.17 3.155c.008.125.07.243.169.32l2.497 1.934c.267.207.206.627-.11.749l-2.946 1.137c-.117.046-.21.14-.252.26l-1.067 2.973c-.114.318-.532.39-.745.127l-1.992-2.452c-.08-.097-.198-.156-.324-.16l-3.156-.096c-.338-.01-.535-.386-.352-.67l1.715-2.653c.069-.106.088-.237.053-.358l-.884-3.033c-.095-.325.201-.629.528-.542" mask="url(#prefix__p)"/>
            <path fill="#B3B8FF" d="M151.905 12.543c-.04 0-.068.021-.082.037-.018.018-.046.057-.029.116l.884 3.033c.06.21.027.435-.09.617L150.872 19c-.033.05-.018.097-.006.12.012.023.041.061.102.063l3.156.097c.217.007.421.108.559.276l1.992 2.452c.038.047.088.048.112.042.025-.004.071-.02.092-.078l1.066-2.973c.073-.203.231-.365.434-.446l2.948-1.139c.056-.021.07-.068.074-.092.004-.026.003-.074-.044-.111l-2.497-1.935c-.173-.132-.278-.335-.29-.553l-.17-3.154c-.004-.06-.044-.089-.067-.1-.024-.01-.07-.025-.12.008l-2.61 1.78c-.179.12-.403.157-.613.104l-3.053-.812c-.012-.003-.022-.005-.033-.005m4.859 10.14c-.224 0-.434-.099-.578-.279l-1.992-2.45c-.022-.027-.054-.043-.09-.044l-3.155-.097c-.273-.008-.513-.158-.64-.4-.128-.243-.115-.526.034-.757l1.714-2.653c.019-.028.025-.064.015-.098l-.884-3.032c-.077-.264-.009-.538.183-.735.192-.195.465-.272.73-.2l3.05.811c.033.01.07.002.099-.016l2.609-1.78c.226-.153.51-.172.754-.052.246.123.402.359.417.632l.171 3.155c.002.035.018.067.046.088l2.497 1.934c.216.168.322.43.283.701-.04.273-.217.494-.473.592l-2.945 1.138c-.032.012-.057.038-.069.07l-1.067 2.974c-.092.258-.309.44-.58.487-.043.007-.086.01-.13.01" mask="url(#prefix__p)"/>
            <path fill="#FFF" d="M638.626 143.693l3.052.812c.121.033.251.01.356-.06l2.61-1.779c.279-.19.66-.002.677.336l.172 3.154c.007.126.068.243.168.32l2.496 1.934c.268.208.206.628-.109.75l-2.946 1.137c-.117.046-.21.14-.252.259l-1.067 2.974c-.114.318-.532.39-.746.127l-1.991-2.452c-.08-.098-.198-.156-.324-.16l-3.156-.096c-.338-.01-.535-.386-.352-.67l1.715-2.653c.069-.106.088-.237.052-.358l-.883-3.033c-.095-.325.201-.629.528-.542" mask="url(#prefix__p)"/>
            <path fill="#B3B8FF" d="M638.512 143.993c-.04 0-.068.022-.082.037-.018.019-.046.059-.03.116l.884 3.033c.061.21.028.435-.09.62l-1.715 2.65c-.033.051-.017.099-.005.121.012.023.04.062.102.064l3.156.095c.217.008.421.108.558.277l1.992 2.451c.038.046.085.047.113.043.025-.005.07-.02.091-.077l1.067-2.974c.074-.206.233-.368.436-.446l2.945-1.138c.057-.022.071-.068.075-.094.004-.025.003-.074-.045-.11l-2.497-1.935c-.17-.133-.277-.334-.29-.55l-.17-3.157c-.004-.06-.043-.09-.066-.1-.024-.012-.07-.025-.12.008l-2.61 1.779c-.181.123-.406.159-.615.104l-3.052-.812c-.01-.003-.022-.005-.032-.005m4.859 10.14c-.224 0-.433-.098-.579-.277l-1.991-2.452c-.022-.026-.055-.042-.09-.044l-3.155-.095c-.274-.008-.513-.159-.64-.401-.128-.243-.116-.526.033-.757l1.715-2.653c.019-.029.024-.065.014-.098l-.883-3.033c-.077-.264-.008-.538.184-.735.191-.195.463-.271.728-.2l3.052.812c.033.01.069.003.098-.017l2.609-1.778c.225-.155.507-.175.754-.053.246.121.401.358.417.632l.17 3.155c.002.034.02.067.047.088l2.496 1.934c.217.167.323.43.284.7-.04.272-.217.494-.472.593l-2.946 1.139c-.032.012-.058.038-.07.07l-1.066 2.974c-.093.258-.31.439-.58.485-.043.007-.086.011-.13.011" mask="url(#prefix__p)"/>
            <path fill="#FFF" d="M500.503 39.174c1.853 2.47 5.356 2.967 7.824 1.113 2.468-1.855 2.966-5.36 1.112-7.829-1.853-2.469-5.356-2.967-7.824-1.113-2.468 1.855-2.965 5.36-1.112 7.829" mask="url(#prefix__p)"/>
            <path fill="#B3B8FF" d="M504.976 41.725c-1.877 0-3.6-.86-4.725-2.362l.216-.239.256-.184-.256.184.289-.14c1.005 1.34 2.543 2.11 4.22 2.11 1.148 0 2.242-.366 3.16-1.06 1.34-1.005 2.108-2.545 2.108-4.222 0-1.139-.36-2.225-1.04-3.141l.507-.376c.762 1.025 1.164 2.241 1.164 3.517 0 1.877-.86 3.601-2.358 4.728-1.03.774-2.255 1.185-3.541 1.185" mask="url(#prefix__p)"/>
            <path fill="#FFF" d="M21.096 245.34c2.395-1.95 2.757-5.471.81-7.867-1.948-2.395-5.468-2.758-7.862-.809-2.394 1.948-2.756 5.47-.809 7.866 1.948 2.395 5.467 2.758 7.861.81" mask="url(#prefix__p)"/>
            <path fill="#B3B8FF" d="M21.296 245.584l-.245-.208-.156-.28c1.239-1.008 1.948-2.501 1.948-4.097 0-1.206-.42-2.387-1.183-3.326-1.006-1.238-2.498-1.948-4.093-1.948-1.214 0-2.355.403-3.302 1.166l-.395-.492c1.044-.841 2.357-1.305 3.697-1.305 1.786 0 3.457.794 4.584 2.18.853 1.051 1.323 2.374 1.323 3.725 0 1.787-.794 3.458-2.178 4.585" mask="url(#prefix__p)"/>
        </g>
    </g>
</svg>
