<svg xmlns="http://www.w3.org/2000/svg" xmlns:xlink="http://www.w3.org/1999/xlink" width="680" height="481" viewBox="0 0 680 481">
    <defs>
        <path id="prefix__a" d="M3.712.316C1.668.316.172 2.243.678 4.225L13.25 53.499h88.087L88.37 2.674C88.016 1.287 86.767.316 85.336.316H3.712z"/>
        <path id="prefix__d" d="M0 362.264L412.64 362.264 412.64 0.094 0 0.094z"/>
        <path id="prefix__f" d="M26.648 19.673c-6 6.666-5.9 8.408-7.203 13.17-1.168 4.269-2.19 8.276-6.995 13.127C7.944 50.523.656 52.86.656 52.86l15.295 3.137s15.623-21.319 15.372-21.319c-2.127 0-2.189-1.377-2.189-1.377s6.528-7.974 7.223-17.388C37.052 6.499 34.467.25 34.467.25s-2.12 13.094-7.819 19.423"/>
        <linearGradient id="prefix__b" x1="100%" x2="10.999%" y1="50%" y2="50%">
            <stop offset="0%" stop-color="#F79C3F"/>
            <stop offset="100%" stop-color="#FF7763"/>
        </linearGradient>
        <linearGradient id="prefix__g" x1="47.348%" x2="64.801%" y1="45.842%" y2="61.535%">
            <stop offset="0%" stop-color="#7BA8C6"/>
            <stop offset="100%" stop-color="#3B779E"/>
        </linearGradient>
    </defs>
    <g fill="none" fill-rule="evenodd">
        <g>
            <path fill="#ABB1FF" d="M53.998 344.024h57.999V281.02H53.998v63.004zm.984-.998h56.03v-61.01h-56.03v61.01z" transform="translate(345.99 73.005)"/>
            <path fill="#ABB1FF" d="M70.994 294.08H95v-11.12H70.994v11.12zm-.996.94h26v-13h-26v13z" transform="translate(345.99 73.005)"/>
            <path fill="#ABB1FF" d="M4 9.001L4 345.024 223.993 345.024 223.993 344.024 4.996 344.024 4.996 9.001zM.181 0L0 9.001 209.146 9.001 209.146 8.026 1.016 8.026 1.158.976 245.993.976 245.993 0z" transform="translate(345.99 73.005)"/>
            <path fill="#FFF" d="M5 344.024L15 344.024 15 9.001 5 9.001z" transform="translate(345.99 73.005)"/>
            <path fill="#ABB1FF" d="M4 344.024h11V8H4v336.023zm1.016-.998h8.967V8.998H5.016v334.028zM15 116.008L144.684 116.008 144.684 115.019 15.992 115.019 15.992 106.996 185.995 106.996 185.995 106.007 15 106.007z" transform="translate(345.99 73.005)"/>
            <path fill="#ABB1FF" d="M14 234.016L122.027 234.016 122.027 233.027 15.001 233.027 15.001 225.004 202.994 225.004 202.994 224.016 14 224.016z" transform="translate(345.99 73.005)"/>
            <path fill="#ABB1FF" d="M145.98 225.003h56.03v-54.978h-56.03v54.978zm-.984 1.013h57.998v-57.004h-57.998v57.004z" transform="translate(345.99 73.005)"/>
            <path fill="#ABB1FF" d="M161.992 180.964h24.006V170.06h-24.006v10.903zm-.997 1.049h26v-13.001h-26v13zM41 224.013h49.997v-22.996H41v22.996zm-1.001 1.003h51.998v-25.002H40v25.002z" transform="translate(345.99 73.005)"/>
            <path fill="#ABB1FF" d="M36.99 200.083h57.017v-4.138H36.99v4.138zm-.991.931h58.998v-6H36v6z" transform="translate(345.99 73.005)"/>
            <path fill="#ABB1FF" d="M47 195.016h49.997v-39.007H46.999v39.007zm-1.001.998h51.998V155.01H46v41.003z" transform="translate(345.99 73.005)"/>
            <path fill="#ABB1FF" d="M85.96 163.04h7.074v-8.057H85.96v8.056zm-.962.971h9v-10h-9v10zM42.986 154.007H82.01v-30.995H42.986v30.995zm-.987 1.004h40.999v-33.003h-41v33.003z" transform="translate(345.99 73.005)"/>
            <path fill="#ABB1FF" d="M52.033 154.004h4.931v-5.987h-4.93v5.987zm-1.035 1.007h7v-8h-7v8zM122.996 345.024h51.999v-39.003h-51.999v39.003zm1.001-1.01h49.998V307.03h-49.998v36.984z" transform="translate(345.99 73.005)"/>
            <path fill="#ABB1FF" d="M120.988 305.975h57.016v-7.909h-57.016v7.91zm-.992 1.046h58.999v-10h-58.999v10zM139.996 106.004h49.997V83.01h-49.997v22.995zm-1 1.003h51.998V82.006h-51.998v25.001z" transform="translate(345.99 73.005)"/>
            <path fill="#ABB1FF" d="M136.987 82.075h57.016v-4.138h-57.016v4.138zm-.991.93h58.998v-6h-58.998v6zM151.996 76.001h49.998V53.006h-49.998v22.995zm-1 1.004h51.998V52.004h-51.998v25.001z" transform="translate(345.99 73.005)"/>
            <path fill="#ABB1FF" d="M147.987 52.073h57.016v-4.138h-57.016v4.138zm-.991.93h58.998v-6h-58.998v6z" transform="translate(345.99 73.005)"/>
            <g fill="#ABB1FF">
                <path d="M36.958 29.732c0-8.98-7.31-16.287-16.297-16.287h-3.16c-8.987 0-16.298 7.306-16.298 16.287v10.84h35.755v-10.84zm-36.751 0c0-9.53 7.757-17.284 17.293-17.284h3.161c9.536 0 17.294 7.753 17.294 17.284v11.837H.207V29.732z" transform="translate(345.99 73.005) translate(30 65.005)"/>
                <path d="M9.394 14.978h.997V8.286c0-3.897 3.898-7.07 8.69-7.07 2.345 0 4.539.748 6.177 2.103 1.62 1.33 2.512 3.092 2.512 4.967v6.692h.997V8.286c0-2.179-1.021-4.216-2.875-5.735C24.077 1.049 21.658.22 19.08.22c-5.342 0-9.687 3.618-9.687 8.065v6.692zM211.63 267.237c0-8.925-7.265-16.186-16.194-16.186h-3.142c-8.93 0-16.195 7.261-16.195 16.186v10.773h35.53v-10.773zm-36.527 0c0-9.474 7.71-17.182 17.19-17.182h3.143c9.479 0 17.19 7.708 17.19 17.182v11.769h-37.523v-11.77z" transform="translate(345.99 73.005) translate(30 65.005)"/>
                <path d="M184.234 252.573h.997v-6.65c0-3.874 3.873-7.024 8.633-7.024 2.33 0 4.51.743 6.138 2.09 1.61 1.319 2.495 3.07 2.495 4.934v6.65h.997v-6.65c0-2.167-1.015-4.192-2.858-5.702-1.805-1.494-4.21-2.318-6.772-2.318-5.31 0-9.63 3.597-9.63 8.02v6.65z" transform="translate(345.99 73.005) translate(30 65.005)"/>
            </g>
        </g>
        <g>
            <g>
                <path fill="#FFF" d="M101.404 54.282H13.316L.746 5.008C.238 3.027 1.735 1.1 3.778 1.1h81.624c1.431 0 2.68.97 3.034 2.358l12.967 50.824z" transform="translate(107.997 80.006) translate(124.733 98.083)"/>
                <path fill="#656EDA" d="M13.611 53.901h87.303L88.069 3.552c-.312-1.22-1.408-2.072-2.666-2.072H3.78c-.855 0-1.647.388-2.173 1.064-.524.676-.704 1.54-.493 2.37L13.611 53.9zm88.281.761H13.021L.376 5.102c-.27-1.06-.04-2.162.63-3.025S2.686.72 3.778.72h81.624c1.606 0 3.006 1.087 3.402 2.644l13.087 51.3z" transform="translate(107.997 80.006) translate(124.733 98.083)"/>
            </g>
            <g transform="translate(107.997 80.006) translate(122.451 98.083)">
                <mask id="prefix__c" fill="#fff">
                    <use xlink:href="#prefix__a"/>
                </mask>
                <path fill="url(#prefix__b)" d="M3.712.316C1.668.316.172 2.243.678 4.225L13.25 53.499h88.087L88.37 2.674C88.016 1.287 86.767.316 85.336.316H3.712z" mask="url(#prefix__c)"/>
            </g>
            <g transform="translate(107.997 80.006) translate(0 .667)">
                <path fill="#DB6865" d="M251.974 150.006c1.983 0 3.59 1.608 3.59 3.593v.211c0 1.983-1.607 3.592-3.59 3.592H138.447c-1.983 0-3.59-1.609-3.59-3.592v-.211c0-1.985 1.607-3.593 3.59-3.593h113.527z"/>
                <mask id="prefix__e" fill="#fff">
                    <use xlink:href="#prefix__d"/>
                </mask>
                <path fill="#FFF" d="M138.552 150.387L199.517 150.387 199.517 149.626 138.552 149.626zM314.151 360.382c-.13.743-.775 1.284-1.528 1.284-.922 0-1.642-.8-1.544-1.718l13.81-129.058 11.905 1-22.643 128.492z" mask="url(#prefix__e)"/>
                <path fill="#969696" d="M325.227 231.3l-13.77 128.689c-.035.334.069.656.294.907.222.247.54.39.872.39.57 0 1.055-.408 1.154-.97l22.57-128.081-11.12-.935zm-12.604 130.746c-.548 0-1.071-.234-1.438-.642-.366-.407-.542-.953-.484-1.498L324.55 230.48l12.692 1.067-.073.41-22.642 128.492c-.163.926-.963 1.598-1.903 1.598z" mask="url(#prefix__e)"/>
                <path fill="#FFF" d="M369.976 231.89l22.642 128.492c.13.743.775 1.284 1.528 1.284.924 0 1.642-.8 1.544-1.718L381.881 230.89l-11.905 1" mask="url(#prefix__e)"/>
                <path fill="#969696" d="M370.423 232.235l22.57 128.081c.098.562.583.969 1.153.969.338 0 .647-.138.873-.389.225-.25.329-.573.293-.908L381.542 231.3l-11.119.936zm23.723 129.811c-.94 0-1.74-.671-1.903-1.597L369.53 231.547l12.691-1.068.04.37 13.808 129.058c.059.545-.118 1.09-.484 1.498-.365.407-.89.641-1.438.641z" mask="url(#prefix__e)"/>
                <path fill="#FFB9B2" d="M228.244 61.41l-.054.028c-.799.398-1.217 1.294-1.008 2.162l.053.221.885-.309.124-2.101zM227.864 65.266l-.994.672c-.763.516-1.05 1.503-.683 2.35l.145.335.919-.414.613-2.943zM227.073 69.426l-.39.168c-.923.398-1.38 1.44-1.052 2.39l.084.24 1.025-.508.333-2.29zM226.478 73.505l-.505-.357c-.537.62-.603 1.326-.188 2.036l.358.611.335-2.29z" mask="url(#prefix__e)"/>
                <path fill="#B59F7C" d="M370.59 208.611s41.674-47.18-7.326-89.424c-49-42.243-79.046 101.635 7.326 89.424" mask="url(#prefix__e)"/>
                <path fill="#FFC8C2" d="M238.755 302.083l-3.327 33.491-6.263 14.101s1.566 3.33 6.067 0 13.113-19.388 13.113-19.388l7.879-26.949s-8.27 3.837-17.469-1.255" mask="url(#prefix__e)"/>
                <path fill="#727EB7" d="M229.165 349.675s-4.306 8.422-3.132 10.968c.765 1.66 4.687-.756 7.329-2.64 1.518-1.084 2.844-2.41 3.921-3.934l9.008-12.734c1.211-1.712 1.885-3.748 1.934-5.846l.12-5.203s-9.481 17.632-14.526 20.274c0 0-3.676 1.27-4.654-.885" mask="url(#prefix__e)"/>
                <path fill="#FFC8C2" d="M281.814 305.048l7.742 32.673c1.553 7.557 5.12 13.012 9.12 18.016 0 0 3.511-9.995 1.716-24.369l.19-32.428-18.768 6.108zM286.413 26.302s1.131 15.837 10.369 20.525c0 0 5 2.924 9.849 2.136 0 0 3.495 7.2 1.248 16.907l-10.01 16.422s-4.058 9.461 5.573 12.227c9.632 2.765 26.522-29.32 26.522-29.32S318.96 46.43 319.304 33.3c0 0 3.79-1.723 2.533-5.058-1.256-3.334-5.94-2.788-5.94-2.788s-3.17-17.3-20.531-13.612c0 0-10.132 2.833-8.953 14.459" mask="url(#prefix__e)"/>
                <path fill="#875A46" d="M295.286 4.717s-12.307.426-11.874 13.664c0 0-.033 3.538 3.129 9.117 0 0 3.167-8.947 10.087-11.873 0 0-2.566-5.804-1.342-10.908" mask="url(#prefix__e)"/>
                <path fill="#99674B" d="M286.541 27.498s.78 15.316-9.482 21.995l-5.507 3.583c-3.517 2.29-4.308 7.188-1.562 10.362 3.284 3.796 10.486 8.144 24 9.062l13.89-6.63s2.279-8.676-1.25-16.906c0 0-8.426.869-13.435-5.366 0 0-4.7-4.193-6.654-16.1" mask="url(#prefix__e)"/>
                <path fill="#87584E" d="M291.257 72.26l2.094.194 14.286-6.694s2.522-8.566-1.006-16.796c0 0-2.806.305-5.718-.549 0 0 0 15.124-9.656 23.845" mask="url(#prefix__e)"/>
                <path fill="#E2A052" d="M374.429 197.849c-5.903 23.141-20.59 29.221-20.59 29.221-10.851 2.186-19.416 3.228-25.898 3.681-10.984.777-15.987-.156-15.987-.156v11.751l-9.52 57.972c-12.268 8.226-22.58 6.66-22.58 6.66l-7.483-36.805-1.911-9.417-2.857 13.38-6.013 28.14c-14.35 5.485-23.62 0-23.62 0-.556-23.353 4.189-47.395 8.972-70.146 2.701-12.879 4.203-28.382 13.074-38.738 5.997-6.997 14.523-11.125 23.447-12.92.674-.132 12.253-1.574 12.246-.995l.125-7.982c37.838 6 57.926-13.6 57.926-13.6 6.068 6.056 10.616 13.78 13.881 20.823v.007c4.768 10.295 6.788 19.124 6.788 19.124" mask="url(#prefix__e)"/>
                <path fill="#7BA8C6" d="M354.982 154.98l4.994 6.025c-29.523 21.404-64.142 10.49-64.142 10.49l-.024-3.165-.11-14.415-.054-7.089c.525-7.388-2.575-15.128-5.645-20.823-2.787-5.171-5.543-8.65-5.543-8.65-.227-.03-.453-.061-.673-.101-.281-.039-.61-.094-.978-.157-3.704-.635-6.404-1.574-8.37-2.593-4.901-2.538-5.23-5.554-5.23-5.554 5.418-4.003 9.301-15.073 9.301-15.073 1.707-7.097 4.526-11.954 7.118-15.198.006-.008.015-.015.015-.024.172-.21.336-.407.5-.602.564-.643 1.105-1.215 1.613-1.724 2.411-2.374 4.26-3.267 4.26-3.267l15.869-7.192-4.768 7.819c-5.457 8.1-5.191 13.459-3.734 16.702.407.901.907 1.645 1.4 2.233.603.72 1.387 1.198 2.24 1.441.869.25 1.816.258 2.74.04 10.272-2.437 24.2-28.908 24.2-28.908l6.083.83c12.479 1.183 20.112 8.947 20.112 8.947 9.943 12.033 13.364 42.938 13.364 42.938-13.255 8.335-21.444 8.61-21.444 8.61l-.626 13.176-.274 5.868 7.806 9.417z" mask="url(#prefix__e)"/>
                <path fill="#FFB9B2" d="M272.662 113.438l-7.976 11.095-18.378-42.174-5.475 2.526s8.165 56.355 22.115 62.215c0 0 16.77-4.393 27.432-20.384-1.563-3.046-3.552-6.168-5.924-9.359 0 0-6.886-.657-11.794-3.92" mask="url(#prefix__e)"/>
                <path fill="#FFF" d="M326.65 187.452c-12.693-6.926-30.77-7.585-30.951-7.591l.025-.761c.182.006 18.44.672 31.29 7.685l-.365.667zM336.31 126.005c-.039 0-.078-.006-.118-.019-.754-.249-.958-.388-1.388-.709-.135-.1-.296-.22-.518-.37-.093-.065-.153-.167-.164-.28-.01-.111.029-.223.108-.303.124-.125 12.27-12.734 5.225-32.747-.07-.199.034-.416.232-.486.199-.07.416.035.485.233 6.572 18.668-3.223 31.065-5.1 33.205l.185.137c.368.275.506.377 1.172.597.2.065.31.282.243.48-.053.16-.202.262-.361.262" mask="url(#prefix__e)"/>
                <path fill="#727EB7" d="M289.556 337.72s3.053 20.321 6.771 23.478c0 0 10.283 7.888 4.065-29.83 0 0-.426 11.236-2.107 16.632-.49 1.569-2.493 2.013-3.646.843-2.086-2.114-3.757-5.525-5.083-11.122" mask="url(#prefix__e)"/>
                <path fill="#FFC8C2" d="M263.792 144.54l-7.08-4.55-1.091.225s-1.327 3.949-3.2 4.816l-2.648 1.053-1.91 1.973c-.916.946-2.372 1.115-3.48.403l4.247-5.058-1.714-.168-4.142 1.267-1.075.03-6.19 3.547c-1.014.582-2.293.395-3.098-.452l1.054-.698-.243.118c-.436.21-.956.11-1.284-.245l1.359-.844-.475-.767 2.054-.71 4.859-3.323-3.21-.421c-.787-.103-1.33-.841-1.195-1.624 0 0 3.703.279 6.845-.449 0 0 6.301-1.5 10.487-4.35 0 0 1.29-1.222 3.218-.65 1.928.573 11.372 2.647 11.372 2.647l-3.46 8.23z" mask="url(#prefix__e)"/>
                <path fill="#FFA49A" d="M234.876 144.633c-.065 0-.126-.042-.145-.108-.025-.08.02-.165.1-.19.024-.006 2.342-.72 4.709-1.937 2.385-1.226 3.6-1.755 3.61-1.76.077-.032.167 0 .202.079.033.077-.003.166-.08.2-.012.005-1.219.53-3.593 1.752-2.393 1.23-4.735 1.95-4.759 1.957-.014.005-.029.007-.044.007" mask="url(#prefix__e)"/>
                <path fill="#FFA49A" d="M239.266 142.86c-.035 0-.069-.013-.098-.037-.064-.053-.073-.15-.018-.214l2.139-2.56c.016-.02.038-.036.06-.045l1.349-.521c.078-.03.166.01.196.088s-.008.165-.087.197l-1.31.507-2.115 2.53c-.03.036-.072.054-.116.054M239.734 141.31c-.036 0-.074-.014-.102-.04-.062-.057-.067-.154-.01-.215l1.476-1.615 1.172-.84c.068-.046.163-.033.212.037.05.068.033.163-.036.213l-1.147.817-1.452 1.593c-.03.033-.071.05-.113.05M235.725 146.356c-1.206 0-2.229-.206-2.296-.22-.082-.017-.135-.097-.118-.179.017-.083.098-.13.18-.12.025.007 2.609.525 4.364-.087 1.813-.631 2.383-.698 2.407-.7.089-.003.157.052.166.135.01.083-.05.158-.134.168-.006 0-.574.07-2.338.684-.695.242-1.497.319-2.231.319" mask="url(#prefix__e)"/>
                <path fill="#FF7867" d="M228.573 59.156l-2.7 18.481c4.34 1.867 9.716 2.398 15.592 2.28l2.668-18.266c-5.193-1.831-10.38-2.708-15.56-2.495" mask="url(#prefix__e)"/>
                <path fill="#FFB9B2" d="M246.308 82.359l-.87-6.563-.538-5.905-3.25-7.57s-1.23 1.24-.42 3.506l1.545 5.128-1.31 8.963c-.838.038-2.343.026-4.684-.063l2.677 2.675 1.376 2.355 5.474-2.526z" mask="url(#prefix__e)"/>
                <path fill="#FF7867" d="M242.918 77.403c-.32 0-.644-.023-.97-.07l-.1-.015.325-2.26.103.014c2.395.348 4.634-1.314 4.984-3.712.35-2.399-1.315-4.636-3.711-4.986l-.101-.015.325-2.259.104.015c3.644.532 6.173 3.93 5.642 7.575-.486 3.318-3.345 5.713-6.601 5.713" mask="url(#prefix__e)"/>
                <path fill="#FF9E91" d="M232.659 65.033l.307.224-.307-.224zm.239.325c-.278.436-.394.982-.478 1.657-.182 1.466-.204 2.954-.063 4.425.074.776.198 1.586.6 2.257.016.027.029.044.036.057.009-.013.05-.03.118-.067 2.147-1.201 3.768-3.246 4.447-5.612.18-.622.387-1.762-.232-2.407-.189.017-.549.676-.742 1.03-.436.798-.89 1.62-1.571 1.475-.327-.071-.577-.467-1.11-1.356-.268-.443-.738-1.228-1.005-1.46zm.059 9.157c-.09 0-.186-.017-.28-.06-.185-.084-.292-.233-.373-.367-.481-.802-.625-1.752-.705-2.575-.145-1.526-.124-3.07.066-4.591.091-.732.237-1.494.687-2.112.13-.18.302-.274.521-.266.538.024.99.73 1.681 1.881.212.354.495.824.643.987.195-.117.532-.736.72-1.08.405-.741.754-1.382 1.29-1.454.168-.02.42.005.667.263.839.873.69 2.192.415 3.144-.734 2.558-2.486 4.768-4.807 6.065-.09.052-.291.165-.525.165z" mask="url(#prefix__e)"/>
                <path fill="#99674B" d="M349.683 38.924c-4.93-.542-19.664-1.634-23.717-9.567-4.054-7.933-3.046-18.207-6.377-22.746-2.914-3.972-12.768-11.629-26.14-1.464 0 0-1.042 3.643.081 7.127 0 0 2.008 14.243 20.531 13.611 3.775 16.928 8.355 30.612 14.067 39.743l6.076.83c23.296-4.722 20.409-26.993 15.479-27.534" mask="url(#prefix__e)"/>
                <path fill="#87584E" d="M322.564 39.216c-2.926-5.47-7.622-9.504-7.622-9.504s5.984 26.092 13.186 35.916c0 0 3.429 1.203 7.25.54.222-.039.445-.084.668-.136.561-.129 1.127-.302 1.687-.528.222-.089-1.87-3.837-1.87-3.837s4.042 2.569 7.271 1.538c.063-.02 2.048-1.511 1.573-1.067-5.573 5.21-19.749-18.447-22.143-22.922" mask="url(#prefix__e)"/>
                <path fill="#B7817D" d="M306.63 48.963s3.061-.807 5.285-2.67c0 0 1.55 7.566-3.495 9.51 0 0-.979-5.44-1.79-6.84" mask="url(#prefix__e)"/>
                <path fill="#656EDA" d="M335.849 302.464L382.837 302.464 382.837 301.703 335.849 301.703z" mask="url(#prefix__e)"/>
                <path fill="#FFC8C2" d="M320.925 27.052c0 2.022-1.51 3.662-3.375 3.662s-3.375-1.64-3.375-3.662c0-2.022 1.51-3.661 3.375-3.661 1.864 0 3.375 1.639 3.375 3.661" mask="url(#prefix__e)"/>
                <path fill="#FFF" d="M318.723 40.253c-.871 0-1.752-.339-2.547-.991-1.01-.829-1.763-2.072-2.121-3.5-.748-2.992.491-5.89 2.763-6.46.2-.05.41.074.462.279.05.203-.073.41-.278.46-1.865.468-2.856 2.951-2.209 5.535.318 1.272.98 2.372 1.866 3.098.852.7 1.806.962 2.69.74 1.864-.467 2.855-2.95 2.209-5.533-.447-1.788-1.573-3.217-2.936-3.728-.196-.073-.296-.292-.222-.49.074-.197.29-.299.49-.222 1.592.598 2.898 2.228 3.406 4.255.749 2.99-.49 5.887-2.763 6.457-.267.067-.538.1-.81.1" mask="url(#prefix__e)"/>
                <path fill="#99674B" d="M326.86 22.3c.93 2.115 2.272 4.004 3.832 5.657 1.57 1.648 3.37 3.055 5.324 4.21 1.009.518 1.99 1.097 3.062 1.487.531.204 1.039.474 1.588.628.545.166 1.087.341 1.63.521.537.2 1.1.31 1.658.437l1.678.38c1.127.21 2.27.342 3.41.553-1.152-.04-2.31-.096-3.468-.184l-1.718-.28c-.574-.093-1.153-.17-1.71-.34-.565-.145-1.129-.295-1.69-.454-.568-.14-1.097-.4-1.648-.594-1.11-.381-2.127-.97-3.173-1.496-2.009-1.207-3.866-2.688-5.377-4.48-.392-.434-.738-.906-1.076-1.383-.357-.46-.643-.973-.955-1.465-.551-1.026-1.069-2.076-1.367-3.198" mask="url(#prefix__e)"/>
                <path fill="#EF7C73" d="M299.557 43.427c-.17 0-.324-.113-.368-.285-.053-.204.07-.411.273-.464 3.024-.778 2.392-3.947 2.364-4.082-.042-.206.089-.408.294-.45.205-.045.406.085.45.29.01.04.817 4.018-2.918 4.979-.032.008-.064.012-.095.012" mask="url(#prefix__e)"/>
                <path fill="#404041" d="M301.123 31.866c-.001.779-.317 1.41-.706 1.41-.389 0-.705-.632-.705-1.41.001-.779.318-1.41.706-1.41.39 0 .705.632.705 1.41M292.65 32.382c-.001.778-.316 1.408-.706 1.408-.388 0-.703-.631-.703-1.408 0-.778.316-1.409.705-1.409.388 0 .703.631.703 1.409" mask="url(#prefix__e)"/>
                <path fill="#BC7D53" d="M288.694 29.252c.028-.51.28-.923.596-1.261.327-.33.755-.57 1.223-.68.932-.232 2.007.1 2.487.97-.492.154-.861.2-1.203.294-.338.067-.633.147-.932.217l-.953.218c-.352.077-.723.163-1.218.242M303.115 28.148c-.495-.08-.866-.165-1.218-.242l-.953-.219c-.3-.069-.594-.149-.932-.217-.342-.093-.712-.14-1.203-.293.48-.87 1.555-1.202 2.487-.97.468.11.896.35 1.222.68.317.338.568.75.597 1.26" mask="url(#prefix__e)"/>
                <path fill="#FF8C80" d="M297.456 39.466h-.007c-.29-.006-1.752-.073-2.182-.89-.14-.263-.22-.705.18-1.315.78-1.19.608-4.392.477-5.525-.024-.21.125-.398.334-.423.203-.02.397.126.422.335.02.178.493 4.367-.598 6.03-.108.166-.221.394-.142.543.166.314 1.006.475 1.522.484.21.004.378.177.374.387-.004.208-.174.374-.38.374" mask="url(#prefix__e)"/>
                <path fill="#C17B36" d="M310.302 224.47c-.088-.02-.18-.033-.274-.033-.693 0-1.253.561-1.253 1.254h2.02c-.15-.403-.317-.81-.493-1.222M309.63 223.005c-.277-.557-.573-1.116-.888-1.667-.091-.02-.184-.034-.28-.034v2.507c.534 0 .986-.335 1.167-.806M311.906 231.958h.048v-.323c-.028.105-.048.211-.048.323M310.028 230.705c-.692 0-1.253.56-1.253 1.253h2.506c0-.692-.562-1.253-1.253-1.253M311.418 227.589c-.608.086-1.077.604-1.077 1.236 0 .692.56 1.253 1.252 1.253.11 0 .213-.017.313-.043-.08-.748-.245-1.572-.488-2.446M309.714 228.825c0-.693-.56-1.254-1.251-1.254v2.507c.691 0 1.251-.56 1.251-1.253M311.05 226.412c-.08-.238-.164-.478-.256-.72h-2.019c0 .691.56 1.252 1.253 1.252.423 0 .795-.21 1.022-.532M311.906 238.226h.048v-.323c-.028.103-.048.21-.048.323M310.028 236.972c-.692 0-1.253.56-1.253 1.253h2.506c0-.692-.562-1.253-1.253-1.253M310.34 235.092c0 .692.561 1.253 1.253 1.253.127 0 .246-.024.36-.059v-2.389c-.114-.034-.233-.058-.36-.058-.692 0-1.252.56-1.252 1.253M309.714 235.092c0-.692-.56-1.253-1.251-1.253v2.506c.691 0 1.251-.561 1.251-1.253M311.954 232.28v-.322h-.047c0 .113.02.22.047.323M310.028 233.212c.691 0 1.253-.561 1.253-1.254h-2.506c0 .693.56 1.254 1.253 1.254M311.003 240.26c.33.307.644.636.95.982v-1.077c-.114-.035-.233-.06-.36-.06-.214 0-.413.06-.59.155M311.954 238.548v-.322h-.047c0 .112.02.219.047.322M308.888 238.74c.401.221.795.461 1.168.737.678-.016 1.225-.569 1.225-1.252h-2.506c0 .184.041.357.113.515M307.549 219.424c-.285-.42-.581-.83-.886-1.23-.58.109-1.02.617-1.02 1.23h1.906zM303.764 218.17c-.69 0-1.251.561-1.251 1.253h2.504c0-.692-.56-1.253-1.253-1.253M305.33 217.544c.245 0 .47-.073.664-.194-.532-.642-1.088-1.25-1.666-1.805-.155.208-.25.465-.25.746 0 .692.56 1.253 1.252 1.253M303.452 216.29c0-.692-.56-1.253-1.253-1.253v2.507c.692 0 1.253-.561 1.253-1.254M305.644 225.691h2.505c0-.692-.56-1.253-1.254-1.253-.69 0-1.251.56-1.251 1.253M302.512 225.691h2.505c0-.692-.56-1.253-1.253-1.253-.691 0-1.252.56-1.252 1.253M307.21 222.557c0 .693.56 1.254 1.252 1.254v-2.507c-.692 0-1.253.561-1.253 1.253M305.33 221.304c-.691 0-1.252.56-1.252 1.253 0 .693.56 1.254 1.252 1.254s1.253-.561 1.253-1.254c0-.692-.56-1.253-1.253-1.253M303.452 222.557c0-.692-.56-1.253-1.253-1.253v2.507c.692 0 1.253-.561 1.253-1.254M305.644 219.424c0 .692.56 1.253 1.251 1.253.458 0 .854-.246 1.073-.612-.139-.214-.277-.43-.42-.641h-1.904zM302.512 219.424c0 .692.56 1.253 1.252 1.253.693 0 1.253-.56 1.253-1.253h-2.505zM306.896 230.705c-.692 0-1.252.56-1.252 1.253h2.504c0-.692-.56-1.253-1.252-1.253M302.512 231.958h2.505c0-.692-.56-1.253-1.253-1.253-.691 0-1.252.561-1.252 1.253M307.21 228.825c0 .692.56 1.253 1.252 1.253v-2.507c-.692 0-1.253.561-1.253 1.254M306.583 228.825c0-.693-.56-1.254-1.253-1.254-.692 0-1.252.561-1.252 1.254 0 .692.56 1.253 1.252 1.253.693 0 1.253-.56 1.253-1.253M303.452 228.825c0-.693-.56-1.254-1.253-1.254v2.507c.692 0 1.253-.56 1.253-1.253M306.896 226.944c.692 0 1.252-.56 1.252-1.252h-2.504c0 .691.56 1.252 1.252 1.252M303.764 226.944c.693 0 1.253-.56 1.253-1.252h-2.504c0 .691.56 1.252 1.251 1.252M306.896 236.972c-.46 0-.856.25-1.074.618.687.155 1.354.367 1.998.635h.328c0-.692-.56-1.253-1.252-1.253M303.764 236.972c-.296 0-.565.107-.778.28.573.008 1.142.06 1.704.135-.229-.253-.557-.415-.926-.415M307.21 235.092c0 .692.56 1.253 1.252 1.253v-2.506c-.692 0-1.253.56-1.253 1.253M306.583 235.092c0-.692-.56-1.253-1.253-1.253-.692 0-1.252.56-1.252 1.253 0 .692.56 1.253 1.252 1.253.693 0 1.253-.561 1.253-1.253M303.452 235.092c0-.692-.56-1.253-1.253-1.253v2.506c.692 0 1.253-.561 1.253-1.253M308.149 231.958h-2.506c0 .693.561 1.254 1.253 1.254.692 0 1.253-.561 1.253-1.254M303.764 233.212c.693 0 1.253-.561 1.253-1.254h-2.504c0 .693.56 1.254 1.251 1.254M308.136 238.356c.005-.044.013-.086.013-.13h-.33c.106.044.213.083.317.13M301.076 213.157c-.498-.26-1.005-.474-1.518-.634-.11.186-.178.4-.178.634h1.696zM296.249 213.157h2.505c0-.36-.153-.682-.396-.91-.55-.082-1.105-.097-1.663-.042-.271.23-.446.568-.446.952M299.38 219.424h2.506c0-.692-.56-1.254-1.253-1.254-.692 0-1.253.562-1.253 1.254M296.249 219.424h2.505c0-.692-.56-1.254-1.253-1.254-.692 0-1.252.562-1.252 1.254M300.946 216.29c0 .693.561 1.254 1.252 1.254v-2.507c-.691 0-1.252.56-1.252 1.253M299.067 215.036c-.692 0-1.252.561-1.252 1.254s.56 1.254 1.252 1.254 1.253-.56 1.253-1.254c0-.693-.56-1.254-1.253-1.254M297.188 216.29c0-.692-.56-1.253-1.252-1.253v2.507c.692 0 1.252-.561 1.252-1.254M300.633 214.41c.545 0 1.004-.35 1.177-.837-.242-.15-.487-.289-.734-.416h-1.696c0 .692.56 1.253 1.253 1.253M297.502 214.41c.691 0 1.252-.561 1.252-1.253h-2.505c0 .692.56 1.253 1.253 1.253M299.38 225.691h2.506c0-.692-.56-1.253-1.253-1.253-.692 0-1.253.56-1.253 1.253M296.249 225.691h2.505c0-.692-.56-1.253-1.253-1.253-.692 0-1.252.56-1.252 1.253M300.946 222.557c0 .693.561 1.254 1.252 1.254v-2.507c-.691 0-1.252.561-1.252 1.253M299.067 221.304c-.692 0-1.252.56-1.252 1.253 0 .693.56 1.254 1.252 1.254s1.253-.561 1.253-1.254c0-.692-.56-1.253-1.253-1.253M297.188 222.557c0-.692-.56-1.253-1.252-1.253v2.507c.692 0 1.252-.561 1.252-1.254M299.38 219.424c0 .692.56 1.253 1.253 1.253.693 0 1.253-.56 1.253-1.253h-2.506zM296.249 219.424c0 .692.56 1.253 1.252 1.253s1.253-.56 1.253-1.253h-2.505zM299.38 231.958h2.506c0-.692-.56-1.253-1.253-1.253-.692 0-1.253.561-1.253 1.253M296.249 231.958h2.505c0-.692-.56-1.253-1.253-1.253-.692 0-1.252.561-1.252 1.253M300.946 228.825c0 .692.561 1.253 1.252 1.253v-2.507c-.691 0-1.252.561-1.252 1.254M299.067 227.57c-.692 0-1.252.562-1.252 1.254 0 .694.56 1.255 1.252 1.255s1.253-.561 1.253-1.255c0-.692-.56-1.253-1.253-1.253M297.188 228.825c0-.693-.56-1.254-1.252-1.254v2.507c.692 0 1.252-.56 1.252-1.253M300.633 226.944c.692 0 1.253-.56 1.253-1.252h-2.506c0 .691.56 1.252 1.253 1.252M297.502 226.944c.691 0 1.252-.56 1.252-1.252h-2.505c0 .691.56 1.252 1.253 1.252M299.57 237.566c.634-.125 1.273-.207 1.911-.258-.223-.207-.52-.336-.848-.336-.45 0-.84.238-1.062.594M296.249 238.226h.934c.489-.172.983-.321 1.485-.45-.181-.469-.633-.804-1.167-.804-.692 0-1.252.561-1.252 1.254M300.946 235.092c0 .692.561 1.253 1.252 1.253v-2.506c-.691 0-1.252.56-1.252 1.253M299.067 233.838c-.692 0-1.252.561-1.252 1.254 0 .692.56 1.253 1.252 1.253s1.253-.56 1.253-1.253c0-.693-.56-1.254-1.253-1.254M297.188 235.092c0-.692-.56-1.253-1.252-1.253v2.506c.692 0 1.252-.561 1.252-1.253M300.633 233.212c.692 0 1.253-.561 1.253-1.254h-2.506c0 .693.56 1.254 1.253 1.254M297.502 233.212c.691 0 1.252-.561 1.252-1.254h-2.505c0 .693.56 1.254 1.253 1.254" mask="url(#prefix__e)"/>
                <path fill="#C17B36" d="M296.3 238.558c.29-.12.586-.228.884-.333h-.935c0 .117.02.226.05.333M295.622 213.157c0-.257-.078-.496-.21-.695-.532.16-1.063.388-1.594.695h1.804zM293.117 219.424h2.506c0-.692-.561-1.254-1.253-1.254-.692 0-1.253.562-1.253 1.254M291.238 218.17c-.691 0-1.253.561-1.253 1.253h2.506c0-.692-.56-1.253-1.253-1.253M294.683 216.29c0 .693.56 1.254 1.253 1.254v-2.507c-.693 0-1.253.56-1.253 1.253M292.804 215.036c-.692 0-1.252.561-1.252 1.254s.56 1.254 1.252 1.254 1.252-.56 1.252-1.254c0-.693-.56-1.254-1.252-1.254M290.925 216.29c0-.12-.022-.235-.054-.345-.352.504-.672 1.033-.965 1.575.58-.11 1.02-.617 1.02-1.23" mask="url(#prefix__e)"/>
                <path fill="#C17B36" d="M293.187 213.553c.167.497.63.857 1.184.857.69 0 1.251-.561 1.251-1.254h-1.804c-.21.123-.421.25-.63.397M293.117 225.691h2.506c0-.692-.561-1.253-1.253-1.253-.692 0-1.253.56-1.253 1.253M291.238 224.437c-.691 0-1.253.561-1.253 1.254h2.506c0-.693-.56-1.254-1.253-1.254M294.683 222.557c0 .693.56 1.254 1.253 1.254v-2.507c-.693 0-1.253.561-1.253 1.253M292.804 221.304c-.692 0-1.252.56-1.252 1.253 0 .693.56 1.254 1.252 1.254s1.252-.561 1.252-1.254c0-.692-.56-1.253-1.252-1.253M289.672 221.304v2.507c.693 0 1.253-.561 1.253-1.254 0-.692-.56-1.253-1.253-1.253M293.117 219.424c0 .692.56 1.253 1.253 1.253.692 0 1.253-.56 1.253-1.253h-2.506zM289.985 219.424c0 .692.561 1.253 1.253 1.253.693 0 1.253-.56 1.253-1.253h-2.506zM293.117 231.958h2.506c0-.692-.561-1.253-1.253-1.253-.692 0-1.253.561-1.253 1.253M291.238 230.705c-.691 0-1.253.56-1.253 1.253h2.506c0-.692-.56-1.253-1.253-1.253M294.683 228.825c0 .692.56 1.253 1.253 1.253v-2.507c-.693 0-1.253.561-1.253 1.254M292.804 227.57c-.692 0-1.252.562-1.252 1.254 0 .694.56 1.255 1.252 1.255s1.252-.561 1.252-1.255c0-.692-.56-1.253-1.252-1.253M289.672 227.57v2.509c.693 0 1.253-.561 1.253-1.255 0-.692-.56-1.253-1.253-1.253M294.37 226.944c.692 0 1.252-.56 1.252-1.252h-2.504c0 .691.56 1.252 1.252 1.252M291.238 226.944c.692 0 1.253-.56 1.253-1.252h-2.506c0 .691.562 1.252 1.253 1.252M293.117 238.226h2.506c0-.693-.561-1.254-1.253-1.254-.692 0-1.253.561-1.253 1.254M291.238 236.972c-.691 0-1.253.56-1.253 1.253h2.506c0-.692-.56-1.253-1.253-1.253M294.683 235.092c0 .692.56 1.253 1.253 1.253v-2.506c-.693 0-1.253.56-1.253 1.253M292.804 233.838c-.692 0-1.252.561-1.252 1.254 0 .692.56 1.253 1.252 1.253s1.252-.56 1.252-1.253c0-.693-.56-1.254-1.252-1.254M289.672 233.838v2.507c.693 0 1.253-.56 1.253-1.253 0-.693-.56-1.254-1.253-1.254M294.37 233.212c.692 0 1.252-.561 1.252-1.254h-2.504c0 .693.56 1.254 1.252 1.254M291.238 233.212c.692 0 1.253-.561 1.253-1.254h-2.506c0 .693.562 1.254 1.253 1.254M291.552 241.359c0 .014.003.026.003.039.544-.427 1.106-.83 1.687-1.21-.137-.05-.283-.082-.439-.082-.69 0-1.251.56-1.251 1.253M289.672 240.105v2.508c.25 0 .481-.075.677-.201.092-.081.181-.166.275-.246.185-.218.301-.498.301-.807 0-.693-.56-1.254-1.253-1.254" mask="url(#prefix__e)"/>
                <path fill="#C17B36" d="M294.37 239.48c.016 0 .032-.005.048-.006.31-.174.627-.34.95-.497.158-.21.254-.468.254-.751h-2.504c0 .692.56 1.253 1.252 1.253M291.238 239.48c.692 0 1.253-.562 1.253-1.254h-2.506c0 .692.562 1.253 1.253 1.253M289.36 219.424c0-.197-.05-.38-.131-.548-.09.183-.176.366-.263.548h.394zM288.107 224.437c-.692 0-1.253.561-1.253 1.254h2.505c0-.693-.56-1.254-1.252-1.254M288.42 222.557c0 .693.56 1.254 1.252 1.254v-2.507c-.692 0-1.253.561-1.253 1.253M287.794 222.557c0-.14-.029-.273-.072-.4-.22.51-.44 1.02-.651 1.533.426-.2.723-.63.723-1.133M288.384 220.645c.557-.127.976-.624.976-1.221h-.394c-.194.407-.397.81-.582 1.22M288.107 230.705c-.692 0-1.253.56-1.253 1.253h2.505c0-.692-.56-1.253-1.252-1.253M286.228 231.958c0-.692-.561-1.253-1.252-1.253-.324 0-.615.126-.837.326-.125.31-.255.618-.382.927h2.47zM288.42 228.825c0 .692.56 1.253 1.252 1.253v-2.507c-.692 0-1.253.561-1.253 1.254M286.541 227.57c-.692 0-1.253.562-1.253 1.254 0 .694.56 1.255 1.253 1.255.691 0 1.253-.561 1.253-1.255 0-.692-.562-1.253-1.253-1.253M288.107 226.944c.692 0 1.252-.56 1.252-1.252h-2.505c0 .691.56 1.252 1.253 1.252M285.945 226.476c.155-.193.255-.431.273-.694-.092.231-.182.463-.273.694M288.107 236.972c-.692 0-1.253.56-1.253 1.253h2.505c0-.692-.56-1.253-1.252-1.253M284.975 236.972c-.692 0-1.252.56-1.252 1.253h2.504c0-.692-.56-1.253-1.252-1.253M288.42 235.092c0 .692.56 1.253 1.252 1.253v-2.506c-.692 0-1.253.56-1.253 1.253M286.541 233.838c-.692 0-1.253.561-1.253 1.254 0 .692.56 1.253 1.253 1.253.691 0 1.253-.56 1.253-1.253 0-.693-.562-1.254-1.253-1.254M283.41 233.838v2.507c.691 0 1.251-.56 1.251-1.253 0-.693-.56-1.254-1.251-1.254M288.107 233.212c.692 0 1.252-.561 1.252-1.254h-2.505c0 .693.56 1.254 1.253 1.254M283.729 232.026c.036.66.577 1.186 1.247 1.186.69 0 1.251-.561 1.251-1.254h-2.47l-.028.068M288.107 243.24c-.692 0-1.253.56-1.253 1.252h1.354c.268-.285.541-.568.819-.844-.229-.25-.555-.409-.92-.409M284.975 243.24c-.692 0-1.252.56-1.252 1.252h2.504c0-.692-.56-1.253-1.252-1.253M288.42 241.359c0 .693.56 1.253 1.252 1.253v-2.506c-.692 0-1.253.56-1.253 1.253M286.541 240.105c-.692 0-1.253.561-1.253 1.254s.56 1.254 1.253 1.254c.691 0 1.253-.561 1.253-1.254s-.562-1.254-1.253-1.254M284.662 241.359c0-.693-.56-1.253-1.252-1.253v2.506c.691 0 1.252-.56 1.252-1.253M288.107 239.48c.692 0 1.252-.562 1.252-1.254h-2.505c0 .692.56 1.253 1.253 1.253M284.975 239.48c.692 0 1.252-.562 1.252-1.254h-2.504c0 .692.56 1.253 1.252 1.253M286.541 246.373c-.692 0-1.253.56-1.253 1.253 0 .092.011.18.03.265.4-.514.81-1.02 1.228-1.517l-.005-.001M284.662 247.627c0-.693-.56-1.254-1.252-1.254v2.506c.691 0 1.252-.56 1.252-1.252M287.325 245.465c.29-.33.584-.653.883-.972h-1.354c0 .395.186.743.471.972M284.975 245.746c.692 0 1.252-.56 1.252-1.253h-2.504c0 .692.56 1.253 1.252 1.253M281.843 236.972c-.119 0-.232.021-.34.052-.195.401-.385.804-.59 1.201h2.183c0-.692-.56-1.253-1.253-1.253M282.924 233.936c-.227.523-.457 1.045-.694 1.565.171.49.631.844 1.18.844v-2.507c-.173 0-.337.035-.486.098M281.843 243.24c-.691 0-1.252.56-1.252 1.252h2.505c0-.692-.56-1.253-1.253-1.253M278.712 243.24c-.155 0-.3.03-.437.082-.2.39-.4.78-.598 1.17h2.287c0-.692-.56-1.253-1.252-1.253" mask="url(#prefix__e)"/>
                <path fill="#C17B36" d="M283.41 242.613v-2.508c-.693 0-1.253.561-1.253 1.254s.56 1.254 1.253 1.254M280.277 242.613c.693 0 1.253-.561 1.253-1.254s-.56-1.254-1.253-1.254c-.129 0-.25.025-.368.062l-.818 1.576c.163.504.63.87 1.186.87M281.843 239.48c.692 0 1.253-.562 1.253-1.254h-2.182c-.034.065-.063.13-.096.195l-.138.265c.184.463.635.793 1.163.793M281.843 249.506c-.691 0-1.252.561-1.252 1.254h2.505c0-.693-.56-1.254-1.253-1.254M278.712 249.506c-.692 0-1.253.561-1.253 1.254h2.505c0-.693-.56-1.254-1.252-1.254M283.41 248.88v-2.507c-.693 0-1.253.56-1.253 1.254 0 .692.56 1.253 1.253 1.253M280.277 248.88c.693 0 1.253-.561 1.253-1.253 0-.693-.56-1.254-1.253-1.254-.69 0-1.251.56-1.251 1.254 0 .692.56 1.253 1.251 1.253M278.4 247.627c0-.693-.561-1.254-1.254-1.254v2.506c.693 0 1.253-.56 1.253-1.252M281.843 245.746c.692 0 1.253-.56 1.253-1.253h-2.505c0 .692.56 1.253 1.252 1.253M278.712 245.746c.692 0 1.252-.56 1.252-1.253h-2.287l-.168.33c.146.531.626.923 1.203.923M279.504 256.063c-.217-.178-.49-.29-.792-.29-.692 0-1.253.562-1.253 1.255h1.424c.202-.322.412-.644.62-.965M280.116 255.13c.406-.61.826-1.223 1.254-1.837-.213-.387-.62-.653-1.092-.653-.692 0-1.253.562-1.253 1.253 0 .637.476 1.158 1.09 1.238M278.4 253.894c0-.692-.561-1.254-1.254-1.254v2.507c.693 0 1.253-.56 1.253-1.253M281.843 252.014c.178 0 .347-.039.5-.106.245-.343.493-.686.741-1.03.004-.04.012-.078.012-.118h-2.505c0 .693.56 1.254 1.252 1.254M278.712 252.014c.692 0 1.252-.561 1.252-1.254h-2.505c0 .693.56 1.254 1.253 1.254M277.662 259.021c-.157-.072-.331-.113-.516-.113v1.018c.173-.301.34-.604.516-.905M277.459 257.028c0 .503.299.934.727 1.133.23-.378.46-.756.697-1.133h-1.424zM275.58 249.506c-.15 0-.293.031-.427.08-.186.39-.363.783-.545 1.174h2.225c0-.693-.561-1.254-1.253-1.254" mask="url(#prefix__e)"/>
                <path fill="#C17B36" d="M277.146 248.88v-2.507c-.166 0-.323.033-.468.092-.248.497-.49.997-.734 1.495.146.53.626.92 1.202.92M275.58 255.774c-.692 0-1.252.56-1.252 1.253h2.505c0-.692-.561-1.253-1.253-1.253M272.449 255.774c-.014 0-.027.004-.041.004-.169.415-.333.832-.497 1.25h1.79c0-.693-.56-1.254-1.252-1.254M277.146 255.147v-2.507c-.692 0-1.253.561-1.253 1.254 0 .692.56 1.253 1.253 1.253M274.015 255.147c.691 0 1.252-.56 1.252-1.253 0-.693-.56-1.254-1.252-1.254-.098 0-.193.014-.285.035-.271.611-.537 1.224-.798 1.84.216.376.618.632 1.083.632M276.833 250.76h-2.226l-.198.43c.175.48.632.824 1.172.824.691 0 1.252-.561 1.252-1.254M275.951 262.103c-.118-.037-.24-.062-.37-.062-.692 0-1.254.56-1.254 1.253h1c.199-.4.416-.794.624-1.19M272.449 262.04c-.692 0-1.253.562-1.253 1.254h2.505c0-.692-.56-1.253-1.252-1.253M277.146 258.907c-.692 0-1.253.561-1.253 1.254 0 .426.213.8.538 1.027.23-.422.475-.842.715-1.262v-1.019zM274.015 261.414c.691 0 1.252-.56 1.252-1.253 0-.693-.56-1.254-1.252-1.254s-1.253.561-1.253 1.254c0 .692.56 1.253 1.253 1.253M272.136 260.161c0-.587-.404-1.075-.949-1.212-.103.284-.204.57-.303.856v1.609c.691 0 1.252-.561 1.252-1.253M276.833 257.028h-2.506c0 .691.56 1.252 1.254 1.252.691 0 1.252-.56 1.252-1.252M273.701 257.028h-1.79c-.115.294-.239.586-.35.882.226.229.54.37.888.37.692 0 1.252-.56 1.252-1.252M272.01 268.392l.237 1.17h.358c.137-.37.279-.74.423-1.105-.174-.092-.37-.148-.58-.148-.154 0-.301.032-.439.083M274.015 265.175c-.692 0-1.253.56-1.253 1.253 0 .47.26.873.641 1.088.317-.767.648-1.525.994-2.276-.121-.04-.248-.065-.382-.065M271.786 267.293c.216-.225.35-.529.35-.865 0-.516-.312-.958-.758-1.151l.408 2.016zM274.327 263.294c0 .417.206.782.517 1.01.161-.336.315-.676.482-1.01h-.999z" mask="url(#prefix__e)"/>
                <path fill="#C17B36" d="M271.196 263.294c0 .693.56 1.254 1.253 1.254.692 0 1.252-.56 1.252-1.254h-2.505zM272.37 270.173c.075-.206.158-.406.235-.612h-.359l.124.612zM270.491 260.905l.096.47c.095.023.193.04.297.04v-1.61c-.13.367-.27.731-.393 1.1" mask="url(#prefix__e)"/>
                <path fill="#FFF" d="M270.583 261.841l-.716-.258.037-.115c.017-.052.031-.103.05-.152.05-.166.114-.35.178-.536 2.464-7.392 6.133-14.439 9.682-21.254l.666-1.28c1.75-3.368 3.155-6.94 4.512-10.395 1.305-3.321 2.655-6.755 4.31-10.003 1.095-2.15 2.242-3.602 3.61-4.572 2.485-1.756 5.282-1.959 8.09-.593 6.204 3.02 11.075 12.784 11.332 17.893l-.76.038c-.241-4.813-5.033-14.388-10.904-17.246-2.582-1.257-5.042-1.078-7.318.53-1.265.895-2.336 2.26-3.372 4.295-1.638 3.216-2.982 6.632-4.28 9.937-1.364 3.473-2.776 7.064-4.545 10.466l-.667 1.283c-3.535 6.788-7.191 13.806-9.636 21.147-.063.18-.124.356-.177.53l-.043.134c-.016.051-.031.103-.049.151" mask="url(#prefix__e)"/>
                <path fill="#5F89A0" d="M289.985 81.544h2.506c0-.692-.56-1.253-1.253-1.253-.692 0-1.253.56-1.253 1.253M289.672 79.664c.611 0 1.118-.437 1.23-1.015-.377-.442-.79-.862-1.23-1.23v2.245zM293.117 87.812h.862c-.004-.38-.02-.769-.053-1.17-.473.181-.809.634-.809 1.17M289.985 87.812h2.506c0-.693-.56-1.254-1.253-1.254-.692 0-1.253.561-1.253 1.254M291.552 84.678c0 .692.56 1.253 1.251 1.253.403 0 .757-.192.986-.487-.09-.594-.219-1.214-.377-1.856-.18-.1-.386-.164-.609-.164-.69 0-1.251.561-1.251 1.254M289.672 83.424v2.507c.693 0 1.253-.56 1.253-1.253 0-.693-.56-1.254-1.253-1.254M291.238 82.798c.692 0 1.253-.561 1.253-1.254h-2.506c0 .693.562 1.254 1.253 1.254M289.985 94.079h2.506c0-.693-.56-1.254-1.253-1.254-.692 0-1.253.561-1.253 1.254M292.804 89.692c-.692 0-1.252.56-1.252 1.253 0 .693.56 1.254 1.252 1.254.197 0 .38-.05.545-.13.193-.596.345-1.22.453-1.876-.23-.303-.589-.501-.998-.501M289.672 92.199c.693 0 1.253-.561 1.253-1.254 0-.692-.56-1.253-1.253-1.253v2.507zM293.945 88.986c.028-.38.037-.773.034-1.174h-.862c0 .542.346 1 .828 1.174M291.238 89.065c.692 0 1.253-.56 1.253-1.253h-2.506c0 .692.562 1.253 1.253 1.253M290.836 96.755c-.183-.465-.633-.796-1.163-.796v2.249c.402-.475.793-.958 1.163-1.453M291.238 95.332c.263 0 .507-.081.708-.22.19-.315.37-.637.539-.965 0-.023.006-.045.006-.068h-2.506c0 .692.562 1.253 1.253 1.253M288.107 80.29c-.692 0-1.253.562-1.253 1.254h2.505c0-.692-.56-1.253-1.252-1.253M283.722 81.544h2.506c0-.692-.561-1.253-1.253-1.253-.262 0-.507.081-.707.22-.174.251-.346.51-.518.775-.018.083-.028.17-.028.258M288.42 78.41c0 .693.56 1.254 1.252 1.254V77.42c-.093-.078-.185-.157-.28-.23-.557.129-.973.625-.973 1.22M285.64 78.654c0 .007-.008.016-.015.023-.07.088-.14.181-.212.272.202.422.629.715 1.128.715.692 0 1.253-.561 1.253-1.253 0-.567-.379-1.041-.895-1.196-.247.266-.5.541-.758.835-.156.22-.32.423-.5.604M288.264 76.515c-.169-.074-.338-.139-.51-.188l-.109.113c.143.057.298.09.462.09.053 0 .105-.008.157-.015M286.854 87.812h2.506c0-.693-.56-1.254-1.254-1.254-.692 0-1.252.561-1.252 1.254M283.722 87.812h2.506c0-.693-.561-1.254-1.253-1.254-.692 0-1.253.561-1.253 1.254M288.42 84.678c0 .692.56 1.253 1.252 1.253v-2.507c-.692 0-1.253.561-1.253 1.254M286.541 83.424c-.692 0-1.253.561-1.253 1.254 0 .692.56 1.253 1.253 1.253.691 0 1.253-.56 1.253-1.253 0-.693-.562-1.254-1.253-1.254M283.41 83.424v2.507c.691 0 1.251-.56 1.251-1.253 0-.693-.56-1.254-1.251-1.254" mask="url(#prefix__e)"/>
                <path fill="#5F89A0" d="M288.107 82.798c.692 0 1.252-.561 1.252-1.254h-2.505c0 .693.56 1.254 1.253 1.254M284.975 82.798c.692 0 1.252-.561 1.252-1.254h-2.504c0 .693.56 1.254 1.252 1.254M286.854 94.079h2.506c0-.693-.56-1.254-1.254-1.254-.692 0-1.252.561-1.252 1.254M283.722 94.079h2.506c0-.693-.561-1.254-1.253-1.254-.692 0-1.253.561-1.253 1.254M288.42 90.945c0 .693.56 1.254 1.252 1.254v-2.507c-.692 0-1.253.56-1.253 1.253M286.541 89.692c-.692 0-1.253.56-1.253 1.253 0 .693.56 1.254 1.253 1.254.691 0 1.253-.561 1.253-1.254 0-.692-.562-1.253-1.253-1.253M283.41 89.692v2.507c.691 0 1.251-.561 1.251-1.254 0-.692-.56-1.253-1.251-1.253M288.107 89.065c.692 0 1.252-.56 1.252-1.253h-2.505c0 .692.56 1.253 1.253 1.253M284.975 89.065c.692 0 1.252-.56 1.252-1.253h-2.504c0 .692.56 1.253 1.252 1.253M286.854 100.346h.915c.327-.357.653-.715.974-1.075-.187-.11-.403-.178-.637-.178-.692 0-1.252.56-1.252 1.253M284.975 99.092c-.692 0-1.252.562-1.252 1.254h2.504c0-.692-.56-1.254-1.252-1.254M288.42 97.213c0 .622.455 1.135 1.05 1.233l.202-.238V95.96c-.692 0-1.253.561-1.253 1.254M286.541 95.959c-.692 0-1.253.56-1.253 1.253 0 .693.56 1.254 1.253 1.254.691 0 1.253-.561 1.253-1.254 0-.692-.562-1.253-1.253-1.253M284.662 97.213c0-.693-.56-1.254-1.252-1.254v2.507c.691 0 1.252-.56 1.252-1.253M288.107 95.332c.692 0 1.252-.56 1.252-1.253h-2.505c0 .692.56 1.253 1.253 1.253M284.975 95.332c.692 0 1.252-.56 1.252-1.253h-2.504c0 .692.56 1.253 1.252 1.253M285.367 103.056c.185-.224.372-.445.563-.665-.26.147-.46.38-.563.665M284.662 103.48c0-.693-.56-1.254-1.252-1.254v2.507c.691 0 1.252-.56 1.252-1.253M287.097 101.083l.673-.737h-.916c0 .276.092.53.243.737" mask="url(#prefix__e)"/>
                <path fill="#5F89A0" d="M284.975 101.6c.692 0 1.252-.562 1.252-1.254h-2.504c0 .692.56 1.254 1.252 1.254M283.41 116.258v.937c.095.015.184.029.271.041.03-.006.059-.018.088-.026-.12-.29-.24-.612-.36-.952M281.843 86.558c-.691 0-1.252.562-1.252 1.253h2.505c0-.691-.56-1.253-1.253-1.253M282.157 84.678c0 .692.56 1.253 1.252 1.253v-2.507c-.692 0-1.252.561-1.252 1.254M281.843 92.825c-.691 0-1.252.562-1.252 1.254h2.505c0-.692-.56-1.254-1.253-1.254M278.774 92.831c-.09.344-.18.69-.266 1.045l-.073.203h1.53c0-.671-.528-1.214-1.19-1.248M282.157 90.945c0 .693.56 1.254 1.252 1.254v-2.507c-.692 0-1.252.56-1.252 1.253M280.277 92.199c.693 0 1.253-.561 1.253-1.254 0-.692-.56-1.253-1.253-1.253-.222 0-.43.063-.611.166-.178.527-.35 1.068-.515 1.625.2.422.628.716 1.126.716M281.843 89.065c.692 0 1.253-.56 1.253-1.253h-2.505c0 .692.56 1.253 1.252 1.253M281.843 99.092c-.691 0-1.252.562-1.252 1.254h2.505c0-.692-.56-1.254-1.253-1.254M278.712 99.092c-.692 0-1.253.562-1.253 1.254h2.505c0-.692-.56-1.254-1.252-1.254M283.41 98.466V95.96c-.693 0-1.253.561-1.253 1.254 0 .692.56 1.253 1.253 1.253M280.277 98.466c.693 0 1.253-.56 1.253-1.253 0-.693-.56-1.254-1.253-1.254-.69 0-1.251.561-1.251 1.254 0 .692.56 1.253 1.251 1.253M278.4 97.213c0-.513-.308-.95-.748-1.146-.15.361-.32.758-.506 1.178v1.221c.693 0 1.253-.56 1.253-1.253" mask="url(#prefix__e)"/>
                <path fill="#5F89A0" d="M283.096 94.079h-2.505c0 .692.56 1.253 1.253 1.253.692 0 1.252-.56 1.252-1.253M279.965 94.079h-1.53c-.076.207-.212.57-.402 1.05.195.128.427.203.68.203.691 0 1.252-.56 1.252-1.253M281.843 105.36c-.691 0-1.252.56-1.252 1.253h2.505c0-.692-.56-1.253-1.253-1.253M278.712 105.36c-.692 0-1.253.56-1.253 1.253h2.505c0-.692-.56-1.253-1.252-1.253M283.41 104.733v-2.507c-.693 0-1.253.561-1.253 1.254 0 .692.56 1.253 1.253 1.253M280.277 104.733c.693 0 1.253-.56 1.253-1.253 0-.693-.56-1.254-1.253-1.254-.69 0-1.251.561-1.251 1.254 0 .692.56 1.253 1.251 1.253M278.4 103.48c0-.693-.561-1.254-1.254-1.254v2.507c.693 0 1.253-.56 1.253-1.253M283.096 100.346h-2.505c0 .693.56 1.254 1.253 1.254.692 0 1.252-.561 1.252-1.254M279.965 100.346h-2.506c0 .693.56 1.254 1.253 1.254.692 0 1.253-.561 1.253-1.254M282.437 111.783c-.178-.096-.378-.156-.594-.156-.691 0-1.252.561-1.252 1.253h1.967c-.053-.357-.093-.724-.121-1.097M278.712 111.627c-.692 0-1.253.561-1.253 1.254h2.505c0-.693-.56-1.254-1.252-1.254M282.535 108.85c-.233.228-.378.545-.378.897 0 .272.088.522.235.728.01-.536.06-1.08.143-1.625M280.277 111c.693 0 1.253-.56 1.253-1.253 0-.692-.56-1.253-1.253-1.253-.69 0-1.251.56-1.251 1.253 0 .693.56 1.254 1.251 1.254M278.4 109.747c0-.692-.561-1.253-1.254-1.253V111c.693 0 1.253-.561 1.253-1.254M282.905 107.272c.057-.18.112-.361.179-.54.004-.04.012-.079.012-.119h-2.505c0 .693.56 1.254 1.253 1.254.449 0 .84-.239 1.061-.595M279.965 106.613h-2.506c0 .693.56 1.254 1.253 1.254.692 0 1.253-.561 1.253-1.254M282.97 114.844c-.474.178-.813.633-.813 1.17 0 .46.25.857.617 1.075l.032.006.603.1v-.937c-.153-.436-.302-.91-.438-1.414M280.277 114.76c-.69 0-1.251.562-1.251 1.254 0 .086.007.17.025.251.682.19 1.419.366 2.198.53.174-.214.281-.483.281-.781 0-.692-.56-1.254-1.253-1.254M278.393 116.069c.002-.018.006-.036.006-.055 0-.692-.56-1.253-1.253-1.253v.9c.395.14.813.276 1.247.408M281.843 114.134c.34 0 .647-.136.873-.356-.06-.292-.112-.592-.158-.897h-1.967c0 .692.56 1.253 1.252 1.253" mask="url(#prefix__e)"/>
                <path fill="#5F89A0" d="M279.965 112.88h-2.506c0 .693.56 1.254 1.253 1.254.692 0 1.253-.56 1.253-1.253M276.208 99.267c-.172.353-.354.713-.542 1.079h1.167c0-.462-.253-.861-.625-1.079M276.641 98.358c.154.068.326.108.505.108v-1.22c-.156.353-.325.725-.505 1.112M275.58 105.36c-.692 0-1.252.56-1.252 1.253h2.505c0-.692-.561-1.253-1.253-1.253M272.605 105.375c-.315.428-.638.844-.971 1.238h2.067c0-.639-.479-1.16-1.096-1.238M275.893 103.48c0 .692.56 1.253 1.253 1.253v-2.507c-.692 0-1.253.561-1.253 1.254M275.267 103.48c0-.493-.288-.916-.701-1.121-.414.711-.854 1.42-1.318 2.105.212.167.476.27.767.27.691 0 1.252-.562 1.252-1.254M276.833 100.346h-1.167c-.193.375-.396.755-.606 1.137.159.073.334.117.52.117.692 0 1.253-.561 1.253-1.254M275.58 111.627c-.692 0-1.252.561-1.252 1.254h2.505c0-.693-.561-1.254-1.253-1.254M272.449 111.627c-.499 0-.927.294-1.128.717.188.177.391.356.613.537h1.767c0-.693-.56-1.254-1.252-1.254M275.893 109.747c0 .693.56 1.254 1.253 1.254v-2.507c-.692 0-1.253.56-1.253 1.253M274.015 111c.691 0 1.252-.56 1.252-1.253 0-.692-.56-1.253-1.252-1.253s-1.253.56-1.253 1.253c0 .693.56 1.254 1.253 1.254M272.136 109.747c0-.692-.561-1.253-1.252-1.253V111c.691 0 1.252-.561 1.252-1.254M276.833 106.613h-2.506c0 .693.56 1.254 1.254 1.254.691 0 1.252-.561 1.252-1.254M273.701 106.613h-2.068c-.12.142-.24.278-.362.414.171.488.631.84 1.178.84.692 0 1.252-.561 1.252-1.254M277.146 114.76c-.417 0-.783.207-1.01.52.32.13.659.258 1.01.382v-.902z" mask="url(#prefix__e)"/>
                <path fill="#5F89A0" d="M276.833 112.88h-2.506c0 .693.56 1.254 1.254 1.254.691 0 1.252-.56 1.252-1.253M273.701 112.88h-1.767c.386.315.828.63 1.33.946.265-.23.437-.566.437-.945M269.63 109.747c0 .693.56 1.254 1.253 1.254v-2.507c-.692 0-1.253.56-1.253 1.253" mask="url(#prefix__e)"/>
                <path fill="#FFF" d="M284.211 117.505c-.15 0-.291-.09-.351-.236-.935-2.279-3.42-8.33.31-13.313.984-1.315 2.115-2.55 3.207-3.745 4.326-4.727 8.412-9.193 4.92-19.009-.045-.15-.095-.285-.146-.42l-.057-.158c-.071-.198.03-.416.228-.488.196-.068.416.031.488.23l.055.15c.057.154.112.305.155.451 3.638 10.228-.795 15.073-5.082 19.758-1.08 1.181-2.197 2.401-3.16 3.688-3.11 4.156-1.613 9.163-.215 12.567.08.194-.014.416-.207.497-.048.019-.096.028-.145.028" mask="url(#prefix__e)"/>
                <path fill="#5F89A0" d="M354.394 155.616c-.16-.074-.335-.119-.523-.119-.693 0-1.254.562-1.254 1.255h.688c.372-.371.734-.75 1.09-1.136M354.666 154.6l-.336-.406c.082.158.196.296.336.406M353.557 153.618c0-.165-.033-.322-.091-.466l-.488-.588c-.195-.125-.425-.2-.674-.2v2.507c.693 0 1.253-.56 1.253-1.253" mask="url(#prefix__e)"/>
                <path fill="#5F89A0" d="M352.747 157.297c.188-.18.374-.362.558-.546h-.688c0 .197.05.38.13.546M346.354 144.217h.885l.057-1.21c-.541.14-.942.625-.942 1.21M347.294 141.083c0-.669-.525-1.21-1.185-1.246l-.067.006v2.494c.691 0 1.252-.561 1.252-1.254M351.255 150.484l-.967-1.166c-.47.181-.802.633-.802 1.166h1.769zM347.607 149.23c-.691 0-1.253.562-1.253 1.254h2.506c0-.692-.561-1.254-1.253-1.254M349.173 148.604c.16 0 .31-.032.451-.087l-1.513-1.825c-.12.192-.191.416-.191.659 0 .692.561 1.253 1.253 1.253M346.041 146.097v2.507c.692 0 1.253-.561 1.253-1.254 0-.692-.561-1.253-1.253-1.253M346.354 144.217c0 .543.348 1 .83 1.175l.055-1.175h-.885zM349.486 156.751h2.505c0-.692-.56-1.253-1.253-1.253-.691 0-1.252.56-1.252 1.253M346.354 156.751h2.506c0-.692-.56-1.253-1.253-1.253-.692 0-1.253.56-1.253 1.253M351.052 153.618c0 .692.56 1.253 1.252 1.253v-2.507c-.692 0-1.252.561-1.252 1.254M349.173 152.364c-.692 0-1.253.561-1.253 1.254 0 .692.561 1.253 1.253 1.253.692 0 1.252-.56 1.252-1.253 0-.693-.56-1.254-1.252-1.254M347.294 153.618c0-.693-.561-1.254-1.252-1.254v2.507c.691 0 1.252-.56 1.252-1.253M350.738 151.738c.45 0 .84-.24 1.062-.595l-.545-.659h-1.769c0 .693.561 1.254 1.252 1.254M347.607 151.738c.692 0 1.253-.561 1.253-1.254h-2.506c0 .693.562 1.254 1.253 1.254M349.173 158.631c-.692 0-1.253.561-1.253 1.254 0 .409.198.768.501.997.653-.47 1.29-.958 1.912-1.464-.185-.46-.633-.787-1.16-.787M347.294 159.885c0-.693-.561-1.254-1.252-1.254v2.507c.691 0 1.252-.56 1.252-1.253M350.738 158.005c.692 0 1.253-.561 1.253-1.254h-2.505c0 .693.561 1.254 1.252 1.254M347.607 158.005c.692 0 1.253-.561 1.253-1.254h-2.506c0 .693.562 1.254 1.253 1.254M344.476 142.963c-.693 0-1.253.561-1.253 1.254h2.505c0-.693-.561-1.254-1.252-1.254M341.344 142.963c-.692 0-1.253.561-1.253 1.254h2.505c0-.693-.56-1.254-1.252-1.254M344.788 141.083c0 .693.56 1.254 1.253 1.254v-2.494c-.107.013-.216.022-.323.035-.534.143-.93.626-.93 1.205M341.657 141.083c0 .693.56 1.254 1.253 1.254.692 0 1.252-.561 1.252-1.254 0-.374-.166-.705-.425-.934-.643.1-1.283.212-1.922.336-.098.179-.158.38-.158.598M339.778 142.337c.692 0 1.252-.561 1.252-1.254 0-.151-.03-.294-.079-.428-.393.083-.782.175-1.173.268v1.414zM343.223 150.484h2.506c0-.692-.562-1.253-1.254-1.253s-1.252.56-1.252 1.253M340.091 150.484h2.505c0-.692-.56-1.253-1.252-1.253s-1.253.56-1.253 1.253M344.788 147.35c0 .693.56 1.254 1.253 1.254v-2.507c-.692 0-1.253.56-1.253 1.253M342.91 146.097c-.692 0-1.253.56-1.253 1.253 0 .693.56 1.254 1.253 1.254.691 0 1.252-.561 1.252-1.254 0-.692-.56-1.253-1.252-1.253M339.778 146.097v2.507c.692 0 1.252-.561 1.252-1.254 0-.692-.56-1.253-1.252-1.253M343.223 144.217c0 .693.56 1.253 1.252 1.253s1.254-.56 1.254-1.253h-2.506zM340.091 144.217c0 .693.56 1.253 1.253 1.253.692 0 1.252-.56 1.252-1.253h-2.505zM343.223 156.751h2.506c0-.692-.562-1.253-1.254-1.253s-1.252.56-1.252 1.253M340.091 156.751h2.505c0-.692-.56-1.253-1.252-1.253s-1.253.56-1.253 1.253M344.788 153.618c0 .692.56 1.253 1.253 1.253v-2.507c-.692 0-1.253.561-1.253 1.254M342.91 152.364c-.692 0-1.253.561-1.253 1.254 0 .692.56 1.253 1.253 1.253.691 0 1.252-.56 1.252-1.253 0-.693-.56-1.254-1.252-1.254M339.778 152.364v2.507c.692 0 1.252-.56 1.252-1.253 0-.693-.56-1.254-1.252-1.254M344.476 151.738c.69 0 1.252-.561 1.252-1.254h-2.505c0 .693.56 1.254 1.253 1.254M341.344 151.738c.691 0 1.252-.561 1.252-1.254h-2.505c0 .693.561 1.254 1.253 1.254M343.223 163.019h1.924c.18-.106.356-.217.533-.325-.143-.534-.626-.929-1.205-.929-.692 0-1.252.561-1.252 1.254M340.091 163.019h2.505c0-.693-.56-1.254-1.252-1.254s-1.253.561-1.253 1.254M344.788 159.885c0 .692.56 1.253 1.253 1.253v-2.507c-.692 0-1.253.561-1.253 1.254M342.91 158.631c-.692 0-1.253.561-1.253 1.254 0 .692.56 1.253 1.253 1.253.691 0 1.252-.56 1.252-1.253 0-.693-.56-1.254-1.252-1.254M339.778 158.631v2.507c.692 0 1.252-.56 1.252-1.253 0-.693-.56-1.254-1.252-1.254M344.476 158.005c.69 0 1.252-.561 1.252-1.254h-2.505c0 .693.56 1.254 1.253 1.254M341.344 158.005c.691 0 1.252-.561 1.252-1.254h-2.505c0 .693.561 1.254 1.253 1.254M340.71 165.322c-.23-.258-.56-.423-.933-.423v.845c.315-.135.622-.28.934-.422M343.585 163.899c.526-.284 1.048-.577 1.562-.88h-1.925c0 .343.14.654.363.88M341.344 164.272c.691 0 1.252-.56 1.252-1.253h-2.505c0 .692.561 1.253 1.253 1.253M338.212 142.963c-.691 0-1.253.561-1.253 1.254h2.506c0-.693-.56-1.254-1.253-1.254M335.08 142.963c-.691 0-1.252.561-1.252 1.254h2.505c0-.693-.561-1.254-1.252-1.254M338.54 141.226c.071.624.594 1.11 1.238 1.11v-1.413c-.413.099-.828.194-1.238.303M336.646 142.337c.576 0 1.056-.39 1.203-.92-.68.189-1.355.388-2.025.605.22.194.506.315.822.315M338.212 149.23c-.691 0-1.253.562-1.253 1.254h2.506c0-.692-.56-1.254-1.253-1.254M333.828 150.484h2.506c0-.692-.562-1.253-1.254-1.253s-1.252.56-1.252 1.253M338.525 147.35c0 .693.561 1.254 1.252 1.254v-2.507c-.691 0-1.252.56-1.252 1.253M336.646 146.097c-.691 0-1.252.56-1.252 1.253 0 .693.561 1.254 1.252 1.254.692 0 1.253-.561 1.253-1.254 0-.692-.56-1.253-1.253-1.253M333.515 148.604c.691 0 1.253-.561 1.253-1.253 0-.693-.562-1.254-1.253-1.254v2.507zM336.959 144.217c0 .693.561 1.253 1.253 1.253.693 0 1.253-.56 1.253-1.253h-2.506zM333.828 144.217c0 .693.56 1.253 1.252 1.253s1.254-.56 1.254-1.253h-2.506zM338.212 155.498c-.691 0-1.253.561-1.253 1.253h2.506c0-.692-.56-1.253-1.253-1.253M333.828 156.751h2.506c0-.692-.562-1.253-1.254-1.253s-1.252.56-1.252 1.253M338.525 153.618c0 .692.561 1.253 1.252 1.253v-2.507c-.691 0-1.252.561-1.252 1.254M336.646 152.364c-.691 0-1.252.561-1.252 1.254 0 .692.561 1.253 1.252 1.253.692 0 1.253-.56 1.253-1.253 0-.693-.56-1.254-1.253-1.254M333.515 154.871c.691 0 1.253-.561 1.253-1.253 0-.693-.562-1.254-1.253-1.254v2.507zM338.212 151.738c.692 0 1.253-.561 1.253-1.254h-2.506c0 .693.562 1.254 1.253 1.254M335.08 151.738c.692 0 1.253-.561 1.253-1.254h-2.505c0 .693.56 1.254 1.253 1.254M338.212 161.765c-.691 0-1.253.561-1.253 1.253h2.506c0-.692-.56-1.253-1.253-1.253M335.08 161.765c-.691 0-1.252.561-1.252 1.253h2.505c0-.692-.561-1.253-1.252-1.253M338.525 159.885c0 .692.561 1.253 1.252 1.253v-2.507c-.691 0-1.252.561-1.252 1.254M335.393 159.885c0 .692.562 1.253 1.253 1.253.693 0 1.253-.56 1.253-1.253 0-.693-.56-1.254-1.253-1.254-.691 0-1.253.561-1.253 1.254M334.768 159.885c0-.693-.561-1.254-1.253-1.254v2.507c.692 0 1.253-.56 1.253-1.253M338.212 158.005c.692 0 1.253-.561 1.253-1.254h-2.506c0 .693.562 1.254 1.253 1.254M335.08 158.005c.692 0 1.253-.561 1.253-1.254h-2.505c0 .693.56 1.254 1.253 1.254" mask="url(#prefix__e)"/>
                <path fill="#5F89A0" d="M339.778 164.899c-.692 0-1.252.56-1.252 1.253 0 .034.006.065.009.098.416-.165.832-.33 1.243-.506v-.845zM337.9 166.152c0-.692-.561-1.253-1.253-1.253-.692 0-1.254.56-1.254 1.253 0 .438.225.821.564 1.046.63-.212 1.258-.435 1.88-.671.036-.12.062-.243.062-.375M333.515 167.406c.691 0 1.253-.562 1.253-1.254s-.562-1.253-1.253-1.253v2.507zM338.212 164.272c.692 0 1.253-.56 1.253-1.253h-2.506c0 .692.562 1.253 1.253 1.253M336.334 163.019h-2.506c0 .692.56 1.253 1.253 1.253.691 0 1.253-.56 1.253-1.253M333.202 144.217c0-.435-.221-.817-.557-1.043-.648.258-1.29.53-1.926.815-.014.073-.023.15-.023.228h2.506zM330.696 150.484h2.506c0-.692-.561-1.253-1.253-1.253-.692 0-1.253.56-1.253 1.253M328.817 149.23c-.691 0-1.252.562-1.252 1.254h2.505c0-.692-.56-1.254-1.253-1.254M332.262 147.35c0 .693.56 1.254 1.253 1.254v-2.507c-.693 0-1.253.56-1.253 1.253M330.384 146.097c-.693 0-1.253.56-1.253 1.253 0 .693.56 1.254 1.253 1.254.69 0 1.251-.561 1.251-1.254 0-.692-.56-1.253-1.251-1.253M327.251 146.097v2.507c.692 0 1.253-.561 1.253-1.254 0-.692-.56-1.253-1.253-1.253M330.696 144.217c0 .693.56 1.253 1.253 1.253.692 0 1.253-.56 1.253-1.253h-2.506zM330.063 144.282c-.142.066-.289.125-.43.193-.517.246-1.028.503-1.536.765.204.144.451.23.72.23.67 0 1.212-.526 1.246-1.188M330.696 156.751h2.506c0-.692-.561-1.253-1.253-1.253-.692 0-1.253.56-1.253 1.253M328.817 155.498c-.691 0-1.252.561-1.252 1.253h2.505c0-.692-.56-1.253-1.253-1.253M332.262 153.618c0 .692.56 1.253 1.253 1.253v-2.507c-.693 0-1.253.561-1.253 1.254M330.384 152.364c-.693 0-1.253.561-1.253 1.254 0 .692.56 1.253 1.253 1.253.69 0 1.251-.56 1.251-1.253 0-.693-.56-1.254-1.251-1.254M328.504 153.618c0-.693-.56-1.254-1.252-1.254v2.507c.692 0 1.252-.56 1.252-1.253M331.95 151.738c.69 0 1.252-.561 1.252-1.254h-2.505c0 .693.56 1.254 1.252 1.254M328.817 151.738c.692 0 1.253-.561 1.253-1.254h-2.505c0 .693.56 1.254 1.252 1.254M331.95 161.765c-.693 0-1.253.561-1.253 1.253h2.505c0-.692-.561-1.253-1.253-1.253M328.817 161.765c-.691 0-1.252.561-1.252 1.253h2.505c0-.692-.56-1.253-1.253-1.253M332.262 159.885c0 .692.56 1.253 1.253 1.253v-2.507c-.693 0-1.253.561-1.253 1.254M330.384 161.139c.69 0 1.251-.562 1.251-1.254s-.56-1.253-1.251-1.253c-.693 0-1.253.56-1.253 1.253 0 .692.56 1.254 1.253 1.254M328.504 159.885c0-.693-.56-1.254-1.252-1.254v2.507c.692 0 1.252-.56 1.252-1.253M331.95 158.005c.69 0 1.252-.561 1.252-1.254h-2.505c0 .693.56 1.254 1.252 1.254M328.817 158.005c.692 0 1.253-.561 1.253-1.254h-2.505c0 .693.56 1.254 1.252 1.254M331.95 168.032c-.446 0-.834.234-1.056.583.563-.126 1.124-.262 1.684-.407-.185-.109-.398-.176-.629-.176M328.927 169.02c.35-.064.698-.142 1.047-.214-.188-.454-.635-.774-1.157-.774-.677 0-1.226.54-1.248 1.212.504-.076.962-.151 1.358-.225M333.515 167.406v-2.507c-.692 0-1.253.56-1.253 1.253 0 .692.56 1.254 1.253 1.254M330.384 167.406c.69 0 1.251-.562 1.251-1.254s-.56-1.253-1.251-1.253c-.693 0-1.253.56-1.253 1.253 0 .692.56 1.254 1.253 1.254M328.504 166.152c0-.692-.56-1.253-1.252-1.253v2.507c.692 0 1.252-.561 1.252-1.254M333.202 163.019h-2.506c0 .692.56 1.253 1.254 1.253.691 0 1.252-.56 1.252-1.253M328.817 164.272c.692 0 1.253-.56 1.253-1.253h-2.505c0 .692.56 1.253 1.252 1.253M324.433 150.484h2.506c0-.692-.56-1.253-1.254-1.253-.691 0-1.252.56-1.252 1.253M322.554 149.23c-.692 0-1.252.562-1.252 1.254h2.505c0-.692-.56-1.254-1.253-1.254M326 147.35c0 .693.56 1.254 1.251 1.254v-2.507c-.691 0-1.252.56-1.252 1.253M324.12 148.604c.692 0 1.253-.561 1.253-1.253 0-.207-.055-.4-.144-.572-.726.404-1.452.812-2.177 1.22.22.361.614.605 1.068.605M325.686 155.498c-.692 0-1.253.561-1.253 1.253h2.505c0-.692-.56-1.253-1.252-1.253M322.554 155.498c-.692 0-1.252.561-1.252 1.253h2.505c0-.692-.56-1.253-1.253-1.253M326 153.618c0 .692.56 1.253 1.251 1.253v-2.507c-.691 0-1.252.561-1.252 1.254M322.867 153.618c0 .692.56 1.253 1.253 1.253.693 0 1.253-.56 1.253-1.253 0-.693-.56-1.254-1.253-1.254-.692 0-1.253.561-1.253 1.254M322.242 153.618c0-.693-.562-1.254-1.253-1.254v2.507c.691 0 1.253-.56 1.253-1.253M325.686 151.738c.692 0 1.252-.561 1.252-1.254h-2.505c0 .693.561 1.254 1.253 1.254M322.554 151.738c.692 0 1.253-.561 1.253-1.254h-2.505c0 .693.56 1.254 1.252 1.254M325.686 161.765c-.692 0-1.253.561-1.253 1.253h2.505c0-.692-.56-1.253-1.252-1.253M322.554 161.765c-.692 0-1.252.561-1.252 1.253h2.505c0-.692-.56-1.253-1.253-1.253M327.251 161.139v-2.507c-.691 0-1.252.56-1.252 1.253 0 .692.561 1.254 1.252 1.254M324.12 161.139c.692 0 1.253-.562 1.253-1.254s-.56-1.253-1.253-1.253c-.692 0-1.253.56-1.253 1.253 0 .692.56 1.254 1.253 1.254M322.242 159.885c0-.693-.562-1.254-1.253-1.254v2.507c.691 0 1.253-.56 1.253-1.253M326.939 156.751h-2.506c0 .693.56 1.254 1.253 1.254.692 0 1.253-.561 1.253-1.254M323.807 156.751h-2.506c0 .693.56 1.254 1.254 1.254.692 0 1.252-.561 1.252-1.254M325.686 168.032c-.692 0-1.253.562-1.253 1.254h2.505c0-.692-.56-1.254-1.252-1.254M322.554 168.032c-.692 0-1.252.562-1.252 1.254h2.505c0-.692-.56-1.254-1.253-1.254M326 166.152c0 .693.56 1.254 1.251 1.254v-2.507c-.691 0-1.252.56-1.252 1.253M324.12 167.406c.692 0 1.253-.562 1.253-1.254s-.56-1.253-1.253-1.253c-.692 0-1.253.56-1.253 1.253 0 .692.56 1.254 1.253 1.254M322.242 166.152c0-.692-.562-1.253-1.253-1.253v2.507c.691 0 1.253-.561 1.253-1.254M326.939 163.019h-2.506c0 .692.56 1.253 1.253 1.253.692 0 1.253-.56 1.253-1.253M323.807 163.019h-2.506c0 .692.56 1.253 1.254 1.253.692 0 1.252-.56 1.252-1.253M324.433 169.286c0 .123.023.239.056.352.893-.097 1.712-.2 2.444-.302.001-.017.006-.033.006-.05h-2.506zM321.301 169.286c0 .232.068.447.177.633.785-.062 1.537-.13 2.248-.202.05-.134.081-.279.081-.431h-2.506zM320.25 149.55c-.595.32-1.193.63-1.794.935h2.22c0-.375-.167-.706-.426-.936M319.423 155.498c-.692 0-1.253.561-1.253 1.253h2.505c0-.692-.56-1.253-1.252-1.253M316.29 155.498c-.69 0-1.251.561-1.251 1.253h2.504c0-.692-.56-1.253-1.252-1.253M319.736 153.618c0 .692.56 1.253 1.252 1.253v-2.507c-.692 0-1.252.561-1.252 1.254M317.856 154.871c.693 0 1.253-.561 1.253-1.253 0-.693-.56-1.254-1.253-1.254-.69 0-1.251.561-1.251 1.254 0 .692.56 1.253 1.251 1.253M315.978 153.618c0-.693-.56-1.254-1.253-1.254v2.507c.693 0 1.253-.56 1.253-1.253" mask="url(#prefix__e)"/>
                <path fill="#5F89A0" d="M320.675 150.484h-2.22l-.27.137c.068.627.593 1.117 1.238 1.117.692 0 1.252-.561 1.252-1.254M317.438 150.986c-.5.24-1.003.471-1.51.692.116.035.236.06.363.06.514 0 .953-.31 1.147-.752M319.423 161.765c-.692 0-1.253.561-1.253 1.253h2.505c0-.692-.56-1.253-1.252-1.253M316.29 161.765c-.69 0-1.251.561-1.251 1.253h2.504c0-.692-.56-1.253-1.252-1.253M319.736 159.885c0 .692.56 1.253 1.252 1.253v-2.507c-.692 0-1.252.561-1.252 1.254M317.856 161.139c.693 0 1.253-.562 1.253-1.254s-.56-1.253-1.253-1.253c-.69 0-1.251.56-1.251 1.253 0 .692.56 1.254 1.251 1.254M315.978 159.885c0-.693-.56-1.254-1.253-1.254v2.507c.693 0 1.253-.56 1.253-1.253M320.675 156.751h-2.505c0 .693.56 1.254 1.253 1.254.692 0 1.252-.561 1.252-1.254M317.544 156.751h-2.506c0 .693.561 1.254 1.253 1.254.692 0 1.253-.561 1.253-1.254M319.423 168.032c-.692 0-1.253.562-1.253 1.254h2.505c0-.692-.56-1.254-1.252-1.254M316.29 168.032c-.69 0-1.251.562-1.251 1.254h2.504c0-.692-.56-1.254-1.252-1.254M319.736 166.152c0 .693.56 1.254 1.252 1.254v-2.507c-.692 0-1.252.56-1.252 1.253M317.856 167.406c.693 0 1.253-.562 1.253-1.254s-.56-1.253-1.253-1.253c-.69 0-1.251.56-1.251 1.253 0 .692.56 1.254 1.251 1.254M315.978 166.152c0-.692-.56-1.253-1.253-1.253v2.507c.693 0 1.253-.561 1.253-1.254M320.675 163.019h-2.505c0 .692.56 1.253 1.253 1.253.692 0 1.252-.56 1.252-1.253M317.544 163.019h-2.506c0 .692.561 1.253 1.253 1.253.692 0 1.253-.56 1.253-1.253" mask="url(#prefix__e)"/>
                <path fill="#5F89A0" d="M318.17 169.286c0 .32.124.61.322.831.67-.036 1.325-.076 1.962-.12.14-.203.221-.447.221-.711h-2.505zM317.544 169.286h-2.506c0 .383.176.723.448.953.569-.015 1.128-.036 1.682-.059.232-.227.376-.544.376-.894M313.16 155.498c-.692 0-1.253.561-1.253 1.253h2.505c0-.692-.56-1.253-1.253-1.253M310.028 155.498c-.692 0-1.253.561-1.253 1.253h2.506c0-.692-.562-1.253-1.253-1.253M313.473 153.618c0 .692.56 1.253 1.252 1.253v-2.507c-.692 0-1.252.561-1.252 1.254M310.347 153.556c-.001.02-.006.04-.006.062 0 .692.56 1.253 1.253 1.253.692 0 1.253-.561 1.253-1.253 0-.255-.077-.492-.208-.69-.737.236-1.483.447-2.244.62l-.048.008M309.709 153.677c-.415.082-.83.163-1.247.226v.969c.672 0 1.215-.53 1.247-1.195M313.16 161.765c-.692 0-1.253.561-1.253 1.253h2.505c0-.692-.56-1.253-1.253-1.253M310.028 161.765c-.692 0-1.253.561-1.253 1.253h2.506c0-.692-.562-1.253-1.253-1.253M313.473 159.885c0 .692.56 1.253 1.252 1.253v-2.507c-.692 0-1.252.561-1.252 1.254M311.594 161.139c.692 0 1.252-.562 1.252-1.254s-.56-1.253-1.252-1.253-1.253.56-1.253 1.253c0 .692.56 1.254 1.253 1.254M309.714 159.885c0-.693-.56-1.254-1.251-1.254v2.507c.691 0 1.251-.56 1.251-1.253M314.412 156.751h-2.506c0 .693.562 1.254 1.254 1.254s1.252-.561 1.252-1.254M311.281 156.751h-2.506c0 .693.56 1.254 1.253 1.254.692 0 1.253-.561 1.253-1.254M313.16 168.032c-.692 0-1.253.562-1.253 1.254h2.505c0-.692-.56-1.254-1.253-1.254M310.028 168.032c-.692 0-1.253.562-1.253 1.254h2.506c0-.692-.562-1.254-1.253-1.254M313.473 166.152c0 .693.56 1.254 1.252 1.254v-2.507c-.692 0-1.252.56-1.252 1.253M311.594 167.406c.692 0 1.252-.562 1.252-1.254s-.56-1.253-1.252-1.253-1.253.56-1.253 1.253c0 .692.56 1.254 1.253 1.254M309.714 166.152c0-.692-.56-1.253-1.251-1.253v2.507c.691 0 1.251-.561 1.251-1.254M314.412 163.019h-2.506c0 .692.562 1.253 1.254 1.253s1.252-.56 1.252-1.253M311.281 163.019h-2.506c0 .692.56 1.253 1.253 1.253.692 0 1.253-.56 1.253-1.253M314.412 169.286h-2.506c0 .405.196.76.494.99.513.002 1.022-.001 1.529-.008.292-.23.483-.582.483-.982M311.281 169.286h-2.506c0 .371.164.702.421.93.537.02 1.074.036 1.61.045.287-.23.475-.579.475-.975M306.896 155.498c-.692 0-1.252.561-1.252 1.253h2.504c0-.692-.56-1.253-1.252-1.253M303.764 155.498c-.69 0-1.251.561-1.251 1.253h2.504c0-.692-.56-1.253-1.253-1.253" mask="url(#prefix__e)"/>
                <path fill="#5F89A0" d="M307.29 154.048c.176.48.632.824 1.172.824v-.969c-.39.058-.78.103-1.172.145M305.33 154.871c.51 0 .947-.306 1.143-.743-.739.062-1.479.097-2.222.116.217.373.617.627 1.08.627M303.266 154.266c-.355 0-.712-.009-1.067-.015v.62c.453 0 .847-.244 1.067-.605M306.896 161.765c-.692 0-1.252.561-1.252 1.253h2.504c0-.692-.56-1.253-1.252-1.253M303.764 161.765c-.69 0-1.251.561-1.251 1.253h2.504c0-.692-.56-1.253-1.253-1.253M307.21 159.885c0 .692.56 1.253 1.252 1.253v-2.507c-.692 0-1.253.561-1.253 1.254M305.33 161.139c.692 0 1.253-.562 1.253-1.254s-.56-1.253-1.253-1.253c-.691 0-1.252.56-1.252 1.253 0 .692.56 1.254 1.252 1.254M303.452 159.885c0-.693-.56-1.254-1.253-1.254v2.507c.692 0 1.253-.56 1.253-1.253M308.149 156.751h-2.506c0 .693.561 1.254 1.253 1.254.692 0 1.253-.561 1.253-1.254M305.017 156.751h-2.505c0 .693.56 1.254 1.253 1.254.692 0 1.252-.561 1.252-1.254M306.896 168.032c-.692 0-1.252.562-1.252 1.254h2.504c0-.692-.56-1.254-1.252-1.254M303.764 168.032c-.69 0-1.251.562-1.251 1.254h2.504c0-.692-.56-1.254-1.253-1.254M307.21 166.152c0 .693.56 1.254 1.252 1.254v-2.507c-.692 0-1.253.56-1.253 1.253M305.33 167.406c.692 0 1.253-.562 1.253-1.254s-.56-1.253-1.253-1.253c-.691 0-1.252.56-1.252 1.253 0 .692.56 1.254 1.252 1.254M303.452 166.152c0-.692-.56-1.253-1.253-1.253v2.507c.692 0 1.253-.561 1.253-1.254M308.149 163.019h-2.506c0 .692.561 1.253 1.253 1.253.692 0 1.253-.56 1.253-1.253M305.017 163.019h-2.505c0 .692.56 1.253 1.253 1.253.692 0 1.252-.56 1.252-1.253" mask="url(#prefix__e)"/>
                <path fill="#5F89A0" d="M305.644 169.286c0 .282.096.54.254.749.63.048 1.264.087 1.898.12.217-.225.353-.531.353-.87h-2.505zM302.512 169.286c0 .145.03.283.075.413.738.095 1.486.177 2.24.246.118-.193.19-.417.19-.66h-2.505zM300.633 155.498c-.692 0-1.253.561-1.253 1.253h2.506c0-.692-.56-1.253-1.253-1.253M297.502 155.498c-.692 0-1.253.561-1.253 1.253h2.505c0-.692-.561-1.253-1.252-1.253M301.11 154.227c.215.383.619.645 1.089.645v-.62c-.363-.007-.725-.013-1.088-.025M300.176 154.19c-.759-.035-1.518-.077-2.276-.126.18.471.633.807 1.167.807.486 0 .902-.279 1.11-.682M297.12 154.01l-1.051-.07-.133-.01v.942c.553 0 1.017-.363 1.183-.861M300.633 161.765c-.692 0-1.253.561-1.253 1.253h2.506c0-.692-.56-1.253-1.253-1.253M297.502 161.765c-.692 0-1.253.561-1.253 1.253h2.505c0-.692-.561-1.253-1.252-1.253M300.946 159.885c0 .692.561 1.253 1.252 1.253v-2.507c-.691 0-1.252.561-1.252 1.254M300.32 159.885c0-.693-.56-1.254-1.252-1.254-.693 0-1.254.561-1.254 1.254 0 .692.56 1.253 1.254 1.253.692 0 1.252-.56 1.252-1.253M297.188 159.885c0-.693-.56-1.254-1.252-1.254v2.507c.692 0 1.252-.56 1.252-1.253M301.886 156.751h-2.506c0 .693.56 1.254 1.253 1.254.693 0 1.253-.561 1.253-1.254M298.754 156.751h-2.505c0 .693.56 1.254 1.253 1.254.691 0 1.252-.561 1.252-1.254M300.633 168.032c-.66 0-1.194.512-1.244 1.16l.5.094h1.997c0-.692-.56-1.254-1.253-1.254M297.502 168.032c-.406 0-.762.196-.991.495.718.196 1.458.374 2.22.533-.106-.584-.615-1.028-1.23-1.028M300.946 166.152c0 .693.561 1.254 1.252 1.254v-2.507c-.691 0-1.252.56-1.252 1.253M300.32 166.152c0-.692-.56-1.253-1.252-1.253-.693 0-1.254.56-1.254 1.253 0 .693.56 1.254 1.254 1.254.692 0 1.252-.561 1.252-1.254M297.188 166.152c0-.692-.56-1.253-1.252-1.253v2.507c.692 0 1.252-.561 1.252-1.254M301.886 163.019h-2.506c0 .692.56 1.253 1.253 1.253.693 0 1.253-.56 1.253-1.253M297.502 164.272c.691 0 1.252-.56 1.252-1.253h-2.505c0 .692.56 1.253 1.253 1.253M299.888 169.286c.64.116 1.293.22 1.954.312.026-.1.044-.203.044-.312h-1.998zM295.7 153.915l.008.933c.074.014.15.023.228.023v-.94l-.235-.016M295.936 158.631c-.069 0-.134.01-.2.02l.02 2.47c.059.008.118.017.18.017v-2.507zM295.936 164.899c-.052 0-.102.009-.151.015l.018 2.479c.045.004.087.013.133.013v-2.507z" mask="url(#prefix__e)"/>
                <path fill="#FFC8C2" d="M337.024 125.568l-16.086 21.756-53.686-11.014-3.46 8.23s16.93 12.29 57.936 18.895c4.048.652 8.182-.459 11.378-3.03 9.272-7.456 28.382-24.353 34.326-41.218 0 0-13.59 8.606-30.408 6.381" mask="url(#prefix__e)"/>
                <path fill="#EFE5B9" d="M368.283 109.551c17.908 4.39 32.595 29.04 37.479 45.158 5.562 18.36 7.177 38.214 6.834 57.317-.032 1.763-1.014 30.323-2.386 30.323h-98.254v-11.751c4.737.657 12.117.402 20.32-.533 23.01-2.622 41.258-20.21 44.324-43.18.729-5.456.729-9.167.729-9.167 1.565-50.138-12.199-52.627-12.199-52.627l2.302-5.903 2.089-1.276-1.238-8.36z" mask="url(#prefix__e)"/>
                <path fill="#FFD15C" d="M323.989 309.113L373.498 309.113 373.498 308.351 323.989 308.351zM63.946 325.992L63.685 325.277 184.086 281.426 184.346 282.141z" mask="url(#prefix__e)"/>
                <path fill="#656EDA" d="M192.425 325.992L133.586 304.563 133.845 303.847 192.685 325.277zM122.191 300.412L72.024 282.141 72.284 281.426 122.451 299.698z" mask="url(#prefix__e)"/>
                <path fill="#FFC74A" d="M0 164.036L266.186 164.036 266.186 157.769 0 157.769z" mask="url(#prefix__e)"/>
                <path fill="#FFF" d="M93.611 167.167l-.289.783-35.49 192.538c-.163.916-1.04 1.528-1.956 1.37-.908-.164-1.519-1.017-1.386-1.926L83.692 167.95l.235-.783h9.684z" mask="url(#prefix__e)"/>
                <path fill="#969696" d="M84.21 167.547l-.154.513-29.19 191.929c-.104.71.37 1.368 1.077 1.495.707.12 1.389-.356 1.516-1.063l35.49-192.54.12-.334H84.21zM56.162 362.264c-.116 0-.233-.01-.35-.03-1.118-.202-1.862-1.237-1.698-2.357l29.202-191.984.328-1.107h10.514l-.48 1.296-35.47 192.475c-.18.999-1.06 1.707-2.046 1.707z" mask="url(#prefix__e)"/>
                <path fill="#FFF" d="M200.689 361.86c-.916.156-1.793-.456-1.965-1.372l-35.49-192.538-.288-.783h9.684l.235.783 29.202 191.982c.14.909-.47 1.762-1.378 1.927" mask="url(#prefix__e)"/>
                <path fill="#969696" d="M163.491 167.547l.1.27 35.506 192.602c.134.707.819 1.186 1.525 1.065.71-.129 1.18-.784 1.069-1.494l-29.202-191.983-.14-.46h-8.858zm36.914 194.717c-.984 0-1.867-.707-2.054-1.706L162.86 168.02l-.462-1.233h10.514l.316 1.055 29.213 192.034c.174 1.12-.566 2.156-1.686 2.359h-.003c-.117.02-.233.03-.348.03z" mask="url(#prefix__e)"/>
                <path fill="#5496BA" d="M0.001 167.951L266.186 167.951 266.186 166.384 0.001 166.384z" mask="url(#prefix__e)"/>
                <path fill="#FF9D5A" d="M119.86 212.11c-1.314-.065-2.557-.398-3.717-.943-4.62-2.112-8.023-7.368-10.32-11.52-3.297-5.947-4.864-12.837-4.563-19.629.21-4.687 1.429-8.977 3.223-13.284.35-.853 3.183-9.099 4.222-9.099h9.077c-2.492 0-3.913 15.12-3.994 17.264-.244 5.818-1.178 12.204 1.794 17.526 1.445 2.591 4.62 4.728 7.259 6.986 1.989 1.723 3.678 3.502 4.084 5.614.844 4.404-3.07 7.289-7.064 7.085" mask="url(#prefix__e)"/>
                <path fill="#FFC196" d="M119.86 212.11c-1.314-.065-2.557-.398-3.717-.943.194-1.925.958-5.54 3.961-7.555 1.608-1.081 2.388-2.665 2.737-4.2 1.989 1.722 3.678 3.5 4.084 5.613.844 4.404-3.07 7.289-7.064 7.085" mask="url(#prefix__e)"/>
                <path fill="#FF9D5A" d="M62.51 184.183c-.261 3.242.21 3.015 3.295 7.735 3.086 4.711-1.144 9.18-4.31 7.88-.683-.276-1.332-.91-1.95-1.771-2.256-3.143-4.035-9.4-4.92-12.918-1.12-4.468-5.01-27.062-5.01-27.062h-21.45c-5.432-.066-9.273-6.167-7.413-12.074 1.153-3.68 2.037-4.346 2.037-4.346l-1.144-10.903 6.885 5.776c8.225-2.981 14.136.366 14.136.366 3.158-4.29 8.704-5.379 8.704-5.379l-.78 9.725c5.935-1.592 11.813-2.925 17.188-6.02 2.16-1.243 4.182-2.714 6.236-4.151 0 0 .032-.033.122-.09 2.508-1.747 5.058-3.428 7.94-4.533 3.605-1.39 7.527-1.764 11.384-1.853 3.434-.081 6.966.074 10.14 1.381 3.687 1.52 6.626 4.51 8.704 7.922.196.316.39.65.577.983 2.038 3.575 3.662 7.8 4.027 11.845.382 4.185.593 7.174.22 11.35H65.156s-2.388 22.895-2.647 26.137" mask="url(#prefix__e)"/>
                <path fill="#FFEDE0" d="M28.98 147.676c-.089 0-.178-.004-.266-.011-1.606-.122-2.604-1.313-2.645-1.364-.092-.112-.076-.276.035-.369.111-.091.276-.077.37.035.007.01.905 1.073 2.285 1.175.966.067 1.946-.333 2.917-1.203.107-.096.274-.088.37.02.098.108.088.274-.02.371-.998.894-2.022 1.346-3.047 1.346M39.846 147.676c-.09 0-.177-.004-.266-.011-1.607-.122-2.604-1.313-2.646-1.364-.092-.112-.076-.276.036-.369.111-.091.276-.077.369.035.008.01.905 1.073 2.286 1.175.966.067 1.946-.333 2.918-1.203.108-.096.273-.088.37.02.097.108.088.274-.02.371-.999.894-2.023 1.346-3.047 1.346" mask="url(#prefix__e)"/>
                <path fill="#FFC196" d="M44.78 137.553s3.532-3.006 4.84-2.952c0 0-.53 4.087-.68 5.146 0 0-2.042-2.043-4.16-2.194M24.415 139.748s-.907-3.784-.605-4.465c0 0 2.256.68 3.36 1.89 0 0-2.377 1.44-2.755 2.575M61.494 202.798c-.682-.275-1.332-.91-1.948-1.77.031-.276.836-6.175 6.259-6.11 3.086 4.712-1.144 9.18-4.31 7.88" mask="url(#prefix__e)"/>
                <path fill="#7F5345" d="M344.707 63.138s-5.832-4.815-2.726-3.356c3.105 1.459 5.468 1.16 5.468 1.16l-2.742 2.196z" mask="url(#prefix__e)"/>
            </g>
            <g transform="translate(107.997 80.006) translate(304.987 91.995)">
                <mask id="prefix__h" fill="#fff">
                    <use xlink:href="#prefix__f"/>
                </mask>
                <path fill="url(#prefix__g)" d="M26.648 19.673c-6 6.666-5.9 8.408-7.203 13.17-1.168 4.269-2.19 8.276-6.995 13.127C7.944 50.523.656 52.86.656 52.86l15.295 3.137s15.623-21.319 15.372-21.319c-2.127 0-2.189-1.377-2.189-1.377s6.528-7.974 7.223-17.388C37.052 6.499 34.467.25 34.467.25s-2.12 13.094-7.819 19.423" mask="url(#prefix__h)"/>
            </g>
        </g>
    </g>
</svg>
