<svg xmlns="http://www.w3.org/2000/svg" xmlns:xlink="http://www.w3.org/1999/xlink" width="600" height="450" viewBox="0 0 600 450">
    <defs>
        <path id="prefix__a" d="M0 0.166L439.933 0.166 439.933 281.725 0 281.725z"/>
        <path id="prefix__c" d="M0 0.166L439.933 0.166 439.933 257.227 0 257.227z"/>
        <path id="prefix__e" d="M0 325.835L439.933 325.835 439.933 0.25 0 0.25z"/>
        <path id="prefix__g" d="M0 229.461L370.528 229.461 370.528 33.777 370.528 0.382 0 0.382z"/>
        <path id="prefix__i" d="M0 0.101L23.91 0.101 23.91 24.159 0 24.159z"/>
        <path id="prefix__k" d="M0 69.889L23.91 69.889 23.91 0 0 0z"/>
        <path id="prefix__m" d="M0 0.169L59.783 0.169 59.783 20.358 0 20.358z"/>
        <path id="prefix__o" d="M0 0L59.785 0 59.785 69.784 0 69.784z"/>
        <path id="prefix__q" d="M0.975 0.596L15.39 0.596 15.39 20.673 0.975 20.673z"/>
        <path id="prefix__s" d="M0.908 0.19L27.833 0.19 27.833 90.686 0.908 90.686z"/>
        <path id="prefix__u" d="M2.911 2.036C3.932 7.069 2.376 11.373.905 17.19c7.091 2.309 18.474 0 18.474 0L13.299.928 2.911 2.036z"/>
    </defs>
    <g fill="none" fill-rule="evenodd">
        <g transform="translate(80 62)">
            <path fill="#8E8E8E" d="M286.252 315.363H153.683c5.107-9.085 8.467-18.183 10.067-27.28.452-2.45.758-4.899.929-7.348h110.578c.195 2.486.488 4.935.88 7.347 1.587 9.771 4.837 18.918 10.115 27.28"/>
            <path fill="#666" d="M276.136 288.082H163.751c.451-2.449.757-4.898.928-7.347h110.578c.195 2.486.488 4.935.88 7.347"/>
            <path fill="#A3A3A3" d="M298.85 325.835H141.084c0-6.35 5.137-11.5 11.474-11.5h134.818c6.337 0 11.474 5.15 11.474 11.5"/>
            <g transform="translate(0 .085)">
                <mask id="prefix__b" fill="#fff">
                    <use xlink:href="#prefix__a"/>
                </mask>
                <path fill="#C4C4C4" d="M423.367 281.725h-406.8C7.416 281.725 0 274.292 0 265.122V16.769C0 7.599 7.417.165 16.566.165h406.801c9.15 0 16.566 7.434 16.566 16.604v248.353c0 9.17-7.416 16.603-16.566 16.603" mask="url(#prefix__b)"/>
            </g>
            <g transform="translate(0 .085)">
                <mask id="prefix__d" fill="#fff">
                    <use xlink:href="#prefix__c"/>
                </mask>
                <path fill="#464646" d="M439.933 257.227H0V5.167C0 2.406 2.235.166 4.991.166h429.951c2.757 0 4.991 2.24 4.991 5.003v252.06z" mask="url(#prefix__d)"/>
            </g>
            <mask id="prefix__f" fill="#fff">
                <use xlink:href="#prefix__e"/>
            </mask>
            <path fill="#FFF" d="M6.316 251.08L433.618 251.08 433.618 6.482 6.316 6.482zM254.915 314.96h-97.738c-.343 0-.621-.28-.621-.624s.278-.622.621-.622h97.738c.343 0 .621.278.621.622 0 .345-.278.623-.621.623" mask="url(#prefix__f)"/>
            <path fill="#FFCDC7" d="M96.47 227.88v.002c.003.001.005.003.006.005l-.006-.007M103.968 246.05l-.065-.119.065.12M104.12 246.323l-.019-.034.02.034M91.242 246.594c-.117.277-.198.46-.228.528l.22-.51.004-.009.004-.01z" mask="url(#prefix__f)"/>
        </g>
        <g>
            <path fill="#FFF" d="M0.269 229.348L370.259 229.348 370.259 0.808 0.269 0.808z" transform="translate(111 75)"/>
            <path fill="#FFD1B1" d="M0 229.618h370.528V.538H0v229.08zm.538-.54H369.99v-228H.538v228z" transform="translate(111 75)"/>
            <g transform="translate(111 75) translate(0 .156)">
                <path fill="#FF6E40" d="M7.547 13.269l2.507 2.669c.115.122.32.134.443.011.117-.114.125-.324.012-.443l-2.012-2.139h8.05c.173 0 .313-.14.313-.314 0-.173-.14-.314-.313-.314h-8.05l2.012-2.139c.113-.12.11-.334-.012-.444-.137-.123-.326-.109-.443.013l-2.507 2.668c-.044.047-.089.143-.089.216.002.074.015.143.09.216zM28.939 12.837l-2.507-2.668c-.117-.122-.306-.136-.443-.013-.122.11-.125.325-.012.444l2.012 2.14h-8.05c-.173 0-.313.14-.313.313 0 .174.14.314.313.314h8.05l-2.012 2.139c-.113.12-.105.329.012.443.124.123.327.111.443-.011l2.507-2.67c.074-.072.087-.141.088-.215 0-.073-.044-.169-.088-.216z"/>
                <path fill="#FFD1B3" d="M342.607 17.827H44.715c-2.75 0-4.978-2.233-4.978-4.986 0-2.754 2.228-4.986 4.978-4.986h297.892c2.748 0 4.977 2.232 4.977 4.986 0 2.753-2.229 4.986-4.977 4.986"/>
                <mask id="prefix__h" fill="#fff">
                    <use xlink:href="#prefix__g"/>
                </mask>
                <path fill="#FF6F48" d="M7.735 40.819L15.478 40.819 15.478 33.063 7.735 33.063z" mask="url(#prefix__h)"/>
                <path fill="#FFF" d="M11.409 39.123l-2.226-2.016c-.11-.1-.118-.27-.019-.38.1-.111.27-.119.38-.02l1.788 1.62 2.295-3.06c.089-.118.258-.143.377-.053.118.089.142.258.053.377l-2.648 3.532z" mask="url(#prefix__h)"/>
                <path fill="#FFD1B5" d="M20.179 38.881L59.445 38.881 59.445 35.003 20.179 35.003z" mask="url(#prefix__h)"/>
                <path fill="#FF6F48" d="M7.735 56.009L15.478 56.009 15.478 48.253 7.735 48.253z" mask="url(#prefix__h)"/>
                <path fill="#FFF" d="M11.409 54.312l-2.226-2.015c-.11-.1-.118-.27-.019-.38.1-.111.27-.12.38-.02l1.788 1.62 2.295-3.06c.09-.117.258-.143.377-.053.118.09.142.258.053.378l-2.648 3.53z" mask="url(#prefix__h)"/>
                <path fill="#FFD1B5" d="M20.179 53.849L59.445 53.849 59.445 49.97 20.179 49.97z" mask="url(#prefix__h)"/>
                <path fill="#FF6F48" d="M7.735 71.199L15.478 71.199 15.478 63.443 7.735 63.443z" mask="url(#prefix__h)"/>
                <path fill="#FFF" d="M11.409 69.502l-2.226-2.015c-.11-.1-.118-.27-.019-.38.1-.111.27-.12.38-.02l1.788 1.62 2.295-3.06c.09-.118.258-.143.377-.053.118.09.142.258.053.377l-2.648 3.531z" mask="url(#prefix__h)"/>
                <path fill="#FFD1B5" d="M20.179 68.817L59.445 68.817 59.445 64.939 20.179 64.939z" mask="url(#prefix__h)"/>
                <path fill="#FF6F48" d="M7.735 86.389L15.478 86.389 15.478 78.633 7.735 78.633z" mask="url(#prefix__h)"/>
                <path fill="#FFF" d="M11.409 84.692l-2.226-2.015c-.11-.1-.118-.27-.019-.38.1-.111.27-.119.38-.02l1.788 1.62 2.295-3.06c.09-.118.258-.143.377-.053.118.09.142.258.053.377l-2.648 3.53z" mask="url(#prefix__h)"/>
                <path fill="#FFD1B5" d="M20.179 84.339L59.445 84.339 59.445 80.461 20.179 80.461z" mask="url(#prefix__h)"/>
                <path fill="#FF6F48" d="M7.735 101.579L15.478 101.579 15.478 93.822 7.735 93.822z" mask="url(#prefix__h)"/>
                <path fill="#FFF" d="M11.409 99.882l-2.226-2.015c-.11-.1-.118-.27-.019-.38.1-.111.27-.12.38-.02l1.788 1.62 2.295-3.06c.09-.118.258-.143.377-.053.118.09.142.258.053.377l-2.648 3.53z" mask="url(#prefix__h)"/>
                <path fill="#FFD1B5" d="M20.179 99.861L59.445 99.861 59.445 95.983 20.179 95.983z" mask="url(#prefix__h)"/>
                <path fill="#FF6F48" d="M7.735 116.769L15.478 116.769 15.478 109.012 7.735 109.012z" mask="url(#prefix__h)"/>
                <path fill="#FFF" d="M11.409 115.072l-2.226-2.016c-.11-.1-.118-.27-.019-.38.1-.11.27-.118.38-.02l1.788 1.62 2.295-3.059c.09-.118.258-.144.377-.053.118.09.142.258.053.377l-2.648 3.53z" mask="url(#prefix__h)"/>
                <path fill="#FFD1B5" d="M20.179 114.83L59.445 114.83 59.445 110.952 20.179 110.952z" mask="url(#prefix__h)"/>
                <path fill="#FF6E40" d="M8.004 131.69h7.205v-7.219H8.004v7.218zm-.538.538h8.28v-8.295h-8.28v8.295z" mask="url(#prefix__h)"/>
                <path fill="#FFD1B5" d="M20.179 130.019L59.445 130.019 59.445 126.141 20.179 126.141z" mask="url(#prefix__h)"/>
                <path fill="#FF6E40" d="M8.004 146.88h7.205v-7.218H8.004v7.218zm-.538.538h8.28v-8.295h-8.28v8.295z" mask="url(#prefix__h)"/>
                <path fill="#FFD1B5" d="M20.179 145.209L59.445 145.209 59.445 141.331 20.179 141.331z" mask="url(#prefix__h)"/>
                <path fill="#FF6E40" d="M8.004 162.07h7.205v-7.219H8.004v7.218zm-.538.538h8.28v-8.295h-8.28v8.295z" mask="url(#prefix__h)"/>
                <path fill="#FFD1B5" d="M20.179 160.399L59.445 160.399 59.445 156.521 20.179 156.521z" mask="url(#prefix__h)"/>
                <path fill="#FF6E40" d="M8.004 177.259h7.205v-7.218H8.004v7.218zm-.538.539h8.28v-8.296h-8.28v8.296z" mask="url(#prefix__h)"/>
                <path fill="#FFD1B5" d="M20.179 175.589L59.445 175.589 59.445 171.711 20.179 171.711z" mask="url(#prefix__h)"/>
                <path fill="#FF6E40" d="M8.004 192.449h7.205v-7.218H8.004v7.218zm-.538.538h8.28v-8.295h-8.28v8.295z" mask="url(#prefix__h)"/>
                <path fill="#FFD1B5" d="M20.179 190.779L59.445 190.779 59.445 186.901 20.179 186.901z" mask="url(#prefix__h)"/>
                <path fill="#FF6E40" d="M8.004 207.638h7.205v-7.218H8.004v7.218zm-.538.539h8.28v-8.295h-8.28v8.295z" mask="url(#prefix__h)"/>
                <path fill="#FFD1B5" d="M20.179 205.969L59.445 205.969 59.445 202.091 20.179 202.091z" mask="url(#prefix__h)"/>
                <path fill="#FF6E40" d="M8.004 222.829h7.205v-7.218H8.004v7.218zm-.538.538h8.28v-8.294h-8.28v8.294z" mask="url(#prefix__h)"/>
                <path fill="#FFD1B5" d="M20.179 221.159L59.445 221.159 59.445 217.281 20.179 217.281zM89.31 39.988L128.576 39.988 128.576 36.11 89.31 36.11zM133.001 39.988L172.267 39.988 172.267 36.11 133.001 36.11zM176.692 39.988L215.958 39.988 215.958 36.11 176.692 36.11zM7.458 22.529L362.516 22.529 362.516 21.99 7.458 21.99z" mask="url(#prefix__h)"/>
                <path fill="#FFD1B1" d="M77.972 131.682L216.235 131.682 216.235 46.36 77.972 46.36z" mask="url(#prefix__h)"/>
                <path fill="#FFD1B1" d="M78.241 131.412h137.725V46.63H78.241v84.782zm-.537.54h138.8V46.09h-138.8v85.86z" mask="url(#prefix__h)"/>
                <path fill="#FFF" d="M203.79 64.082h-44.52c-.148 0-.268-.121-.268-.27 0-.148.12-.27.268-.27h44.52c.15 0 .27.122.27.27 0 .149-.12.27-.27.27M178.42 80.149h-19.15c-.148 0-.268-.12-.268-.27 0-.148.12-.269.269-.269h19.148c.148 0 .269.12.269.27 0 .148-.12.269-.269.269M203.79 90.86h-44.52c-.148 0-.268-.12-.268-.27 0-.148.12-.269.268-.269h44.52c.15 0 .27.121.27.27 0 .148-.12.269-.27.269M183.206 101.571H159.27c-.148 0-.269-.12-.269-.269 0-.149.12-.27.27-.27h23.935c.149 0 .269.121.269.27 0 .149-.12.27-.269.27M203.79 112.283h-44.52c-.148 0-.268-.121-.268-.27 0-.148.12-.269.268-.269h44.52c.15 0 .27.12.27.27 0 .148-.12.269-.27.269M223.977 131.682L362.24 131.682 362.24 46.36 223.977 46.36z" mask="url(#prefix__h)"/>
                <path fill="#FFD1B1" d="M224.246 131.412H361.97V46.63H224.246v84.782zm-.538.54h138.8V46.09h-138.8v85.86z" mask="url(#prefix__h)"/>
                <path fill="#FFD1B5" d="M326.844 64.082h-22.122c-.148 0-.268-.121-.268-.27 0-.148.12-.27.268-.27h22.122c.149 0 .27.122.27.27 0 .149-.121.27-.27.27M323.871 80.149h-19.148c-.15 0-.27-.12-.27-.27 0-.148.12-.269.27-.269h19.148c.149 0 .27.12.27.27 0 .148-.121.269-.27.269M326.844 90.86h-22.122c-.148 0-.268-.12-.268-.27 0-.148.12-.269.268-.269h22.122c.149 0 .27.121.27.27 0 .148-.121.269-.27.269M343.436 101.571h-38.713c-.149 0-.27-.12-.27-.269 0-.149.121-.27.27-.27h38.713c.148 0 .269.121.269.27 0 .149-.12.27-.27.27" mask="url(#prefix__h)"/>
                <path fill="#FFF" d="M77.972 223.098L216.235 223.098 216.235 137.776 77.972 137.776z" mask="url(#prefix__h)"/>
                <path fill="#FFD1B1" d="M78.241 222.829h137.725v-84.783H78.241v84.783zm-.537.538h138.8v-85.86h-138.8v85.86z" mask="url(#prefix__h)"/>
                <path fill="#FFD1B5" d="M349.243 112.283h-44.52c-.149 0-.27-.121-.27-.27 0-.148.121-.269.27-.269h44.52c.148 0 .269.12.269.27 0 .148-.12.269-.269.269M180.84 155.498h-22.122c-.149 0-.27-.121-.27-.27 0-.148.121-.27.27-.27h22.121c.149 0 .27.122.27.27 0 .149-.121.27-.27.27M177.866 171.565h-19.148c-.15 0-.27-.12-.27-.27 0-.148.12-.269.27-.269h19.148c.149 0 .269.12.269.27 0 .148-.12.269-.269.269M180.84 182.276h-22.122c-.149 0-.27-.12-.27-.27 0-.148.121-.269.27-.269h22.121c.149 0 .27.121.27.27 0 .148-.121.269-.27.269M197.431 192.987h-38.713c-.149 0-.27-.12-.27-.269 0-.149.121-.27.27-.27h38.713c.148 0 .269.121.269.27 0 .149-.12.27-.269.27M203.238 203.699h-44.52c-.149 0-.27-.121-.27-.27 0-.148.121-.269.27-.269h44.52c.148 0 .269.12.269.27 0 .148-.12.269-.27.269" mask="url(#prefix__h)"/>
                <path fill="#FFF" d="M223.977 223.098L362.24 223.098 362.24 137.776 223.977 137.776z" mask="url(#prefix__h)"/>
                <path fill="#FFD1B1" d="M224.246 222.829H361.97v-84.783H224.246v84.783zm-.538.538h138.8v-85.86h-138.8v85.86z" mask="url(#prefix__h)"/>
                <path fill="#FFD1B5" d="M349.796 155.498h-44.52c-.149 0-.27-.121-.27-.27 0-.148.121-.27.27-.27h44.52c.148 0 .269.122.269.27 0 .149-.12.27-.269.27M324.424 171.565h-19.148c-.15 0-.27-.12-.27-.27 0-.148.12-.269.27-.269h19.148c.149 0 .269.12.269.27 0 .148-.12.269-.269.269M349.796 182.276h-44.52c-.149 0-.27-.12-.27-.27 0-.148.121-.269.27-.269h44.52c.148 0 .269.121.269.27 0 .148-.12.269-.269.269M329.211 192.987h-23.936c-.148 0-.268-.12-.268-.269 0-.149.12-.27.268-.27h23.936c.149 0 .27.121.27.27 0 .149-.121.27-.27.27M349.796 203.699h-44.52c-.149 0-.27-.121-.27-.27 0-.148.121-.269.27-.269h44.52c.148 0 .269.12.269.27 0 .148-.12.269-.269.269" mask="url(#prefix__h)"/>
            </g>
        </g>
        <g transform="translate(216 131)">
            <g transform="translate(0 22.815)">
                <mask id="prefix__j" fill="#fff">
                    <use xlink:href="#prefix__i"/>
                </mask>
                <path fill="#FFF" d="M23.91 12.13c0 6.643-5.353 12.029-11.955 12.029C5.352 24.159 0 18.773 0 12.129 0 5.487 5.352.102 11.955.102 18.557.1 23.91 5.486 23.91 12.13" mask="url(#prefix__j)"/>
            </g>
            <mask id="prefix__l" fill="#fff">
                <use xlink:href="#prefix__k"/>
            </mask>
            <path fill="#FFF" d="M6.358 69.889L17.553 69.889 17.553 0 6.358 0z" mask="url(#prefix__l)"/>
            <path fill="#FF7763" d="M11.955 40.714c-.367 0-.664-.299-.664-.668v-5.102c0-.177.07-.347.194-.472l5.795-5.83c.26-.26.68-.26.939 0 .259.261.259.684 0 .945l-5.6 5.634v4.825c0 .37-.297.668-.664.668" mask="url(#prefix__l)"/>
        </g>
        <g>
            <g transform="translate(197 234) translate(0 18.513)">
                <mask id="prefix__n" fill="#fff">
                    <use xlink:href="#prefix__m"/>
                </mask>
                <path fill="#FF7559" d="M25.274.17l25.452 7.886c5.385 1.67 9.057 6.656 9.057 12.303H10.5c-3.758 0-6.993-2.656-7.73-6.346L-.001.17h25.275z" mask="url(#prefix__n)"/>
            </g>
            <path fill="#FFF" d="M58.639 34.116H2.769c-.296 0-.535-.24-.535-.536 0-.297.239-.536.535-.536h55.87c.295 0 .535.24.535.536 0 .296-.24.536-.535.536M35.038 28.298c-.122 0-.244-.042-.345-.127-.225-.191-.254-.53-.062-.756l4.055-4.796c.19-.224.528-.253.754-.063.226.192.254.53.062.756l-4.055 4.796c-.106.125-.257.19-.409.19M29.157 26.315c-.122 0-.245-.042-.346-.127-.225-.19-.254-.53-.062-.755l4.055-4.798c.19-.224.527-.253.754-.063.226.192.254.53.062.756l-4.055 4.798c-.106.124-.257.19-.408.19" transform="translate(197 234)"/>
            <path fill="#FF7453" d="M34.233 16.952c1.418.565 5.163 1.8 7.912.347 3.393-1.787 5.408-4.92 4.4-6.839-.46-.875-1.51-1.407-2.957-1.499-1.599-.102-3.428.346-5.163 1.263-2.748 1.45-3.854 5.239-4.192 6.728m5.49 2.646c-3.371.213-6.6-1.333-6.777-1.42l-.54-.263.089-.594c.04-.259.996-6.345 5.17-8.547 1.995-1.05 4.135-1.566 6.026-1.446 2.037.127 3.564.97 4.3 2.371 1.47 2.796-.765 6.771-5.085 9.05-1.012.532-2.105.781-3.183.85" transform="translate(197 234)"/>
            <path fill="#FF7453" d="M33.345 17.529c-.45.028-.838-.314-.866-.765l-1-15.895c-.029-.45.314-.839.763-.867.45-.029.838.314.867.765l1 15.894c.028.45-.314.84-.764.868" transform="translate(197 234)"/>
            <path fill="#FF7559" d="M25.274 18.683l1.377-4.518c.891-2.925-.87-5.995-3.84-6.698l-3.087-.731-.735 11.947h6.285z" transform="translate(197 234)"/>
        </g>
        <g>
            <path fill="#FF7763" d="M10.373 0L0 33.714 44.951 33.714 34.578 0z" transform="translate(355 131)"/>
            <path fill="#FF765E" d="M20.967 69.868L23.984 69.868 23.984 33.714 20.967 33.714z" transform="translate(355 131)"/>
            <g>
                <path fill="#FF765E" d="M23.841 65.845c0-1.68-1.35-3.043-3.016-3.043H8.28c-1.666 0-3.016 1.362-3.016 3.043H23.84z" transform="translate(355 131) translate(7.923 4.024)"/>
                <path fill="#FFF" d="M18.468 1.611H.93C.55 1.611.24 1.3.24.913.24.527.55.215.932.215h17.536c.383 0 .693.312.693.698 0 .386-.31.698-.693.698" transform="translate(355 131) translate(7.923 4.024)"/>
            </g>
        </g>
        <g transform="translate(348 221)">
            <mask id="prefix__p" fill="#fff">
                <use xlink:href="#prefix__o"/>
            </mask>
            <path fill="#FF765E" d="M21.844 23.14l-3.449-12.825V1.437L21.625 0l.22 7.423c2.581 1.148 4.468 2.239 5.762 3.091 1.385.912 3.185.912 4.57 0 1.295-.852 3.18-1.943 5.763-3.091L37.985 0l3.404 1.437v8.98L37.94 23.14v2.219l21.845 36.975s-5.617 7.45-29.893 7.45S0 62.334 0 62.334l21.844-36.975V23.14z" mask="url(#prefix__p)"/>
        </g>
        <g>
            <g>
                <path fill="#F4BAB5" d="M81.531 100.845v52.798s3.03 5.47 1.71 9.06c-1.32 3.59-5.278 5.642-5.278 5.642h-2.639s-1.154-11.283 0-15.044c1.154-3.762-.659-8.206-.659-8.206L72.686 102.9s5.925-.44 8.845-2.056" transform="translate(408 127) translate(0 .404)"/>
                <path fill="#FFCBC5" d="M42.688 287.822L42.688 295.717 33.749 295.717 36.211 291.769 36.211 287.822z" transform="translate(408 127) translate(0 .404)"/>
                <path fill="#6B6B6B" d="M45.063 304v-8.283s-.346-3.107-3.023-3.193c-2.678-.086-4.663 3.193-4.663 3.193h-3.628l1.19-1.91s-3.954 3.03-7.407 4.454c0 0-4.837 1.08-5.614 3.668V304h23.145z" transform="translate(408 127) translate(0 .404)"/>
                <path fill="#FFCBC5" d="M75.898 288.274L76.502 294.961 70.716 294.961 70.112 288.274z" transform="translate(408 127) translate(0 .404)"/>
                <path fill="#6B6B6B" d="M69.249 303.934h13.127v-4.831l-5.873-5.005s0-2.2-3.627-1.876c-3.627.323-2.764 2.394-2.764 2.394l-.863 9.318z" transform="translate(408 127) translate(0 .404)"/>
                <path fill="#6B75BE" d="M79.227 288.705l-11.875-.044c-7.159-42.314-12.48-81.304-13.312-112.162l-9.399 111.849-10.11.313c-4.598-59.6-8.818-117.631-6.889-150.182 0 0 16.81 5.28 49.01 2.274l2.575 147.952z" transform="translate(408 127) translate(0 .404)"/>
                <path fill="#4C65AC" d="M76.652 140.753l2.575 147.952-11.875-.044c-7.159-42.314-12.48-81.304-13.312-112.162 0 0-.699-5.47 1.231-38.02 0 0-10.819 5.28 21.381 2.274" transform="translate(408 127) translate(0 .404)"/>
                <path fill="#FFB7B0" d="M13.371 52.438l-2.676-32.087-4 .322S2.475 43.537 0 57.379l.31 4.24 3.46 2.794s-.386-3.217 9.601-11.974" transform="translate(408 127) translate(0 .404)"/>
                <g transform="translate(408 127) translate(0 .404) translate(3)">
                    <mask id="prefix__r" fill="#fff">
                        <use xlink:href="#prefix__q"/>
                    </mask>
                    <path fill="#FFB7B0" d="M3.695 20.673S2.276 10.56 2.301 9.986c.014-.323-.6-2.176-1.14-3.737-.488-1.406.01-2.982 1.212-3.784 2.068-1.38 5.215-2.91 6.88-.905l1.654 8.625s.425 2.078 1.682 1.548c1.256-.531 1.393-4.26 1.393-4.26s.928-.361 1.345.678c.417 1.04-1.367 5.545-1.367 5.545L7.695 20.35l-4 .322z" mask="url(#prefix__r)"/>
                </g>
                <path fill="#E77267" d="M28.81 76.362l-2.784 66.175s25.634 5.476 51.15 0l-3.388-39.785s4.672.644 13.044-4.028L84.77 73.67c-.776-4.655-3.088-9.873-7.267-12.393L63.38 54.19s-9.445 2.17-18.7 0l-17.8 1.471-13.284-3.223S4.752 54.062 3.77 64.413l25.042 11.95z" transform="translate(408 127) translate(0 .404)"/>
                <g transform="translate(408 127) translate(0 .404) translate(59 54)">
                    <mask id="prefix__t" fill="#fff">
                        <use xlink:href="#prefix__s"/>
                    </mask>
                    <path fill="#FF7763" d="M2.397 90.686s12.126-.952 15.78-2.149l-3.388-39.786s4.67.646 13.045-4.026l-2.066-25.056c-.776-4.654-3.087-9.873-7.265-12.392L4.378.19s.357.2-3.47.558c0 0 .181 17.753 1.95 41.974 1.767 24.221-.462 47.965-.462 47.965" mask="url(#prefix__t)"/>
                </g>
            </g>
            <g transform="translate(408 127) translate(44 37.404)">
                <mask id="prefix__v" fill="#fff">
                    <use xlink:href="#prefix__u"/>
                </mask>
                <path fill="#FFB7AF" d="M2.911 2.036C3.932 7.069 2.376 11.373.905 17.19c7.091 2.309 18.474 0 18.474 0L13.299.928 2.911 2.036z" mask="url(#prefix__v)"/>
            </g>
            <g>
                <path fill="#464646" d="M20.044 33.642s-2.335 1.57-5.748 1.108c-3.414-.462-5.748-1.57-5.748-1.57s-.044-3.788-.397-4.804c-.352-1.016 2.027-6.467 0-7.483 0 0-2.554-.739-2.995 1.755 0 0-1.145-7.298-.881-9.608.264-2.31.969-8.407 5.55-10.347 4.58-1.94 10.307-3.695 14.71 0 4.406 3.696 5.375 8.592 5.375 8.592s2.73 6.93-.705 12.102c-3.435 5.173-9.161 10.255-9.161 10.255" transform="translate(408 127) translate(39 9.404)"/>
                <path fill="#5B5B5B" d="M20.321 33.642s-2.335 1.57-5.748 1.108c-3.414-.462-5.748-1.57-5.748-1.57s1.225-1.256 2.086-2.622c.86-1.367 5.454-1.486 7.954-2.833 2.5-1.346 6.792-4.407 8.72-7.143 2.124-3.016 1.48-11.785 1.48-11.785s3.853 9.417.417 14.59c-3.435 5.173-9.16 10.255-9.16 10.255" transform="translate(408 127) translate(39 9.404)"/>
                <path fill="#FFB7B0" d="M8.548 34.835s-6.123-.547-7.532-3.503c-1.41-2.956 0-10.717 0-10.717s1.233-4.434 1.145-5.543c-.09-1.108 1.409-7.737 4.536-9.78 0 0-3.515 5.377-1.541 17.356 0 0 .793-2.957 2.996-1.755 0 0 1.278.573.637 3.682l-.64 3.11s.97 6.403.399 7.15" transform="translate(408 127) translate(39 9.404)"/>
                <path fill="#DCE5EA" d="M34.787 94.201h.02c.248-.012.44-.222.43-.469l-1.1-25.472c-.012-.248-.222-.445-.47-.429-.248.011-.44.221-.429.468l1.101 25.472c.011.241.21.43.448.43" transform="translate(408 127) translate(39 9.404)"/>
                <path fill="#EFE1D8" d="M15.041 167.947c.246 0 .446-.198.448-.445l.101-15.515 3.972-4.628c.161-.187.139-.47-.05-.633-.188-.159-.471-.138-.633.05l-4.185 4.876-.102 15.844c-.002.247.198.45.446.451h.003z" transform="translate(408 127) translate(39 9.404)"/>
            </g>
        </g>
    </g>
</svg>
