<svg xmlns="http://www.w3.org/2000/svg" xmlns:xlink="http://www.w3.org/1999/xlink" width="600" height="450" viewBox="0 0 600 450">
    <defs>
        <path id="prefix__a" d="M179.709.807H5.69C2.549.807 0 3.354 0 6.502v83.865h185.411V6.502c0-3.148-2.549-5.695-5.702-5.695"/>
        <path id="prefix__c" d="M0 0.289L79.713 0.289 79.713 93.633 0 93.633z"/>
        <linearGradient id="prefix__e" x1="50%" x2="50%" y1="34.332%" y2="100%">
            <stop offset="0%" stop-color="#4064AD"/>
            <stop offset="100%" stop-color="#0A488D"/>
        </linearGradient>
    </defs>
    <g fill="none" fill-rule="evenodd">
        <path fill="#8E8E8E" d="M78.728 419.156L305.396 419.156 305.396 0 78.728 0z" transform="translate(108 15)"/>
        <path fill="#C4C4C4" d="M88.975 419.156L315.641 419.156 315.641 0 88.975 0z" transform="translate(108 15)"/>
        <path fill="#FFF" d="M96.364 387.367L308.261 387.367 308.261 31.794 96.364 31.794zM212.125 18.622H184.43c-.316 0-.57-.255-.57-.569 0-.314.254-.569.57-.569h27.694c.316 0 .569.255.569.569 0 .314-.253.569-.57.569M221.633 16.118c-1.066 0-1.935.868-1.935 1.935 0 1.067.869 1.935 1.935 1.935 1.07 0 1.938-.868 1.938-1.935 0-1.067-.869-1.935-1.938-1.935zm0 5.008c-1.694 0-3.074-1.379-3.074-3.073s1.38-3.073 3.074-3.073c1.697 0 3.077 1.379 3.077 3.073s-1.38 3.073-3.077 3.073z" transform="translate(108 15)"/>
        <path fill="#FFE7D7" d="M294.138 144.301v-91.22h.357v-2.034c0-3.142-2.549-5.688-5.693-5.688h-174.02c-3.144 0-5.693 2.546-5.693 5.688v119.408c0 3.141 2.549 5.688 5.693 5.688h174.02c3.144 0 5.693-2.547 5.693-5.688V144.3h-.357" transform="translate(108 15)"/>
        <g transform="translate(108 15) translate(109.087 297)">
            <mask id="prefix__b" fill="#fff">
                <use xlink:href="#prefix__a"/>
            </mask>
            <use fill="#FFE7D7" xlink:href="#prefix__a"/>
            <g mask="url(#prefix__b)">
                <g>
                    <g transform="translate(50 10) translate(0 .079)">
                        <mask id="prefix__d" fill="#fff">
                            <use xlink:href="#prefix__c"/>
                        </mask>
                        <path fill="#E78FCE" d="M29.126 31.242l-4.6-17.155V2.21L28.835.288l.292 9.93c3.442 1.536 5.957 2.994 7.684 4.135 1.846 1.22 4.247 1.22 6.093 0 1.726-1.14 4.24-2.6 7.684-4.135l.06-9.93 4.539 1.922v12.011l-4.6 17.02v2.967l29.127 49.46s-7.489 9.965-39.857 9.965C7.489 93.633 0 83.667 0 83.667l29.126-49.459v-2.966z" mask="url(#prefix__d)"/>
                    </g>
                    <path fill="#FFF" d="M40.023 35.09H29.125c-.445 0-.805-.359-.805-.803 0-.443.36-.802.805-.802h10.898c.445 0 .806.36.806.802 0 .444-.361.803-.806.803" transform="translate(50 10)"/>
                </g>
            </g>
        </g>
        <path fill="#FF7867" d="M192.062 187.828H112.2c-.313 0-.569-.254-.569-.569 0-.314.256-.569.57-.569h79.86c.314 0 .57.255.57.57 0 .314-.256.568-.57.568M168.818 195.658H112.2c-.313 0-.569-.255-.569-.569 0-.314.256-.569.57-.569h56.617c.313 0 .569.255.569.569 0 .314-.256.569-.57.569M168.818 204.237H112.2c-.313 0-.569-.254-.569-.57 0-.313.256-.568.57-.568h56.617c.313 0 .569.255.569.569 0 .315-.256.569-.57.569M180.204 212.458H112.2c-.313 0-.569-.256-.569-.569 0-.316.256-.569.57-.569h68.003c.313 0 .57.253.57.569 0 .313-.257.569-.57.569" transform="translate(108 15)"/>
        <path fill="#E2E2E2" d="M271.723 236.049H112.2c-.313 0-.569-.253-.569-.569 0-.313.256-.569.57-.569h159.522c.314 0 .57.256.57.569 0 .316-.256.569-.57.569M294.495 264.446H112.2c-.313 0-.569-.253-.569-.569 0-.313.256-.569.57-.569h182.294c.314 0 .57.256.57.569 0 .316-.256.569-.57.569M241.436 245.018H112.2c-.313 0-.569-.256-.569-.57 0-.315.256-.568.57-.568h129.235c.316 0 .57.253.57.569 0 .313-.254.569-.57.569M218.666 274.162H112.2c-.313 0-.569-.255-.569-.569 0-.315.256-.568.57-.568h106.465c.314 0 .57.253.57.568 0 .314-.256.57-.57.57M173.123 254.732H112.2c-.313 0-.569-.256-.569-.57 0-.313.256-.568.57-.568h60.922c.314 0 .57.255.57.569 0 .313-.256.569-.57.569M245.351 254.732h-60.92c-.316 0-.57-.256-.57-.57 0-.313.254-.568.57-.568h60.92c.316 0 .57.255.57.569 0 .313-.254.569-.57.569" transform="translate(108 15)"/>
        <path fill="#9B9B9B" d="M280.49 206.145l-7.923-4.79c.057-.266.102-.533.102-.809s-.046-.542-.102-.809l7.834-4.745c.598.575 1.388.935 2.264.935 1.847 0 3.335-1.544 3.335-3.464 0-1.915-1.49-3.463-3.335-3.463-1.843 0-3.333 1.548-3.333 3.462 0 .28.046.543.102.81l-7.834 4.748c-.599-.578-1.388-.936-2.265-.936-1.847 0-3.335 1.546-3.335 3.462 0 1.916 1.488 3.463 3.335 3.463.876 0 1.666-.36 2.264-.934l7.91 4.8c-.055.245-.089.5-.089.754 0 1.859 1.458 3.371 3.244 3.371 1.788 0 3.246-1.511 3.246-3.371s-1.457-3.37-3.245-3.37c-.844 0-1.6.343-2.174.886z" opacity=".9" transform="translate(108 15)"/>
        <path stroke="#979797" d="M273.454 182.638c.04 0 .07-.03.07-.07 0-.038-.03-.068-.07-.068H268.9c-.038 0-.07.031-.07.069 0 .037.032.069.07.069h4.554zm9.11 0c.037 0 .068-.032.068-.07 0-.037-.03-.068-.069-.068h-4.554c-.038 0-.07.031-.07.069 0 .037.032.069.07.069h4.554zm-22.56 1.023c.015 0 .026-.004.04-.013.946-.661 2.059-1.01 3.216-1.01h1.085c.04 0 .07-.03.07-.07 0-.038-.03-.068-.07-.068h-1.085c-1.187 0-2.328.359-3.297 1.037-.03.02-.038.064-.017.093.014.02.035.03.059.03zm31.422.105c.021 0 .041-.01.055-.028.023-.03.017-.073-.012-.095-1.005-.748-2.194-1.143-3.447-1.143h-.904c-.038 0-.07.031-.07.069 0 .037.032.069.07.069h.904c1.22 0 2.385.386 3.362 1.115.011.009.026.013.042.013zm-33.857 8.188c.037 0 .067-.03.067-.069v-3.628c0-.305.025-.609.074-.904.006-.04-.02-.075-.072-.084-.027-.005-.06.019-.065.059-.049.3-.073.611-.073.929v3.628c0 .039.03.069.07.069zm36.146.182c.038 0 .069-.031.069-.069v-3.81c0-.249-.017-.498-.05-.748-.004-.038-.038-.064-.077-.058-.037.005-.065.04-.06.078.032.246.048.489.048.728v3.81c0 .039.03.07.07.07zm-36.146 8.918c.038 0 .067-.03.067-.07v-4.548c0-.04-.03-.07-.067-.07-.04 0-.069.03-.069.07v4.549c0 .04.03.069.07.069zm36.146.183c.037 0 .069-.032.069-.069v-4.55c0-.038-.031-.07-.07-.07-.039 0-.069.03-.069.07v4.55c0 .038.03.069.07.069zm-36.146 8.918c.038 0 .067-.03.067-.07v-4.55c0-.038-.03-.068-.067-.068-.039 0-.069.03-.069.068v4.55c0 .04.03.07.07.07zm36.146.183c.037 0 .069-.031.069-.069v-4.55c0-.039-.03-.07-.07-.07-.04 0-.069.03-.069.07v4.55c0 .039.03.07.07.07zm-33.097 7.764c.028 0 .052-.014.062-.034.019-.035.005-.078-.03-.096-1.34-.704-2.353-1.934-2.782-3.38-.01-.033-.05-.055-.083-.045-.04.011-.06.05-.05.086.44 1.478 1.481 2.742 2.854 3.462.009.005.019.007.029.007zm29.883.084c.013 0 .02-.002.028-.006 1.394-.675 2.475-1.905 2.963-3.37.011-.035-.009-.075-.046-.087-.034-.012-.074.008-.086.045-.475 1.43-1.527 2.628-2.89 3.288-.035.017-.05.057-.031.094.01.021.033.036.062.036zm-22.686.566c.038 0 .069-.03.069-.069 0-.04-.03-.069-.07-.069h-4.554c-.039 0-.07.03-.07.07 0 .036.032.068.07.068h4.555zm9.108 0c.04 0 .07-.03.07-.069 0-.04-.03-.069-.07-.069h-4.554c-.039 0-.07.03-.07.07 0 .036.032.068.07.068h4.554zm9.11 0c.037 0 .069-.032.069-.069 0-.038-.03-.069-.07-.069h-4.554c-.039 0-.07.03-.07.07 0 .036.032.068.07.068h4.554z" transform="translate(108 15)"/>
        <path fill="#FF7867" d="M294.324 138.921l-33.725-16.723-22.644-9.409-8.59-3.565-.015-.001-10.53-4.379c-2.018-.808-4.158-1.272-6.317-1.37l-27.045-1.213-.41.004-25.734.307-.158-.001-17.117 1.643c-5.96.565-11.435 3.508-15.178 8.114-.354.415-.679.846-.995 1.29-.767 1.102-1.434 2.263-1.987 3.475-1.087 2.333-1.754 4.833-1.98 7.399-.13 1.472-.116 2.956.056 4.441l3.537 31.392-.002.014 2.128 18.93c.52 4.679 4.048 8.468 8.689 9.322l9.696 1.773h.012l8.454 1.559 42.326 7.742 3.014.555s2.705-1.036 3.58-3.833c.417-1.29.433-2.955-.378-5.074-2.591-6.685 3.476-9.642 3.476-9.642l-11.407-5.404 44 .087-6.89-24.25v-.013l-.87-3.082-3.387-11.94 12.137 5.517.013.001 6.24 2.834h.014l15.445 7.017 32.542 13.852v-27.369" transform="translate(108 15)"/>
        <path fill="#FFCEC8" d="M159.314 102.572c1.538 5.07 6.027 8.957 11.646 9.451 6.532.575 12.397-3.66 14.089-9.758l-25.735.307" transform="translate(108 15)"/>
        <path fill="#FFF" d="M170.897 112.738c6.78.597 13.025-3.727 14.844-10.281.107-.382-.116-.777-.5-.883-.38-.108-.778.118-.882.5-1.636 5.887-7.243 9.771-13.336 9.235-5.187-.457-9.513-3.968-11.022-8.945-.116-.379-.515-.593-.894-.479-.379.116-.595.516-.479.895 1.678 5.541 6.495 9.45 12.27 9.958" transform="translate(108 15)"/>
        <path fill="#D95B4A" d="M227.87 137.783c.098.009.2-.003.3-.038.374-.13.571-.54.439-.914l-7.87-22.46c-.13-.373-.542-.57-.916-.44-.374.132-.572.541-.441.915l7.872 22.46c.098.274.344.453.616.477" transform="translate(108 15)"/>
        <path fill="#FFCEC8" d="M201.345 199.294l18.471-.894.978-11.092-7.954-3.148-.014.013-6.339-2.502s-6.07 2.95-3.474 9.646c.809 2.116.79 3.785.374 5.074-.42 1.345-1.268 2.278-2.042 2.903M220.797 187.309l3.325 1.31c2.714 1.07 5.093 2.844 6.89 5.14l.007.009c1.747 2.231 2.879 4.882 3.28 7.687.347 2.431.424 4.892.224 7.34l-.734 8.963c-.03.455-.402.801-.81.804-.46.004-.868-.428-.82-.948l-1.387-14.668-3.155 15.908c-.084.84-.858 1.426-1.634 1.307-.71-.111-1.252-.787-1.19-1.555.072-.632.147-1.263.221-1.895-.123.578-.616.99-1.16 1-.627.012-1.198-.517-1.229-1.209-.053-.861-.104-1.722-.155-2.584.025.74-.537 1.247-.97 1.212-.436-.032-.924-.63-.768-1.365l.84-13.271s-.283-1.07-1.751-2.094l.976-11.091" transform="translate(108 15)"/>
        <path fill="#FF9C91" d="M224.977 217.14c.23.022.435-.143.465-.373l1.847-14.112c.03-.234-.137-.45-.372-.482-.286-.007-.453.137-.483.371l-1.847 14.111c-.03.237.137.453.371.483.007 0 .014.003.019.003M222.433 214.345c.225.021.43-.137.462-.364l1.731-11.55c.035-.235-.128-.456-.362-.49-.216-.035-.453.127-.49.362l-1.73 11.55c-.037.235.126.455.363.49.007.002.016.002.026.002" transform="translate(108 15)"/>
        <path fill="#FFCEC8" d="M189.306 75.168s5.704 17.421-6.623 19.416l1.353 8.67-22.039 1.1-3.855-26.481 7.934-11.664 20.66-1.03 2.57 9.99" transform="translate(108 15)"/>
        <g>
            <path fill="#EF7C73" d="M11.77 13.184c.089-.152.067-.35-.065-.48-.157-.153-.407-.15-.56.005-2.27 2.314-4.798.098-4.905.002-.163-.145-.413-.132-.558.03-.146.16-.134.41.029.557.031.028 3.195 2.823 6-.035.023-.024.043-.051.06-.079" transform="translate(108 15) rotate(-10 527.342 -931.77)"/>
            <path fill="#404041" d="M12.9 4.754c0 .81-.328 1.467-.732 1.467-.403-.001-.731-.658-.731-1.468 0-.81.33-1.467.733-1.466.404 0 .73.657.73 1.467M4.105 5.29c0 .809-.327 1.464-.731 1.464-.403 0-.73-.656-.73-1.464 0-.81.328-1.466.731-1.466.404.001.73.657.73 1.466" transform="translate(108 15) rotate(-10 527.342 -931.77)"/>
            <path fill="#BC7D53" d="M0 3.034c.03-.531.29-.96.619-1.312.339-.343.783-.593 1.269-.707.968-.241 2.083.105 2.581 1.01-.51.159-.893.207-1.249.305-.35.07-.656.153-.967.225l-.99.227c-.365.08-.75.17-1.263.252M14.795 2.87c-.513-.082-.899-.172-1.264-.252l-.99-.227c-.31-.072-.616-.155-.967-.226-.355-.097-.739-.145-1.249-.304C10.824.956 11.94.61 12.907.85c.486.114.93.364 1.269.708.329.35.59.78.62 1.311" transform="translate(108 15) rotate(-10 527.342 -931.77)"/>
            <path fill="#FF8C80" d="M7.099 11.659h.007c.3-.006 1.818-.076 2.265-.925.144-.275.229-.735-.187-1.369-.81-1.237-.632-4.569-.495-5.747.024-.218-.13-.414-.348-.44-.21-.02-.411.13-.437.349-.022.184-.512 4.542.62 6.272.112.173.23.41.148.565-.172.326-1.045.493-1.58.503-.218.004-.392.184-.388.403.004.216.18.389.395.389" transform="translate(108 15) rotate(-10 527.342 -931.77)"/>
        </g>
        <path fill="#464646" d="M162.302 80.265s1.38-11.292 7.798-11.842c4.515-.386 6.265 1.625 9.007 4.747 1.717 1.953 4.185 3.23 6.771 3.503 4.95.522 8.651-2 8.754-7.067.188-9.244-10.455-16.17-18.746-11.68-1.666.902-3.174 2.067-4.835 2.975-1.271.696-2.75 1.249-4.15.87-1.432-.386-2.426-1.639-3.412-2.748-1.968-2.215-5.293-3.205-7.954-1.456-1.343.883-2.193 2.386-2.56 3.951-.8 3.416.174 7.486.525 10.946.046.46.462 6.754.683 6.778l8.119 1.023" transform="translate(108 15)"/>
        <path fill="#FFCEC8" d="M163.652 82.197c.146 2.913-2.1 5.393-5.017 5.539-2.916.145-5.398-2.099-5.544-5.012-.144-2.914 2.1-5.394 5.017-5.54 2.916-.145 5.398 2.099 5.544 5.013" transform="translate(108 15)"/>
        <path fill="#FF9D91" d="M182.683 94.584s-6.639.766-11.407-3.655c0 0 2.305 6.05 11.832 6.39l-.425-2.735" transform="translate(108 15)"/>
        <path fill="#FF9C91" d="M159.474 79.829c.074.008.149.019.223.033.232.044.383.268.34.5-.045.23-.275.386-.5.337-.47-.091-.94.008-1.332.274-.393.266-.657.669-.748 1.135-.09.466.01.938.274 1.33.267.393.67.657 1.136.747.23.044.384.268.337.499-.044.231-.262.398-.497.338-.69-.132-1.287-.524-1.682-1.104-.393-.582-.54-1.282-.405-1.971.133-.69.526-1.285 1.107-1.679.518-.351 1.131-.504 1.747-.439" transform="translate(108 15)"/>
        <path fill="#D95B4A" d="M205.428 181.946c.295.026.588-.133.715-.419.165-.361.005-.786-.355-.95-.08-.035-7.957-3.584-19.863-7.534-2.66-.895-5.477-1.777-8.375-2.62-9.223-2.672-17.544-4.4-24.745-5.139l-3.57-35.279c-.039-.394-.392-.678-.787-.641-.395.04-.68.392-.641.786l3.63 35.863c.034.34.304.609.645.642 7.246.694 15.678 2.426 25.068 5.146 2.875.838 5.675 1.713 8.32 2.602 11.832 3.926 19.646 7.447 19.725 7.482.075.034.154.054.233.06" transform="translate(108 15)"/>
        <g>
            <path fill="#464646" d="M79.895 248.822s-.142-.102-.913-.434l.14 1.318c.327-.236.608-.51.773-.884" transform="translate(108 15) translate(0 156.836)"/>
            <path fill="#6FAAAB" d="M10.133 250.192l10.952-.18 10.666-120.847.114-8.252-.13 9.728.016.047L68.816 252.23c3.943 2.282 7.321 1.087 10.306-2.524L51.957 115.785s-6.106-25.17-6.304-36.886H14.826l-2.238 10.102s-5.95 7.081-8.265 28.283c-1.522 13.908.677 33.951.748 36.05l5.062 96.858z" transform="translate(108 15) translate(0 156.836)"/>
            <path fill="#4F9C9D" d="M31.751 131.038h-.004c-.195-.002-.351-.16-.35-.355l.116-9.774c.001-.089.037-.177.1-.242l8.84-9.09c.135-.139.359-.14.499-.006.14.137.143.36.007.499l-8.741 8.99-.114 9.63c-.002.195-.16.348-.353.348" transform="translate(108 15) translate(0 156.836)"/>
            <path fill="#FFCEC8" d="M43.716 58.062l4.952 4.762c4.294-.79 11.272-4.542 11.456-4.495 0 0-13.482-21.388-14.664-22.044-.126-.074-.259-.147-.39-.213l-.78-.41-.051-.022-.523 22.422" transform="translate(108 15) translate(0 156.836)"/>
            <path fill="#F5B83D" d="M44.243 79.865c-.573-2.222-.982-4.288-1.227-6.036l.667-12.287c.669-.531 1.19-1.372 1.532-2.038.293-.574.45-1.02.45-1.02l.172.158-.377-22.357-.002-.076-1.169-.548c-.014-.005-.036-.016-.05-.02-1.65-.77-3.204-.932-4.964-1.097-.849-.08-6.996-.045-6.996-.045l-15.082 1.432c-.347.03-.693.066-1.033.095-1.447.139-2.89.305-4.279.745-.694.218-1.38.454-2.047.73-.007 0-.006.007-.012.008-.033.01-.072.03-.105.04l.002.02 1.785 19.868.018-.016.239 2.025 1.685 25.662 32.387 1.47c-.014-.054-1.082-4.814-1.095-4.867-.18-.622-.347-1.24-.499-1.846" transform="translate(108 15) translate(0 156.836)"/>
            <path fill="#FFCEC8" d="M12.472 36.604c.517.355 2.001 19.594 2.001 19.594l-.035 4.464-10.403-.053s.088-4.671.066-6.113c-.044-2.856.006-5.45.394-8.289.47-3.45 1.396-7.137 4.792-8.658 1.651-.74 2.999-1.074 3.185-.945M18.472 35.783c1.057 5.381 4.961 8.664 9.157 8.142 4.005-.5 7.024-4.407 7.012-9.595-.594-.055-4.883.384-4.883.384l-10.562 1.003c-.243.02-.485.046-.724.066" transform="translate(108 15) translate(0 156.836)"/>
            <path fill="#FFF" d="M26.697 44.162c-4.026 0-7.392-3.227-8.363-8.17-.018-.097.044-.19.14-.209.097-.018.19.044.208.14 1.009 5.137 4.682 8.353 8.925 7.828 2.08-.26 3.885-1.368 5.085-3.123.225-.32.43-.67.611-1.038.701-1.412 1.054-3.05 1.05-4.869 0-.097.078-.177.176-.177.098 0 .178.079.178.177.005 1.873-.36 3.564-1.086 5.027-.19.383-.404.748-.637 1.082-1.257 1.837-3.151 3-5.333 3.271-.322.04-.64.06-.954.06" transform="translate(108 15) translate(0 156.836)"/>
            <path fill="#FFF" d="M18.507 35.895h-.009c-.036.008-.057.04-.05.075.948 4.83 4.263 8.076 8.248 8.076.311 0 .627-.019.94-.058 2.15-.267 4.015-1.412 5.252-3.223.234-.337.445-.694.63-1.068.717-1.447 1.08-3.121 1.074-4.976 0-.07-.125-.067-.125 0 .006 1.835-.351 3.49-1.06 4.92-.187.379-.396.732-.621 1.052-1.217 1.78-3.053 2.91-5.164 3.172-4.32.531-8.032-2.721-9.053-7.92-.006-.03-.031-.05-.062-.05zm8.19 8.38c-4.098 0-7.505-3.32-8.475-8.262-.03-.158.073-.312.23-.343.154-.032.313.074.344.232.995 5.072 4.625 8.255 8.796 7.735 2.047-.255 3.823-1.347 5.004-3.074.22-.313.423-.657.604-1.024.694-1.397 1.043-3.019 1.038-4.817 0-.162.13-.292.29-.294.163 0 .293.131.293.293.006 1.89-.363 3.599-1.096 5.078-.19.383-.407.752-.646 1.096-1.276 1.867-3.2 3.046-5.414 3.32-.322.04-.648.06-.969.06z" transform="translate(108 15) translate(0 156.836)"/>
            <path fill="#FFCEC8" d="M14.19 71.686l.173-12.844c-4.495-3.102-7.549-.355-7.549-.355-2.798 1.771-2.779 2.122-2.779 2.122.178 1.908.127 12.65 1.362 15.611.604 1.449 1.496 2.8 2.716 3.787 1.405 1.135 1.454 1.381 3.14 1.899 1.859.569 3.697 1.242 5.544 1.855 3.76 1.25 7.519 2.496 11.278 3.745.181.06.362.118.543.179l-.61-4.901L14.19 71.686" transform="translate(108 15) translate(0 156.836)"/>
            <path fill="#9C6748" d="M31.399 33.386l16.639 1.743s.842-4.185-3.613-4.717c0 0 3.118-5.577-1.975-9.136 0 0 1.928-7.846-6.52-9.883l.184 6.49L30.63 30.07l.769 3.316" transform="translate(108 15) translate(0 156.836)"/>
            <path fill="#FFCEC8" d="M36.349 17.967s2.756 8.962-5.719 12.103l1.309 5.647-10.563.804-.237-17.395 11.193-8.63s2.468 1.378 4.017 7.471" transform="translate(108 15) translate(0 156.836)"/>
            <path fill="#B67C51" d="M21.325 32.818L.095 30.365S-1.128 25 5.216 25.157c0 0-.881-3.939 2.341-5.867 0 0 3.05-1.916 5.314-.405 0 0 2.756-12.175 12.185-13.595 5.749-.866 11.084 3.094 11.49 8.89.08 1.118.028 2.376-.197 3.787 0 0-2.33-.577-2.71-4.03 0 0-5.794 7.862-11.56 5.368l-.932-.074.178 13.587" transform="translate(108 15) translate(0 156.836)"/>
            <path fill="#FFCEC8" d="M18.372 22.46c.127 1.658 1.574 2.899 3.233 2.773 1.659-.127 2.9-1.573 2.774-3.23-.126-1.657-1.573-2.899-3.232-2.772-1.659.126-2.901 1.572-2.775 3.23" transform="translate(108 15) translate(0 156.836)"/>
            <path fill="#FFB1A8" d="M30.629 30.061s-3.284 1.197-5.746-.475c0 0 1.736 2.058 5.984 1.523l-.238-1.048" transform="translate(108 15) translate(0 156.836)"/>
            <path fill="#B77C4D" d="M35.448 12.301c1.193-1.86 1.694-3.928 1.684-6.008.003-2.094-.536-4.16-1.113-6.293 1.28 1.799 2.069 4.002 2.092 6.288-.005 1.142-.204 2.29-.65 3.34-.436 1.05-1.115 2.013-2.013 2.673" transform="translate(108 15) translate(0 156.836)"/>
            <path fill="#9D6745" d="M35.121 11.849c1.014-.947 2.197-1.648 3.522-2.09 1.312-.414 2.835-.538 4.113.08-1.377.163-2.584.45-3.814.85-1.231.377-2.448.895-3.82 1.16" transform="translate(108 15) translate(0 156.836)"/>
            <path fill="#FFCEC8" d="M12.472 36.604s4.606 13.334 1.82 27.583l-3.945-21.18 2.125-6.403" transform="translate(108 15) translate(0 156.836)"/>
            <path fill="#558D64" d="M68.265 251.95l2.889 9.335c.21.738.862 1.251 1.583 1.249l21.89-.072c.073 0-.617-2.192-.683-2.331-1.256-2.64-5.226-3.02-7.54-4.36-2.805-1.628-4.71-4.235-6.509-6.95-1.27 1.487-2.614 2.966-4.321 3.853-1.057.55-2.27.845-3.472.733-1.327-.12-2.653-.852-3.837-1.458" transform="translate(108 15) translate(0 156.836)"/>
            <path fill="#FFF" d="M78.778 254.308c-.09 0-.181-.044-.235-.125-.086-.13-.05-.307.08-.393 1.707-1.128 2.43-2.85 2.436-2.867.06-.144.225-.214.369-.156.144.06.214.226.154.37-.03.076-.79 1.896-2.648 3.125-.047.032-.102.046-.156.046M80.655 256.288c-.09 0-.181-.044-.236-.127-.085-.13-.05-.304.08-.39 1.707-1.129 2.43-2.851 2.437-2.868.06-.146.225-.213.369-.153.144.058.213.223.154.367-.03.077-.79 1.895-2.648 3.125-.047.033-.102.046-.156.046M94.235 261.299h-.003l-23.243-.297c-.156-.003-.28-.133-.28-.288.003-.156.12-.293.287-.279l23.243.297c.156.003.28.13.28.286-.003.155-.13.28-.284.28" transform="translate(108 15) translate(0 156.836)"/>
            <path fill="#558D64" d="M9.72 259.999l.017-.065.145-.534.532-7.68h10.53l3.104 5.404-.053 5.143h-12.55c-1.176 0-2.03-1.126-1.724-2.268" transform="translate(108 15) translate(0 156.836)"/>
            <path fill="#538E63" d="M14.496 256.992v5.275h10.296c.637 0 1.152-.567 1.152-1.256v-1.094c0-.178-.016-.348-.048-.517-.177-1.11-.927-1.992-1.901-2.294-.234-.072-.476-.114-.725-.114h-8.774" transform="translate(108 15) translate(0 156.836)"/>
            <path fill="#FFF" d="M9.735 259.934h16.21v-.017c0-.178-.017-.348-.05-.517H9.88l-.145.534M20.22 257.275h-5.264c-.156 0-.283-.125-.283-.283 0-.156.127-.281.283-.281h5.264c.156 0 .283.125.283.28 0 .159-.127.284-.283.284M18.888 255.316h-2.98c-.156 0-.283-.128-.283-.284 0-.155.127-.283.283-.283h2.98c.156 0 .283.128.283.283 0 .156-.127.284-.283.284" transform="translate(108 15) translate(0 156.836)"/>
            <path fill="#558D64" d="M19.586 248.42H11.61c-.939 0-1.647.85-1.477 1.772l.28 1.527H20.98l.105-1.706c.053-.864-.633-1.593-1.499-1.593" transform="translate(108 15) translate(0 156.836)"/>
            <path fill="#01B202" d="M59.643 92.665l-27.6-5.036c-3.505-.64-5.827-3.998-5.186-7.5l5.04-27.574c.641-3.504 4.001-5.823 7.506-5.182l27.6 5.036c3.504.64 5.826 3.998 5.186 7.499l-5.042 27.575c-.64 3.501-4 5.823-7.504 5.182" transform="translate(108 15) translate(0 156.836)"/>
            <path fill="#FFF" d="M60.09 68.113c-.037.156-.191.254-.346.219L57.01 67.7l-.247 1.072 2.735.631c.155.036.25.192.214.349l-.235 1.02c-.037.156-.19.255-.345.219l-2.736-.632-.247 1.072 2.735.632c.155.035.25.191.214.347l-.235 1.021c-.037.157-.19.255-.345.219l-4.022-.928c-.075-.018-.136-.064-.175-.124-.001-.002-.003-.003-.003-.005l-.003-.005c-.037-.062-.05-.138-.033-.214l1.463-6.34c.018-.076.063-.137.123-.177l.006-.004.003-.002c.063-.038.138-.053.213-.036l4.022.929c.155.036.25.191.214.348l-.236 1.02zm-6.788 4.035c-.036.156-.19.254-.345.218l-1.006-.232c-.025-.006-.049-.014-.07-.026l-.004-.002-.017-.01-.008-.006-.012-.008-.012-.01-.007-.006-.014-.015-.003-.003c-.023-.025-.042-.054-.055-.086l-1.962-4.592-.87 3.766c-.036.156-.19.253-.345.218l-1.006-.233c-.155-.035-.25-.19-.214-.347l1.463-6.34c.036-.156.19-.254.345-.218l1.007.232.01.003.014.004.014.006c.004 0 .008.002.011.004l.015.007.01.005.015.01c.003 0 .005.003.008.005l.015.01.008.007.013.011.007.008.012.013.006.007.012.016.004.006.013.022.001.002c.006.011.011.022.015.034l1.96 4.585.87-3.767c.036-.156.19-.253.345-.218l1.007.233c.154.035.25.191.214.347l-1.464 6.34zm-6.93-1.6c-.035.157-.19.254-.344.218l-1.007-.232c-.154-.036-.25-.19-.214-.347l1.464-6.34c.036-.156.19-.254.345-.218l1.006.232c.154.036.25.191.215.347l-1.464 6.34zm-2.426-.56c-.036.156-.19.254-.345.218l-4.022-.928c-.075-.017-.136-.063-.175-.123l-.003-.006-.003-.005c-.036-.061-.05-.137-.033-.214l1.464-6.34c.036-.156.19-.254.345-.218l1.007.232c.154.036.25.192.214.348l-1.163 5.036 2.736.631c.154.036.25.192.214.348l-.236 1.02zm20.219 1.006c1.503-6.51-3.713-13.295-11.627-15.122-7.913-1.827-15.575 1.984-17.078 8.495-1.348 5.837 2.63 11.905 9.313 14.42.444.21 1.032.568 1.099 1.01.06.402-.123.966-.258 1.327l-.492 1.198c-.147.353-.62 1.372 1.063 1.071 1.682-.3 9.404-3.025 13.226-5.844 2.613-1.832 4.152-3.95 4.754-6.555z" transform="translate(108 15) translate(0 156.836)"/>
            <path fill="#FFCEC8" d="M71.166 65.512c.788.462 1.246 1.33 1.185 2.243l-.08 1.182-1.646-.341.54-3.084" transform="translate(108 15) translate(0 156.836)"/>
            <path fill="#FFCEC8" d="M72.553 68.904l-4.745-.861c-.372-.067-.728.179-.798.55-.062.332.128.662.449.773l4.451 1.558c.4.14.837-.074.97-.476l.19-.578c.137-.408-.1-.85-.517-.966" transform="translate(108 15) translate(0 156.836)"/>
            <path fill="#FFCEC8" d="M72.049 70.906l-4.883-1.776c-.354-.133-.748.046-.882.401 0 0-.143.518.306.84l4.472 2.41c.37.21.837.073 1.038-.299l.289-.534c.205-.38.05-.857-.34-1.042" transform="translate(108 15) translate(0 156.836)"/>
            <path fill="#FFCEC8" d="M71.293 72.498l-4.138-1.776c-.3-.13-.673.04-.835.381 0 0-.19.5.17.817l3.695 2.385c.304.206.738.079.962-.279l.323-.515c.23-.367.149-.83-.177-1.013" transform="translate(108 15) translate(0 156.836)"/>
            <path fill="#FFCEC8" d="M70.581 74.333l-2.826-1.72c-.204-.129-.494-.045-.647.187 0 0-.191.344.039.613l2.44 2.12c.199.181.527.135.728-.102l.289-.342c.205-.243.195-.587-.023-.756" transform="translate(108 15) translate(0 156.836)"/>
            <path fill="#FF9C91" d="M70.39 74.428c-.009-.003-.018-.007-.026-.012l-2.8-1.68c-.05-.029-.065-.094-.036-.142.03-.05.092-.065.142-.035l2.8 1.68c.05.03.065.094.036.142-.025.042-.073.058-.116.047M71.358 72.868c-.006-.003-.012-.005-.018-.01l-4.07-2.003c-.05-.026-.071-.086-.046-.137.025-.051.086-.075.138-.05l4.069 2.007c.051.025.072.086.047.137-.022.046-.073.067-.12.056M72.021 71.006s-.005-.003-.008-.003l-4.335-1.579c-.054-.018-.081-.078-.061-.132.019-.053.068-.088.132-.06l4.335 1.576c.054.021.081.08.062.133-.019.05-.073.078-.125.065M70.748 68.67c-.051-.014-.084-.065-.074-.119.01-.055.064-.092.12-.083l1.337.244c.06.016.094.065.084.12-.01.056-.064.093-.12.082l-1.338-.242-.01-.002" transform="translate(108 15) translate(0 156.836)"/>
            <path fill="#FFCEC8" d="M26.798 81.885l8.353.225c.01.834-.548 1.568-1.353 1.781l-2.008.536 1.103 1.958 5.42 3.508c.238.153.29.48.111.7-.132.163-.354.224-.55.145l-4.372-1.741 3.144 2.658 1.754.086-.03.197c-.049.304-.287.541-.591.588l-3.785.58-1.622-.599-1.402-2.008-3.622-4.328-4.897-.597.834-3.759 3.513.07" transform="translate(108 15) translate(0 156.836)"/>
            <path fill="#FF9C91" d="M36.252 92.86c-.018.002-.035 0-.052-.007l-2.103-.92c-.013-.004-.024-.011-.033-.023l-2.295-2.472c-.037-.042-.034-.102.006-.14.04-.037.102-.034.14.005l2.28 2.459 2.084.91c.05.02.073.079.05.13-.013.032-.044.053-.077.058M34.269 93.069c-.021.005-.042 0-.062-.012l-1.15-.666c-.012-.007-.022-.016-.03-.026l-1.697-2.34c-.032-.044-.023-.107.022-.14.043-.032.105-.02.138.024l1.684 2.322 1.132.654c.048.028.064.089.036.137-.016.028-.044.045-.073.047" transform="translate(108 15) translate(0 156.836)"/>
        </g>
        <path fill="#E78439" d="M373.248 185.52s.807 4.618-3.64 9.072c-4.446 4.455-2.734 9.134-2.734 9.134l11.043-.21s7.359-7.176 7.556-7.63c.2-.453-3.076-11.295-3.076-11.295l-9.149.929" transform="translate(108 15)"/>
        <path fill="#FF9D5A" d="M405.936 185.712c10.382 5.471 17.251 30.716-8.015 38.812l-10.284-12.008-6.26-19.248-.788-13.919 11.809-6.452s3.153 7.343 13.538 12.815z" transform="translate(108 15)"/>
        <path fill="#FFCEC8" d="M371.55 176.642s-1.309 10.13 5.744 11.73l-.016 6.448 8.834-1.425 1.018-19.932-13.591-4.293s-1.734 1.02-1.99 7.472" transform="translate(108 15)"/>
        <path fill="#FF9D5A" d="M371.956 171.241c.937-5.22 4.88-7.873 10.43-7.122 5.01.678 8.05 4.695 9.787 8.224 1.333 2.714-.407 5.939-3.402 6.378-1.369.201-1.938.56-1.938.56l-.086-5.915c-2.533 2.757-6.68 3.424-9.888 1.487-1.675-1.012-2.72-2.18-2.72-2.18-.572 1.462-2.501 2.052-2.501 2.052.023-1.408.125-2.406.318-3.484" transform="translate(108 15)"/>
        <path fill="#FFCEC8" d="M390.065 180.78c-.102 1.62-1.496 2.85-3.116 2.75-1.62-.101-2.851-1.495-2.751-3.114.102-1.619 1.496-2.85 3.116-2.748 1.62.1 2.85 1.494 2.751 3.113" transform="translate(108 15)"/>
        <path fill="#FFB1A8" d="M377.294 188.372s3.379.467 5.382-1.633c0 0-1.232 2.32-5.394 2.68l.012-1.047" transform="translate(108 15)"/>
        <path fill="#FC862A" d="M398.212 166.68c0 3.08-2.5 5.579-5.584 5.579-3.083 0-5.584-2.498-5.584-5.58 0-3.081 2.5-5.58 5.584-5.58 3.084 0 5.584 2.499 5.584 5.58" transform="translate(108 15)"/>
        <path fill="#FF9D5A" d="M387.511 166.474c-.632-.288-.992-1.067-1.018-1.769-.05-.714.11-1.397.319-2.038.446-1.284 1.206-2.406 2.172-3.326-.36 1.304-.931 2.437-1.315 3.621-.207.586-.38 1.174-.47 1.76-.069.58-.069 1.181.312 1.752" transform="translate(108 15)"/>
        <path fill="#FF9D5A" d="M387.295 166.099c-.467.16-1.04-.105-1.362-.483-.348-.37-.548-.818-.701-1.257-.28-.896-.295-1.83-.026-2.73.446.846.62 1.675.892 2.454.119.396.251.774.41 1.125.174.336.355.674.787.891" transform="translate(108 15)"/>
        <path fill="#464646" d="M440.34 324.474l-1.307-2.463 1.538-1.69s.955 3.176-.23 4.153M379.813 400.963s1.729-.28 3.267-.125c1.538.153.493 2.89.493 2.89l-3.147-1.198-.613-1.567M352.965 217.025s1.847 3.844 5.29 5.186l2.603-5.955-5.358-1.344-2.535 2.113" transform="translate(108 15)"/>
        <path fill="#FFB1A8" d="M356.32 217.589l-1.798 2.814-12.054-.68-.16 1.59 19.338 4.755s-1.775-2.166-1.775-4.24c0 0-1.504-3.06-3.55-4.24" transform="translate(108 15)"/>
        <path fill="#464646" d="M434.364 304.893s-12.975 8.088-23.404 8.685l-1.3-23.607s19.162 6.833 24.704 14.922" transform="translate(108 15)"/>
        <path fill="#FFCEC8" d="M390.974 401.736c1.303-13.178 8.572-40.65-3.381-59.143 0 0 6.785-22.755 1.008-41.561l-22.519 22.613 15.98 80.274c4.738 3.383 6.509 2.507 8.912-2.183" transform="translate(108 15)"/>
        <path fill="#FFCEC8" d="M436.883 314.245c-6.827 1.244-16.705 6.551-23.688 13.238 0 0 .349-22.895-2.31-40.147 0 0-12.682-5.28-24.199 14.652l10.153 37.545c1.048 4.077 4.315 7.209 8.432 8.089 3.149.673 6.432-.047 9.002-1.983 6.158-4.634 17.252-13.292 27.464-25.646-3.683-4.242-1.433-1.288-4.854-5.748" transform="translate(108 15)"/>
        <path fill="#FB7461" d="M398.644 226.69c-.67 5.892-.044 11.866 1.82 17.492h-30.718l1.901-15.18-3.316-6.287-2.69 4.671s-5.494.955-6.807-5.386c-1.322-6.343-5.87-4.975-5.87-4.975l14.11-17.51c1.506-1.874 3.463-3.342 5.686-4.278l2.847-1.083 2.296-.872h8.277c.22 0 .643.01 1.231.065 2.003.174 5.851.853 9.416 3.404 3.012 2.166 4.538 5.856 4.125 9.536l-2.308 20.403" transform="translate(108 15)"/>
        <path fill="#F3A161" d="M371.368 231.22l-1.622 12.962h30.72c-1.39-4.19-2.09-8.567-2.08-12.962h-27.018" transform="translate(108 15)"/>
        <path fill="#D45744" d="M368.336 223.084c-.14 0-.274-.08-.335-.216l-3.371-7.376c-.53-1.158-.465-2.514.172-3.624 1.412-2.456 3.804-7.042 3.96-10.148.01-.205.192-.365.387-.35.205.01.36.183.351.387-.165 3.26-2.614 7.963-4.057 10.478-.52.903-.572 2.008-.142 2.95l3.372 7.377c.084.186.002.404-.184.49-.048.02-.102.032-.153.032" transform="translate(108 15)"/>
        <path fill="#F1A167" d="M434.36 304.893c-18.767-21.43-36.652 4.947-47.674 19.834-11.023 14.887-25.858 17.613-25.858 17.613-1.185-4.407-2.077-8.811-2.728-13.2-.33-2.228-.606-4.45-.809-6.663-2.075-21.861 1.553-42.483 5.429-57.065.634-2.368 1.268-4.581 1.884-6.61 2.79-9.122 5.245-14.62 5.245-14.62h30.615c6.292 18.21 15.44 30.048 21.982 36.757 1.891 1.937 3.564 3.441 4.887 4.553.485.414.927.771 1.313 1.073 1.938 1.532 3.701 3.285 5.089 5.333 5.878 8.665.625 12.995.625 12.995" transform="translate(108 15)"/>
        <path fill="#D45744" d="M392.6 228.269c-.06 0-.12-.017-.176-.047-.18-.097-.244-.322-.147-.501l6.946-12.681c.097-.18.32-.244.5-.147.178.098.243.323.146.502l-6.946 12.681c-.065.123-.193.193-.323.193" transform="translate(108 15)"/>
        <path fill="#464646" d="M379.81 419.92s1.107-6.663 5.008-8.2l-7.829-.641-8.332 1.474-5.129 1.41v5.133c0 .455.367.824.823.824h15.46" transform="translate(108 15)"/>
        <path fill="#464646" d="M386.054 419.92h2.092l1.282-7.815s-3.432-1.727-5.37-.446l1.996 8.261" transform="translate(108 15)"/>
        <path fill="#FF7763" d="M390.974 401.736l-1.548 10.37s-.428-.15-1.16-.282l-.485-.072c-1.943-.264-5.31-.223-8.544 2.21h-15.711s-.058-4.48 2.823-5.188c2.09-.509 6.37-.214 9.909-3.035.132-.107.255-.204.385-.32 1.195-1.043 2.29-2.482 3.17-4.456l1.522 1.175c1.54 1.184 3.458 1.841 5.4 1.695.658-.049 1.243-.19 1.638-.444l.625-.404.477-.297 1.499-.952" transform="translate(108 15)"/>
        <path fill="#FF7763" d="M376.15 405.145c.24-.509.781-1.858.312-2.9-.579-1.289-1.682-2.101-2.41-1.776-.332.15-.55.524-.618 1.051-.074.588.047 1.268.344 1.927.467 1.043 1.834 1.537 2.373 1.698zm1.1-1.958c0 1.245-.644 2.394-.679 2.457l-.109.193-.216-.047c-.093-.02-2.308-.51-3.019-2.096-.339-.757-.478-1.556-.39-2.248.093-.745.437-1.286.969-1.525 1.062-.476 2.468.436 3.204 2.078.172.383.24.791.24 1.188z" transform="translate(108 15)"/>
        <path fill="#FF7763" d="M376.341 405.484c0 .164-.135.3-.3.3h-5.86c-.165 0-.3-.136-.3-.3 0-.168.135-.302.3-.302h5.86c.165 0 .3.134.3.302" transform="translate(108 15)"/>
        <path fill="#FFF" d="M378.718 407.624c-.048.056-.114.082-.18.082-.059 0-.115-.017-.166-.059l-2.114-1.908c.132-.107.255-.204.385-.32l2.06 1.86c.097.09.106.245.015.345M380.157 406.104c.074 0 .146-.028.2-.086.097-.112.09-.281-.021-.379l-2.194-1.978c-.11-.097-.279-.09-.379.019-.097.111-.088.28.021.378l2.196 1.978c.049.047.114.068.177.068M381.418 404.383c.073 0 .147-.03.198-.088.1-.11.09-.279-.019-.376l-2.195-1.978c-.11-.1-.28-.09-.377.018-.1.11-.09.279.019.379l2.196 1.975c.05.047.113.07.178.07M389.517 402.853l-1.25 8.964v.007l-.486-.072 1.217-8.767.477-.297c.032.051.05.107.042.165" transform="translate(108 15)"/>
        <path fill="#464646" d="M456.286 314.203s-6.202 2.681-9.608.239l3.701 6.919 5.756 6.2 3.967 3.544 4.317-2.784c.384-.246.493-.754.246-1.135l-8.379-12.983" transform="translate(108 15)"/>
        <path fill="#464646" d="M452.903 308.96l-1.132-1.755-7.268 3.158s.406 3.817 2.535 4.75l5.865-6.153" transform="translate(108 15)"/>
        <path fill="#FF765E" d="M434.943 314.683l9.56-4.32s.106.44.395 1.126l.2.448c.831 1.774 2.69 4.578 6.49 5.976l8.516 13.192s-3.739 2.477-5.895.443c-1.562-1.479-3.632-5.235-7.924-6.677-.16-.053-.31-.102-.479-.15-1.524-.437-3.327-.577-5.465-.247l.162-1.915c.163-1.934-.323-3.9-1.5-5.452-.398-.527-.833-.942-1.26-1.135l-.679-.307-.509-.241-1.612-.74" transform="translate(108 15)"/>
        <path fill="#FF7559" d="M445.841 325.284c-.555.072-1.982.35-2.607 1.31-.77 1.184-.855 2.549-.186 2.986.304.197.739.178 1.22-.052.532-.255 1.04-.726 1.434-1.332.622-.96.3-2.373.139-2.912zm-2.24.137c1.046-.673 2.363-.759 2.435-.761l.221-.014.079.206c.033.091.818 2.215-.13 3.671-.453.697-1.048 1.247-1.678 1.549-.678.325-1.32.327-1.808.011-.976-.634-.971-2.31.01-3.817.23-.353.536-.629.871-.845z" transform="translate(108 15)"/>
        <path fill="#FF765E" d="M446.025 324.938c.139-.088.325-.048.416.09l3.174 4.92c.09.14.05.326-.089.416-.139.09-.327.049-.416-.09l-3.176-4.92c-.09-.14-.049-.325.09-.416" transform="translate(108 15)"/>
        <path fill="#FFF" d="M446.536 321.783c.077.012.132.054.167.11.033.046.049.104.042.166l-.46 2.812c-.16-.053-.31-.102-.479-.15l.449-2.736c.023-.132.148-.225.28-.202M444.48 321.398c-.04-.06-.105-.107-.182-.119-.146-.023-.283.075-.307.22l-.474 2.917c-.025.144.075.28.221.306.144.024.284-.076.307-.22l.474-2.916c.01-.068-.005-.135-.04-.188M442.349 321.272c-.04-.06-.105-.106-.182-.118-.146-.023-.283.074-.306.22l-.475 2.917c-.025.144.075.28.221.304.147.025.284-.075.307-.22l.474-2.915c.01-.067-.005-.134-.04-.188M436.672 315.3l8.219-3.807.007-.004.2.448-8.034 3.728-.509-.241c.026-.053.066-.098.117-.123" transform="translate(108 15)"/>
        <path fill="#FFB1A8" d="M413.195 327.483L413.195 333.461 414.899 325.907 413.195 327.483" transform="translate(108 15)"/>
        <path fill="#FFCEC8" d="M387.411 193.347c-.146 3.156-2.746 5.67-5.953 5.67-2.912 0-5.335-2.092-5.851-4.863l2.296-.872h8.277c.22 0 .643.01 1.231.065" transform="translate(108 15)"/>
        <path fill="#FFF" d="M381.458 199.386c-3.044 0-5.658-2.173-6.214-5.165-.037-.2.096-.393.296-.43.2-.038.392.096.432.296.49 2.643 2.797 4.563 5.486 4.563 2.993 0 5.444-2.337 5.584-5.32.01-.204.17-.374.386-.352.204.01.362.182.353.386-.158 3.378-2.935 6.022-6.323 6.022" transform="translate(108 15)"/>
        <path fill="#464646" d="M376.476 217.589s.818 1.504 2.077 2.333l1.594-2.895s-1.842-.495-3.671.562" transform="translate(108 15)"/>
        <path fill="#D45744" d="M376.476 217.958c-.107 0-.214-.046-.284-.132-.106-.128-.116-.31-.02-.446.058-.084 5.797-8.426 10.061-14.341 4.413-6.123 8.15-5.13 8.305-5.085.198.056.31.26.253.457-.055.195-.257.31-.455.253-.035-.009-3.425-.854-7.503 4.804-3.407 4.73-7.76 11.007-9.395 13.373.764-.23 1.754-.422 2.438-.17.192.073.29.286.218.477-.072.19-.284.285-.474.216-.779-.29-2.426.308-2.995.561-.047.021-.1.033-.149.033" transform="translate(108 15)"/>
        <path fill="#FFB1A8" d="M334.686 219.363l-.07-.103-3.425-5.221c-.467.292-.736.836-.71 1.428l1.01 3.292-.148.453-.614-.29-.555-3.667c-.01-.183-.149-.332-.333-.35-.206-.023-.392.13-.409.339l-.048.636-.091-1.876c-.01-.183-.151-.332-.332-.35-.207-.024-.393.13-.41.338l-.057.746-.075-1.512c-.009-.183-.148-.332-.33-.35-.209-.021-.392.132-.409.339l-.497 3.659-2.468-1.558c-.239-.151-.557-.07-.694.179-.105.19-.075.424.076.58l8.472 6.605s5.2 2.24 7.446 3.325l3.088-6.252-8.417-.39M413.021 313.37s-5.68-10.504-15.04-3.182c0 0 7.725-9.096 14.201-11.65 0 0 1.064 13.148.839 14.831" transform="translate(108 15)"/>
        <path fill="#FFF" d="M398.9 235.55h-15.95c-.205 0-.37-.165-.37-.37 0-.204.165-.369.37-.369h15.95c.204 0 .37.165.37.37 0 .204-.166.369-.37.369" transform="translate(108 15)"/>
        <path fill="#FFCEC8" d="M323.414 217.663l8.472 6.605s5.2 2.24 7.448 3.325l3.086-6.252-8.417-.39-.07-.1c-1.187.49-2.089.673-3.125-.504l-.149.453-1.803-.85-4.822-3.046c-.241-.151-.56-.07-.697.179-.104.19-.074.425.077.58" transform="translate(108 15)"/>
        <path fill="#FFCEC8" d="M326.377 219.36l.62-4.557c.016-.207.202-.36.41-.34.18.02.322.168.331.351l.256 5.282-1.617-.736" transform="translate(108 15)"/>
        <path fill="#FFCEC8" d="M327.501 220.252l.368-4.672c.016-.206.202-.362.409-.338.183.018.323.167.332.35l.258 5.282-1.367-.622" transform="translate(108 15)"/>
        <path fill="#FFCEC8" d="M330.332 222.39l-.841-5.546c-.01-.184-.15-.332-.33-.351-.21-.023-.393.13-.41.339l-.367 4.671 1.948.887" transform="translate(108 15)"/>
        <path fill="#FF9C91" d="M328.633 219.639h-.007c-.081-.005-.144-.072-.142-.153l.072-1.9c.003-.08.072-.155.151-.141.082.002.147.072.142.153l-.07 1.9c-.002.078-.067.14-.146.14M327.613 218.98h-.012c-.081-.007-.141-.077-.134-.158l.183-2.345c.007-.082.068-.147.16-.135.082.005.142.077.135.158l-.183 2.345c-.007.076-.072.135-.149.135M334.405 222.207h-.02c-.082-.012-.138-.086-.129-.167.045-.32-.255-.834-.374-1.006-.046-.065-.03-.158.038-.204.065-.047.158-.03.204.037.02.028.493.71.425 1.212-.009.074-.072.128-.144.128" transform="translate(108 15)"/>
        <path fill="#FF9C91" d="M329.96 220.718c-.026 0-.051-.006-.074-.02l-3.295-1.927c-.07-.042-.093-.133-.054-.202.042-.072.133-.096.202-.054l3.295 1.927c.07.042.093.133.054.202-.028.047-.077.074-.128.074" transform="translate(108 15)"/>
        <path fill="#FFCEC8" d="M333.933 220.85l-3.425-5.223c-.464.292-.736.836-.71 1.428l1.01 3.292c.883 1.335 2.038.959 3.125.504" transform="translate(108 15)"/>
        <path fill="#FFEAE8" d="M366.972 262.07c0 1.9-1.543 3.442-3.444 3.442-.276 0-.55-.038-.808-.1.634-2.368 1.268-4.581 1.884-6.61 1.376.45 2.368 1.743 2.368 3.269M393.156 249.294c0 1.902 1.542 3.443 3.446 3.443 1.903 0 3.446-1.541 3.446-3.443 0-1.901-1.543-3.443-3.446-3.443-1.904 0-3.446 1.542-3.446 3.443M375.212 243.17c0 1.901 1.543 3.443 3.448 3.443 1.903 0 3.446-1.542 3.446-3.443 0-1.902-1.543-3.444-3.446-3.444-1.905 0-3.448 1.542-3.448 3.444M390.992 278.081c0 1.902 1.543 3.443 3.446 3.443 1.903 0 3.446-1.541 3.446-3.443 0-1.901-1.543-3.443-3.446-3.443-1.903 0-3.446 1.542-3.446 3.443M427.333 285.492c-.544.358-1.185.56-1.876.56-1.9 0-3.443-1.542-3.443-3.45 0-.597.155-1.168.432-1.663 1.891 1.937 3.564 3.441 4.887 4.553M391.617 309.408c-1.487 1.616-2.93 3.26-4.38 4.883-1.194-.532-2.03-1.734-2.03-3.13 0-1.908 1.542-3.45 3.445-3.45 1.267 0 2.368.68 2.965 1.697M360.359 325.911c0 1.486-.937 2.744-2.259 3.23-.33-2.23-.606-4.451-.809-6.664 1.727.193 3.068 1.653 3.068 3.434M365.529 293.258c0 1.904 1.543 3.446 3.446 3.446 1.903 0 3.446-1.542 3.446-3.446 0-1.901-1.543-3.443-3.446-3.443-1.903 0-3.446 1.542-3.446 3.443" transform="translate(108 15)"/>
        <path fill="#FFCEC8" d="M380.147 217.027L373.562 229l-31.254-7.687-3.506 6.067 29.05 14.34c2.55 1.26 5.42 1.712 8.231 1.303 3.746-.543 7.113-2.58 9.335-5.642l6.464-8.913s-5.27.11-6.706-6.113c0 0-1.234-5.57-5.029-5.328" transform="translate(108 15)"/>
        <path fill="#FFF" d="M352.697 336.43c-.174 0-.332-.127-.362-.306-.035-.2.1-.392.3-.424 11.4-1.974 21.524-7.843 30.952-17.943 1.022-1.096 2.093-2.275 3.374-3.71l1.129-1.27c1.076-1.207 2.154-2.42 3.255-3.617 4.87-5.338 10.327-10.743 17.205-14.132 10.417-5.124 22.168-1.941 27.943 7.564.107.174.05.401-.123.506-.175.107-.402.051-.507-.123-5.663-9.32-16.76-12.315-26.988-7.286-6.769 3.334-12.162 8.684-16.984 13.968-1.101 1.195-2.177 2.405-3.248 3.61l-1.132 1.27c-1.282 1.44-2.358 2.624-3.385 3.724-9.542 10.223-19.8 16.164-31.364 18.165-.023.003-.044.005-.065.005" transform="translate(108 15)"/>
        <path fill="url(#prefix__e)" d="M310.473 210.222h25.605c3.251 0 5.889-2.633 5.889-5.881v-25.584c0-3.248-2.638-5.882-5.889-5.882h-25.605c-3.25 0-5.886 2.634-5.886 5.882v25.584c0 3.248 2.635 5.881 5.886 5.881" transform="translate(108 15)"/>
        <path fill="#FFF" d="M327.174 186.42h3.292v-4.7c-4.5-.39-6.584-.217-8.25 1.342-1.328 1.242-2.125 3.076-2.125 5.242v4.028h-4.355v5.199h4.375v13.45h5.188v-13.45h4.355l.604-5.199h-4.959v-3.964c0-1.076.84-1.949 1.875-1.949" transform="translate(108 15)"/>
    </g>
</svg>
