<svg xmlns="http://www.w3.org/2000/svg" xmlns:xlink="http://www.w3.org/1999/xlink" width="680" height="500" viewBox="0 0 680 500">
    <defs>
        <path id="prefix__a" d="M7.107 1.298c-.009 1.68-.201 3.41-.562 5.19-.997 5.056-3.253 10.464-5.743 15.946-1.635 3.603-.067 8.802 2.691 11.635 2.817 2.883 6.054 6.252 15.486 6.519 13.977.393 16.6-10.18 16.165-16.106-.193-2.599-1.023-5.106-2.314-7.371-2.163-3.787-3.698-7.506-4.503-11.141-.444-1.981-.67-3.929-.67-5.86 0 0-2.566 1.188-20.55 1.188"/>
        <path id="prefix__d" d="M.124 1.048h.561C.52.727.334.411.125.101"/>
        <path id="prefix__f" d="M.124 1.048h.561C.52.727.334.411.125.101"/>
        <path id="prefix__h" d="M.124 1.048h.561C.52.727.334.411.125.101"/>
        <path id="prefix__j" d="M.124 1.048h.561C.52.727.334.411.125.101"/>
        <path id="prefix__l" d="M.124 1.048h.561C.52.727.334.411.125.101"/>
        <path id="prefix__n" d="M.124 1.048h.561C.52.727.334.411.125.101"/>
        <path id="prefix__p" d="M.124 1.048h.561C.52.727.334.411.125.101"/>
        <path id="prefix__r" d="M.073.174v4.07h.821c.009-.192.017-.393.017-.585 0-1.212-.178-2.382-.51-3.485"/>
        <path id="prefix__t" d="M.073.174v4.07h.821c.009-.192.017-.393.017-.585 0-1.212-.178-2.382-.51-3.485"/>
        <path id="prefix__v" d="M.073.174v4.07h.821c.009-.192.017-.393.017-.585 0-1.212-.178-2.382-.51-3.485"/>
        <path id="prefix__x" d="M.073.174v4.07h.821c.009-.192.017-.393.017-.585 0-1.212-.178-2.382-.51-3.485"/>
        <path id="prefix__z" d="M.073.174v4.07h.821c.009-.192.017-.393.017-.585 0-1.212-.178-2.382-.51-3.485"/>
        <path id="prefix__B" d="M.073.174v4.07h.821c.009-.192.017-.393.017-.585 0-1.212-.178-2.382-.51-3.485"/>
        <path id="prefix__D" d="M.073.174v4.07h.821c.009-.192.017-.393.017-.585 0-1.212-.178-2.382-.51-3.485"/>
        <path id="prefix__F" d="M.092 1.068h2.001C1.464.66.795.309.093.022"/>
        <path id="prefix__H" d="M.092 1.068h2.001C1.464.66.795.309.093.022"/>
        <path id="prefix__J" d="M.092 1.068h2.001C1.464.66.795.309.093.022"/>
        <path id="prefix__L" d="M.092 1.068h2.001C1.464.66.795.309.093.022"/>
        <path id="prefix__N" d="M.092 1.068h2.001C1.464.66.795.309.093.022"/>
        <path id="prefix__P" d="M.092 1.068h2.001C1.464.66.795.309.093.022"/>
        <path id="prefix__R" d="M.092 1.068h2.001C1.464.66.795.309.093.022"/>
        <path id="prefix__T" d="M.092.193v6.686H6.8v-.947C5.866 3.564 4.206 1.56 2.093.193"/>
        <path id="prefix__V" d="M.092.193v6.686H6.8v-.947C5.866 3.564 4.206 1.56 2.093.193"/>
        <path id="prefix__X" d="M.092.193v6.686H6.8v-.947C5.866 3.564 4.206 1.56 2.093.193"/>
        <path id="prefix__Z" d="M.092.193v6.686H6.8v-.947C5.866 3.564 4.206 1.56 2.093.193"/>
        <path id="prefix__ab" d="M.092.193v6.686H6.8v-.947C5.866 3.564 4.206 1.56 2.093.193"/>
        <path id="prefix__ad" d="M.092.193v6.686H6.8v-.947C5.866 3.564 4.206 1.56 2.093.193"/>
        <path id="prefix__af" d="M.092.193v6.686H6.8v-.947C5.866 3.564 4.206 1.56 2.093.193"/>
        <path id="prefix__ah" d="M0.193 0.139L1.535 0.139 1.535 2.203 0.193 2.203z"/>
        <path id="prefix__aj" d="M0.057 0.139L2.74 0.139 2.74 2.203 0.057 2.203z"/>
        <path id="prefix__al" d="M0.092 0.139L1.434 0.139 1.434 2.203 0.092 2.203z"/>
        <path id="prefix__an" d="M0.271 0.173L2.955 0.173 2.955 1.511 0.271 1.511z"/>
        <path id="prefix__ap" d="M0.135 0.173L2.818 0.173 2.818 1.511 0.135 1.511z"/>
        <path id="prefix__ar" d="M.111.469v1.765H6.82V1.188C5.397.607 3.839.287 2.207.287 1.496.287.793.347.111.469"/>
        <path id="prefix__at" d="M.111.469v1.765H6.82V1.188C5.397.607 3.839.287 2.207.287 1.496.287.793.347.111.469"/>
        <path id="prefix__av" d="M.111.469v1.765H6.82V1.188C5.397.607 3.839.287 2.207.287 1.496.287.793.347.111.469"/>
        <path id="prefix__ax" d="M.111.469v1.765H6.82V1.188C5.397.607 3.839.287 2.207.287 1.496.287.793.347.111.469"/>
        <path id="prefix__az" d="M.111.469v1.765H6.82V1.188C5.397.607 3.839.287 2.207.287 1.496.287.793.347.111.469"/>
        <path id="prefix__aB" d="M.111.469v1.765H6.82V1.188C5.397.607 3.839.287 2.207.287 1.496.287.793.347.111.469"/>
        <path id="prefix__aD" d="M.111.469v1.765H6.82V1.188C5.397.607 3.839.287 2.207.287 1.496.287.793.347.111.469"/>
        <path id="prefix__aF" d="M0.291 0.003L2.974 0.003 2.974 1.34 0.291 1.34z"/>
        <path id="prefix__aH" d="M0.154 0.003L2.837 0.003 2.837 1.34 0.154 1.34z"/>
        <path id="prefix__aJ" d="M0.213 0.158L1.554 0.158 1.554 2.833 0.213 2.833z"/>
        <path id="prefix__aL" d="M0.111 0.158L1.453 0.158 1.453 2.833 0.111 2.833z"/>
        <path id="prefix__aN" d="M0.291 0.193L2.974 0.193 2.974 1.53 0.291 1.53z"/>
        <path id="prefix__aP" d="M0.154 0.193L2.837 0.193 2.837 1.53 0.154 1.53z"/>
        <path id="prefix__aR" d="M0.213 0.139L1.554 0.139 1.554 2.203 0.213 2.203z"/>
        <path id="prefix__aT" d="M0.076 0.139L2.759 0.139 2.759 2.203 0.076 2.203z"/>
        <path id="prefix__aV" d="M0.111 0.139L1.453 0.139 1.453 2.203 0.111 2.203z"/>
        <path id="prefix__aX" d="M0.291 0.173L2.974 0.173 2.974 1.511 0.291 1.511z"/>
        <path id="prefix__aZ" d="M0.154 0.173L2.837 0.173 2.837 1.511 0.154 1.511z"/>
        <path id="prefix__bb" d="M.679.195C.559.774.442 1.356.325 1.942h.468V.177L.68.195"/>
        <path id="prefix__bd" d="M.679.195C.559.774.442 1.356.325 1.942h.468V.177L.68.195"/>
        <path id="prefix__bf" d="M.679.195C.559.774.442 1.356.325 1.942h.468V.177L.68.195"/>
        <path id="prefix__bh" d="M.679.195C.559.774.442 1.356.325 1.942h.468V.177L.68.195"/>
        <path id="prefix__bj" d="M.679.195C.559.774.442 1.356.325 1.942h.468V.177L.68.195"/>
        <path id="prefix__bl" d="M.679.195C.559.774.442 1.356.325 1.942h.468V.177L.68.195"/>
        <path id="prefix__bn" d="M.679.195C.559.774.442 1.356.325 1.942h.468V.177L.68.195"/>
        <path id="prefix__bp" d="M1.163.193C.783 2.369.42 4.597.073 6.879h1.5V.193"/>
        <path id="prefix__br" d="M1.163.193C.783 2.369.42 4.597.073 6.879h1.5V.193"/>
        <path id="prefix__bt" d="M1.163.193C.783 2.369.42 4.597.073 6.879h1.5V.193"/>
        <path id="prefix__bv" d="M1.163.193C.783 2.369.42 4.597.073 6.879h1.5V.193"/>
        <path id="prefix__bx" d="M1.163.193C.783 2.369.42 4.597.073 6.879h1.5V.193"/>
        <path id="prefix__bz" d="M1.163.193C.783 2.369.42 4.597.073 6.879h1.5V.193"/>
        <path id="prefix__bB" d="M1.163.193C.783 2.369.42 4.597.073 6.879h1.5V.193"/>
        <path id="prefix__bD" d="M.658.174C.454 1.512.256 2.868.063 4.244h2.095V.174"/>
        <path id="prefix__bF" d="M.658.174C.454 1.512.256 2.868.063 4.244h2.095V.174"/>
        <path id="prefix__bH" d="M.658.174C.454 1.512.256 2.868.063 4.244h2.095V.174"/>
        <path id="prefix__bJ" d="M.658.174C.454 1.512.256 2.868.063 4.244h2.095V.174"/>
        <path id="prefix__bL" d="M.658.174C.454 1.512.256 2.868.063 4.244h2.095V.174"/>
        <path id="prefix__bN" d="M.658.174C.454 1.512.256 2.868.063 4.244h2.095V.174"/>
        <path id="prefix__bP" d="M.658.174C.454 1.512.256 2.868.063 4.244h2.095V.174"/>
        <path id="prefix__bR" d="M.118 6.296h.998C.796 4.201.464 2.152.118.146"/>
        <path id="prefix__bT" d="M.118 6.296h.998C.796 4.201.464 2.152.118.146"/>
        <path id="prefix__bV" d="M.118 6.296h.998C.796 4.201.464 2.152.118.146"/>
        <path id="prefix__bX" d="M.118 6.296h.998C.796 4.201.464 2.152.118.146"/>
        <path id="prefix__bZ" d="M.118 6.296h.998C.796 4.201.464 2.152.118.146"/>
        <path id="prefix__cb" d="M.118 6.296h.998C.796 4.201.464 2.152.118.146"/>
        <path id="prefix__cd" d="M.118 6.296h.998C.796 4.201.464 2.152.118.146"/>
        <path id="prefix__cf" d="M.118.174v4.07h1.593c-.193-1.375-.391-2.732-.595-4.07"/>
        <path id="prefix__ch" d="M.118.174v4.07h1.593c-.193-1.375-.391-2.732-.595-4.07"/>
        <path id="prefix__cj" d="M.118.174v4.07h1.593c-.193-1.375-.391-2.732-.595-4.07"/>
        <path id="prefix__cl" d="M.118.174v4.07h1.593c-.193-1.375-.391-2.732-.595-4.07"/>
        <path id="prefix__cn" d="M.118.174v4.07h1.593c-.193-1.375-.391-2.732-.595-4.07"/>
        <path id="prefix__cp" d="M.118.174v4.07h1.593c-.193-1.375-.391-2.732-.595-4.07"/>
        <path id="prefix__cr" d="M.118.174v4.07h1.593c-.193-1.375-.391-2.732-.595-4.07"/>
        <path id="prefix__ct" d="M.138 1.897v.337h6.614C6.64 1.583 6.525.936 6.41.294c-.067-.007-.142-.007-.21-.007-2.207 0-4.277.586-6.061 1.61"/>
        <path id="prefix__cv" d="M.138 1.897v.337h6.614C6.64 1.583 6.525.936 6.41.294c-.067-.007-.142-.007-.21-.007-2.207 0-4.277.586-6.061 1.61"/>
        <path id="prefix__cx" d="M.138 1.897v.337h6.614C6.64 1.583 6.525.936 6.41.294c-.067-.007-.142-.007-.21-.007-2.207 0-4.277.586-6.061 1.61"/>
        <path id="prefix__cz" d="M.138 1.897v.337h6.614C6.64 1.583 6.525.936 6.41.294c-.067-.007-.142-.007-.21-.007-2.207 0-4.277.586-6.061 1.61"/>
        <path id="prefix__cB" d="M.138 1.897v.337h6.614C6.64 1.583 6.525.936 6.41.294c-.067-.007-.142-.007-.21-.007-2.207 0-4.277.586-6.061 1.61"/>
        <path id="prefix__cD" d="M.138 1.897v.337h6.614C6.64 1.583 6.525.936 6.41.294c-.067-.007-.142-.007-.21-.007-2.207 0-4.277.586-6.061 1.61"/>
        <path id="prefix__cF" d="M.138 1.897v.337h6.614C6.64 1.583 6.525.936 6.41.294c-.067-.007-.142-.007-.21-.007-2.207 0-4.277.586-6.061 1.61"/>
        <path id="prefix__cH" d="M.138.193v6.686h6.707V.73L6.752.194"/>
        <path id="prefix__cJ" d="M.138.193v6.686h6.707V.73L6.752.194"/>
        <path id="prefix__cL" d="M.138.193v6.686h6.707V.73L6.752.194"/>
        <path id="prefix__cN" d="M.138.193v6.686h6.707V.73L6.752.194"/>
        <path id="prefix__cP" d="M.138.193v6.686h6.707V.73L6.752.194"/>
        <path id="prefix__cR" d="M.138.193v6.686h6.707V.73L6.752.194"/>
        <path id="prefix__cT" d="M.138.193v6.686h6.707V.73L6.752.194"/>
        <path id="prefix__cV" d="M0.239 0.139L1.581 0.139 1.581 2.203 0.239 2.203z"/>
        <path id="prefix__cX" d="M0.102 0.139L2.786 0.139 2.786 2.203 0.102 2.203z"/>
        <path id="prefix__cZ" d="M0.138 0.139L1.479 0.139 1.479 2.203 0.138 2.203z"/>
        <path id="prefix__db" d="M0.025 0.173L2.708 0.173 2.708 1.511 0.025 1.511z"/>
        <path id="prefix__dd" d="M0.18 0.173L2.864 0.173 2.864 1.511 0.18 1.511z"/>
        <path id="prefix__df" d="M.195.831h.629V.254C.61.438.4.63.195.831"/>
        <path id="prefix__dh" d="M.195.831h.629V.254C.61.438.4.63.195.831"/>
        <path id="prefix__dj" d="M.195.831h.629V.254C.61.438.4.63.195.831"/>
        <path id="prefix__dl" d="M.195.831h.629V.254C.61.438.4.63.195.831"/>
        <path id="prefix__dn" d="M.195.831h.629V.254C.61.438.4.63.195.831"/>
        <path id="prefix__dp" d="M.195.831h.629V.254C.61.438.4.63.195.831"/>
        <path id="prefix__dr" d="M.195.831h.629V.254C.61.438.4.63.195.831"/>
        <path id="prefix__dt" d="M5.143.193C2.754 1.739.945 4.099.11 6.879h5.586V.193"/>
        <path id="prefix__dv" d="M5.143.193C2.754 1.739.945 4.099.11 6.879h5.586V.193"/>
        <path id="prefix__dx" d="M5.143.193C2.754 1.739.945 4.099.11 6.879h5.586V.193"/>
        <path id="prefix__dz" d="M5.143.193C2.754 1.739.945 4.099.11 6.879h5.586V.193"/>
        <path id="prefix__dB" d="M5.143.193C2.754 1.739.945 4.099.11 6.879h5.586V.193"/>
        <path id="prefix__dD" d="M5.143.193C2.754 1.739.945 4.099.11 6.879h5.586V.193"/>
        <path id="prefix__dF" d="M5.143.193C2.754 1.739.945 4.099.11 6.879h5.586V.193"/>
        <path id="prefix__dH" d="M.694.174C.363 1.277.184 2.447.184 3.659c0 .192.008.393.017.585H6.28V.174"/>
        <path id="prefix__dJ" d="M.694.174C.363 1.277.184 2.447.184 3.659c0 .192.008.393.017.585H6.28V.174"/>
        <path id="prefix__dL" d="M.694.174C.363 1.277.184 2.447.184 3.659c0 .192.008.393.017.585H6.28V.174"/>
        <path id="prefix__dN" d="M.694.174C.363 1.277.184 2.447.184 3.659c0 .192.008.393.017.585H6.28V.174"/>
        <path id="prefix__dP" d="M.694.174C.363 1.277.184 2.447.184 3.659c0 .192.008.393.017.585H6.28V.174"/>
        <path id="prefix__dR" d="M.694.174C.363 1.277.184 2.447.184 3.659c0 .192.008.393.017.585H6.28V.174"/>
        <path id="prefix__dT" d="M.694.174C.363 1.277.184 2.447.184 3.659c0 .192.008.393.017.585H6.28V.174"/>
        <path id="prefix__dV" d="M3.307 13.38C4.778 26.49.065 42.511.065 42.511s8.8.832 14.12 2.29c11.127 3.052 23.97 8.094 23.97 8.094s1.316-25.032-8.262-38.589C20.315.749 1.06.106 1.06.106S2.34 4.762 3.307 13.38"/>
        <path id="prefix__dY" d="M9.722 25.385C-1.392 38.94.217 61.682.217 61.682s21.643-4.374 31.436-7.593c8.66-2.847 9.479-2.515 9.552-2.4-.179-.73-3.97-16.41-3.114-29.271C38.968 9.247 43.355.03 43.355.03S20.835 11.828 9.722 25.385"/>
        <path id="prefix__eb" d="M0 499.252L680 499.252 680 0.25 0 0.25z"/>
        <path id="prefix__ed" d="M3.576.106C1.704.106.195 1.632.223 3.497l.74 50.47c.026 1.827 1.52 3.294 3.353 3.294h88.28c1.872 0 3.381-1.527 3.354-3.392L95.21 3.4C95.183 1.573 93.69.106 91.856.106H3.576z"/>
        <linearGradient id="prefix__b" x1="49.999%" x2="49.999%" y1="100%" y2="0%">
            <stop offset="0%" stop-color="#F6C3BF"/>
            <stop offset="100%" stop-color="#E99A77"/>
        </linearGradient>
        <linearGradient id="prefix__dW" x1="62.796%" x2="32.933%" y1="22.212%" y2="90.471%">
            <stop offset="0%" stop-color="#E47269"/>
            <stop offset="100%" stop-color="#BC5631"/>
        </linearGradient>
        <linearGradient id="prefix__dZ" x1="39.854%" x2="72.987%" y1="35.506%" y2="82.622%">
            <stop offset="0%" stop-color="#E47269"/>
            <stop offset="100%" stop-color="#8C1715"/>
        </linearGradient>
        <linearGradient id="prefix__ee" x1="39.419%" x2="60.581%" y1="73.503%" y2="26.497%">
            <stop offset="0%" stop-color="#5B5959"/>
            <stop offset="100%" stop-color="#231714"/>
        </linearGradient>
    </defs>
    <g fill="none" fill-rule="evenodd">
        <g transform="translate(325.816 132.303)">
            <mask id="prefix__c" fill="#fff">
                <use xlink:href="#prefix__a"/>
            </mask>
            <path fill="url(#prefix__b)" d="M7.107 1.298c-.009 1.68-.201 3.41-.562 5.19-.997 5.056-3.253 10.464-5.743 15.946-1.635 3.603-.067 8.802 2.691 11.635 2.817 2.883 6.054 6.252 15.486 6.519 13.977.393 16.6-10.18 16.165-16.106-.193-2.599-1.023-5.106-2.314-7.371-2.163-3.787-3.698-7.506-4.503-11.141-.444-1.981-.67-3.929-.67-5.86 0 0-2.566 1.188-20.55 1.188" mask="url(#prefix__c)"/>
        </g>
        <g>
            <path fill="#E5736A" d="M204.974 182.085H.062c.613-4.355 1.275-8.517 1.996-12.504 4.77-26.67 11.662-45.199 17.49-57.2 6.53-13.448 17.455-24.272 30.887-30.891 16.752-8.258 38.886-14.651 38.886-14.651l-1.97 4.53c-1.668 3.844-1.526 8.265.528 11.918 2.406 4.254 6.859 8.985 14.89 9.72 9.668.877 14.036-6.686 15.922-12.22 1.073-3.133.897-6.569-.41-9.619l-2.214-5.174s21.782 7.238 38.534 15.496c13.431 6.62 24.356 17.443 30.888 30.89 5.81 11.977 12.685 30.44 17.456 57.01.729 4.044 1.408 8.273 2.029 12.695" transform="translate(240.709 79.825)"/>
            <path fill="#FFC8C2" d="M83.18 32.425s-.259 24.823 19.703 24.823c19.961 0 18.795-24.823 18.795-24.823s3.5-21.114-20.48-21.114c0 0-19.184-1.426-18.017 21.114" transform="translate(240.709 79.825)"/>
            <path fill="#FFC8C2" d="M85.7 43.562s-7.373-2.192-6.595-8.148c0 0 1.194-2.99 4.874 0 0 0-.11 5.714 1.72 8.148M119.202 43.562s7.372-2.192 6.595-8.148c0 0-1.194-2.99-4.875 0 0 0 .11 5.714-1.72 8.148" transform="translate(240.709 79.825)"/>
            <path fill="#282828" d="M121.671 34.27s-4.012-1.558-7.252-7.794c0 0-16.591 3.931-20.09-5.151 0 0-8.563-3.49-11.087 12.76 0 0 .731-3.925-5.044-6.445 0 0-5.79-5.83 1.742-8.349 0 0-3.213-7.998 3.19-13.962 0 0 3.94-5.016 11.068 0 0 0 2.362-6.23 9.389-5.023 5.476.94 6.555 5.565 6.555 5.565s5.474-3.118 13.236 4.067c7.762 7.184 1.786 20.47-1.707 24.333" transform="translate(240.709 79.825)"/>
            <path fill="#404041" d="M121.671 34.27s-3.71-8.323-4.783-14.153c0 0-18.24 1.665-21.74-6.22 0 0-10.21 4.274-11.815 19.626 0 0-4.286-5.05-6.188-7.22 0 0-3.834-4.535 2.795-7.012 0 0-3.046-9.27 3.357-14.449 0 0 3.94-4.354 11.069 0 0 0 2.361-5.408 9.388-4.36 5.476.816 6.388 5.389 6.388 5.389s7.435-2.907 13.861 4.692c6.434 7.608 1.161 20.353-2.332 23.708" transform="translate(240.709 79.825)"/>
            <path fill="#E8E8E8" d="M41.285 151.966c-.03 0-.06-.003-.091-.01-.226-.05-.369-.273-.318-.499.053-.235 5.168-23.781-4.163-43.75-.098-.21-.007-.458.203-.556.21-.097.46-.006.557.203 9.453 20.232 4.275 44.047 4.221 44.285-.043.195-.216.327-.409.327" transform="translate(240.709 79.825)"/>
            <path fill="#FFF" d="M88.328 84.039l2.086 32.683h28.788l-1.159-34.226s-3.326 9.433-15.273 8.597c-11.948-.836-14.442-7.054-14.442-7.054" transform="translate(240.709 79.825)"/>
            <path fill="#D37F62" d="M92.214 53.775s4.883 5.608 16.453 2.658c0 0-7.521 5.23-17.015 2.533 0 0 .905-4.202.562-5.19" transform="translate(240.709 79.825)"/>
            <path fill="#FF7867" d="M84.525 28.17c-.488 4.985-.28 9.99.602 14.873-.76.596-1.65 1.042-2.624 1.235-.215.043-.433.073-.655.08-3.489.366-7.034-3.167-7.242-8.256-.22-5.073 3.028-9.004 6.542-8.962.223-.015.442-.004.66.019.989.104 1.911.474 2.717 1.01" transform="translate(240.709 79.825)"/>
            <path fill="#656EDA" d="M84.669 26.864c-.693 5.653-.486 11.347.589 16.875.18.928-.399 1.857-1.332 2.077-.933.22-1.875-.41-2.069-1.41-1.145-5.881-1.365-11.938-.63-17.948.126-1.033 1.025-1.748 1.972-1.6.947.149 1.587 1.045 1.47 2.006" transform="translate(240.709 79.825)"/>
            <path fill="#FF7867" d="M120.661 28.087c.302 5.001.022 9.99-.819 14.87.766.59 1.66 1.024 2.636 1.208.216.04.434.069.656.073 3.494.323 6.969-3.116 7.244-8.057.285-4.926-2.787-8.873-6.302-8.987-.221-.023-.441-.02-.66-.007-.992.065-1.93.395-2.755.9" transform="translate(240.709 79.825)"/>
            <path fill="#656EDA" d="M120.569 26.778c.457 5.676.164 11.35-.85 16.875-.17.93.423 1.846 1.36 2.051.936.205 1.865-.43 2.046-1.418 1.07-5.82 1.38-11.794.9-17.768-.082-1.027-.945-1.775-1.898-1.673-.954.102-1.636.967-1.558 1.933" transform="translate(240.709 79.825)"/>
            <path fill="#FF7867" d="M130.437 36.067h-1.676v-.51c0-14.79-12.232-27.764-26.175-27.764-13.909 0-25.894 12.492-26.17 27.277l-.018.936-1.676-.031.017-.936c.294-15.675 13.046-28.917 27.847-28.917 14.837 0 27.851 13.754 27.851 29.435v.51z" transform="translate(240.709 79.825)"/>
        </g>
        <g fill="#F25C49">
            <path d="M7.907 8.065c0 .738-.6 1.337-1.341 1.337s-1.342-.599-1.342-1.337c0-.74.6-1.338 1.342-1.338.74 0 1.341.599 1.341 1.338M4.554 8.065c0 .738-.601 1.337-1.342 1.337-.741 0-1.342-.599-1.342-1.337 0-.74.601-1.338 1.342-1.338.74 0 1.342.599 1.342 1.338M9.584 4.721c0 .74-.6 1.338-1.341 1.338S6.9 5.46 6.9 4.72c0-.738.6-1.337 1.342-1.337.74 0 1.341.599 1.341 1.337M6.23 4.721c0 .74-.6 1.338-1.341 1.338S3.547 5.46 3.547 4.72c0-.738.6-1.337 1.342-1.337.74 0 1.342.599 1.342 1.337M2.877 4.721c0 .74-.6 1.338-1.342 1.338-.74 0-1.342-.599-1.342-1.338 0-.738.601-1.337 1.342-1.337.741 0 1.342.599 1.342 1.337M7.907 1.378c0 .739-.6 1.338-1.341 1.338s-1.342-.599-1.342-1.338c0-.738.6-1.337 1.342-1.337.74 0 1.341.599 1.341 1.337M4.554 1.378c0 .739-.601 1.338-1.342 1.338-.741 0-1.342-.599-1.342-1.338C1.87.64 2.471.041 3.212.041c.74 0 1.342.599 1.342 1.337" transform="translate(254.747 243.089)"/>
        </g>
        <g transform="translate(256.21 256.791)">
            <mask id="prefix__e" fill="#fff">
                <use xlink:href="#prefix__d"/>
            </mask>
            <path fill="#F25C49" d="M11.019 1.048c0 .74-1.027 1.338-2.294 1.338-1.267 0-2.294-.599-2.294-1.338 0-.738 1.027-1.337 2.294-1.337 1.267 0 2.294.599 2.294 1.337" mask="url(#prefix__e)"/>
            <mask id="prefix__g" fill="#fff">
                <use xlink:href="#prefix__f"/>
            </mask>
            <path fill="#F25C49" d="M5.285 1.048c0 .74-1.027 1.338-2.294 1.338-1.267 0-2.294-.599-2.294-1.338C.697.31 1.724-.289 2.991-.289c1.267 0 2.294.599 2.294 1.337" mask="url(#prefix__g)"/>
            <mask id="prefix__i" fill="#fff">
                <use xlink:href="#prefix__h"/>
            </mask>
            <path fill="#F25C49" d="M13.885-2.295c0 .739-1.027 1.338-2.293 1.338-1.267 0-2.294-.6-2.294-1.338 0-.738 1.027-1.337 2.294-1.337 1.266 0 2.293.599 2.293 1.337" mask="url(#prefix__i)"/>
            <g>
                <mask id="prefix__k" fill="#fff">
                    <use xlink:href="#prefix__j"/>
                </mask>
                <path fill="#F25C49" d="M8.152-2.295c0 .739-1.027 1.338-2.294 1.338-1.267 0-2.294-.6-2.294-1.338 0-.738 1.027-1.337 2.294-1.337 1.267 0 2.294.599 2.294 1.337" mask="url(#prefix__k)"/>
            </g>
            <g>
                <mask id="prefix__m" fill="#fff">
                    <use xlink:href="#prefix__l"/>
                </mask>
                <path fill="#F25C49" d="M2.418-2.295c0 .739-1.027 1.338-2.293 1.338-1.267 0-2.294-.6-2.294-1.338 0-.738 1.027-1.337 2.294-1.337 1.266 0 2.293.599 2.293 1.337" mask="url(#prefix__m)"/>
            </g>
            <g>
                <mask id="prefix__o" fill="#fff">
                    <use xlink:href="#prefix__n"/>
                </mask>
                <path fill="#F25C49" d="M11.019-5.638c0 .739-1.027 1.337-2.294 1.337-1.267 0-2.294-.598-2.294-1.337s1.027-1.337 2.294-1.337c1.267 0 2.294.598 2.294 1.337" mask="url(#prefix__o)"/>
            </g>
            <g>
                <mask id="prefix__q" fill="#fff">
                    <use xlink:href="#prefix__p"/>
                </mask>
                <path fill="#F25C49" d="M5.285-5.638c0 .739-1.027 1.337-2.294 1.337C1.724-4.3.697-4.899.697-5.638s1.027-1.337 2.294-1.337c1.267 0 2.294.598 2.294 1.337" mask="url(#prefix__q)"/>
            </g>
        </g>
        <g transform="translate(256.21 257.666)">
            <mask id="prefix__s" fill="#fff">
                <use xlink:href="#prefix__r"/>
            </mask>
            <path fill="#F25C49" d="M6.445 6.86c0 .739-.6 1.337-1.341 1.337-.742 0-1.342-.598-1.342-1.337s.6-1.338 1.342-1.338c.74 0 1.341.6 1.341 1.338" mask="url(#prefix__s)"/>
            <mask id="prefix__u" fill="#fff">
                <use xlink:href="#prefix__t"/>
            </mask>
            <path fill="#F25C49" d="M3.091 6.86c0 .739-.6 1.337-1.341 1.337S.408 7.6.408 6.86s.6-1.338 1.342-1.338c.74 0 1.341.6 1.341 1.338" mask="url(#prefix__u)"/>
            <mask id="prefix__w" fill="#fff">
                <use xlink:href="#prefix__v"/>
            </mask>
            <path fill="#F25C49" d="M8.122 3.517c0 .738-.6 1.337-1.342 1.337-.74 0-1.341-.599-1.341-1.337 0-.739.6-1.338 1.341-1.338s1.342.6 1.342 1.338" mask="url(#prefix__w)"/>
            <g>
                <mask id="prefix__y" fill="#fff">
                    <use xlink:href="#prefix__x"/>
                </mask>
                <path fill="#F25C49" d="M4.768 3.517c0 .738-.6 1.337-1.341 1.337s-1.342-.599-1.342-1.337c0-.739.6-1.338 1.342-1.338.74 0 1.341.6 1.341 1.338" mask="url(#prefix__y)"/>
            </g>
            <g>
                <mask id="prefix__A" fill="#fff">
                    <use xlink:href="#prefix__z"/>
                </mask>
                <path fill="#D14A43" d="M1.414 3.517c0 .738-.6 1.337-1.341 1.337S-1.27 4.255-1.27 3.517c0-.739.6-1.338 1.342-1.338.74 0 1.341.6 1.341 1.338" mask="url(#prefix__A)"/>
            </g>
            <g>
                <mask id="prefix__C" fill="#fff">
                    <use xlink:href="#prefix__B"/>
                </mask>
                <path fill="#F25C49" d="M6.445.174c0 .738-.6 1.337-1.341 1.337-.742 0-1.342-.599-1.342-1.337 0-.739.6-1.338 1.342-1.338.74 0 1.341.6 1.341 1.338" mask="url(#prefix__C)"/>
            </g>
            <g>
                <mask id="prefix__E" fill="#fff">
                    <use xlink:href="#prefix__D"/>
                </mask>
                <path fill="#F25C49" d="M3.091.174c0 .738-.6 1.337-1.341 1.337S.408.912.408.174c0-.739.6-1.338 1.342-1.338.74 0 1.341.6 1.341 1.338" mask="url(#prefix__E)"/>
            </g>
        </g>
        <g transform="translate(249.483 250.086)">
            <mask id="prefix__G" fill="#fff">
                <use xlink:href="#prefix__F"/>
            </mask>
            <path fill="#F25C49" d="M6.464 1.068c0 .738-.6 1.337-1.341 1.337S3.78 1.806 3.78 1.068c0-.74.6-1.338 1.342-1.338.74 0 1.341.599 1.341 1.338" mask="url(#prefix__G)"/>
            <mask id="prefix__I" fill="#fff">
                <use xlink:href="#prefix__H"/>
            </mask>
            <path fill="#D14A43" d="M3.11 1.068c0 .738-.6 1.337-1.341 1.337S.427 1.806.427 1.068c0-.74.6-1.338 1.342-1.338.74 0 1.342.599 1.342 1.338" mask="url(#prefix__I)"/>
            <mask id="prefix__K" fill="#fff">
                <use xlink:href="#prefix__J"/>
            </mask>
            <path fill="#F25C49" d="M8.141-2.276c0 .74-.6 1.338-1.341 1.338-.742 0-1.342-.599-1.342-1.338 0-.738.6-1.337 1.342-1.337.74 0 1.341.599 1.341 1.337" mask="url(#prefix__K)"/>
            <g>
                <mask id="prefix__M" fill="#fff">
                    <use xlink:href="#prefix__L"/>
                </mask>
                <path fill="#F25C49" d="M4.788-2.276c0 .74-.601 1.338-1.342 1.338-.741 0-1.342-.599-1.342-1.338 0-.738.6-1.337 1.342-1.337.74 0 1.342.599 1.342 1.337" mask="url(#prefix__M)"/>
            </g>
            <g>
                <mask id="prefix__O" fill="#fff">
                    <use xlink:href="#prefix__N"/>
                </mask>
                <path fill="#F25C49" d="M1.434-2.276c0 .74-.601 1.338-1.342 1.338-.74 0-1.342-.599-1.342-1.338 0-.738.601-1.337 1.342-1.337.741 0 1.342.599 1.342 1.337" mask="url(#prefix__O)"/>
            </g>
            <g>
                <mask id="prefix__Q" fill="#fff">
                    <use xlink:href="#prefix__P"/>
                </mask>
                <path fill="#F25C49" d="M6.464-5.619c0 .739-.6 1.338-1.341 1.338S3.78-4.88 3.78-5.62c0-.738.6-1.337 1.342-1.337.74 0 1.341.599 1.341 1.337" mask="url(#prefix__Q)"/>
            </g>
            <g>
                <mask id="prefix__S" fill="#fff">
                    <use xlink:href="#prefix__R"/>
                </mask>
                <path fill="#F25C49" d="M3.11-5.619c0 .739-.6 1.338-1.341 1.338S.427-4.88.427-5.62c0-.738.6-1.337 1.342-1.337.74 0 1.342.599 1.342 1.337" mask="url(#prefix__S)"/>
            </g>
        </g>
        <g transform="translate(249.483 250.96)">
            <mask id="prefix__U" fill="#fff">
                <use xlink:href="#prefix__T"/>
            </mask>
            <path fill="#D14A43" d="M6.464 6.88c0 .738-.6 1.337-1.341 1.337s-1.342-.6-1.342-1.338c0-.738.6-1.337 1.342-1.337.74 0 1.341.599 1.341 1.337" mask="url(#prefix__U)"/>
            <mask id="prefix__W" fill="#fff">
                <use xlink:href="#prefix__V"/>
            </mask>
            <path fill="#D14A43" d="M3.11 6.88c0 .738-.6 1.337-1.341 1.337S.427 7.617.427 6.879c0-.738.6-1.337 1.342-1.337.74 0 1.342.599 1.342 1.337" mask="url(#prefix__W)"/>
            <mask id="prefix__Y" fill="#fff">
                <use xlink:href="#prefix__X"/>
            </mask>
            <path fill="#D14A43" d="M8.141 3.536c0 .739-.6 1.338-1.341 1.338-.742 0-1.342-.6-1.342-1.338 0-.738.6-1.338 1.342-1.338.74 0 1.341.6 1.341 1.338" mask="url(#prefix__Y)"/>
            <g>
                <mask id="prefix__aa" fill="#fff">
                    <use xlink:href="#prefix__Z"/>
                </mask>
                <path fill="#D14A43" d="M4.788 3.536c0 .739-.601 1.338-1.342 1.338-.741 0-1.342-.6-1.342-1.338 0-.738.6-1.338 1.342-1.338.74 0 1.342.6 1.342 1.338" mask="url(#prefix__aa)"/>
            </g>
            <g>
                <mask id="prefix__ac" fill="#fff">
                    <use xlink:href="#prefix__ab"/>
                </mask>
                <path fill="#D14A43" d="M1.434 3.536c0 .739-.601 1.338-1.342 1.338-.74 0-1.342-.6-1.342-1.338 0-.738.601-1.338 1.342-1.338.741 0 1.342.6 1.342 1.338" mask="url(#prefix__ac)"/>
            </g>
            <g>
                <mask id="prefix__ae" fill="#fff">
                    <use xlink:href="#prefix__ad"/>
                </mask>
                <path fill="#F25C49" d="M6.464.193c0 .739-.6 1.337-1.341 1.337S3.78.932 3.78.193s.6-1.338 1.342-1.338c.74 0 1.341.6 1.341 1.338" mask="url(#prefix__ae)"/>
            </g>
            <g>
                <mask id="prefix__ag" fill="#fff">
                    <use xlink:href="#prefix__af"/>
                </mask>
                <path fill="#D14A43" d="M3.11.193c0 .739-.6 1.337-1.341 1.337S.427.932.427.193s.6-1.338 1.342-1.338c.74 0 1.342.6 1.342 1.338" mask="url(#prefix__ag)"/>
            </g>
        </g>
        <g>
            <g transform="translate(249.483 257.666) translate(5.264 2.04)">
                <mask id="prefix__ai" fill="#fff">
                    <use xlink:href="#prefix__ah"/>
                </mask>
                <path fill="#D14A43" d="M2.877 1.476c0 .739-.6 1.338-1.342 1.338-.74 0-1.342-.6-1.342-1.338C.193.737.794.14 1.535.14c.741 0 1.342.598 1.342 1.337" mask="url(#prefix__ai)"/>
            </g>
            <g transform="translate(249.483 257.666) translate(2.047 2.04)">
                <mask id="prefix__ak" fill="#fff">
                    <use xlink:href="#prefix__aj"/>
                </mask>
                <path fill="#D14A43" d="M2.74 1.476c0 .739-.6 1.338-1.342 1.338-.74 0-1.341-.6-1.341-1.338C.057.737.657.14 1.398.14c.742 0 1.342.598 1.342 1.337" mask="url(#prefix__ak)"/>
            </g>
            <g transform="translate(249.483 257.666) translate(0 2.04)">
                <mask id="prefix__am" fill="#fff">
                    <use xlink:href="#prefix__al"/>
                </mask>
                <path fill="#D14A43" d="M1.434 1.476c0 .739-.601 1.338-1.342 1.338-.74 0-1.342-.6-1.342-1.338C-1.25.737-.649.14.092.14c.741 0 1.342.598 1.342 1.337" mask="url(#prefix__am)"/>
            </g>
            <g transform="translate(249.483 257.666) translate(3.51)">
                <mask id="prefix__ao" fill="#fff">
                    <use xlink:href="#prefix__an"/>
                </mask>
                <path fill="#D14A43" d="M2.955.174c0 .738-.601 1.337-1.342 1.337C.873 1.511.271.912.271.174c0-.739.601-1.338 1.342-1.338.741 0 1.342.6 1.342 1.338" mask="url(#prefix__ao)"/>
            </g>
            <g transform="translate(249.483 257.666) translate(.292)">
                <mask id="prefix__aq" fill="#fff">
                    <use xlink:href="#prefix__ap"/>
                </mask>
                <path fill="#D14A43" d="M2.818.174c0 .738-.6 1.337-1.341 1.337C.735 1.511.135.912.135.174c0-.739.6-1.338 1.342-1.338.74 0 1.341.6 1.341 1.338" mask="url(#prefix__aq)"/>
            </g>
        </g>
        <g transform="translate(242.756 248.92)">
            <mask id="prefix__as" fill="#fff">
                <use xlink:href="#prefix__ar"/>
            </mask>
            <path fill="#D14A43" d="M6.484 2.234c0 .738-.601 1.337-1.342 1.337-.741 0-1.342-.599-1.342-1.337 0-.739.601-1.338 1.342-1.338.74 0 1.342.6 1.342 1.338" mask="url(#prefix__as)"/>
            <mask id="prefix__au" fill="#fff">
                <use xlink:href="#prefix__at"/>
            </mask>
            <path fill="#D14A43" d="M3.13 2.234c0 .738-.6 1.337-1.342 1.337-.74 0-1.341-.599-1.341-1.337 0-.739.6-1.338 1.341-1.338s1.342.6 1.342 1.338" mask="url(#prefix__au)"/>
            <mask id="prefix__aw" fill="#fff">
                <use xlink:href="#prefix__av"/>
            </mask>
            <path fill="#F25C49" d="M8.16-1.11c0 .74-.6 1.338-1.341 1.338S5.477-.371 5.477-1.11c0-.74.6-1.338 1.342-1.338.74 0 1.341.599 1.341 1.338" mask="url(#prefix__aw)"/>
            <g>
                <mask id="prefix__ay" fill="#fff">
                    <use xlink:href="#prefix__ax"/>
                </mask>
                <path fill="#F25C49" d="M4.807-1.11c0 .74-.601 1.338-1.342 1.338-.741 0-1.342-.599-1.342-1.337 0-.74.601-1.338 1.342-1.338.74 0 1.342.599 1.342 1.338" mask="url(#prefix__ay)"/>
            </g>
            <g>
                <mask id="prefix__aA" fill="#fff">
                    <use xlink:href="#prefix__az"/>
                </mask>
                <path fill="#F25C49" d="M1.453-1.11C1.453-.37.853.229.112.229-.63.228-1.23-.371-1.23-1.11c0-.74.6-1.338 1.342-1.338.74 0 1.341.599 1.341 1.338" mask="url(#prefix__aA)"/>
            </g>
            <g>
                <mask id="prefix__aC" fill="#fff">
                    <use xlink:href="#prefix__aB"/>
                </mask>
                <path fill="#F25C49" d="M6.484-4.453c0 .74-.601 1.338-1.342 1.338-.741 0-1.342-.599-1.342-1.338 0-.738.601-1.337 1.342-1.337.74 0 1.342.599 1.342 1.337" mask="url(#prefix__aC)"/>
            </g>
            <g>
                <mask id="prefix__aE" fill="#fff">
                    <use xlink:href="#prefix__aD"/>
                </mask>
                <path fill="#F25C49" d="M3.13-4.453c0 .74-.6 1.338-1.342 1.338-.74 0-1.341-.599-1.341-1.338 0-.738.6-1.337 1.341-1.337S3.13-5.19 3.13-4.453" mask="url(#prefix__aE)"/>
            </g>
        </g>
        <g>
            <g transform="translate(242.756 250.96) translate(3.51 5.54)">
                <mask id="prefix__aG" fill="#fff">
                    <use xlink:href="#prefix__aF"/>
                </mask>
                <path fill="#D14A43" d="M2.974 1.34c0 .739-.6 1.337-1.342 1.337-.74 0-1.341-.598-1.341-1.337S.89.003 1.632.003 2.974.6 2.974 1.34" mask="url(#prefix__aG)"/>
            </g>
            <g transform="translate(242.756 250.96) translate(.292 5.54)">
                <mask id="prefix__aI" fill="#fff">
                    <use xlink:href="#prefix__aH"/>
                </mask>
                <path fill="#D14A43" d="M2.837 1.34c0 .739-.6 1.337-1.341 1.337S.154 2.08.154 1.34.754.003 1.496.003c.74 0 1.341.598 1.341 1.337" mask="url(#prefix__aI)"/>
            </g>
            <g transform="translate(242.756 250.96) translate(5.264 2.04)">
                <mask id="prefix__aK" fill="#fff">
                    <use xlink:href="#prefix__aJ"/>
                </mask>
                <path fill="#D14A43" d="M2.896 1.495c0 .739-.6 1.338-1.341 1.338-.742 0-1.342-.6-1.342-1.338 0-.738.6-1.337 1.342-1.337.74 0 1.341.599 1.341 1.337" mask="url(#prefix__aK)"/>
            </g>
            <path fill="#D14A43" d="M4.807 3.536c0 .739-.601 1.338-1.342 1.338-.741 0-1.342-.6-1.342-1.338 0-.738.601-1.338 1.342-1.338.74 0 1.342.6 1.342 1.338" transform="translate(242.756 250.96)"/>
            <g transform="translate(242.756 250.96) translate(0 2.04)">
                <mask id="prefix__aM" fill="#fff">
                    <use xlink:href="#prefix__aL"/>
                </mask>
                <path fill="#D14A43" d="M1.453 1.495c0 .739-.6 1.338-1.341 1.338-.742 0-1.342-.6-1.342-1.338C-1.23.757-.63.158.112.158c.74 0 1.341.599 1.341 1.337" mask="url(#prefix__aM)"/>
            </g>
            <g transform="translate(242.756 250.96) translate(3.51)">
                <mask id="prefix__aO" fill="#fff">
                    <use xlink:href="#prefix__aN"/>
                </mask>
                <path fill="#D14A43" d="M2.974.193c0 .739-.6 1.337-1.342 1.337C.892 1.53.291.932.291.193s.6-1.338 1.341-1.338 1.342.6 1.342 1.338" mask="url(#prefix__aO)"/>
            </g>
            <g transform="translate(242.756 250.96) translate(.292)">
                <mask id="prefix__aQ" fill="#fff">
                    <use xlink:href="#prefix__aP"/>
                </mask>
                <path fill="#D14A43" d="M2.837.193c0 .739-.6 1.337-1.341 1.337S.154.932.154.193s.6-1.338 1.342-1.338c.74 0 1.341.6 1.341 1.338" mask="url(#prefix__aQ)"/>
            </g>
        </g>
        <g>
            <g transform="translate(242.756 257.666) translate(5.264 2.04)">
                <mask id="prefix__aS" fill="#fff">
                    <use xlink:href="#prefix__aR"/>
                </mask>
                <path fill="#D14A43" d="M2.896 1.476c0 .739-.6 1.338-1.341 1.338-.742 0-1.342-.6-1.342-1.338C.213.737.813.14 1.555.14c.74 0 1.341.598 1.341 1.337" mask="url(#prefix__aS)"/>
            </g>
            <g transform="translate(242.756 257.666) translate(2.047 2.04)">
                <mask id="prefix__aU" fill="#fff">
                    <use xlink:href="#prefix__aT"/>
                </mask>
                <path fill="#D14A43" d="M2.76 1.476c0 .739-.601 1.338-1.342 1.338-.741 0-1.342-.6-1.342-1.338C.076.737.676.14 1.418.14c.74 0 1.341.598 1.341 1.337" mask="url(#prefix__aU)"/>
            </g>
            <g transform="translate(242.756 257.666) translate(0 2.04)">
                <mask id="prefix__aW" fill="#fff">
                    <use xlink:href="#prefix__aV"/>
                </mask>
                <path fill="#D14A43" d="M1.453 1.476c0 .739-.6 1.338-1.341 1.338-.742 0-1.342-.6-1.342-1.338C-1.23.737-.63.14.112.14c.74 0 1.341.598 1.341 1.337" mask="url(#prefix__aW)"/>
            </g>
            <g transform="translate(242.756 257.666) translate(3.51)">
                <mask id="prefix__aY" fill="#fff">
                    <use xlink:href="#prefix__aX"/>
                </mask>
                <path fill="#D14A43" d="M2.974.174c0 .738-.6 1.337-1.342 1.337C.892 1.511.291.912.291.174c0-.739.6-1.338 1.341-1.338s1.342.6 1.342 1.338" mask="url(#prefix__aY)"/>
            </g>
            <g transform="translate(242.756 257.666) translate(.292)">
                <mask id="prefix__ba" fill="#fff">
                    <use xlink:href="#prefix__aZ"/>
                </mask>
                <path fill="#D14A43" d="M2.837.174c0 .738-.6 1.337-1.341 1.337S.154.912.154.174c0-.739.6-1.338 1.342-1.338.74 0 1.341.6 1.341 1.338" mask="url(#prefix__ba)"/>
            </g>
        </g>
        <g transform="translate(242.171 249.211)">
            <mask id="prefix__bc" fill="#fff">
                <use xlink:href="#prefix__bb"/>
            </mask>
            <path fill="#F25C49" d="M.412 1.942c0 .739-.685 1.338-1.53 1.338-.844 0-1.529-.6-1.529-1.338 0-.738.685-1.337 1.53-1.337.844 0 1.529.599 1.529 1.337" mask="url(#prefix__bc)"/>
            <mask id="prefix__be" fill="#fff">
                <use xlink:href="#prefix__bd"/>
            </mask>
            <path fill="#F25C49" d="M-3.41 1.942c0 .739-.685 1.338-1.53 1.338-.844 0-1.53-.6-1.53-1.338 0-.738.686-1.337 1.53-1.337.845 0 1.53.599 1.53 1.337" mask="url(#prefix__be)"/>
            <mask id="prefix__bg" fill="#fff">
                <use xlink:href="#prefix__bf"/>
            </mask>
            <path fill="#F25C49" d="M2.323-1.4c0 .738-.685 1.336-1.53 1.336C-.05-.064-.735-.662-.735-1.4S-.05-2.738.794-2.738c.844 0 1.529.598 1.529 1.337" mask="url(#prefix__bg)"/>
            <g>
                <mask id="prefix__bi" fill="#fff">
                    <use xlink:href="#prefix__bh"/>
                </mask>
                <path fill="#F25C49" d="M-1.5-1.4c0 .738-.684 1.336-1.529 1.336-.844 0-1.529-.598-1.529-1.337s.685-1.337 1.53-1.337c.844 0 1.528.598 1.528 1.337" mask="url(#prefix__bi)"/>
            </g>
            <g>
                <mask id="prefix__bk" fill="#fff">
                    <use xlink:href="#prefix__bj"/>
                </mask>
                <path fill="#F25C49" d="M-5.322-1.4c0 .738-.685 1.336-1.53 1.336-.844 0-1.528-.598-1.528-1.337s.684-1.337 1.529-1.337c.844 0 1.53.598 1.53 1.337" mask="url(#prefix__bk)"/>
            </g>
            <g>
                <mask id="prefix__bm" fill="#fff">
                    <use xlink:href="#prefix__bl"/>
                </mask>
                <path fill="#F25C49" d="M.412-4.744c0 .739-.685 1.337-1.53 1.337-.844 0-1.529-.598-1.529-1.337s.685-1.337 1.53-1.337c.844 0 1.529.598 1.529 1.337" mask="url(#prefix__bm)"/>
            </g>
            <g>
                <mask id="prefix__bo" fill="#fff">
                    <use xlink:href="#prefix__bn"/>
                </mask>
                <path fill="#F25C49" d="M-3.41-4.744c0 .739-.685 1.337-1.53 1.337-.844 0-1.53-.598-1.53-1.337s.686-1.337 1.53-1.337c.845 0 1.53.598 1.53 1.337" mask="url(#prefix__bo)"/>
            </g>
        </g>
        <g transform="translate(241.294 250.96)">
            <mask id="prefix__bq" fill="#fff">
                <use xlink:href="#prefix__bp"/>
            </mask>
            <path fill="#D14A43" d="M1.239 6.88c0 .738-.601 1.337-1.342 1.337-.741 0-1.342-.6-1.342-1.338 0-.738.6-1.337 1.342-1.337.74 0 1.342.599 1.342 1.337" mask="url(#prefix__bq)"/>
            <mask id="prefix__bs" fill="#fff">
                <use xlink:href="#prefix__br"/>
            </mask>
            <path fill="#F25C49" d="M-2.115 6.88c0 .738-.6 1.337-1.342 1.337-.74 0-1.342-.6-1.342-1.338 0-.738.601-1.337 1.342-1.337.741 0 1.342.599 1.342 1.337" mask="url(#prefix__bs)"/>
            <mask id="prefix__bu" fill="#fff">
                <use xlink:href="#prefix__bt"/>
            </mask>
            <path fill="#D14A43" d="M2.915 3.536c0 .739-.6 1.338-1.341 1.338S.232 4.274.232 3.536c0-.738.6-1.338 1.342-1.338.74 0 1.341.6 1.341 1.338" mask="url(#prefix__bu)"/>
            <g>
                <mask id="prefix__bw" fill="#fff">
                    <use xlink:href="#prefix__bv"/>
                </mask>
                <path fill="#F25C49" d="M-.438 3.536c0 .739-.601 1.338-1.342 1.338-.741 0-1.342-.6-1.342-1.338 0-.738.601-1.338 1.342-1.338.74 0 1.342.6 1.342 1.338" mask="url(#prefix__bw)"/>
            </g>
            <g>
                <mask id="prefix__by" fill="#fff">
                    <use xlink:href="#prefix__bx"/>
                </mask>
                <path fill="#F25C49" d="M-3.792 3.536c0 .739-.6 1.338-1.342 1.338-.74 0-1.341-.6-1.341-1.338 0-.738.6-1.338 1.341-1.338s1.342.6 1.342 1.338" mask="url(#prefix__by)"/>
            </g>
            <g>
                <mask id="prefix__bA" fill="#fff">
                    <use xlink:href="#prefix__bz"/>
                </mask>
                <path fill="#F25C49" d="M1.239.193C1.239.932.638 1.53-.103 1.53c-.741 0-1.342-.598-1.342-1.337s.6-1.338 1.342-1.338c.74 0 1.342.6 1.342 1.338" mask="url(#prefix__bA)"/>
            </g>
            <g>
                <mask id="prefix__bC" fill="#fff">
                    <use xlink:href="#prefix__bB"/>
                </mask>
                <path fill="#F25C49" d="M-2.115.193c0 .739-.6 1.337-1.342 1.337-.74 0-1.342-.598-1.342-1.337s.601-1.338 1.342-1.338c.741 0 1.342.6 1.342 1.338" mask="url(#prefix__bC)"/>
            </g>
        </g>
        <g transform="translate(240.709 257.666)">
            <mask id="prefix__bE" fill="#fff">
                <use xlink:href="#prefix__bD"/>
            </mask>
            <path fill="#F25C49" d="M1.823 6.86c0 .739-.6 1.337-1.341 1.337S-.86 7.6-.86 6.86s.6-1.338 1.342-1.338c.74 0 1.341.6 1.341 1.338" mask="url(#prefix__bE)"/>
            <mask id="prefix__bG" fill="#fff">
                <use xlink:href="#prefix__bF"/>
            </mask>
            <path fill="#F25C49" d="M-1.53 6.86c0 .739-.601 1.337-1.342 1.337-.74 0-1.342-.598-1.342-1.337s.601-1.338 1.342-1.338c.741 0 1.342.6 1.342 1.338" mask="url(#prefix__bG)"/>
            <mask id="prefix__bI" fill="#fff">
                <use xlink:href="#prefix__bH"/>
            </mask>
            <path fill="#D14A43" d="M3.5 3.517c0 .738-.6 1.337-1.341 1.337S.817 4.255.817 3.517c0-.739.6-1.338 1.342-1.338.74 0 1.341.6 1.341 1.338" mask="url(#prefix__bI)"/>
            <g>
                <mask id="prefix__bK" fill="#fff">
                    <use xlink:href="#prefix__bJ"/>
                </mask>
                <path fill="#F25C49" d="M.147 3.517c0 .738-.601 1.337-1.342 1.337-.741 0-1.342-.599-1.342-1.337 0-.739.6-1.338 1.342-1.338.74 0 1.342.6 1.342 1.338" mask="url(#prefix__bK)"/>
            </g>
            <g>
                <mask id="prefix__bM" fill="#fff">
                    <use xlink:href="#prefix__bL"/>
                </mask>
                <path fill="#F25C49" d="M-3.207 3.517c0 .738-.6 1.337-1.342 1.337-.74 0-1.341-.599-1.341-1.337 0-.739.6-1.338 1.341-1.338s1.342.6 1.342 1.338" mask="url(#prefix__bM)"/>
            </g>
            <g>
                <mask id="prefix__bO" fill="#fff">
                    <use xlink:href="#prefix__bN"/>
                </mask>
                <path fill="#D14A43" d="M1.823.174c0 .738-.6 1.337-1.341 1.337S-.86.912-.86.174c0-.739.6-1.338 1.342-1.338.74 0 1.341.6 1.341 1.338" mask="url(#prefix__bO)"/>
            </g>
            <g>
                <mask id="prefix__bQ" fill="#fff">
                    <use xlink:href="#prefix__bP"/>
                </mask>
                <path fill="#F25C49" d="M-1.53.174c0 .738-.601 1.337-1.342 1.337-.74 0-1.342-.599-1.342-1.337 0-.739.601-1.338 1.342-1.338.741 0 1.342.6 1.342 1.338" mask="url(#prefix__bQ)"/>
            </g>
        </g>
        <g fill="#F25C49">
            <path d="M7.953 8.065c0 .738-.6 1.337-1.342 1.337-.74 0-1.341-.599-1.341-1.337 0-.74.6-1.338 1.341-1.338s1.342.599 1.342 1.338M4.6 8.065c0 .738-.602 1.337-1.342 1.337-.741 0-1.342-.599-1.342-1.337 0-.74.6-1.338 1.342-1.338.74 0 1.341.599 1.341 1.338M9.63 4.721c0 .74-.6 1.338-1.342 1.338-.74 0-1.341-.599-1.341-1.338 0-.738.6-1.337 1.341-1.337s1.342.599 1.342 1.337M6.276 4.721c0 .74-.6 1.338-1.342 1.338-.74 0-1.341-.599-1.341-1.338 0-.738.6-1.337 1.341-1.337.742 0 1.342.599 1.342 1.337M2.923 4.721c0 .74-.601 1.338-1.342 1.338C.84 6.059.239 5.46.239 4.72c0-.738.601-1.337 1.342-1.337.74 0 1.342.599 1.342 1.337M7.953 1.378c0 .739-.6 1.338-1.342 1.338-.74 0-1.341-.599-1.341-1.338C5.27.64 5.87.041 6.61.041S7.953.64 7.953 1.378M4.6 1.378c0 .739-.602 1.338-1.342 1.338-.741 0-1.342-.599-1.342-1.338 0-.738.6-1.337 1.342-1.337.74 0 1.341.599 1.341 1.337" transform="translate(423.508 243.089)"/>
        </g>
        <g transform="translate(443.97 251.544)">
            <mask id="prefix__bS" fill="#fff">
                <use xlink:href="#prefix__bR"/>
            </mask>
            <path fill="#F25C49" d="M6.49 6.296c0 .739-.6 1.338-1.341 1.338-.74 0-1.342-.6-1.342-1.338 0-.738.601-1.337 1.342-1.337.741 0 1.342.599 1.342 1.337" mask="url(#prefix__bS)"/>
            <mask id="prefix__bU" fill="#fff">
                <use xlink:href="#prefix__bT"/>
            </mask>
            <path fill="#D14A43" d="M3.137 6.296c0 .739-.6 1.338-1.342 1.338-.74 0-1.342-.6-1.342-1.338 0-.738.602-1.337 1.342-1.337.741 0 1.342.599 1.342 1.337" mask="url(#prefix__bU)"/>
            <mask id="prefix__bW" fill="#fff">
                <use xlink:href="#prefix__bV"/>
            </mask>
            <path fill="#F25C49" d="M8.168 2.953c0 .738-.601 1.338-1.342 1.338-.741 0-1.342-.6-1.342-1.338 0-.738.6-1.338 1.342-1.338.74 0 1.342.6 1.342 1.338" mask="url(#prefix__bW)"/>
            <g>
                <mask id="prefix__bY" fill="#fff">
                    <use xlink:href="#prefix__bX"/>
                </mask>
                <path fill="#F25C49" d="M4.814 2.953c0 .738-.6 1.338-1.342 1.338-.74 0-1.341-.6-1.341-1.338 0-.738.6-1.338 1.341-1.338s1.342.6 1.342 1.338" mask="url(#prefix__bY)"/>
            </g>
            <g>
                <mask id="prefix__ca" fill="#fff">
                    <use xlink:href="#prefix__bZ"/>
                </mask>
                <path fill="#D14A43" d="M1.46 2.953c0 .738-.6 1.338-1.341 1.338s-1.342-.6-1.342-1.338c0-.738.6-1.338 1.342-1.338.74 0 1.341.6 1.341 1.338" mask="url(#prefix__ca)"/>
            </g>
            <g>
                <mask id="prefix__cc" fill="#fff">
                    <use xlink:href="#prefix__cb"/>
                </mask>
                <path fill="#F25C49" d="M6.49-.39C6.49.348 5.89.947 5.15.947c-.74 0-1.342-.599-1.342-1.337 0-.739.601-1.338 1.342-1.338.741 0 1.342.6 1.342 1.338" mask="url(#prefix__cc)"/>
            </g>
            <g>
                <mask id="prefix__ce" fill="#fff">
                    <use xlink:href="#prefix__cd"/>
                </mask>
                <path fill="#F25C49" d="M3.137-.39c0 .738-.6 1.337-1.342 1.337C1.055.947.453.348.453-.39c0-.739.602-1.338 1.342-1.338.741 0 1.342.6 1.342 1.338" mask="url(#prefix__ce)"/>
            </g>
        </g>
        <g transform="translate(443.97 257.666)">
            <mask id="prefix__cg" fill="#fff">
                <use xlink:href="#prefix__cf"/>
            </mask>
            <path fill="#F25C49" d="M6.49 6.86c0 .739-.6 1.337-1.341 1.337-.74 0-1.342-.598-1.342-1.337s.601-1.338 1.342-1.338c.741 0 1.342.6 1.342 1.338" mask="url(#prefix__cg)"/>
            <mask id="prefix__ci" fill="#fff">
                <use xlink:href="#prefix__ch"/>
            </mask>
            <path fill="#F25C49" d="M3.137 6.86c0 .739-.6 1.337-1.342 1.337-.74 0-1.342-.598-1.342-1.337s.602-1.338 1.342-1.338c.741 0 1.342.6 1.342 1.338" mask="url(#prefix__ci)"/>
            <mask id="prefix__ck" fill="#fff">
                <use xlink:href="#prefix__cj"/>
            </mask>
            <path fill="#F25C49" d="M8.168 3.517c0 .738-.601 1.337-1.342 1.337-.741 0-1.342-.599-1.342-1.337 0-.739.6-1.338 1.342-1.338.74 0 1.342.6 1.342 1.338" mask="url(#prefix__ck)"/>
            <g>
                <mask id="prefix__cm" fill="#fff">
                    <use xlink:href="#prefix__cl"/>
                </mask>
                <path fill="#F25C49" d="M4.814 3.517c0 .738-.6 1.337-1.342 1.337-.74 0-1.341-.599-1.341-1.337 0-.739.6-1.338 1.341-1.338s1.342.6 1.342 1.338" mask="url(#prefix__cm)"/>
            </g>
            <g>
                <mask id="prefix__co" fill="#fff">
                    <use xlink:href="#prefix__cn"/>
                </mask>
                <path fill="#D14A43" d="M1.46 3.517c0 .738-.6 1.337-1.341 1.337s-1.342-.599-1.342-1.337c0-.739.6-1.338 1.342-1.338.74 0 1.341.6 1.341 1.338" mask="url(#prefix__co)"/>
            </g>
            <g>
                <mask id="prefix__cq" fill="#fff">
                    <use xlink:href="#prefix__cp"/>
                </mask>
                <path fill="#F25C49" d="M6.49.174c0 .738-.6 1.337-1.341 1.337-.74 0-1.342-.599-1.342-1.337 0-.739.601-1.338 1.342-1.338.741 0 1.342.6 1.342 1.338" mask="url(#prefix__cq)"/>
            </g>
            <g>
                <mask id="prefix__cs" fill="#fff">
                    <use xlink:href="#prefix__cr"/>
                </mask>
                <path fill="#D14A43" d="M3.137.174c0 .738-.6 1.337-1.342 1.337C1.055 1.511.453.912.453.174c0-.739.602-1.338 1.342-1.338.741 0 1.342.6 1.342 1.338" mask="url(#prefix__cs)"/>
            </g>
        </g>
        <g transform="translate(437.244 248.92)">
            <mask id="prefix__cu" fill="#fff">
                <use xlink:href="#prefix__ct"/>
            </mask>
            <path fill="#D14A43" d="M6.51 2.234c0 .738-.6 1.337-1.342 1.337-.74 0-1.341-.599-1.341-1.337 0-.739.6-1.338 1.341-1.338s1.342.6 1.342 1.338" mask="url(#prefix__cu)"/>
            <mask id="prefix__cw" fill="#fff">
                <use xlink:href="#prefix__cv"/>
            </mask>
            <path fill="#D14A43" d="M3.156 2.234c0 .738-.6 1.337-1.341 1.337S.473 2.972.473 2.234c0-.739.6-1.338 1.342-1.338.74 0 1.341.6 1.341 1.338" mask="url(#prefix__cw)"/>
            <mask id="prefix__cy" fill="#fff">
                <use xlink:href="#prefix__cx"/>
            </mask>
            <path fill="#F25C49" d="M8.187-1.11c0 .74-.601 1.338-1.342 1.338-.74 0-1.342-.599-1.342-1.337 0-.74.601-1.338 1.342-1.338.741 0 1.342.599 1.342 1.338" mask="url(#prefix__cy)"/>
            <g>
                <mask id="prefix__cA" fill="#fff">
                    <use xlink:href="#prefix__cz"/>
                </mask>
                <path fill="#F25C49" d="M4.833-1.11c0 .74-.6 1.338-1.341 1.338C2.75.228 2.15-.371 2.15-1.11c0-.74.6-1.338 1.342-1.338.74 0 1.341.599 1.341 1.338" mask="url(#prefix__cA)"/>
            </g>
            <g>
                <mask id="prefix__cC" fill="#fff">
                    <use xlink:href="#prefix__cB"/>
                </mask>
                <path fill="#F25C49" d="M1.48-1.11C1.48-.37.878.229.137.229c-.741 0-1.342-.599-1.342-1.337 0-.74.6-1.338 1.342-1.338.74 0 1.341.599 1.341 1.338" mask="url(#prefix__cC)"/>
            </g>
            <g>
                <mask id="prefix__cE" fill="#fff">
                    <use xlink:href="#prefix__cD"/>
                </mask>
                <path fill="#F25C49" d="M6.51-4.453c0 .74-.6 1.338-1.342 1.338-.74 0-1.341-.599-1.341-1.338 0-.738.6-1.337 1.341-1.337S6.51-5.19 6.51-4.453" mask="url(#prefix__cE)"/>
            </g>
            <g>
                <mask id="prefix__cG" fill="#fff">
                    <use xlink:href="#prefix__cF"/>
                </mask>
                <path fill="#F25C49" d="M3.156-4.453c0 .74-.6 1.338-1.341 1.338S.473-3.714.473-4.453c0-.738.6-1.337 1.342-1.337.74 0 1.341.599 1.341 1.337" mask="url(#prefix__cG)"/>
            </g>
        </g>
        <g transform="translate(437.244 250.96)">
            <mask id="prefix__cI" fill="#fff">
                <use xlink:href="#prefix__cH"/>
            </mask>
            <path fill="#D14A43" d="M6.51 6.88c0 .738-.6 1.337-1.342 1.337-.74 0-1.341-.6-1.341-1.338 0-.738.6-1.337 1.341-1.337S6.51 6.14 6.51 6.879" mask="url(#prefix__cI)"/>
            <mask id="prefix__cK" fill="#fff">
                <use xlink:href="#prefix__cJ"/>
            </mask>
            <path fill="#D14A43" d="M3.156 6.88c0 .738-.6 1.337-1.341 1.337S.473 7.617.473 6.879c0-.738.6-1.337 1.342-1.337.74 0 1.341.599 1.341 1.337" mask="url(#prefix__cK)"/>
            <mask id="prefix__cM" fill="#fff">
                <use xlink:href="#prefix__cL"/>
            </mask>
            <path fill="#D14A43" d="M8.187 3.536c0 .739-.601 1.338-1.342 1.338-.74 0-1.342-.6-1.342-1.338 0-.738.601-1.338 1.342-1.338.741 0 1.342.6 1.342 1.338" mask="url(#prefix__cM)"/>
            <g>
                <mask id="prefix__cO" fill="#fff">
                    <use xlink:href="#prefix__cN"/>
                </mask>
                <path fill="#D14A43" d="M4.833 3.536c0 .739-.6 1.338-1.341 1.338-.742 0-1.342-.6-1.342-1.338 0-.738.6-1.338 1.342-1.338.74 0 1.341.6 1.341 1.338" mask="url(#prefix__cO)"/>
            </g>
            <g>
                <mask id="prefix__cQ" fill="#fff">
                    <use xlink:href="#prefix__cP"/>
                </mask>
                <path fill="#D14A43" d="M1.48 3.536c0 .739-.601 1.338-1.342 1.338-.741 0-1.342-.6-1.342-1.338 0-.738.6-1.338 1.342-1.338.74 0 1.341.6 1.341 1.338" mask="url(#prefix__cQ)"/>
            </g>
            <g>
                <mask id="prefix__cS" fill="#fff">
                    <use xlink:href="#prefix__cR"/>
                </mask>
                <path fill="#D14A43" d="M6.51.193c0 .739-.6 1.337-1.342 1.337-.74 0-1.341-.598-1.341-1.337s.6-1.338 1.341-1.338S6.51-.545 6.51.193" mask="url(#prefix__cS)"/>
            </g>
            <g>
                <mask id="prefix__cU" fill="#fff">
                    <use xlink:href="#prefix__cT"/>
                </mask>
                <path fill="#D14A43" d="M3.156.193c0 .739-.6 1.337-1.341 1.337S.473.932.473.193s.6-1.338 1.342-1.338c.74 0 1.341.6 1.341 1.338" mask="url(#prefix__cU)"/>
            </g>
        </g>
        <g>
            <g transform="translate(437.244 257.666) translate(5.264 2.04)">
                <mask id="prefix__cW" fill="#fff">
                    <use xlink:href="#prefix__cV"/>
                </mask>
                <path fill="#D14A43" d="M2.923 1.476c0 .739-.601 1.338-1.342 1.338-.741 0-1.342-.6-1.342-1.338C.239.737.84.14 1.581.14c.74 0 1.342.598 1.342 1.337" mask="url(#prefix__cW)"/>
            </g>
            <g transform="translate(437.244 257.666) translate(2.047 2.04)">
                <mask id="prefix__cY" fill="#fff">
                    <use xlink:href="#prefix__cX"/>
                </mask>
                <path fill="#D14A43" d="M2.786 1.476c0 .739-.6 1.338-1.342 1.338-.74 0-1.342-.6-1.342-1.338C.102.737.703.14 1.444.14c.741 0 1.342.598 1.342 1.337" mask="url(#prefix__cY)"/>
            </g>
            <g transform="translate(437.244 257.666) translate(0 2.04)">
                <mask id="prefix__da" fill="#fff">
                    <use xlink:href="#prefix__cZ"/>
                </mask>
                <path fill="#D14A43" d="M1.48 1.476c0 .739-.601 1.338-1.342 1.338-.741 0-1.342-.6-1.342-1.338C-1.204.737-.604.14.138.14c.74 0 1.341.598 1.341 1.337" mask="url(#prefix__da)"/>
            </g>
            <g transform="translate(437.244 257.666) translate(3.802)">
                <mask id="prefix__dc" fill="#fff">
                    <use xlink:href="#prefix__db"/>
                </mask>
                <path fill="#D14A43" d="M2.708.174c0 .738-.6 1.337-1.342 1.337C.626 1.511.025.912.025.174c0-.739.6-1.338 1.341-1.338s1.342.6 1.342 1.338" mask="url(#prefix__dc)"/>
            </g>
            <g transform="translate(437.244 257.666) translate(.292)">
                <mask id="prefix__de" fill="#fff">
                    <use xlink:href="#prefix__dd"/>
                </mask>
                <path fill="#D14A43" d="M2.864.174c0 .738-.6 1.337-1.342 1.337C.782 1.511.18.912.18.174c0-.739.601-1.338 1.342-1.338.741 0 1.342.6 1.342 1.338" mask="url(#prefix__de)"/>
            </g>
        </g>
        <g transform="translate(436.66 250.669)">
            <mask id="prefix__dg" fill="#fff">
                <use xlink:href="#prefix__df"/>
            </mask>
            <path fill="#F25C49" d="M.442.831c0 1.267-.685 2.294-1.53 2.294-.844 0-1.529-1.027-1.529-2.294 0-1.267.685-2.294 1.53-2.294C-.244-1.463.441-.436.441.831" mask="url(#prefix__dg)"/>
            <mask id="prefix__di" fill="#fff">
                <use xlink:href="#prefix__dh"/>
            </mask>
            <path fill="#F25C49" d="M-3.38.831c0 1.267-.686 2.294-1.53 2.294S-6.44 2.098-6.44.83c0-1.267.686-2.294 1.53-2.294S-3.38-.436-3.38.831" mask="url(#prefix__di)"/>
            <mask id="prefix__dk" fill="#fff">
                <use xlink:href="#prefix__dj"/>
            </mask>
            <path fill="#F25C49" d="M2.353-4.903c0 1.267-.685 2.294-1.53 2.294-.844 0-1.528-1.027-1.528-2.294 0-1.267.684-2.293 1.529-2.293.844 0 1.529 1.026 1.529 2.293" mask="url(#prefix__dk)"/>
            <g>
                <mask id="prefix__dm" fill="#fff">
                    <use xlink:href="#prefix__dl"/>
                </mask>
                <path fill="#F25C49" d="M-1.47-4.903c0 1.267-.684 2.294-1.529 2.294-.844 0-1.53-1.027-1.53-2.294 0-1.267.686-2.293 1.53-2.293.845 0 1.53 1.026 1.53 2.293" mask="url(#prefix__dm)"/>
            </g>
            <g>
                <mask id="prefix__do" fill="#fff">
                    <use xlink:href="#prefix__dn"/>
                </mask>
                <path fill="#F25C49" d="M-5.292-4.903c0 1.267-.685 2.294-1.529 2.294-.845 0-1.53-1.027-1.53-2.294 0-1.267.685-2.293 1.53-2.293.844 0 1.53 1.026 1.53 2.293" mask="url(#prefix__do)"/>
            </g>
            <g>
                <mask id="prefix__dq" fill="#fff">
                    <use xlink:href="#prefix__dp"/>
                </mask>
                <path fill="#F25C49" d="M.442-10.636c0 1.267-.685 2.294-1.53 2.294-.844 0-1.529-1.027-1.529-2.294 0-1.267.685-2.294 1.53-2.294.844 0 1.529 1.027 1.529 2.294" mask="url(#prefix__dq)"/>
            </g>
            <g>
                <mask id="prefix__ds" fill="#fff">
                    <use xlink:href="#prefix__dr"/>
                </mask>
                <path fill="#F25C49" d="M-3.38-10.636c0 1.267-.686 2.294-1.53 2.294s-1.53-1.027-1.53-2.294c0-1.267.686-2.294 1.53-2.294s1.53 1.027 1.53 2.294" mask="url(#prefix__ds)"/>
            </g>
        </g>
        <g transform="translate(431.687 250.96)">
            <mask id="prefix__du" fill="#fff">
                <use xlink:href="#prefix__dt"/>
            </mask>
            <path fill="#D14A43" d="M5.36 6.88c0 .738-.601 1.337-1.342 1.337-.741 0-1.342-.6-1.342-1.338 0-.738.6-1.337 1.342-1.337.74 0 1.341.599 1.341 1.337" mask="url(#prefix__du)"/>
            <mask id="prefix__dw" fill="#fff">
                <use xlink:href="#prefix__dv"/>
            </mask>
            <path fill="#D14A43" d="M2.006 6.88c0 .738-.601 1.337-1.342 1.337-.74 0-1.342-.6-1.342-1.338 0-.738.601-1.337 1.342-1.337.74 0 1.342.599 1.342 1.337" mask="url(#prefix__dw)"/>
            <mask id="prefix__dy" fill="#fff">
                <use xlink:href="#prefix__dx"/>
            </mask>
            <path fill="#D14A43" d="M7.036 3.536c0 .739-.6 1.338-1.342 1.338-.74 0-1.341-.6-1.341-1.338 0-.738.6-1.338 1.341-1.338.742 0 1.342.6 1.342 1.338" mask="url(#prefix__dy)"/>
            <g>
                <mask id="prefix__dA" fill="#fff">
                    <use xlink:href="#prefix__dz"/>
                </mask>
                <path fill="#D14A43" d="M3.683 3.536c0 .739-.601 1.338-1.342 1.338-.741 0-1.342-.6-1.342-1.338 0-.738.601-1.338 1.342-1.338.74 0 1.342.6 1.342 1.338" mask="url(#prefix__dA)"/>
            </g>
            <g>
                <mask id="prefix__dC" fill="#fff">
                    <use xlink:href="#prefix__dB"/>
                </mask>
                <path fill="#F25C49" d="M.329 3.536c0 .739-.601 1.338-1.342 1.338-.74 0-1.342-.6-1.342-1.338 0-.738.601-1.338 1.342-1.338.741 0 1.342.6 1.342 1.338" mask="url(#prefix__dC)"/>
            </g>
            <g>
                <mask id="prefix__dE" fill="#fff">
                    <use xlink:href="#prefix__dD"/>
                </mask>
                <path fill="#D14A43" d="M5.36.193c0 .739-.601 1.337-1.342 1.337-.741 0-1.342-.598-1.342-1.337s.6-1.338 1.342-1.338c.74 0 1.341.6 1.341 1.338" mask="url(#prefix__dE)"/>
            </g>
            <g>
                <mask id="prefix__dG" fill="#fff">
                    <use xlink:href="#prefix__dF"/>
                </mask>
                <path fill="#F25C49" d="M2.006.193c0 .739-.601 1.337-1.342 1.337-.74 0-1.342-.598-1.342-1.337S-.077-1.145.664-1.145c.74 0 1.342.6 1.342 1.338" mask="url(#prefix__dG)"/>
            </g>
        </g>
        <g transform="translate(431.102 257.666)">
            <mask id="prefix__dI" fill="#fff">
                <use xlink:href="#prefix__dH"/>
            </mask>
            <path fill="#F25C49" d="M5.944 6.86c0 .739-.6 1.337-1.341 1.337S3.26 7.6 3.26 6.86s.6-1.338 1.342-1.338c.74 0 1.341.6 1.341 1.338" mask="url(#prefix__dI)"/>
            <mask id="prefix__dK" fill="#fff">
                <use xlink:href="#prefix__dJ"/>
            </mask>
            <path fill="#F25C49" d="M2.59 6.86c0 .739-.6 1.337-1.341 1.337-.74 0-1.342-.598-1.342-1.337S.508 5.522 1.25 5.522c.74 0 1.342.6 1.342 1.338" mask="url(#prefix__dK)"/>
            <mask id="prefix__dM" fill="#fff">
                <use xlink:href="#prefix__dL"/>
            </mask>
            <path fill="#D14A43" d="M7.621 3.517c0 .738-.6 1.337-1.342 1.337-.74 0-1.341-.599-1.341-1.337 0-.739.6-1.338 1.341-1.338s1.342.6 1.342 1.338" mask="url(#prefix__dM)"/>
            <g>
                <mask id="prefix__dO" fill="#fff">
                    <use xlink:href="#prefix__dN"/>
                </mask>
                <path fill="#D14A43" d="M4.268 3.517c0 .738-.601 1.337-1.342 1.337-.741 0-1.342-.599-1.342-1.337 0-.739.6-1.338 1.342-1.338.74 0 1.342.6 1.342 1.338" mask="url(#prefix__dO)"/>
            </g>
            <g>
                <mask id="prefix__dQ" fill="#fff">
                    <use xlink:href="#prefix__dP"/>
                </mask>
                <path fill="#D14A43" d="M.914 3.517c0 .738-.601 1.337-1.342 1.337-.741 0-1.342-.599-1.342-1.337 0-.739.601-1.338 1.342-1.338.74 0 1.342.6 1.342 1.338" mask="url(#prefix__dQ)"/>
            </g>
            <g>
                <mask id="prefix__dS" fill="#fff">
                    <use xlink:href="#prefix__dR"/>
                </mask>
                <path fill="#D14A43" d="M5.944.174c0 .738-.6 1.337-1.341 1.337S3.26.912 3.26.174c0-.739.6-1.338 1.342-1.338.74 0 1.341.6 1.341 1.338" mask="url(#prefix__dS)"/>
            </g>
            <g>
                <mask id="prefix__dU" fill="#fff">
                    <use xlink:href="#prefix__dT"/>
                </mask>
                <path fill="#D14A43" d="M2.59.174c0 .738-.6 1.337-1.341 1.337-.74 0-1.342-.599-1.342-1.337 0-.739.601-1.338 1.342-1.338.74 0 1.342.6 1.342 1.338" mask="url(#prefix__dU)"/>
            </g>
        </g>
        <g>
            <path fill="#404041" d="M20.503 33.318c0 .831-.376 1.505-.839 1.505-.463 0-.838-.674-.838-1.505 0-.83.375-1.504.838-1.504.463 0 .839.673.839 1.504M31.75 33.318c0 .831-.376 1.505-.84 1.505-.462 0-.838-.674-.838-1.505 0-.83.376-1.504.839-1.504.463 0 .838.673.838 1.504" transform="translate(317.627 82.45)"/>
            <path fill="#FF8C80" d="M25.293 47.794c-.229 0-.415-.182-.42-.41-.003-.23.182-.421.412-.425.17-.004 4.17-.117 5.225-3.536.067-.22.301-.345.523-.277.222.068.346.302.278.523-1.234 4.004-5.964 4.125-6.012 4.125h-.006z" transform="translate(317.627 82.45)"/>
            <path fill="#404041" d="M15.035 29.755s2.46-2.733 5.467-1.94v.75s-2.4-.309-5.467 1.19M29.439 28.891s4.066-.601 4.844 2.008c0 0-1.864-1.353-4.756-1.324l-.088-.684z" transform="translate(317.627 82.45)"/>
            <path fill="#FF8C80" d="M24.323 42.512c-.659 0-1.14-.117-1.184-.128-.127-.032-.233-.122-.284-.243-.05-.12-.042-.259.024-.372 1.504-2.581 1.41-7.36 1.408-7.407-.005-.23.178-.422.41-.428.231-.02.423.177.429.408.004.193.09 4.482-1.242 7.312.677.058 1.847.023 2.676-.75.17-.158.435-.149.593.02.158.168.15.433-.02.59-.871.813-1.981.998-2.81.998" transform="translate(317.627 82.45)"/>
            <path fill="#A55350" d="M40.652 62.585s2.752.127 7.55 7.46c0 0 6.576 12.379-.687 22.056 0 0-3.112-9.922-6.39-12.229 0 0 5.81-6.406-.473-17.287" transform="translate(317.627 82.45)"/>
            <path fill="#404041" d="M.992 15.547C-.028 12.802-.024 9.645.98 6.827c.118-.355.251-.705.425-1.037.17-.334.306-.685.503-1.003.407-.629.785-1.275 1.302-1.819.452-.594 1.032-1.07 1.58-1.561.267-.254.597-.436.897-.648.303-.208.61-.407.92-.598-1.051 1.023-2.077 2.03-2.88 3.208-.847 1.14-1.493 2.41-1.957 3.736-.483 1.322-.769 2.718-.89 4.135-.105 1.419-.093 2.862.11 4.307" transform="translate(317.627 82.45)"/>
            <path fill="#656EDA" d="M37.897 60.408s4.723.69 9.44 7.898c0 0 5.868 9.716.943 20.163 0 0-3.933-6.329-7.154-8.597 0 0 2.25-6.604-3.23-19.464" transform="translate(317.627 82.45)"/>
            <path fill="#A55350" d="M11.41 63.37s-2.792-.494-7.59 6.838c0 0-5.887 12.459-.876 23.086 0 0 4.746-11.114 8.023-13.422 0 0-5.132-3.42.443-16.502" transform="translate(317.627 82.45)"/>
            <path fill="#656EDA" d="M14.196 60.408s-4.723.69-9.44 7.898c0 0-5.868 9.716-.942 20.163 0 0 3.932-6.329 7.153-8.597 0 0-2.25-6.604 3.23-19.464" transform="translate(317.627 82.45)"/>
        </g>
        <g transform="translate(280.484 196.442)">
            <mask id="prefix__dX" fill="#fff">
                <use xlink:href="#prefix__dV"/>
            </mask>
            <path fill="url(#prefix__dW)" d="M3.307 13.38C4.778 26.49.065 42.511.065 42.511s8.8.832 14.12 2.29c11.127 3.052 23.97 8.094 23.97 8.094s1.316-25.032-8.262-38.589C20.315.749 1.06.106 1.06.106S2.34 4.762 3.307 13.38" mask="url(#prefix__dX)"/>
        </g>
        <g transform="translate(365.006 187.404)">
            <mask id="prefix__ea" fill="#fff">
                <use xlink:href="#prefix__dY"/>
            </mask>
            <path fill="url(#prefix__dZ)" d="M9.722 25.385C-1.392 38.94.217 61.682.217 61.682s21.643-4.374 31.436-7.593c8.66-2.847 9.479-2.515 9.552-2.4-.179-.73-3.97-16.41-3.114-29.271C38.968 9.247 43.355.03 43.355.03S20.835 11.828 9.722 25.385" mask="url(#prefix__ea)"/>
        </g>
        <path fill="#FFF" d="M390.522 244.05c-.164 0-.318-.096-.386-.255-.091-.212.008-.457.221-.548.212-.09 21.44-8.991 43.528-5.46.228.036.384.25.348.478-.038.228-.257.384-.481.347-21.838-3.49-42.855 5.315-43.066 5.404-.053.023-.11.033-.164.033M295.533 242.378c-.042 0-.085-.006-.127-.02-.263-.083-26.447-8.21-43.976-.02-.212.099-.46.008-.558-.2-.098-.21-.008-.459.202-.557 17.83-8.33 44.32-.104 44.586-.02.22.07.342.305.272.525-.056.178-.221.292-.399.292"/>
        <path fill="#E8E8E8" d="M405.044 231.791c-.192 0-.365-.132-.41-.327-.052-.237-5.23-24.053 4.222-44.285.098-.21.348-.3.557-.203.21.098.302.346.203.555-9.333 19.978-4.216 43.516-4.163 43.751.05.226-.091.449-.317.5-.031.006-.062.01-.092.01"/>
        <path fill="#FFD15C" d="M310.48 370.366L310.193 369.581 369.988 347.887 370.274 348.672z"/>
        <path fill="#656EDA" d="M374.128 370.366L344.907 359.765 345.193 358.979 374.415 369.581zM339.248 357.711L314.334 348.672 314.621 347.887 339.535 356.926z"/>
        <path fill="#FFF" d="M316.636 324.125l-27.105 154.21c-.14.792-.831 1.37-1.638 1.37-.988 0-1.758-.854-1.653-1.834l17.646-154.814 12.75 1.068z"/>
        <path fill="#6A6B77" d="M304.257 323.508l-17.6 154.41c-.038.352.073.693.312.958s.567.41.925.41c.604 0 1.119-.43 1.224-1.024l27.026-153.76-11.887-.994zm-16.363 156.614c-.59 0-1.155-.25-1.549-.687-.394-.438-.584-1.024-.521-1.61l17.692-155.219 13.613 1.14-27.185 154.661c-.176.994-1.038 1.715-2.05 1.715z"/>
        <path fill="#FFF" d="M366.93 324.125l27.106 154.21c.14.792.83 1.37 1.637 1.37.988 0 1.758-.854 1.653-1.834L379.68 323.057l-12.75 1.068z"/>
        <path fill="#6A6B77" d="M367.422 324.503l27.026 153.76c.105.593.62 1.024 1.224 1.024.358 0 .686-.146.926-.411.239-.266.35-.606.31-.96L379.31 323.508l-11.887.995zm28.25 155.62c-1.012 0-1.874-.722-2.049-1.715l-27.185-154.661 13.613-1.14 17.691 155.217c.063.586-.127 1.172-.52 1.61-.395.438-.96.689-1.55.689z"/>
        <path fill="#F4EAC0" d="M306.659 331.195s26.171 7.845 71.17 1.536l6.667-8.413-20.333-11.655-49.16-2.166-22.023 10.816 6.823 7.512 6.856 2.37z"/>
        <path fill="#F6C100" d="M306.659 324.544s26.171 7.845 71.17 1.536l6.667-8.413-20.333-11.655-49.16-2.166-22.023 10.816 6.823 7.512 6.856 2.37z"/>
        <path fill="#FFC8C2" d="M349.154 448.991L341.988 457.782 329.001 447.031 332.564 443.409z"/>
        <path fill="#EA7971" d="M331.44 444.551s-11.034 6.728-13.027 7.468c-1.322.492-6.84 4.486-10.4 7.116-2.46 1.818-3.381 5.053-2.251 7.89 1.018 2.56 3.128 5.605 7.427 8.246 9.607 5.901 13.321 5.621 18.625.876 5.303-4.745 12.297-17.274 12.32-20.997l-2.146 2.632s-.059-1.395-1.58-3.683c-1.925-2.896-4.798-5.038-8.072-6.226l-2.249-.815 1.354-2.507z"/>
        <path fill="#FFF" d="M322.917 473.205c-1.65 0-3.309-.386-4.847-1.164-2.642-1.336-4.748-3.141-6.26-5.365-4.09-6.015 3.788-13.372 4.125-13.682.169-.157.435-.148.592.024.157.168.147.433-.023.59-.077.07-7.685 7.179-4 12.6 1.431 2.104 3.432 3.817 5.945 5.086 3.013 1.526 6.526 1.422 9.397-.274 2.148-1.268 3.88-2.945 5.15-4.986 3.78-6.074 7.728-8.014 7.894-8.093.209-.1.458-.013.56.195.1.207.012.457-.196.557-.039.02-3.906 1.933-7.546 7.782-1.34 2.156-3.17 3.927-5.435 5.265-1.652.975-3.499 1.465-5.356 1.465"/>
        <path fill="#DD6F6C" d="M345.579 450.93s3.635 7.673 4.356 11.237c.72 3.565 3.284 14.245 11.456 13.812 5.495-.291 13.49-5.433 18.138-8.769 2.528-1.815 1.987-6.525.69-9.35-2.928-6.375-9.177-11.897-15.87-17.304 0 0-18.32 3.899-18.77 10.374"/>
        <path fill="#6C77BC" d="M370.677 341.193l-26.142 59.34c-1.878-4.94-3.974-10.271-6.28-15.854-5.836-14.117-13.08-29.78-21.958-44.372-3.019-4.965-6.222-9.812-9.634-14.434 2.624-.009 13.524-.276 21.011-3.653 0 0 8.367-4.747 14.907-4.488 6.548-.259 14.815 3.66 14.815 3.66 8.56 3.862 20.676 3.01 20.676 3.01l-7.395 16.79zm55.395-56.959c-.671-2.257-1.4-4.23-2.113-5.934-1.853-4.397-3.622-6.97-4.142-7.781-1.409-2.24-3.035-.493-4.913-2.199h-137.61s-2.994 2.107-6.725 5.96c-1.149 1.178-2.373 2.524-3.58 4.02-.554.66-1.09 1.354-1.627 2.081-.05.067-.1.142-.16.209-.863 1.178-1.65 2.39-2.364 3.644-6.154 10.623-7.176 23.686-2.725 35.329 5.107 13.339 16.526 38.838 39.625 74.083.041.26.083.527.134.786.687 3.778 2.39 7.372 4.896 10.289 1.317 1.529 2.868 2.908 3.74 4.722.838 1.755.98 3.794 1.945 5.474 1.232 2.173 3.58 3.402 5.525 4.965 2.767 2.223 4.838 5.298 5.852 8.692.428 1.42 1.13 3.487 2.155 4.309 1.024.822 1.207 1.015 2.146 1.466.847.41.88.84 1.768 1.326.025.008-.243-.945 0 0 .244.944-.776 2.693-.753 3.723.022 1.029 8.912 21.187 34.24 5.265 3.749-1.254 10.003-7.105 10.599-10.197.486-2.54-1.174-5.45.058-7.723 1.182-2.156 3.832-3.142 5.19-5.198 1.073-1.63 1.183-3.694 1.778-5.55.964-3.025 3.194-5.482 4.519-8.366 3.194-6.979 9.424-17.476 11.285-24.915 8.51-16.33 17.054-33.29 23.467-47.313 6.414-14.016 10.707-25.099 10.716-29.67.016-8.852-1.292-15.998-2.926-21.497z"/>
        <path fill="#5E6DB7" d="M294.163 308.77c-15.83-14.32-35.88 4.593-28.226 24.653 5.09 13.345 10.994 24.502 34.093 59.747.041.259.083.527.134.785.687 3.779 2.39 7.372 4.896 10.29 1.316 1.529 2.867 2.907 3.74 4.721.838 1.755.688 4.271 1.653 5.951 1.232 2.173 3.872 2.925 5.817 4.488 2.767 2.223 4.144 5.349 5.159 8.742.427 1.42 2.095 4.497 2.095 4.497s6.634-5.223 7.168-10.364c.83-7.996 8.488-9.78 8.444-11.349-.124-4.417 6.723-6.812 5.398-10.398-15.812-42.822-41.628-83.854-50.37-91.762"/>
        <path fill="#4D67AA" d="M294.163 308.77c-7.343-5.012-13.804-4.625-12.558-3.971 7.312 3.839 11.49 12.873 19.256 26.919 7.739 13.994 16.267 28.765 23.46 43.154 4.667 9.34 6.467 15.983 12.744 28.687.893 1.808-6.708 7.539-6.708 10.03 0 7.398-6.833 19.055-6.833 19.055s6.635-5.223 7.168-10.364c.83-7.996 8.488-9.78 8.444-11.349-.123-4.417 6.723-6.812 5.399-10.398-15.813-42.822-40.631-85.113-50.372-91.762"/>
        <path fill="#FFF" d="M361.024 468.836c-1.489 0-3.496-.66-5.32-1.786-1.277-.79-3.497-2.464-4.015-4.792-.82-3.688-3.663-9.388-3.691-9.445-.104-.207-.02-.458.187-.561.208-.103.459-.02.562.187.12.237 2.917 5.85 3.76 9.637.33 1.483 1.657 3.037 3.64 4.264 2.015 1.246 4.314 1.897 5.583 1.585 1.261-.31 4.633-1.905 9.496-4.49 1.859-.99 2.935-2.992 2.74-5.103-.2-2.201-.788-5.15-2.447-6.701-3.225-3.014-6.964-7.35-7.002-7.393-.15-.175-.13-.439.046-.59.175-.147.44-.129.591.046.037.043 3.748 4.346 6.938 7.328 1.85 1.73 2.495 4.889 2.71 7.233.224 2.447-1.025 4.769-3.181 5.917-3.482 1.852-7.99 4.147-9.69 4.565-.271.067-.576.1-.907.1"/>
        <path fill="#5961CF" d="M337.677 281.972v12.807l7.674-4 3.167-9.234-10.841.427zm-.839 14.188V281.17l12.87-.507-3.673 10.703-9.197 4.795z"/>
        <path fill="#B3B5BA" d="M306.496 326.266c-.173 0-.336-.108-.396-.28-.097-.276-9.932-27.53-30.624-20.441-.219.076-.457-.041-.533-.26-.075-.218.041-.455.26-.53 21.487-7.361 31.589 20.67 31.689 20.955.076.218-.04.456-.258.532-.046.016-.092.024-.138.024M378.577 325.013c-.042 0-.085-.007-.128-.02-.22-.07-.342-.305-.271-.526.094-.293 9.68-29.318 32.987-22.504.222.065.35.297.284.519-.064.22-.294.347-.52.283-22.533-6.583-31.86 21.67-31.952 21.957-.058.177-.222.29-.4.29"/>
        <path fill="#4D515B" d="M426.072 284.234H262.838c.713-1.254 1.501-2.466 2.365-3.644.058-.067.109-.142.16-.209.536-.727 1.072-1.421 1.626-2.081h156.97c.712 1.705 1.442 3.677 2.113 5.934"/>
        <path fill="#4351B5" d="M377.942 316.908c-.357.24-.591.647-.591 1.108 0 .739.6 1.338 1.34 1.338.742 0 1.343-.599 1.343-1.338 0-.47-.245-.881-.612-1.12-.45.007-.946.011-1.48.012M378.623 323.372c-.611.032-1.114.467-1.24 1.046.23-.005.466-.009.689-.016l.55-1.03zM376.652 324.43c-.127-.608-.666-1.065-1.314-1.065-.638 0-1.17.446-1.306 1.041.907.025 1.784.032 2.62.024M371.985 323.365c-.578 0-1.066.366-1.255.876.865.064 1.72.111 2.554.142-.145-.583-.67-1.018-1.3-1.018M377.015 322.697c.741 0 1.342-.599 1.342-1.338 0-.738-.6-1.337-1.342-1.337-.74 0-1.341.599-1.341 1.337 0 .739.6 1.338 1.341 1.338M373.662 322.697c.74 0 1.341-.599 1.341-1.338 0-.738-.6-1.337-1.341-1.337s-1.342.599-1.342 1.337c0 .739.6 1.338 1.342 1.338M376.68 318.016c0-.474-.249-.887-.621-1.125-.445-.008-.904-.019-1.379-.033-.406.23-.683.66-.683 1.158 0 .739.6 1.338 1.341 1.338s1.342-.6 1.342-1.338M373.326 318.016c0-.583-.376-1.074-.898-1.257-.246-.013-.493-.028-.743-.044-.596.136-1.042.666-1.042 1.301 0 .739.6 1.338 1.342 1.338.74 0 1.341-.6 1.341-1.338M362.56 315.508c.246.304.618.503 1.04.503.231 0 .445-.064.634-.166-.565-.102-1.124-.214-1.674-.337M368.631 323.365c-.451 0-.848.224-1.091.564.775.096 1.55.174 2.32.241-.206-.473-.678-.805-1.229-.805M364.699 323.5c.503.09 1.01.175 1.52.25-.243-.237-.575-.385-.942-.385-.208 0-.403.052-.578.136M370.308 322.697c.74 0 1.341-.599 1.341-1.338 0-.738-.6-1.337-1.341-1.337s-1.342.599-1.342 1.337c0 .739.6 1.338 1.342 1.338M366.954 322.697c.741 0 1.342-.599 1.342-1.338 0-.738-.6-1.337-1.342-1.337-.74 0-1.341.599-1.341 1.337 0 .739.6 1.338 1.341 1.338M369.973 318.016c0-.738-.601-1.337-1.342-1.337-.741 0-1.342.599-1.342 1.337 0 .739.601 1.338 1.342 1.338.74 0 1.342-.6 1.342-1.338M366.619 318.016c0-.738-.6-1.337-1.342-1.337-.74 0-1.341.599-1.341 1.337 0 .739.6 1.338 1.341 1.338s1.342-.6 1.342-1.338M360.247 316.01c.535 0 .993-.314 1.209-.766-.88-.224-1.729-.477-2.531-.763-.01.063-.02.126-.02.192 0 .739.6 1.338 1.342 1.338M363.6 322.697c.742 0 1.342-.599 1.342-1.338 0-.738-.6-1.337-1.342-1.337-.74 0-1.341.599-1.341 1.337 0 .739.6 1.338 1.341 1.338M361.588 321.36c0-.74-.6-1.338-1.341-1.338s-1.342.599-1.342 1.338c0 .262.079.504.21.71.53.188 1.073.366 1.636.527.49-.199.837-.677.837-1.237M357.396 321.393c.253.114.519.22.784.326.032-.115.055-.234.055-.36 0-.738-.601-1.337-1.342-1.337-.49 0-.915.265-1.149.657 1.032.42 1.652.714 1.652.714M361.924 319.354c.74 0 1.341-.6 1.341-1.338 0-.738-.6-1.337-1.341-1.337s-1.342.599-1.342 1.337c0 .739.6 1.338 1.342 1.338M359.911 318.016c0-.738-.6-1.337-1.341-1.337s-1.342.599-1.342 1.337c0 .739.6 1.338 1.342 1.338.74 0 1.341-.6 1.341-1.338M350.521 318.016c0 .396.176.748.45.993.366.107.724.216 1.07.327.656-.088 1.163-.642 1.163-1.32 0-.738-.6-1.337-1.342-1.337-.74 0-1.341.599-1.341 1.337M355.551 314.673c0 .739.601 1.338 1.342 1.338.741 0 1.342-.6 1.342-1.338 0-.173-.036-.337-.096-.488-.253-.101-.501-.205-.743-.314 0 0-.364-.173-.993-.44-.498.195-.852.677-.852 1.242M353.54 313.336c-.742 0-1.342.599-1.342 1.337 0 .739.6 1.338 1.341 1.338s1.342-.6 1.342-1.338c0-.738-.6-1.337-1.342-1.337M351.862 312.667c.448 0 .841-.22 1.085-.555-.75-.256-1.567-.513-2.423-.753.016.725.608 1.308 1.338 1.308M356.558 318.016c0-.738-.6-1.337-1.342-1.337-.74 0-1.341.599-1.341 1.337 0 .739.6 1.338 1.341 1.338s1.342-.6 1.342-1.338M343.813 311.33c0 .739.601 1.337 1.342 1.337.741 0 1.342-.598 1.342-1.337 0-.354-.14-.673-.365-.912-.584-.082-1.168-.145-1.746-.18-.346.241-.573.64-.573 1.092M347.167 318.016c0 .03.007.06.01.09.85.152 1.69.34 2.504.549.105-.19.17-.406.17-.639 0-.738-.601-1.337-1.342-1.337-.741 0-1.342.599-1.342 1.337M343.845 317.731c.872.031 1.763.125 2.65.261-.014-.727-.607-1.313-1.34-1.313-.643 0-1.179.451-1.31 1.052M348.844 314.673c0 .739.6 1.338 1.342 1.338.74 0 1.342-.6 1.342-1.338 0-.738-.601-1.337-1.342-1.337-.741 0-1.342.599-1.342 1.337M346.832 313.336c-.741 0-1.342.599-1.342 1.337 0 .739.601 1.338 1.342 1.338.74 0 1.342-.6 1.342-1.338 0-.738-.601-1.337-1.342-1.337M348.509 312.667c.74 0 1.341-.598 1.341-1.337 0-.054-.01-.105-.015-.157-.798-.209-1.624-.397-2.46-.553-.13.207-.208.449-.208.71 0 .739.6 1.337 1.342 1.337M340.46 311.33c0 .739.6 1.337 1.341 1.337s1.342-.598 1.342-1.337c0-.47-.245-.882-.613-1.12-.491-.018-.993-.006-1.5.029-.344.242-.57.64-.57 1.091M340.481 317.807c.712-.072 1.416-.102 2.1-.075.174-.007.35-.01.527-.01-.135-.597-.668-1.043-1.307-1.043-.668 0-1.218.49-1.32 1.128M337.106 318.016c0 .137.026.265.064.39.862-.218 1.737-.396 2.607-.515-.065-.68-.632-1.212-1.33-1.212-.74 0-1.34.599-1.34 1.337M342.137 314.673c0 .739.6 1.338 1.341 1.338s1.342-.6 1.342-1.338c0-.738-.6-1.337-1.342-1.337-.74 0-1.341.599-1.341 1.337M340.125 313.336c-.742 0-1.342.599-1.342 1.337 0 .739.6 1.338 1.342 1.338.74 0 1.341-.6 1.341-1.338 0-.738-.6-1.337-1.341-1.337M338.448 312.667c.74 0 1.341-.598 1.341-1.337 0-.354-.14-.673-.365-.912-.746.116-1.495.275-2.234.46-.051.142-.084.293-.084.452 0 .739.6 1.337 1.342 1.337M333.752 318.016c0 .523.304.97.741 1.19.577-.198 1.172-.387 1.778-.56.101-.188.165-.4.165-.63 0-.738-.601-1.337-1.342-1.337-.741 0-1.342.599-1.342 1.337M331.74 316.679c-.74 0-1.341.599-1.341 1.337 0 .739.6 1.338 1.341 1.338s1.342-.599 1.342-1.338c0-.738-.6-1.337-1.342-1.337M335.43 314.673c0 .739.6 1.338 1.34 1.338.742 0 1.343-.6 1.343-1.338 0-.738-.601-1.337-1.342-1.337-.741 0-1.342.599-1.342 1.337M333.417 313.336c-.741 0-1.341.599-1.341 1.337 0 .739.6 1.338 1.341 1.338s1.342-.6 1.342-1.338c0-.738-.6-1.337-1.342-1.337M333.884 311.899c.215.453.674.768 1.21.768.741 0 1.342-.598 1.342-1.337 0-.084-.01-.165-.025-.245-.871.244-1.72.522-2.527.814M331.97 312.644c.198-.034.38-.11.538-.22-.183.074-.362.147-.537.22M330.064 320.022c-.742 0-1.342.599-1.342 1.338 0 .099.012.195.033.288.591-.3 1.4-.693 2.356-1.114-.245-.31-.621-.512-1.047-.512M328.387 316.679c-.742 0-1.342.599-1.342 1.337 0 .739.6 1.338 1.342 1.338.74 0 1.341-.599 1.341-1.338 0-.738-.6-1.337-1.341-1.337M325.033 316.679c-.741 0-1.342.599-1.342 1.337 0 .739.6 1.338 1.342 1.338.741 0 1.341-.599 1.341-1.338 0-.738-.6-1.337-1.341-1.337M328.875 314.066c-.095.183-.153.387-.153.607 0 .739.6 1.338 1.342 1.338.74 0 1.341-.6 1.341-1.338 0-.647-.46-1.186-1.073-1.31-.563.26-1.055.5-1.457.703M326.71 316.01c.74 0 1.341-.598 1.341-1.337 0-.059-.01-.115-.017-.172-.233.125-.36.197-.36.197-.627.283-1.305.546-2.017.795.246.313.623.518 1.053.518M326.71 320.022c-.741 0-1.342.599-1.342 1.338 0 .68.513 1.237 1.174 1.32.4-.15.782-.302 1.132-.46l.101-.056c.171-.225.276-.501.276-.804 0-.74-.6-1.338-1.341-1.338M320.338 318.016c0 .739.6 1.338 1.341 1.338s1.342-.6 1.342-1.338c0-.738-.6-1.337-1.342-1.337-.087 0-.172.01-.255.026l-.044.01c-.596.136-1.042.665-1.042 1.301M320.39 324.354c.791-.161 1.558-.336 2.302-.52-.246-.285-.606-.47-1.013-.47-.619 0-1.135.422-1.29.99M316.984 324.703c0 .086.01.17.025.252.888-.138 1.77-.291 2.637-.458-.1-.64-.65-1.132-1.32-1.132-.742 0-1.342.6-1.342 1.338M322.014 321.36c0 .738.601 1.337 1.342 1.337.741 0 1.342-.599 1.342-1.337 0-.74-.601-1.338-1.342-1.338-.74 0-1.342.599-1.342 1.338M320.002 320.022c-.74 0-1.341.599-1.341 1.338 0 .738.6 1.337 1.341 1.337s1.342-.599 1.342-1.337c0-.74-.6-1.338-1.342-1.338M318.325 319.354c.742 0 1.342-.6 1.342-1.338 0-.328-.123-.625-.32-.858-.758.152-1.521.292-2.284.422-.048.138-.08.283-.08.436 0 .739.602 1.338 1.342 1.338M313.63 324.703c0 .252.074.486.196.687.803-.094 1.614-.2 2.43-.319.034-.118.058-.24.058-.368 0-.739-.601-1.338-1.342-1.338-.741 0-1.342.6-1.342 1.338M311.618 323.365c-.741 0-1.341.6-1.341 1.338 0 .395.175.746.448.991.634-.049 1.285-.108 1.95-.176.176-.227.285-.507.285-.815 0-.739-.6-1.338-1.342-1.338M315.307 321.36c0 .738.6 1.337 1.341 1.337.742 0 1.342-.599 1.342-1.337 0-.74-.6-1.338-1.342-1.338-.74 0-1.341.599-1.341 1.338M313.295 320.022c-.741 0-1.342.599-1.342 1.338 0 .738.6 1.337 1.342 1.337.74 0 1.342-.599 1.342-1.337 0-.74-.601-1.338-1.342-1.338M309.941 320.022c-.74 0-1.341.599-1.341 1.338 0 .738.6 1.337 1.341 1.337s1.342-.599 1.342-1.337c0-.74-.6-1.338-1.342-1.338M313.638 318.099c.044.7.621 1.255 1.334 1.255.74 0 1.341-.599 1.341-1.338 0-.105-.015-.206-.038-.305-.89.143-1.773.272-2.637.388M311.618 319.354c.682 0 1.239-.509 1.324-1.165-.888.113-1.752.211-2.576.297.191.506.677.868 1.252.868M306.923 324.703c0 .497.275.926.679 1.156.455-.01.924-.026 1.418-.052.354-.24.586-.645.586-1.104 0-.739-.6-1.338-1.342-1.338-.74 0-1.341.6-1.341 1.338M306.587 320.022c-.74 0-1.341.599-1.341 1.338 0 .738.6 1.337 1.341 1.337.742 0 1.342-.599 1.342-1.337 0-.74-.6-1.338-1.342-1.338M304.574 321.377l.001-.018M308.264 319.354c.54 0 1.004-.32 1.216-.78-.827.08-1.607.146-2.32.2.243.35.646.58 1.104.58M304.91 319.354c.42 0 .788-.195 1.035-.495-.797.051-1.469.084-1.985.1.243.244.58.395.95.395M344.366 400.91c-.084-.016-.17-.026-.259-.026-.74 0-1.342.599-1.342 1.338 0 .436.213.82.538 1.064l1.063-2.376zM341.146 391.824c-.033.118-.057.24-.057.368 0 .489.265.912.658 1.145-.197-.5-.4-1.007-.6-1.513M339.076 390.855c-.74 0-1.341.599-1.341 1.337 0 .739.6 1.338 1.341 1.338.742 0 1.342-.6 1.342-1.338 0-.738-.6-1.337-1.342-1.337M339.649 388.092c-.15.215-.237.476-.237.757 0 .646.459 1.184 1.069 1.31-.275-.686-.55-1.372-.832-2.067M338.741 388.849c0-.738-.6-1.337-1.341-1.337-.26 0-.499.076-.704.203-.105.617-.192 1.299-.295 2.019.245.275.6.453.999.453.74 0 1.341-.6 1.341-1.338M339.136 386.837c-.293-.719-.58-1.43-.881-2.158-.139.063-.261.144-.376.235-.089.18-.144.378-.144.592 0 .739.6 1.337 1.342 1.337.02 0 .04-.005.06-.006M339.076 397.54c-.74 0-1.341.6-1.341 1.339 0 .738.6 1.337 1.341 1.337.742 0 1.342-.599 1.342-1.337 0-.739-.6-1.338-1.342-1.338M340.753 394.198c-.74 0-1.341.599-1.341 1.337 0 .739.6 1.338 1.341 1.338s1.342-.6 1.342-1.338c0-.738-.6-1.337-1.342-1.337M337.4 394.198c-.741 0-1.342.599-1.342 1.337 0 .739.6 1.338 1.342 1.338.74 0 1.341-.6 1.341-1.338 0-.738-.6-1.337-1.341-1.337M341.088 405.565c0 .496.275.925.678 1.156l1.083-2.42c-.132-.044-.271-.074-.419-.074-.74 0-1.342.6-1.342 1.338M339.076 404.227c-.74 0-1.341.6-1.341 1.338 0 .738.6 1.337 1.341 1.337.742 0 1.342-.599 1.342-1.337 0-.739-.6-1.338-1.342-1.338M342.095 402.222c0-.739-.6-1.338-1.342-1.338-.74 0-1.341.6-1.341 1.338 0 .738.6 1.337 1.341 1.337s1.342-.599 1.342-1.337M343.772 398.878c0-.738-.601-1.337-1.342-1.337-.74 0-1.342.599-1.342 1.337 0 .74.601 1.338 1.342 1.338.741 0 1.342-.599 1.342-1.338M335.388 395.535c0-.298-.102-.571-.268-.794-.316.72-.713 1.432-1.215 2.118.047.005.093.014.14.014.742 0 1.343-.6 1.343-1.338M337.065 392.192c0-.567-.356-1.049-.856-1.243-.146.833-.34 1.699-.622 2.567.046.005.09.014.136.014.74 0 1.342-.6 1.342-1.338M337.4 403.56c.74 0 1.341-.6 1.341-1.338 0-.739-.6-1.338-1.341-1.338s-1.342.599-1.342 1.338c0 .738.6 1.337 1.342 1.337M334.046 403.56c.741 0 1.342-.6 1.342-1.338 0-.739-.601-1.338-1.342-1.338-.74 0-1.342.599-1.342 1.338 0 .738.601 1.337 1.342 1.337M335.723 400.216c.741 0 1.341-.599 1.341-1.338 0-.738-.6-1.337-1.341-1.337s-1.342.599-1.342 1.337c0 .74.6 1.338 1.342 1.338M332.37 400.216c.74 0 1.34-.599 1.34-1.338 0-.45-.223-.845-.565-1.087-.55.596-1.203 1.161-1.969 1.688.222.435.67.737 1.193.737M337.4 410.245c.74 0 1.341-.599 1.341-1.337 0-.739-.6-1.338-1.341-1.338s-1.342.6-1.342 1.338c0 .738.6 1.337 1.342 1.337M334.046 410.245c.741 0 1.342-.599 1.342-1.337 0-.739-.601-1.338-1.342-1.338-.74 0-1.342.6-1.342 1.338 0 .738.601 1.337 1.342 1.337M335.723 406.902c.741 0 1.341-.599 1.341-1.337 0-.739-.6-1.338-1.341-1.338s-1.342.6-1.342 1.338c0 .738.6 1.337 1.342 1.337M332.37 406.902c.74 0 1.34-.599 1.34-1.337 0-.739-.6-1.338-1.34-1.338-.742 0-1.342.6-1.342 1.338 0 .738.6 1.337 1.341 1.337M334.046 416.932c.741 0 1.342-.6 1.342-1.338 0-.738-.601-1.337-1.342-1.337-.74 0-1.342.599-1.342 1.337 0 .739.601 1.338 1.342 1.338M335.723 413.589c.741 0 1.341-.6 1.341-1.338 0-.739-.6-1.337-1.341-1.337s-1.342.598-1.342 1.337.6 1.338 1.342 1.338M332.37 413.589c.74 0 1.34-.6 1.34-1.338 0-.739-.6-1.337-1.34-1.337-.742 0-1.342.598-1.342 1.337s.6 1.338 1.341 1.338M332.737 426.904l.834-1.864M332.37 420.275c.74 0 1.34-.6 1.34-1.338 0-.738-.6-1.337-1.34-1.337-.742 0-1.342.599-1.342 1.337 0 .739.6 1.338 1.341 1.338M330.692 403.56c.741 0 1.342-.6 1.342-1.338 0-.739-.6-1.338-1.342-1.338-.74 0-1.341.599-1.341 1.338 0 .738.6 1.337 1.341 1.337M325.997 402.222c0 .738.6 1.337 1.341 1.337.742 0 1.342-.599 1.342-1.337 0-.472-.246-.885-.617-1.123-.609.237-1.27.453-1.976.65-.056.148-.09.306-.09.473M330.692 410.245c.741 0 1.342-.599 1.342-1.337 0-.739-.6-1.338-1.342-1.338-.74 0-1.341.6-1.341 1.338 0 .738.6 1.337 1.341 1.337M327.339 410.245c.74 0 1.341-.599 1.341-1.337 0-.739-.6-1.338-1.341-1.338s-1.342.6-1.342 1.338c0 .738.6 1.337 1.342 1.337M325.327 408.908c0-.739-.601-1.338-1.342-1.338-.741 0-1.342.6-1.342 1.338 0 .738.6 1.337 1.342 1.337.74 0 1.342-.599 1.342-1.337M330.357 405.565c0-.739-.6-1.338-1.341-1.338-.742 0-1.342.6-1.342 1.338 0 .738.6 1.337 1.342 1.337.74 0 1.341-.599 1.341-1.337M327.003 405.565c0-.739-.6-1.338-1.341-1.338s-1.342.6-1.342 1.338c0 .738.6 1.337 1.342 1.337.74 0 1.341-.599 1.341-1.337M330.692 416.932c.741 0 1.342-.6 1.342-1.338 0-.738-.6-1.337-1.342-1.337-.74 0-1.341.599-1.341 1.337 0 .739.6 1.338 1.341 1.338M327.339 416.932c.74 0 1.341-.6 1.341-1.338 0-.738-.6-1.337-1.341-1.337s-1.342.599-1.342 1.337c0 .739.6 1.338 1.342 1.338M325.327 415.594c0-.738-.601-1.337-1.342-1.337-.741 0-1.342.599-1.342 1.337 0 .739.6 1.338 1.342 1.338.74 0 1.342-.6 1.342-1.338M330.357 412.251c0-.739-.6-1.337-1.341-1.337-.742 0-1.342.598-1.342 1.337s.6 1.338 1.342 1.338c.74 0 1.341-.6 1.341-1.338M327.003 412.251c0-.739-.6-1.337-1.341-1.337s-1.342.598-1.342 1.337.6 1.338 1.342 1.338c.74 0 1.341-.6 1.341-1.338M330.692 423.618c.741 0 1.342-.6 1.342-1.338 0-.738-.6-1.337-1.342-1.337-.74 0-1.341.599-1.341 1.337 0 .739.6 1.338 1.341 1.338M327.339 423.618c.74 0 1.341-.6 1.341-1.338 0-.738-.6-1.337-1.341-1.337s-1.342.599-1.342 1.337c0 .739.6 1.338 1.342 1.338M325.327 422.28c0-.738-.601-1.337-1.342-1.337-.741 0-1.342.599-1.342 1.337 0 .739.6 1.338 1.342 1.338.74 0 1.342-.6 1.342-1.338M330.357 418.937c0-.738-.6-1.337-1.341-1.337-.742 0-1.342.599-1.342 1.337 0 .739.6 1.338 1.342 1.338.74 0 1.341-.6 1.341-1.338M327.003 418.937c0-.738-.6-1.337-1.341-1.337s-1.342.599-1.342 1.337c0 .739.6 1.338 1.342 1.338.74 0 1.341-.6 1.341-1.338M327.339 430.304c.74 0 1.341-.599 1.341-1.337 0-.739-.6-1.338-1.341-1.338s-1.342.599-1.342 1.338c0 .738.6 1.337 1.342 1.337M325.327 428.967c0-.739-.601-1.338-1.342-1.338-.741 0-1.342.6-1.342 1.338 0 .738.6 1.337 1.342 1.337.74 0 1.342-.599 1.342-1.337M330.357 425.623c0-.738-.6-1.337-1.341-1.337-.742 0-1.342.599-1.342 1.337 0 .74.6 1.338 1.342 1.338.74 0 1.341-.599 1.341-1.338M327.003 425.623c0-.738-.6-1.337-1.341-1.337s-1.342.599-1.342 1.337c0 .74.6 1.338 1.342 1.338.74 0 1.341-.599 1.341-1.338M326.561 434.567c.692.345 1.4.717 2.117 1.108l.002-.022M327.003 432.31c0-.739-.6-1.338-1.341-1.338s-1.342.6-1.342 1.338c0 .738.6 1.337 1.342 1.337.74 0 1.341-.599 1.341-1.337M323.775 402.291c-.382.071-.742.126-1.106.183.118.618.661 1.085 1.316 1.085.74 0 1.341-.599 1.341-1.337 0-.089-.01-.175-.026-.259-.486.119-.993.23-1.525.328M321.915 402.59c-.876.12-1.697.198-2.472.241.224.431.669.728 1.188.728.612 0 1.123-.411 1.284-.97M318.446 402.866c-.855.015-1.649-.016-2.385-.087.213.46.675.78 1.217.78.505 0 .94-.282 1.168-.693M321.973 408.908c0-.739-.6-1.338-1.342-1.338-.74 0-1.342.6-1.342 1.338 0 .738.601 1.337 1.342 1.337.741 0 1.342-.599 1.342-1.337M318.62 408.908c0-.739-.602-1.338-1.342-1.338-.741 0-1.342.6-1.342 1.338 0 .738.6 1.337 1.342 1.337.74 0 1.341-.599 1.341-1.337M323.65 405.565c0-.739-.601-1.338-1.342-1.338-.74 0-1.342.6-1.342 1.338 0 .738.601 1.337 1.342 1.337.741 0 1.342-.599 1.342-1.337M320.296 405.565c0-.739-.6-1.338-1.342-1.338-.74 0-1.341.6-1.341 1.338 0 .738.6 1.337 1.341 1.337s1.342-.599 1.342-1.337M321.973 415.594c0-.738-.6-1.337-1.342-1.337-.74 0-1.342.599-1.342 1.337 0 .739.601 1.338 1.342 1.338.741 0 1.342-.6 1.342-1.338M318.62 415.594c0-.738-.602-1.337-1.342-1.337-.741 0-1.342.599-1.342 1.337 0 .739.6 1.338 1.342 1.338.74 0 1.341-.6 1.341-1.338M323.65 412.251c0-.739-.601-1.337-1.342-1.337-.74 0-1.342.598-1.342 1.337s.601 1.338 1.342 1.338c.741 0 1.342-.6 1.342-1.338M320.296 412.251c0-.739-.6-1.337-1.342-1.337-.74 0-1.341.598-1.341 1.337s.6 1.338 1.341 1.338 1.342-.6 1.342-1.338M321.973 422.28c0-.738-.6-1.337-1.342-1.337-.74 0-1.342.599-1.342 1.337 0 .739.601 1.338 1.342 1.338.741 0 1.342-.6 1.342-1.338M317.278 420.943c-.034 0-.066.007-.1.01.503.488.977 1.004 1.419 1.548.012-.072.022-.145.022-.22 0-.739-.6-1.338-1.341-1.338M323.65 418.937c0-.738-.601-1.337-1.342-1.337-.74 0-1.342.599-1.342 1.337 0 .739.601 1.338 1.342 1.338.741 0 1.342-.6 1.342-1.338M320.296 418.937c0-.738-.6-1.337-1.342-1.337-.74 0-1.341.599-1.341 1.337 0 .739.6 1.338 1.341 1.338s1.342-.6 1.342-1.338M322.572 430.999c.232.598.523 1.163.952 1.645.018.021.042.037.06.057.04-.124.066-.254.066-.391 0-.649-.464-1.189-1.078-1.311M321.684 428.147c.047.143.103.283.146.427.047.155.091.311.135.468.002-.025.008-.05.008-.075 0-.31-.11-.593-.289-.82M323.65 425.623c0-.738-.601-1.337-1.342-1.337-.74 0-1.342.599-1.342 1.337 0 .74.601 1.338 1.342 1.338.741 0 1.342-.599 1.342-1.338M315.181 402.673c-.955-.143-1.813-.353-2.582-.62-.007.056-.017.11-.017.168 0 .74.6 1.338 1.342 1.338.581 0 1.071-.37 1.257-.886M315.265 408.908c0-.739-.6-1.338-1.341-1.338s-1.342.6-1.342 1.338c0 .738.6 1.337 1.342 1.337.74 0 1.341-.599 1.341-1.337M316.942 405.565c0-.739-.6-1.338-1.341-1.338s-1.342.6-1.342 1.338c0 .738.6 1.337 1.342 1.337.74 0 1.341-.599 1.341-1.337M313.589 405.565c0-.739-.601-1.338-1.342-1.338-.741 0-1.342.6-1.342 1.338 0 .738.601 1.337 1.342 1.337.74 0 1.342-.599 1.342-1.337M315.6 417.6c-.634 0-1.162.44-1.302 1.03.57.41 1.14.818 1.68 1.252.09.071.172.152.26.226.418-.227.704-.663.704-1.17 0-.74-.6-1.338-1.341-1.338M315.265 415.594c0-.738-.6-1.337-1.341-1.337s-1.342.599-1.342 1.337c0 .739.6 1.338 1.342 1.338.74 0 1.341-.6 1.341-1.338M310.57 414.257c-.146 0-.283.029-.414.071.09.2.187.398.297.59.318.56.713 1.058 1.154 1.515.188-.23.305-.52.305-.839 0-.738-.6-1.337-1.342-1.337M316.942 412.251c0-.739-.6-1.337-1.341-1.337s-1.342.598-1.342 1.337.6 1.338 1.342 1.338c.74 0 1.341-.6 1.341-1.338M312.247 413.589c.741 0 1.342-.6 1.342-1.338 0-.739-.6-1.337-1.342-1.337-.741 0-1.342.598-1.342 1.337s.6 1.338 1.342 1.338M304.198 398.878c0 .74.6 1.338 1.342 1.338.74 0 1.341-.599 1.341-1.338 0-.738-.6-1.337-1.341-1.337s-1.342.599-1.342 1.337M304.768 404.72c.537.624 1.111 1.223 1.664 1.837.274-.245.45-.597.45-.992 0-.74-.602-1.338-1.342-1.338-.344 0-.654.133-.891.344.04.05.078.101.12.15M310.57 403.56c.741 0 1.342-.6 1.342-1.338 0-.167-.034-.324-.09-.471-.576-.246-1.104-.521-1.587-.82-.578.15-1.007.668-1.007 1.29 0 .74.601 1.338 1.342 1.338M305.875 402.222c0 .738.6 1.337 1.341 1.337s1.342-.599 1.342-1.337c0-.739-.6-1.338-1.342-1.338-.74 0-1.341.6-1.341 1.338M308.893 400.216c.094 0 .185-.01.273-.028-.59-.455-1.117-.937-1.603-1.422-.003.038-.011.074-.011.112 0 .74.6 1.338 1.341 1.338M309.068 410.931c.238.777.433 1.571.684 2.34.293-.246.483-.609.483-1.02 0-.68-.51-1.234-1.167-1.32M309.228 408.908c0 .738.601 1.337 1.342 1.337.741 0 1.342-.599 1.342-1.337 0-.739-.601-1.338-1.342-1.338-.74 0-1.342.6-1.342 1.338M308.47 409.373c.054-.145.088-.3.088-.465 0-.708-.553-1.281-1.251-1.328.446.56.846 1.15 1.163 1.793M308.893 406.902c.741 0 1.342-.599 1.342-1.337 0-.739-.6-1.338-1.342-1.338-.74 0-1.341.6-1.341 1.338 0 .738.6 1.337 1.341 1.337M303.863 396.873c.516 0 .96-.295 1.184-.721-.675-.637-1.376-1.162-2.2-1.48-.2.233-.326.532-.326.863 0 .739.6 1.338 1.342 1.338M301.85 395.535c0-.526-.307-.976-.75-1.195-.383-.006-.787.018-1.228.092.15.824.356 1.636.6 2.437.013 0 .025.004.037.004.74 0 1.342-.6 1.342-1.338M302.622 401.716c.377.632.777 1.25 1.217 1.84l.024.003c.74 0 1.341-.599 1.341-1.338 0-.738-.6-1.337-1.341-1.337-.562 0-1.04.344-1.241.832M301.763 400.141c.133.045.274.075.423.075.74 0 1.342-.599 1.342-1.338 0-.738-.601-1.337-1.342-1.337-.541 0-1.004.32-1.216.78.237.619.501 1.226.793 1.82"/>
        <path fill="#FFF" d="M253.183 270.04l-.323.844-39.499 207.318c-.183.987-1.159 1.645-2.178 1.476-1.011-.177-1.69-1.096-1.542-2.075l32.502-206.719.261-.843h10.779z"/>
        <path fill="#6A6B77" d="M242.713 270.458l-.17.55-32.488 206.66c-.115.757.412 1.46 1.2 1.6.793.132 1.553-.383 1.694-1.142l39.5-207.32.13-.348h-9.866zM211.5 480.122c-.127 0-.256-.01-.385-.031-1.244-.219-2.072-1.339-1.888-2.55l32.502-206.721.367-1.198h11.696l-.539 1.41-39.48 207.249c-.199 1.077-1.177 1.841-2.273 1.841z"/>
        <path fill="#FFF" d="M433.818 270.04l.323.844 39.5 207.318c.182.987 1.158 1.645 2.178 1.476 1.01-.177 1.69-1.096 1.542-2.075l-32.502-206.719-.262-.843h-10.779z"/>
        <path fill="#6A6B77" d="M434.427 270.458l.105.278 39.52 207.388c.141.763.907 1.272 1.698 1.143.784-.138 1.311-.842 1.197-1.602L444.444 270.95l-.154-.49h-9.863zm41.078 209.664c-1.1 0-2.078-.765-2.277-1.844l-39.499-207.316-.52-1.34h11.698l.352 1.139 32.516 206.778c.184 1.213-.644 2.333-1.883 2.551-.13.021-.26.032-.387.032z"/>
        <path fill="#6772DB" d="M466.175 278.186H218.432c-1.045 0-1.892-.845-1.892-1.887v-3.52h251.528v3.52c0 1.042-.848 1.887-1.893 1.887"/>
        <mask id="prefix__ec" fill="#fff">
            <use xlink:href="#prefix__eb"/>
        </mask>
        <path fill="#FFD15C" d="M174.619 272.728L509.989 272.728 509.989 261.913 174.619 261.913z" mask="url(#prefix__ec)"/>
        <path fill="#656EDA" d="M174.619 275.9L210.638 275.9 210.638 275.064 174.619 275.064zM473.969 275.9L509.989 275.9 509.989 275.064 473.969 275.064z" mask="url(#prefix__ec)"/>
        <path fill="#FFF" d="M331.823 254.121h-31.314c-.232 0-.42-.187-.42-.418 0-.23.188-.417.42-.417h31.314c.231 0 .42.186.42.417 0 .231-.189.418-.42.418" mask="url(#prefix__ec)"/>
        <g transform="translate(294.522 196.442)">
            <mask id="prefix__ef" fill="#fff">
                <use xlink:href="#prefix__ed"/>
            </mask>
            <path fill="url(#prefix__ee)" d="M3.576.106C1.704.106.195 1.632.223 3.497l.74 50.47c.026 1.827 1.52 3.294 3.353 3.294h88.28c1.872 0 3.381-1.527 3.354-3.392L95.21 3.4C95.183 1.573 93.69.106 91.856.106H3.576z" mask="url(#prefix__ef)"/>
        </g>
        <path fill="#353535" d="M389.085 253.703H296.97c-.793 0-1.436.641-1.436 1.432v5.346c0 .79.643 1.432 1.436 1.432h92.116c.794 0 1.437-.641 1.437-1.432v-5.346c0-.79-.643-1.432-1.437-1.432"/>
    </g>
</svg>
