<?xml version="1.0" encoding="UTF-8"?>
<svg width="16px" height="16px" viewBox="0 0 16 16" version="1.1" xmlns="http://www.w3.org/2000/svg" xmlns:xlink="http://www.w3.org/1999/xlink">
    <!-- Generator: sketchtool 52.6 (67491) - http://www.bohemiancoding.com/sketch -->
    <title>9378B9E1-32F9-4F45-A31A-2C5FA878A2DF</title>
    <desc>Created with sketchtool.</desc>
    <g id="symbols" stroke="none" stroke-width="1" fill="none" fill-rule="evenodd" stroke-linecap="round">
        <g id="ICON/16/logout" stroke="#00994E">
            <g id="Group-9" transform="translate(2.000000, 1.000000)">
                <path d="M12,6 L6,6" id="Stroke-1" stroke-linejoin="round"></path>
                <polyline id="Stroke-3" stroke-linejoin="round" points="11 4 13 6.00019808 11 8"></polyline>
                <path d="M9,8 L9,11.4285714 C9,11.7441176 8.74823151,12 8.43775838,12 L3.93569132,12 M0,9.53067227 L0,0.571428571 C0,0.255882353 0.251768489,0 0.562241617,0 L8.43775838,0 C8.74823151,0 9,0.255882353 9,0.571428571 L9,4.57142857" id="Stroke-5"></path>
                <path d="M0.56092437,1 L3.7197479,3.38329246 C3.89327731,3.4834308 4,3.66531472 4,3.86191285 L4,13.44413 C4,13.7510847 3.74411765,14 3.42857143,14 C3.32647059,14 3.22563025,13.973024 3.13739496,13.9223417 L0.56092437,12.4394768 C0.21302521,12.2396089 0,11.875841 0,11.4826448 L0,1.84320568" id="Stroke-7"></path>
            </g>
        </g>
    </g>
</svg>